<?xml version="1.0" encoding="UTF-8" standalone="no"?><!DOCTYPE svg PUBLIC "-//W3C//DTD SVG 1.1//EN" "http://www.w3.org/Graphics/SVG/1.1/DTD/svg11.dtd"><svg width="100%" height="100%" viewBox="0 0 221 232" version="1.1" xmlns="http://www.w3.org/2000/svg" xmlns:xlink="http://www.w3.org/1999/xlink" xml:space="preserve" xmlns:serif="http://www.serif.com/" style="fill-rule:evenodd;clip-rule:evenodd;stroke-linejoin:round;stroke-miterlimit:2;"><path d="M165.5,31.605c29.4,17.1 53.9,31.4 54.3,31.8c0.4,0.4 -22.6,14.3 -51.2,30.9c-30.6,17.8 -53.1,31.5 -54.5,33.2c-4.3,5.1 -4.7,14.5 -0.8,19.9c1,1.4 3.8,3.5 6.3,4.8c7.7,4.1 9.2,3.5 47.7,-19c19.1,-11 35.2,-20.1 35.7,-20.1c1.9,0 17.6,9.6 16.8,10.3c-0.4,0.4 -23.5,13.9 -51.3,30c-27.8,16.1 -51.7,30.4 -53.2,31.8c-3.5,3.3 -5.2,8.3 -4.5,13.9c0.6,5.4 3.1,9 8.3,12.1c7.6,4.5 9.2,3.9 48.6,-19l35.3,-20.6l4.5,2.6c2.5,1.4 6.4,3.8 8.8,5.2l4.3,2.7l-37.8,22c-20.8,12.1 -39.8,23.1 -42.3,24.3c-5.8,3 -16.6,3.7 -23.2,1.7c-6.6,-2.1 -100.9,-57.2 -106.9,-62.5c-2.8,-2.5 -6,-6.7 -7.6,-10c-2.5,-5 -2.8,-6.8 -2.8,-15.2c0,-8.9 0.2,-9.9 3.5,-15.9c1.9,-3.5 5.3,-7.9 7.6,-9.9l4.3,-3.5l-4.9,-4.4c-2.8,-2.5 -6.1,-6.8 -7.7,-10.1c-2.5,-5 -2.8,-6.8 -2.8,-15.2c0,-8 0.4,-10.3 2.4,-14.3c4.9,-10 7.7,-12 58.6,-41.6c26.9,-15.7 48.7,-27.8 49.5,-27.5c0.8,0.3 25.6,14.5 55,31.6Z" style="fill:#02656c;"/></svg>