<?xml version="1.0" encoding="UTF-8" standalone="no"?>
<!DOCTYPE svg PUBLIC "-//W3C//DTD SVG 1.1//EN" "http://www.w3.org/Graphics/SVG/1.1/DTD/svg11.dtd">
<svg width="100%" height="100%" viewBox="0 0 450 150" version="1.1" xmlns="http://www.w3.org/2000/svg" xmlns:xlink="http://www.w3.org/1999/xlink" xml:space="preserve" xmlns:serif="http://www.serif.com/" style="fill-rule:evenodd;clip-rule:evenodd;stroke-linejoin:round;stroke-miterlimit:2;">
    <g transform="matrix(1,0,0,1,-1900.12,-2720.37)">
        <g transform="matrix(1.7682,0,0,1,0,0)">
            <g transform="matrix(0.933356,0,0,0.729681,419.076,1886.12)">
                <path d="M975,1194.41C975,1166.2 964.876,1143.31 952.406,1143.31L724.927,1143.31C712.457,1143.31 702.333,1166.2 702.333,1194.41L702.333,1296.61C702.333,1324.82 712.457,1347.72 724.927,1347.72L952.406,1347.72C964.876,1347.72 975,1324.82 975,1296.61L975,1194.41Z" style="fill:rgb(44,80,140);"/>
            </g>
        </g>
        <g transform="matrix(1.7682,0,0,1,0,0)">
            <g transform="matrix(0.565546,0,0,1,27.1961,490.152)">
                <text x="1896.1px" y="2297.76px" style="font-family:'FiraSans-Bold', 'Fira Sans', sans-serif;font-weight:700;font-size:45.833px;fill:white;">A<tspan x="1923.83px 1953.94px 1990.65px 2004.77px 2035.85px 2049.96px 2075.9px 2101.34px 2130.31px 2157.58px 2184.62px 2198.74px 2231.1px " y="2297.76px 2297.76px 2297.76px 2297.76px 2297.76px 2297.76px 2297.76px 2297.76px 2297.76px 2297.76px 2297.76px 2297.76px 2297.76px ">DMINISTRACIÓN</tspan></text>
                <g transform="matrix(45.8333,0,0,45.8333,2208.98,2343.6)">
                </g>
                <text x="1948.6px" y="2343.6px" style="font-family:'FiraSans-Bold', 'Fira Sans', sans-serif;font-weight:700;font-size:45.833px;fill:white;">Y<tspan x="1976.52px 1988.07px 2014.97px 2039.77px 2068.32px 2095.13px 2109.25px 2136.29px 2150.41px 2182.76px " y="2343.6px 2343.6px 2343.6px 2343.6px 2343.6px 2343.6px 2343.6px 2343.6px 2343.6px 2343.6px "> SERVICIOS</tspan></text>
            </g>
        </g>
    </g>
</svg>
