<?xml version="1.0" encoding="UTF-8" standalone="no"?><!DOCTYPE svg PUBLIC "-//W3C//DTD SVG 1.1//EN" "http://www.w3.org/Graphics/SVG/1.1/DTD/svg11.dtd"><svg width="100%" height="100%" viewBox="0 0 160 60" version="1.1" xmlns="http://www.w3.org/2000/svg" xmlns:xlink="http://www.w3.org/1999/xlink" xml:space="preserve" xmlns:serif="http://www.serif.com/" style="fill-rule:evenodd;clip-rule:evenodd;stroke-linejoin:round;stroke-miterlimit:2;"><path d="M160,15l-0,30c-0,8.279 -6.721,15 -15,15l-130,-0c-8.279,-0 -15,-6.721 -15,-15l0,-30c0,-8.279 6.721,-15 15,-15l130,0c8.279,0 15,6.721 15,15Z" style="fill:#add8e6;"/><rect x="54.201" y="8.477" width="2.948" height="36.56" style="fill:#fff;fill-opacity:0.95;"/><rect x="24.717" y="8.771" width="2.948" height="39.214" style="fill:#fff;fill-opacity:0.95;"/><rect x="63.931" y="9.656" width="2.948" height="36.56" style="fill:#fff;fill-opacity:0.92;"/><rect x="39.459" y="11.13" width="2.948" height="29.779" style="fill:#fff;fill-opacity:0.94;"/><rect x="58.919" y="12.015" width="2.948" height="25.651" style="fill:#fff;fill-opacity:0.92;"/><rect x="20" y="12.899" width="2.948" height="32.138" style="fill:#fff;fill-opacity:0.92;"/><rect x="44.472" y="12.899" width="2.948" height="32.138" style="fill:#fff;fill-opacity:0.92;"/><rect x="29.73" y="13.489" width="2.948" height="28.6" style="fill:#fff;fill-opacity:0.92;"/><rect x="49.189" y="14.079" width="2.948" height="37.445" style="fill:#fff;fill-opacity:0.92;"/><path d="M129.091,15.553c5.196,-0.598 8.832,1.465 10.909,6.191c-1.29,0.578 -2.617,1.07 -3.98,1.475c-1.593,-2.796 -4.001,-3.828 -7.224,-3.096c-1.252,0.353 -2.186,1.09 -2.801,2.211c-0.464,4.114 -0.563,8.242 -0.295,12.383c0.488,2.744 2.159,4.12 5.013,4.128c2.439,-0.233 4.208,-1.412 5.307,-3.538c1.363,0.405 2.69,0.897 3.98,1.474c-2.237,4.952 -6.07,6.967 -11.499,6.045c-4.123,-0.88 -6.531,-3.386 -7.223,-7.519c-0.197,-4.029 -0.197,-8.059 -0,-12.088c0.814,-4.402 3.418,-6.957 7.813,-7.666Z" style="fill:#fff;fill-opacity:0.93;"/><path d="M73.366,16.143c4.325,-0.05 8.65,-0 12.973,0.147c2.662,0.848 4.186,2.666 4.57,5.454c0.427,2.258 0.083,4.371 -1.032,6.34c1.66,1.784 2.348,3.897 2.064,6.339c0.431,3.611 -0.944,6.215 -4.128,7.813c-4.799,0.424 -9.614,0.572 -14.447,0.442l0,-26.535Zm4.423,4.127c2.481,-0.119 4.939,0.028 7.371,0.443c1.071,0.597 1.562,1.531 1.474,2.801c0.088,1.269 -0.403,2.203 -1.474,2.8c-2.455,0.148 -4.912,0.197 -7.371,0.148l-0,-6.192Zm-0,10.615c2.655,-0.049 5.309,-0 7.96,0.147c1.366,0.763 2.054,1.942 2.064,3.538c-0.01,1.596 -0.698,2.775 -2.064,3.538c-2.651,0.148 -5.305,0.196 -7.96,0.148l-0,-7.371Z" style="fill:#fff;fill-opacity:0.95;"/><path d="M94.889,16.143l15.627,-0l-0,4.422l-11.204,0l0,6.487l9.73,-0l-0,4.422l-9.73,0l0,6.782l11.204,-0l-0,4.422l-15.627,0l0,-26.535Z" style="fill:#fff;fill-opacity:0.94;"/><rect x="113.464" y="16.143" width="4.423" height="26.536" style="fill:#fff;fill-opacity:0.95;"/><rect x="34.447" y="17.912" width="2.948" height="32.727" style="fill:#fff;fill-opacity:0.92;"/></svg>