<?xml version="1.0" encoding="UTF-8" standalone="no"?><!DOCTYPE svg PUBLIC "-//W3C//DTD SVG 1.1//EN" "http://www.w3.org/Graphics/SVG/1.1/DTD/svg11.dtd"><svg width="100%" height="100%" viewBox="0 0 160 60" version="1.1" xmlns="http://www.w3.org/2000/svg" xmlns:xlink="http://www.w3.org/1999/xlink" xml:space="preserve" xmlns:serif="http://www.serif.com/" style="fill-rule:evenodd;clip-rule:evenodd;stroke-linejoin:round;stroke-miterlimit:2;"><path d="M160,15l-0,30c-0,8.279 -6.721,15 -15,15l-130,-0c-8.279,-0 -15,-6.721 -15,-15l0,-30c0,-8.279 6.721,-15 15,-15l130,0c8.279,0 15,6.721 15,15Z" style="fill:#add8e6;"/><clipPath id="_clip1"><rect x="30" y="6.154" width="100" height="47.692"/></clipPath><g clip-path="url(#_clip1)"><g id="Layer1"><g><path d="M34.738,35.037l-4.18,-0l0,17.623l4.357,0c2.77,-0.002 4.202,-1.46 4.202,-4.178l-0,-1.436c-0,-1.864 -0.579,-3.198 -2.062,-3.777c1.233,-0.577 1.787,-1.735 1.787,-3.549l-0,-0.631c-0,-2.718 -1.233,-4.051 -4.104,-4.051l0,-0.001Zm-0.176,9.691c1.26,-0 1.789,0.504 1.789,2.141l-0,1.537c-0,1.311 -0.503,1.739 -1.436,1.739l-1.589,-0l0,-5.417l1.236,-0Zm0.101,-7.176c0.983,0 1.411,0.556 1.411,1.814l-0,0.983c-0,1.411 -0.629,1.865 -1.663,1.865l-1.085,-0l0,-4.662l1.337,0Z" style="fill:#fff;fill-rule:nonzero;"/><rect x="41.211" y="35.038" width="2.766" height="17.622" style="fill:#fff;"/><path d="M50.6,35.037l-4.18,-0l-0,17.623l4.357,0c2.769,-0.002 4.201,-1.46 4.201,-4.178l0,-1.436c0,-1.864 -0.578,-3.198 -2.061,-3.777c1.232,-0.577 1.786,-1.735 1.786,-3.549l0,-0.631c0,-2.718 -1.232,-4.051 -4.103,-4.051l-0,-0.001Zm-0.177,9.691c1.262,-0 1.789,0.504 1.789,2.141l0,1.537c0,1.311 -0.503,1.739 -1.435,1.739l-1.588,-0l0,-5.417l1.234,-0Zm0.102,-7.176c0.983,0 1.41,0.556 1.41,1.814l0,0.983c0,1.411 -0.629,1.865 -1.663,1.865l-1.083,-0l0,-4.662l1.336,0Z" style="fill:#fff;fill-rule:nonzero;"/><path d="M57.072,52.658l7.323,0l0,-2.513l-4.557,-0l0,-15.107l-2.766,0l0,17.62Z" style="fill:#fff;fill-rule:nonzero;"/><rect x="66.035" y="35.038" width="2.766" height="17.622" style="fill:#fff;"/><path d="M73.786,39.089c0,-1.26 0.556,-1.738 1.437,-1.738c0.882,-0 1.437,0.478 1.437,1.738l-0,9.519c-0,1.26 -0.555,1.738 -1.437,1.738c-0.881,0 -1.437,-0.478 -1.437,-1.738l0,-9.519Zm-2.766,9.343c-0,2.819 1.485,4.428 4.203,4.428c2.72,0 4.203,-1.609 4.203,-4.428l0,-9.167c0,-2.819 -1.483,-4.428 -4.203,-4.428c-2.718,-0 -4.203,1.609 -4.203,4.428l-0,9.167Z" style="fill:#fff;fill-rule:nonzero;"/><path d="M80.84,37.552l2.895,0l0,15.106l2.767,0l-0,-15.106l2.895,0l-0,-2.514l-8.557,0l-0,2.514Z" style="fill:#fff;fill-rule:nonzero;"/><path d="M93.803,37.552l4.783,0l0,-2.514l-7.551,0l0,17.62l7.551,0l0,-2.513l-4.783,-0l0,-5.165l3.802,-0l-0,-2.514l-3.802,0l0,-4.914Z" style="fill:#fff;fill-rule:nonzero;"/><path d="M106.142,46.091l-0,2.517c-0,1.26 -0.554,1.714 -1.436,1.714c-0.883,-0 -1.437,-0.454 -1.437,-1.714l0,-9.519c0,-1.26 0.554,-1.738 1.437,-1.738c0.882,-0 1.436,0.478 1.436,1.738l-0,1.889l2.615,0l-0,-1.713c-0,-2.819 -1.408,-4.428 -4.128,-4.428c-2.718,-0 -4.126,1.609 -4.126,4.428l0,9.167c0,2.819 1.408,4.428 4.126,4.428c2.72,-0 4.128,-1.609 4.128,-4.428l-0,-2.341l-2.615,-0Z" style="fill:#fff;fill-rule:nonzero;"/><path d="M117.017,35.038l-4.052,0l-2.819,17.62l2.542,0l0.478,-3.196l3.397,-0l0.479,3.196l2.793,0l-2.818,-17.62Zm-2.165,3.122l1.334,8.912l-2.668,0l1.334,-8.912Z" style="fill:#fff;fill-rule:nonzero;"/><path d="M121.197,39.266c-0,5.036 5.412,5.716 5.412,9.342c0,1.258 -0.554,1.712 -1.435,1.712c-0.882,0.002 -1.436,-0.452 -1.436,-1.712l0,-1.259l-2.615,0l0,1.083c0,2.819 1.408,4.428 4.128,4.428c2.718,0 4.126,-1.609 4.126,-4.428c-0,-5.037 -5.412,-5.717 -5.412,-9.343c-0,-1.26 0.504,-1.738 1.386,-1.738c0.883,-0 1.386,0.478 1.386,1.738l-0,0.731l2.615,0l0,-0.555c0,-2.819 -1.383,-4.428 -4.077,-4.428c-2.693,-0 -4.077,1.609 -4.077,4.428l-0.001,0.001Z" style="fill:#fff;fill-rule:nonzero;"/></g><g><g><path d="M37.742,21.603l-0,3.457c-0,1.729 -0.76,2.351 -1.973,2.351c-1.211,-0 -1.972,-0.622 -1.972,-2.351l-0,-13.069c-0,-1.728 0.761,-2.385 1.972,-2.385c1.213,0 1.973,0.657 1.973,2.385l-0,2.594l3.59,-0l0,-2.351c0,-3.871 -1.934,-6.08 -5.666,-6.08c-3.734,-0 -5.666,2.209 -5.666,6.08l-0,12.584c-0,3.87 1.932,6.08 5.666,6.08c3.732,0 5.666,-2.21 5.666,-6.08l0,-3.215l-3.59,0Z" style="fill:#fff;fill-rule:nonzero;"/><path d="M53.569,6.431l-5.563,-0l-3.869,24.191l3.489,-0l0.657,-4.39l4.665,0l0.657,4.39l3.835,-0l-3.871,-24.191Zm-2.971,4.286l1.831,12.235l-3.663,0l1.832,-12.235Z" style="fill:#fff;fill-rule:nonzero;"/><path d="M66.429,6.428l-5.738,-0l-0,24.195l5.98,0c3.801,-0.001 5.771,-2.005 5.771,-5.737l-0,-1.971c-0,-2.56 -0.796,-4.39 -2.833,-5.184c1.693,-0.794 2.453,-2.383 2.453,-4.874l-0,-0.865c-0,-3.732 -1.693,-5.561 -5.633,-5.561l0,-0.003Zm-0.243,13.306c1.731,-0 2.457,0.691 2.457,2.94l0,2.109c0,1.799 -0.692,2.386 -1.972,2.386l-2.18,0l-0,-7.435l1.695,-0Zm0.139,-9.851c1.349,0 1.938,0.76 1.938,2.489l0,1.35c0,1.936 -0.866,2.56 -2.285,2.56l-1.487,-0l-0,-6.399l1.834,0Z" style="fill:#fff;fill-rule:nonzero;"/><rect x="76.212" y="6.431" width="3.798" height="24.191" style="fill:#fff;"/><path d="M84.266,30.622l6.012,-0c3.802,-0 5.667,-2.107 5.667,-5.977l-0,-12.239c-0,-3.871 -1.865,-5.975 -5.667,-5.975l-6.012,-0l0,24.191Zm5.943,-20.739c1.211,0 1.939,0.622 1.939,2.351l-0,12.584c-0,1.728 -0.728,2.351 -1.939,2.351l-2.144,0l-0,-17.286l2.144,0Z" style="fill:#fff;fill-rule:nonzero;"/></g><g><rect x="104.757" y="6.738" width="4.926" height="18.848" style="fill:#fff;"/><rect x="104.757" y="28.049" width="25.18" height="2.849" style="fill:#fff;"/><rect x="111.954" y="6.738" width="4.926" height="18.848" style="fill:#fff;"/><path d="M123.435,6.154l-4.623,1.7l6.5,17.689l4.625,-1.698l-6.502,-17.691Z" style="fill:#fff;"/></g></g></g></g></svg>