<?xml version="1.0" encoding="UTF-8" standalone="no"?><!DOCTYPE svg PUBLIC "-//W3C//DTD SVG 1.1//EN" "http://www.w3.org/Graphics/SVG/1.1/DTD/svg11.dtd"><svg width="100%" height="100%" viewBox="0 0 160 60" version="1.1" xmlns="http://www.w3.org/2000/svg" xmlns:xlink="http://www.w3.org/1999/xlink" xml:space="preserve" xmlns:serif="http://www.serif.com/" style="fill-rule:evenodd;clip-rule:evenodd;stroke-linejoin:round;stroke-miterlimit:2;"><path d="M160,15l-0,30c-0,8.279 -6.721,15 -15,15l-130,-0c-8.279,-0 -15,-6.721 -15,-15l0,-30c0,-8.279 6.721,-15 15,-15l130,0c8.279,0 15,6.721 15,15Z" style="fill:#add8e6;"/><clipPath id="_clip1"><rect x="25" y="4.072" width="110" height="51.856"/></clipPath><g clip-path="url(#_clip1)"><path d="M64.168,4.08c1.393,-0.061 2.699,0.234 3.916,0.883c0.046,0.252 -0.027,0.473 -0.22,0.662c-1.02,1.24 -2.179,2.325 -3.476,3.254c-1.696,0.857 -3.498,1.188 -5.406,0.993c-0.489,0.047 -0.93,0.212 -1.324,0.497c-0.102,-0.416 -0.047,-0.821 0.165,-1.214c0.845,-1.36 1.856,-2.592 3.035,-3.696c1.003,-0.732 2.107,-1.192 3.31,-1.379Z" style="fill:#fff;"/><path d="M50.817,9.927c0.158,-0.222 0.231,-0.479 0.221,-0.772c0.761,-2.433 2.379,-3.996 4.855,-4.689c0.323,-0.086 0.636,-0.067 0.937,0.055c-0.029,1.818 -0.36,3.583 -0.992,5.296c-0.718,1.453 -1.803,2.538 -3.255,3.255c-0.579,0.505 -1.076,1.075 -1.49,1.71c-0.11,-0.257 -0.22,-0.515 -0.331,-0.772c-0.087,-1.366 -0.069,-2.727 0.055,-4.083Z" style="fill:#fff;"/><path d="M48.28,16.106l-0,0.441l-0.331,0c-1.14,-0.459 -2.243,-0.993 -3.31,-1.599c-2.178,-1.738 -3.08,-4 -2.703,-6.786c0.042,-0.624 0.208,-1.212 0.496,-1.765c1.671,0.917 3.087,2.13 4.248,3.641c0.184,0.368 0.368,0.735 0.552,1.103c0.274,1.199 0.458,2.413 0.551,3.641c0.139,0.459 0.304,0.9 0.497,1.324Z" style="fill:#fff;"/><path d="M73.215,6.507c2.508,-0.169 4.586,0.676 6.233,2.538c0.074,0.11 0.074,0.22 0,0.331c-1.424,0.868 -2.951,1.512 -4.578,1.931c-1.468,0.298 -2.902,0.188 -4.303,-0.331c-1.264,-0.54 -2.514,-1.11 -3.752,-1.711c0.438,-0.139 0.879,-0.268 1.324,-0.386c1.049,-0.616 2.116,-1.204 3.2,-1.765c0.622,-0.256 1.247,-0.458 1.876,-0.607Z" style="fill:#fff;"/><path d="M81.269,7.28c1.037,-0.049 1.368,0.411 0.993,1.379c-0.989,0.483 -1.449,0.17 -1.379,-0.938c0.151,-0.133 0.28,-0.28 0.386,-0.441Z" style="fill:#fff;"/><path d="M83.696,14.01c-0.666,0.015 -1.328,-0.022 -1.986,-0.111c-1.481,-0.388 -2.952,-0.811 -4.413,-1.268c1.302,-0.486 2.442,-1.221 3.42,-2.207c2.96,-2.007 5.902,-1.97 8.827,0.11c0.473,0.461 0.4,0.829 -0.221,1.104c-1.039,0.632 -2.105,1.221 -3.2,1.765c-0.774,0.341 -1.583,0.543 -2.427,0.607Z" style="fill:#fff;"/><path d="M90.316,9.155c0.716,-0.038 0.937,0.275 0.662,0.938c-0.708,0.286 -0.984,0.047 -0.828,-0.717c0.08,-0.06 0.135,-0.134 0.166,-0.221Z" style="fill:#fff;"/><path d="M51.038,9.155c0.01,0.293 -0.063,0.55 -0.221,0.772c-0.009,-0.292 0.064,-0.55 0.221,-0.772Z" style="fill:#fff;"/><path d="M104.769,9.707c1.096,-0.07 1.427,0.39 0.993,1.379c-1.014,0.383 -1.437,0.034 -1.269,-1.048c0.116,-0.097 0.208,-0.207 0.276,-0.331Z" style="fill:#fff;"/><path d="M91.75,10.7c1.059,-0.03 1.39,0.43 0.993,1.379c-1.013,0.455 -1.473,0.142 -1.379,-0.938c0.152,-0.133 0.281,-0.28 0.386,-0.441Z" style="fill:#fff;"/><path d="M101.349,10.7c1.058,-0.03 1.389,0.43 0.993,1.379c-1.013,0.455 -1.473,0.142 -1.379,-0.938c0.152,-0.133 0.28,-0.28 0.386,-0.441Z" style="fill:#fff;"/><path d="M59.754,10.81c0.884,-0.018 1.766,0 2.648,0.055c0.222,0.075 0.369,0.222 0.442,0.442c-0.709,1.583 -1.573,3.073 -2.593,4.468c-0.684,0.719 -1.474,1.289 -2.372,1.71c-1.392,0.418 -2.789,0.823 -4.193,1.214c-0.295,0.081 -0.589,0.118 -0.883,0.11c0.817,-0.99 1.387,-2.112 1.711,-3.365c1.016,-2.397 2.763,-3.942 5.24,-4.634Z" style="fill:#fff;"/><path d="M115.802,10.92c0.571,-0.045 1.123,0.029 1.655,0.221c-0.564,0.831 -1.337,1.106 -2.317,0.828c-0.251,-0.026 -0.472,-0.118 -0.662,-0.276c0.449,-0.261 0.89,-0.518 1.324,-0.773Z" style="fill:#fff;"/><path d="M64.498,11.141c1.028,-0.132 1.395,0.291 1.104,1.269c-1.057,0.562 -1.516,0.249 -1.379,-0.938c0.115,-0.096 0.207,-0.207 0.275,-0.331Z" style="fill:#fff;"/><path d="M93.847,11.141c0.984,-0.117 1.94,0.048 2.868,0.497c0.606,0.458 0.937,1.065 0.993,1.82c-1.102,0.02 -2.076,-0.311 -2.924,-0.993c-0.288,-0.468 -0.6,-0.909 -0.937,-1.324Z" style="fill:#fff;"/><path d="M55.01,11.693c0.871,0.024 1.054,0.373 0.552,1.048c-0.472,0.167 -0.729,0.001 -0.773,-0.497c0.076,-0.185 0.15,-0.369 0.221,-0.551Z" style="fill:#fff;"/><path d="M48.942,11.803c0.743,-0.112 0.963,0.182 0.662,0.883c-0.851,0.179 -1.072,-0.115 -0.662,-0.883Z" style="fill:#fff;"/><path d="M108.3,12.244c0.292,0.01 0.55,-0.063 0.772,-0.22c1.508,-0.151 3.016,-0.115 4.524,0.11c0.119,0.096 0.138,0.206 0.055,0.331c-0.712,1.01 -1.687,1.617 -2.924,1.821c-1.622,0.496 -3.24,0.496 -4.854,-0c-0.086,-0.119 -0.068,-0.248 0.055,-0.387c0.633,-0.784 1.424,-1.336 2.372,-1.655Z" style="fill:#fff;"/><path d="M109.072,12.024c-0.222,0.157 -0.48,0.23 -0.772,0.22c0.222,-0.157 0.48,-0.23 0.772,-0.22Z" style="fill:#fff;"/><path d="M68.36,12.134c2.3,-0.285 4.305,0.34 6.013,1.876c0.074,0.11 0.074,0.22 0,0.331c-1.427,1.093 -2.99,1.957 -4.689,2.593c-1.052,0.26 -2.119,0.333 -3.2,0.22c-1.55,-0.453 -3.095,-0.913 -4.633,-1.379c0.652,-0.253 1.277,-0.565 1.875,-0.938c1.301,-1.33 2.846,-2.231 4.634,-2.703Z" style="fill:#fff;"/><path d="M119.664,12.134c0.78,-0.037 1.553,0.018 2.317,0.166c0.303,0.124 0.579,0.289 0.827,0.496c0.083,0.125 0.065,0.236 -0.055,0.331c-1.283,0.66 -2.607,1.23 -3.972,1.71c-1.431,0.162 -2.865,0.162 -4.303,0c1.612,-1.136 3.34,-2.037 5.186,-2.703Z" style="fill:#fff;"/><path d="M75.421,12.575c0.488,-0.082 0.783,0.121 0.883,0.607c-0.254,0.5 -0.604,0.592 -1.048,0.276c-0.099,-0.331 -0.043,-0.625 0.165,-0.883Z" style="fill:#fff;"/><path d="M42.543,20.299c-0.601,-0.153 -1.226,-0.227 -1.876,-0.221c-2.085,-0.558 -3.538,-1.846 -4.358,-3.862c-0.387,-0.921 -0.626,-1.877 -0.717,-2.868c2.074,0.109 3.987,0.716 5.737,1.82c1.012,0.902 1.766,1.987 2.262,3.255c0.437,0.548 0.915,1.063 1.434,1.545c0.053,0.104 0.072,0.215 0.055,0.331l-2.537,-0Z" style="fill:#fff;"/><path d="M54.348,13.568c0.097,-0.014 0.17,0.023 0.221,0.111c-0.456,0.894 -1.008,1.721 -1.655,2.482c-0.675,0.557 -1.429,0.722 -2.262,0.497c0.495,-1.109 1.286,-1.973 2.372,-2.593c0.334,-0.06 0.665,-0.133 0.993,-0.221c0.159,-0.041 0.269,-0.133 0.331,-0.276Z" style="fill:#fff;"/><path d="M101.018,13.789c1.485,-0.02 2.809,0.422 3.972,1.324c-1.09,0.847 -2.303,1.086 -3.641,0.717c-0.884,-0.425 -1.693,-0.958 -2.427,-1.6c0.437,-0.091 0.878,-0.146 1.324,-0.165c0.287,-0.043 0.545,-0.135 0.772,-0.276Z" style="fill:#fff;"/><path d="M81.71,13.899c0.658,0.089 1.32,0.126 1.986,0.111c-0.255,0.073 -0.531,0.11 -0.827,0.11c-0.42,0.022 -0.806,-0.052 -1.159,-0.221Z" style="fill:#fff;"/><path d="M90.316,13.899c0.716,-0.038 0.937,0.275 0.662,0.938c-0.708,0.286 -0.984,0.047 -0.828,-0.717c0.08,-0.06 0.135,-0.134 0.166,-0.221Z" style="fill:#fff;"/><path d="M127.608,15.885c-0.997,-0.073 -1.99,-0.184 -2.979,-0.331c0.506,-0.156 0.856,-0.487 1.048,-0.993c0.402,-0.326 0.861,-0.528 1.379,-0.606c1.642,-0.141 3.26,-0.012 4.855,0.386c0.112,0.055 0.131,0.129 0.055,0.22c-1.229,1.12 -2.682,1.561 -4.358,1.324Z" style="fill:#fff;"/><path d="M85.13,14.451c0.74,-0.107 0.997,0.187 0.773,0.883c-0.902,0.239 -1.159,-0.055 -0.773,-0.883Z" style="fill:#fff;"/><path d="M77.959,14.672c2.522,-0.209 4.765,0.471 6.73,2.041c-1.834,1.611 -3.893,2.862 -6.178,3.751c-1.091,0.257 -2.194,0.33 -3.31,0.221c-0.578,-0.193 -1.166,-0.34 -1.766,-0.442c-0.997,-0.011 -1.99,-0.029 -2.979,-0.055c1.195,-1.433 2.519,-2.739 3.972,-3.916c1.066,-0.802 2.242,-1.335 3.531,-1.6Z" style="fill:#fff;"/><path d="M94.729,14.672c0.443,-0.019 0.884,-0 1.324,0.055c1.121,0.303 2.114,0.836 2.979,1.6c-1.524,0.897 -3.031,0.879 -4.523,-0.055c-0.498,-0.406 -0.976,-0.829 -1.435,-1.269c0.579,-0.056 1.131,-0.166 1.655,-0.331Z" style="fill:#fff;"/><path d="M87.447,15.223c2.56,-0.312 4.785,0.387 6.675,2.097c0.34,0.467 0.524,0.982 0.552,1.544c-0.083,0.069 -0.175,0.125 -0.276,0.166c-1.431,0.151 -2.866,0.188 -4.303,0.11c-1.857,-0.46 -3.181,-1.563 -3.972,-3.31c0.418,-0.263 0.859,-0.465 1.324,-0.607Z" style="fill:#fff;"/><path d="M49.493,15.444c0.723,-0.032 0.944,0.28 0.662,0.938c-0.5,0.296 -0.794,0.168 -0.882,-0.386c-0.007,-0.223 0.066,-0.406 0.22,-0.552Z" style="fill:#fff;"/><path d="M124.629,15.554c0.989,0.147 1.982,0.258 2.979,0.331c-0.884,0.019 -1.766,0 -2.648,-0.055c-0.159,-0.024 -0.306,-0.079 -0.441,-0.165c0.013,-0.067 0.05,-0.104 0.11,-0.111Z" style="fill:#fff;"/><path d="M107.528,15.885c1.485,-0.049 2.957,0.061 4.413,0.331c0.037,0.056 0.073,0.111 0.11,0.166c-0.464,1.118 -1.273,1.89 -2.427,2.317c-1.524,0.636 -3.105,0.856 -4.744,0.662c-0.51,-0.09 -0.988,-0.256 -1.435,-0.497c0.911,-1.613 2.272,-2.606 4.083,-2.979Z" style="fill:#fff;"/><path d="M113.265,15.996c1.067,-0.112 1.398,0.311 0.993,1.268c-1.004,0.507 -1.426,0.194 -1.269,-0.937c0.115,-0.097 0.207,-0.207 0.276,-0.331Z" style="fill:#fff;"/><path d="M48.28,16.106c0.105,0.157 0.142,0.34 0.11,0.552c-0.176,0.029 -0.323,-0.008 -0.441,-0.111l0.331,0l-0,-0.441Z" style="fill:#fff;"/><path d="M25.662,16.768c3.619,-0.661 6.561,0.424 8.826,3.255c0.683,0.445 1.345,0.905 1.986,1.379c-1.948,0.761 -3.97,1.073 -6.068,0.938c-2.782,-0.852 -4.585,-2.673 -5.406,-5.462c0.247,0.033 0.467,-0.004 0.662,-0.11Z" style="fill:#fff;"/><path d="M100.577,16.768c0.684,-0.051 0.905,0.243 0.662,0.883c-0.895,0.232 -1.116,-0.062 -0.662,-0.883Z" style="fill:#fff;"/><path d="M117.788,17.099c2.208,-0.02 4.415,0.017 6.62,0.11c-0.065,0.344 -0.249,0.62 -0.551,0.828c-2.281,1.002 -4.671,1.461 -7.172,1.379c-1.125,0.05 -2.228,-0.079 -3.31,-0.386c1.303,-1.038 2.774,-1.682 4.413,-1.931Z" style="fill:#fff;"/><path d="M95.281,17.54c0.829,0.069 0.976,0.418 0.441,1.048c-0.533,0.056 -0.772,-0.183 -0.717,-0.717c0.077,-0.131 0.169,-0.241 0.276,-0.331Z" style="fill:#fff;"/><path d="M61.078,17.651c0.668,0.002 0.889,0.314 0.662,0.937c-0.522,0.313 -0.853,0.185 -0.993,-0.386c0.066,-0.212 0.176,-0.396 0.331,-0.551Z" style="fill:#fff;"/><path d="M50.266,17.761l0.772,-0c-0.096,1.117 -0.446,2.147 -1.048,3.089c-0.837,0.612 -1.665,1.237 -2.482,1.876c-0.459,-2.467 0.46,-4.122 2.758,-4.965Z" style="fill:#fff;"/><path d="M62.623,21.402c-0.219,0.038 -0.366,-0.036 -0.441,-0.221c0.791,-1.324 1.857,-2.372 3.199,-3.144c1.416,-0.445 2.777,-0.317 4.082,0.386c0.113,0.055 0.131,0.129 0.056,0.221c-1.043,1.209 -2.312,2.074 -3.807,2.592c-1.038,0.022 -2.068,0.077 -3.089,0.166Z" style="fill:#fff;"/><path d="M98.26,18.092c1.179,-0.049 2.319,0.117 3.42,0.496c-0.418,0.56 -0.97,0.927 -1.655,1.104c-1.409,0.217 -2.733,-0.022 -3.972,-0.717c0.764,-0.235 1.499,-0.53 2.207,-0.883Z" style="fill:#fff;"/><path d="M47.066,18.202c0.741,-0.094 0.998,0.2 0.773,0.883c-0.514,0.378 -0.845,0.268 -0.993,-0.331c0.075,-0.185 0.149,-0.369 0.22,-0.552Z" style="fill:#fff;"/><path d="M111.61,18.644c1.027,-0.132 1.394,0.291 1.103,1.268c-1.058,0.56 -1.518,0.247 -1.379,-0.937c0.115,-0.097 0.207,-0.207 0.276,-0.331Z" style="fill:#fff;"/><path d="M127.056,18.644c1.025,-0.134 1.393,0.289 1.103,1.268c-1.05,0.569 -1.51,0.256 -1.379,-0.937c0.116,-0.097 0.208,-0.207 0.276,-0.331Z" style="fill:#fff;"/><path d="M58.982,21.733c-0.793,-0.036 -1.565,0.001 -2.317,0.11c-0.26,0.119 -0.517,0.119 -0.772,0c0.688,-1.111 1.608,-1.976 2.758,-2.593c0.625,-0.073 1.25,-0.073 1.876,0c0.404,0.092 0.771,0.257 1.103,0.497c-0.688,0.931 -1.57,1.593 -2.648,1.986Z" style="fill:#fff;"/><path d="M82.593,21.292c-0.294,-0.074 -0.589,-0.147 -0.883,-0.221c0.668,-0.648 1.404,-1.218 2.207,-1.71c1.428,-0.511 2.678,-0.235 3.751,0.827c-0.803,0.604 -1.685,1.064 -2.648,1.379c-0.835,0.113 -1.644,0.021 -2.427,-0.275Z" style="fill:#fff;"/><path d="M52.362,19.306c0.771,-0.019 0.955,0.294 0.552,0.937c-0.782,0.053 -0.966,-0.26 -0.552,-0.937Z" style="fill:#fff;"/><path d="M123.967,20.188c-0.519,-0.007 -1.034,0.03 -1.545,0.111c0.278,-0.163 0.591,-0.237 0.938,-0.221c0.224,0.001 0.427,0.037 0.607,0.11Z" style="fill:#fff;"/><path d="M40.667,20.078c0.65,-0.006 1.275,0.068 1.876,0.221c-0.653,0.031 -1.278,-0.043 -1.876,-0.221Z" style="fill:#fff;"/><path d="M123.967,20.188c0.486,0.1 0.927,0.284 1.324,0.552c-0.782,0.947 -1.738,1.664 -2.869,2.151c-0.849,0.026 -1.695,0.081 -2.537,0.166c-0.074,-0.037 -0.147,-0.074 -0.221,-0.11c0.564,-0.987 1.299,-1.814 2.207,-2.483c0.182,-0.067 0.366,-0.122 0.551,-0.165c0.511,-0.081 1.026,-0.118 1.545,-0.111Z" style="fill:#fff;"/><path d="M104.769,20.299c1.025,-0.134 1.393,0.289 1.104,1.268c-1.051,0.569 -1.51,0.256 -1.38,-0.937c0.116,-0.097 0.208,-0.207 0.276,-0.331Z" style="fill:#fff;"/><path d="M54.127,20.299c0.163,-0.029 0.311,0.007 0.442,0.11c-0.346,0.843 -0.935,1.449 -1.766,1.82c-0.521,0.11 -1.018,0.055 -1.489,-0.165c0.298,-0.736 0.832,-1.269 1.6,-1.6c0.425,-0.019 0.83,-0.075 1.213,-0.165Z" style="fill:#fff;"/><path d="M94.398,20.299c0.94,0.021 1.271,0.481 0.993,1.379c-1.058,0.559 -1.518,0.246 -1.379,-0.938c0.152,-0.133 0.28,-0.28 0.386,-0.441Z" style="fill:#fff;"/><path d="M101.79,20.85c0.517,-0.018 1.031,0 1.545,0.055c-0.534,1.491 -1.564,2.447 -3.089,2.869c-0.959,0.092 -1.915,0.073 -2.869,-0.055c0.712,-0.51 1.337,-1.117 1.876,-1.821c0.762,-0.578 1.608,-0.927 2.537,-1.048Z" style="fill:#fff;"/><path d="M117.126,20.85c0.752,-0.208 1.156,0.068 1.214,0.828c-0.092,0.471 -0.387,0.71 -0.883,0.717c-0.466,-0.065 -0.687,-0.341 -0.662,-0.828c-0.012,-0.299 0.099,-0.538 0.331,-0.717Z" style="fill:#fff;"/><path d="M43.536,21.071c0.622,0.145 1.21,0.384 1.765,0.717c0.436,0.523 0.804,1.093 1.103,1.71c-1.785,0.174 -2.741,-0.635 -2.868,-2.427Z" style="fill:#fff;"/><path d="M81.71,21.071c0.294,0.074 0.589,0.147 0.883,0.221c-0.339,0.035 -0.67,-0.002 -0.993,-0.111c0.013,-0.067 0.05,-0.103 0.11,-0.11Z" style="fill:#fff;"/><path d="M37.688,21.181c1.082,0.022 2.112,0.261 3.089,0.717c0.619,0.398 1.078,0.931 1.379,1.6c0.263,0.281 0.538,0.538 0.828,0.773c-0.807,0.128 -1.616,0.146 -2.427,0.055c-1.698,-0.356 -2.654,-1.404 -2.869,-3.145Z" style="fill:#fff;"/><path d="M74.649,21.071c1.024,0.033 2.036,0.143 3.034,0.331c-0.359,1.206 -1.15,2.033 -2.372,2.482c-0.437,0.092 -0.878,0.147 -1.324,0.166c-0.964,-0.138 -1.92,-0.321 -2.869,-0.552c0.661,-0.532 1.287,-1.102 1.876,-1.71c0.53,-0.317 1.082,-0.556 1.655,-0.717Z" style="fill:#fff;"/><path d="M109.403,21.181c1.882,-0.043 3.757,0.031 5.627,0.221c-0.069,0.411 -0.289,0.724 -0.662,0.938c-1.61,0.734 -3.301,1.139 -5.075,1.213c-1.518,0.109 -3.026,0.035 -4.524,-0.22c-0.105,-0.127 -0.069,-0.237 0.111,-0.331c1.343,-1.03 2.851,-1.637 4.523,-1.821Z" style="fill:#fff;"/><path d="M62.182,21.181c0.075,0.185 0.222,0.259 0.441,0.221c-0.157,0.105 -0.341,0.142 -0.552,0.11c-0.026,-0.142 0.011,-0.253 0.111,-0.331Z" style="fill:#fff;"/><path d="M70.015,21.402c1.149,-0.118 1.48,0.341 0.993,1.379c-0.92,0.345 -1.343,0.032 -1.269,-0.938c0.073,-0.164 0.165,-0.311 0.276,-0.441Z" style="fill:#fff;"/><path d="M88.109,21.402c1.081,-0.097 1.412,0.344 0.993,1.324c-0.937,0.441 -1.396,0.147 -1.379,-0.883c0.152,-0.133 0.281,-0.28 0.386,-0.441Z" style="fill:#fff;"/><path d="M104.769,51.633c1.084,0.121 2.187,0.195 3.31,0.22c8.937,0.455 17.8,1.503 26.59,3.145c0.444,0.294 0.407,0.551 -0.11,0.772c-0.147,0.018 -0.295,0.037 -0.442,0.055c-13.02,-2.338 -26.149,-3.478 -39.388,-3.42c-10.478,-0.03 -20.923,0.54 -31.334,1.71c-4.132,0.498 -8.251,1.05 -12.357,1.655c-0.39,-0.201 -0.427,-0.459 -0.11,-0.772c2.774,-1.192 5.146,-2.939 7.116,-5.241c1.079,-1.871 1.631,-3.894 1.655,-6.068c0.17,-1.579 0.022,-3.123 -0.441,-4.634c-0.339,-0.696 -0.799,-1.303 -1.379,-1.821c-2.093,-1.746 -4.373,-3.217 -6.841,-4.413c-1.697,-2.116 -3.72,-3.845 -6.068,-5.185c-0.669,-0.52 -1.165,-1.164 -1.49,-1.931c-0.088,-0.194 -0.069,-0.378 0.056,-0.552c1.05,0.885 2.117,1.75 3.199,2.593c0.47,0.362 0.985,0.454 1.545,0.276c0.271,-1.644 0.087,-3.225 -0.552,-4.744c0.347,0.033 0.586,0.216 0.717,0.551c0.364,1.234 0.658,2.484 0.883,3.751c0.452,1.586 1.206,3.002 2.262,4.248c0.288,0.209 0.601,0.374 0.938,0.497c0.179,-0.087 0.344,-0.198 0.496,-0.331c0.08,-0.591 0.172,-1.18 0.276,-1.766c0.228,-0.412 0.559,-0.706 0.993,-0.882c0.165,0.018 0.257,0.11 0.276,0.276c-0.864,1.692 -0.533,3.089 0.993,4.192c0.514,0.229 0.992,0.155 1.434,-0.221c0.974,-0.606 1.434,-1.47 1.379,-2.592c-1.577,-2.014 -3.581,-3.448 -6.013,-4.303c-0.098,-0.091 -0.134,-0.202 -0.11,-0.331c0.454,0.041 0.896,0.096 1.324,0.165c-0.754,-0.827 -1.508,-1.655 -2.262,-2.482c-0.065,-0.109 -0.028,-0.182 0.11,-0.221c1.177,0.735 2.225,1.636 3.145,2.703c0.471,0.365 0.986,0.641 1.544,0.828c0.207,0.012 0.373,-0.062 0.497,-0.221c0.104,-1.669 -0.209,-3.25 -0.938,-4.744c0.218,-0.119 0.42,-0.082 0.607,0.11c0.391,0.567 0.593,1.193 0.607,1.876c0.129,0.024 0.24,-0.013 0.331,-0.11c0.177,-0.318 0.324,-0.649 0.441,-0.993c0.091,-0.098 0.201,-0.135 0.331,-0.111c-0.094,0.522 -0.222,1.036 -0.386,1.545c-0.097,0.744 -0.06,1.48 0.11,2.206c0.425,0.942 0.922,1.843 1.49,2.704c0.187,0.038 0.334,-0.036 0.441,-0.221c0.255,-0.055 0.512,-0.073 0.772,-0.055c-0.065,0.352 -0.194,0.683 -0.386,0.993c-0.082,0.362 -0.008,0.693 0.221,0.993c0.489,0.582 1.059,1.06 1.71,1.434c0.119,-0.095 0.138,-0.206 0.055,-0.331c-0.653,-1.556 -1.242,-3.137 -1.765,-4.744c-0.175,-0.617 -0.249,-1.242 -0.221,-1.876c0.44,1.027 0.881,2.056 1.324,3.089c0.149,0.296 0.369,0.517 0.662,0.662c0.139,-0.028 0.25,-0.102 0.331,-0.22c0.713,-1.2 1.172,-2.487 1.379,-3.862c0.162,0.187 0.236,0.407 0.221,0.662c-0.189,1.235 -0.465,2.449 -0.828,3.641c-0.073,0.736 -0.073,1.471 0,2.207c0.118,0.491 0.32,0.932 0.607,1.324c0.682,-0.48 1.179,-1.105 1.49,-1.876c1.168,-3.283 1.995,-6.63 2.482,-10.04c0.173,0.134 0.265,0.318 0.276,0.552c0.074,0.698 0.074,1.397 -0,2.096c-0.314,1.235 -0.497,2.485 -0.552,3.751c0.347,0.398 0.733,0.416 1.159,0.055c1.118,-0.733 2.147,-1.56 3.089,-2.482c0.074,0.037 0.147,0.073 0.221,0.11c-0.358,0.615 -0.799,1.167 -1.324,1.655c0.515,0.074 1.029,0.147 1.544,0.221c-0.128,0.119 -0.275,0.211 -0.441,0.276c-1.957,0.156 -3.226,1.167 -3.806,3.034c-0.16,0.625 -0.362,1.231 -0.607,1.82c0.588,-0.032 1.048,-0.308 1.379,-0.827c0.395,-0.779 0.726,-1.588 0.993,-2.428c0.174,-0.335 0.45,-0.482 0.827,-0.441c-0.114,0.48 -0.114,0.958 0,1.434c0.8,-0.34 1.407,-0.891 1.821,-1.655c0.411,-1.013 0.779,-2.042 1.103,-3.089c0.161,-0.376 0.363,-0.726 0.607,-1.048c0.125,-0.083 0.236,-0.064 0.331,0.055c-0.708,1.103 -0.966,2.298 -0.772,3.586c0.184,0.074 0.367,0.074 0.551,-0c1.247,-0.549 2.258,-1.376 3.034,-2.483c0.054,0.267 0.017,0.524 -0.11,0.773c-1.181,1.329 -2.523,2.451 -4.027,3.365c0.368,0.037 0.736,0.073 1.103,0.11c-0.724,0.041 -1.294,0.353 -1.71,0.938c-1.201,0.573 -2.359,1.217 -3.475,1.931c-1.2,0.618 -2.414,1.207 -3.641,1.765c-1.571,1.285 -2.361,2.959 -2.372,5.02c-0.127,2.91 0.168,5.779 0.882,8.606c0.444,1.642 0.94,3.26 1.49,4.855c13.134,-1.334 26.301,-1.775 39.498,-1.324Z" style="fill:#fff;"/><path d="M56.665,21.843c0.752,-0.109 1.524,-0.146 2.317,-0.11c-0.305,0.127 -0.636,0.201 -0.993,0.221c-0.439,-0.074 -0.88,-0.11 -1.324,-0.111Z" style="fill:#fff;"/><path d="M90.095,21.733c0.026,-0.066 0.081,-0.103 0.166,-0.11c0.668,0.17 1.348,0.262 2.041,0.275c2.021,0.204 3.179,1.289 3.475,3.255c-1.256,0.049 -2.451,-0.227 -3.585,-0.827c-0.758,-0.502 -1.291,-1.182 -1.6,-2.041c-0.116,-0.234 -0.281,-0.418 -0.497,-0.552Z" style="fill:#fff;"/><path d="M49.383,22.064c0.74,-0.107 0.997,0.187 0.772,0.883c-0.811,0.221 -1.068,-0.073 -0.772,-0.883Z" style="fill:#fff;"/><path d="M79.724,22.064l0.662,-0c-0.132,1.438 -0.904,2.302 -2.317,2.593c-0.516,0.078 -1.031,0.114 -1.544,0.11c0.293,-0.697 0.697,-1.322 1.213,-1.876c0.606,-0.432 1.268,-0.708 1.986,-0.827Z" style="fill:#fff;"/><path d="M66.484,24.602l0,0.33l-1.324,0c-1.352,-0.4 -1.978,-1.32 -1.875,-2.758c1.184,0.123 2.158,0.638 2.924,1.545c0.188,0.266 0.28,0.56 0.275,0.883Z" style="fill:#fff;"/><path d="M81.82,22.616c0.662,-0.129 0.938,0.128 0.828,0.772c-0.497,0.365 -0.847,0.273 -1.048,-0.276c0.002,-0.202 0.075,-0.368 0.22,-0.496Z" style="fill:#fff;"/><path d="M59.865,22.616c1.096,-0.07 1.427,0.389 0.993,1.379c-0.975,0.461 -1.397,0.149 -1.269,-0.938c0.073,-0.164 0.165,-0.311 0.276,-0.441Z" style="fill:#fff;"/><path d="M54.348,23.498c0.887,-0.017 1.402,0.406 1.545,1.269c-0.035,0.864 -0.476,1.195 -1.324,0.993c-0.7,-0.371 -0.939,-0.941 -0.717,-1.71c0.116,-0.238 0.282,-0.422 0.496,-0.552Z" style="fill:#fff;"/><path d="M84.689,23.719c1.075,-0.144 2.031,0.114 2.869,0.772c-1.593,1.768 -3.543,2.283 -5.848,1.545c0.78,-1.078 1.773,-1.85 2.979,-2.317Z" style="fill:#fff;"/><path d="M114.368,24.16c0.845,-0.073 1.709,-0.11 2.593,-0.11c1.182,-0.025 2.341,0.049 3.475,0.221c-2.021,-0.09 -4.044,-0.127 -6.068,-0.111Z" style="fill:#fff;"/><path d="M114.368,24.16c2.024,-0.016 4.047,0.021 6.068,0.111c0.165,-0.01 0.276,0.064 0.331,0.22c-0.143,0.269 -0.327,0.508 -0.551,0.717c-1.624,0.839 -3.353,1.354 -5.186,1.545c-1.689,0.163 -3.38,0.2 -5.075,0.11c-0.601,-0.083 -1.19,-0.211 -1.765,-0.386c1.772,-1.51 3.831,-2.283 6.178,-2.317Z" style="fill:#fff;"/><path d="M68.801,24.16c1.469,-0.088 1.856,0.537 1.159,1.876c-0.65,0.626 -1.238,0.589 -1.765,-0.111c-0.074,-0.367 -0.074,-0.735 -0,-1.103c0.225,-0.206 0.427,-0.427 0.606,-0.662Z" style="fill:#fff;"/><path d="M32.503,24.381c3.285,-0.456 6.08,0.482 8.385,2.813c0.653,0.345 1.315,0.658 1.986,0.938c0.147,0.074 0.147,0.147 -0,0.221c-2.449,0.971 -4.987,1.394 -7.613,1.269c-2.787,-0.526 -4.626,-2.126 -5.517,-4.8c0.945,-0.084 1.864,-0.231 2.759,-0.441Z" style="fill:#fff;"/><path d="M46.294,24.381c1.08,0.032 1.54,0.584 1.379,1.655c-0.269,0.521 -0.692,0.687 -1.269,0.496c-0.584,-0.379 -0.786,-0.912 -0.607,-1.6c0.113,-0.241 0.279,-0.425 0.497,-0.551Z" style="fill:#fff;"/><path d="M104.769,24.491c0.919,-0.166 1.305,0.202 1.159,1.103c-1.039,0.779 -1.517,0.521 -1.435,-0.772c0.116,-0.096 0.208,-0.206 0.276,-0.331Z" style="fill:#fff;"/><path d="M66.484,24.602c0.104,0.117 0.14,0.264 0.111,0.441c-0.5,0.035 -0.978,-0.002 -1.435,-0.111l1.324,0l0,-0.33Z" style="fill:#fff;"/><path d="M74.539,25.374c1.347,0.039 1.568,0.572 0.662,1.6c-0.859,0.171 -1.208,-0.178 -1.049,-1.049c0.11,-0.201 0.239,-0.385 0.387,-0.551Z" style="fill:#fff;"/><path d="M100.466,25.815c2.205,-0.148 4.191,0.441 5.958,1.765c-1.482,1.235 -3.174,1.621 -5.075,1.159c-1.429,-0.549 -2.679,-1.358 -3.751,-2.427c1.006,0.027 1.962,-0.139 2.868,-0.497Z" style="fill:#fff;"/><path d="M61.63,25.815c1.152,0.133 1.464,0.722 0.938,1.765c-0.613,0.51 -1.091,0.4 -1.435,-0.331c-0.146,-0.589 0.02,-1.067 0.497,-1.434Z" style="fill:#fff;"/><path d="M79.614,26.477c1.047,-0.032 2.003,0.243 2.868,0.828c-0.815,0.812 -1.772,1.401 -2.868,1.765c-1.041,-0.028 -2.071,-0.084 -3.089,-0.166c0.793,-1.129 1.823,-1.938 3.089,-2.427Z" style="fill:#fff;"/><path d="M43.536,30.559c1.218,-0.053 2.358,0.222 3.42,0.828c0.279,0.334 0.536,0.683 0.772,1.048c-0.648,0.177 -1.273,0.416 -1.875,0.717c-0.656,0.155 -1.318,0.192 -1.986,0.11c-0.835,-0.269 -1.644,-0.6 -2.428,-0.992c-0.105,-0.08 -0.123,-0.172 -0.055,-0.276c0.609,-0.662 1.326,-1.14 2.152,-1.435Z" style="fill:#fff;"/><path d="M70.677,39.607c0.371,-0.048 0.684,0.062 0.938,0.331l5.185,9.157c0.216,0.915 -0.133,1.301 -1.048,1.158c-0.427,-0.616 -0.814,-1.259 -1.158,-1.93c-1.848,-1.902 -3.926,-2.215 -6.234,-0.938c-0.746,0.562 -1.279,1.279 -1.6,2.151c-0.422,0.873 -0.974,0.984 -1.655,0.331c-0.089,-0.486 0.022,-0.927 0.331,-1.324l4.634,-8.164c0.184,-0.276 0.386,-0.533 0.607,-0.772Zm0.221,2.427c-0.61,1.091 -1.235,2.176 -1.876,3.255c1.228,-0.234 2.46,-0.216 3.696,0.055c0.139,-0.039 0.176,-0.112 0.11,-0.221l-1.654,-2.869c-0.079,-0.097 -0.171,-0.17 -0.276,-0.22Z" style="fill:#fff;"/><path d="M94.95,39.607c0.371,-0.048 0.683,0.062 0.938,0.331l5.185,9.157c0.216,0.915 -0.134,1.301 -1.048,1.158c-0.428,-0.616 -0.814,-1.259 -1.158,-1.93c-2.226,-2.212 -4.543,-2.322 -6.951,-0.331c-0.355,0.427 -0.612,0.905 -0.773,1.434c-0.199,0.307 -0.439,0.583 -0.717,0.827c-0.635,0.139 -1.003,-0.119 -1.103,-0.772c1.719,-3.383 3.595,-6.674 5.627,-9.874Zm0.221,2.427c-0.611,1.091 -1.236,2.176 -1.876,3.255c1.249,-0.236 2.499,-0.218 3.751,0.055c0.113,-0.056 0.131,-0.129 0.055,-0.221c-0.595,-0.928 -1.147,-1.884 -1.655,-2.869c-0.078,-0.097 -0.17,-0.17 -0.275,-0.22Z" style="fill:#fff;"/><path d="M115.361,39.607c0.407,-0.059 0.757,0.051 1.048,0.331c0.074,3.309 0.074,6.619 0,9.929c-0.488,0.724 -0.966,0.724 -1.434,0c-0.074,-3.236 -0.074,-6.472 -0,-9.709c0.11,-0.201 0.239,-0.385 0.386,-0.551Z" style="fill:#fff;"/><path d="M124.077,39.607c0.599,-0.048 1.022,0.21 1.269,0.772l4.524,7.944c0.211,0.368 0.377,0.754 0.496,1.158c-0.147,0.809 -0.588,1.03 -1.324,0.662c-1.034,-2.705 -2.983,-3.845 -5.847,-3.42c-0.901,0.276 -1.655,0.773 -2.262,1.489c-0.383,0.708 -0.806,1.388 -1.269,2.041c-0.912,0.151 -1.261,-0.235 -1.048,-1.158c1.794,-3.184 3.614,-6.347 5.461,-9.488Zm0.221,2.427c-0.558,1.078 -1.146,2.145 -1.765,3.199l0.11,0.111c0.557,-0.16 1.127,-0.234 1.71,-0.221c0.691,0.017 1.371,0.072 2.041,0.166c-0.621,-1.04 -1.227,-2.088 -1.82,-3.145c-0.074,-0.083 -0.166,-0.12 -0.276,-0.11Z" style="fill:#fff;"/><path d="M79.945,43.468c-0.332,0.674 -0.406,1.373 -0.221,2.096c0.325,1.668 1.318,2.716 2.979,3.145c1.033,0.117 1.989,-0.104 2.869,-0.662c0.555,-0.519 1.07,-1.07 1.544,-1.655c0.789,-0.019 1.101,0.367 0.938,1.158c-1.589,2.504 -3.814,3.332 -6.675,2.483c-1.594,-0.712 -2.642,-1.907 -3.144,-3.586c-0.575,-3.283 0.694,-5.508 3.806,-6.675c1.688,-0.303 3.232,0.028 4.634,0.993c0.39,0.353 0.74,0.739 1.048,1.158c0.176,1.063 -0.247,1.412 -1.269,1.049c-1.58,-1.926 -3.419,-2.22 -5.516,-0.883c-0.398,0.415 -0.729,0.875 -0.993,1.379Z" style="fill:#fff;"/><path d="M104.107,43.799c-0.166,0.315 -0.239,0.665 -0.22,1.048c0,0.261 0.037,0.5 0.11,0.717c0.325,1.668 1.318,2.716 2.979,3.145c1.032,0.117 1.989,-0.104 2.869,-0.662c0.555,-0.519 1.07,-1.07 1.544,-1.655c0.789,-0.019 1.101,0.367 0.938,1.158c-1.595,2.506 -3.82,3.333 -6.675,2.483c-2.516,-1.262 -3.601,-3.303 -3.255,-6.124c1.22,-3.616 3.666,-4.885 7.337,-3.806c1.096,0.434 1.905,1.17 2.427,2.207c-0.132,0.673 -0.537,0.931 -1.213,0.772c-1.09,-1.409 -2.525,-1.997 -4.303,-1.765c-1.267,0.402 -2.113,1.23 -2.538,2.482Z" style="fill:#fff;"/><path d="M79.945,43.468c-0.177,0.685 -0.25,1.384 -0.221,2.096c-0.185,-0.723 -0.111,-1.422 0.221,-2.096Z" style="fill:#fff;"/><path d="M104.107,43.799c-0.085,0.585 -0.122,1.173 -0.11,1.765c-0.073,-0.217 -0.11,-0.456 -0.11,-0.717c-0.019,-0.383 0.054,-0.733 0.22,-1.048Z" style="fill:#fff;"/><path d="M104.769,51.633c1.128,-0.042 2.231,0.032 3.31,0.22c-1.123,-0.025 -2.226,-0.099 -3.31,-0.22Z" style="fill:#fff;"/></g></svg>