<?xml version="1.0" encoding="UTF-8" standalone="no"?>
<!DOCTYPE svg PUBLIC "-//W3C//DTD SVG 1.1//EN" "http://www.w3.org/Graphics/SVG/1.1/DTD/svg11.dtd">
<svg width="100%" height="100%" viewBox="0 0 246 339" version="1.1" xmlns="http://www.w3.org/2000/svg" xmlns:xlink="http://www.w3.org/1999/xlink" xml:space="preserve" xmlns:serif="http://www.serif.com/" style="fill-rule:evenodd;clip-rule:evenodd;stroke-linejoin:round;stroke-miterlimit:2;">
    <g transform="matrix(1,0,0,1,-1092.48,-2271.32)">
        <g transform="matrix(1.7682,0,0,1,0,0)">
            <g transform="matrix(1,0,0,1,331.067,0)">
                <g transform="matrix(0.565546,0,0,1,74.6985,246.245)">
                    <path d="M548.471,2029.07C545.914,2026.51 542.446,2025.08 538.831,2025.08C510.727,2025.08 387.288,2025.08 387.288,2025.08C380.506,2025.08 375,2030.58 375,2037.37L375,2351.54C375,2358.32 380.506,2363.83 387.288,2363.83L608.472,2363.83C615.254,2363.83 620.76,2358.32 620.76,2351.54L620.76,2106.99C620.76,2103.39 619.328,2099.93 616.778,2097.38C603.622,2084.22 561.642,2042.24 548.471,2029.07Z" style="fill:rgb(44,80,140);"/>
                </g>
                <g transform="matrix(0.565546,0,0,1,74.6985,246.245)">
                    <path d="M526.804,2037.58L526.804,2106.73C526.804,2113.51 532.31,2119.02 539.092,2119.02L608.26,2119.02L608.26,2194.45L387.5,2194.45L387.5,2037.58L526.804,2037.58Z" style="fill:white;"/>
                </g>
            </g>
        </g>
        <g transform="matrix(1.7682,0,0,1,0,0)">
            <g transform="matrix(0.748251,0,0,1.32306,-61.289,-665.129)">
                <path d="M970.207,2390.19L967.968,2390.19L967.968,2399.66C967.968,2401.78 968.245,2404.55 968.295,2404.96L961.163,2390.19L958.041,2390.19L958.041,2407.55L960.281,2407.55L960.281,2399.59C960.281,2396.36 960.079,2394.25 959.953,2392.81L967.01,2407.55L970.207,2407.55L970.207,2390.19Z" style="fill:white;fill-rule:nonzero;"/>
                <path d="M980.11,2393.97C976.33,2393.97 974.166,2396.82 974.166,2400.92C974.166,2405.13 976.304,2407.85 980.085,2407.85C983.84,2407.85 986.004,2405.01 986.004,2400.9C986.004,2396.69 983.89,2393.97 980.11,2393.97ZM980.11,2395.83C982.303,2395.83 983.513,2397.45 983.513,2400.9C983.513,2404.38 982.303,2405.99 980.085,2405.99C977.867,2405.99 976.657,2404.38 976.657,2400.92C976.657,2397.45 977.892,2395.83 980.11,2395.83Z" style="fill:white;fill-rule:nonzero;"/>
                <path d="M995.527,2393.97C993.915,2393.97 992.68,2394.98 991.975,2396.97L991.748,2394.27L989.761,2394.27L989.761,2407.55L992.076,2407.55L992.076,2399.97C992.63,2397.42 993.587,2396.24 995.25,2396.24C995.729,2396.24 996.006,2396.29 996.409,2396.39L996.837,2394.12C996.434,2394.02 995.955,2393.97 995.527,2393.97Z" style="fill:white;fill-rule:nonzero;"/>
                <path d="M1012.74,2393.97C1010.95,2393.97 1009.74,2394.93 1008.78,2396.36C1008.28,2394.85 1007.07,2393.97 1005.43,2393.97C1003.69,2393.97 1002.48,2394.88 1001.6,2396.21L1001.4,2394.27L999.41,2394.27L999.41,2407.55L1001.73,2407.55L1001.73,2398.13C1002.61,2396.72 1003.41,2395.78 1004.85,2395.78C1005.86,2395.78 1006.72,2396.36 1006.72,2398.35L1006.72,2407.55L1009.03,2407.55L1009.03,2398.13C1009.94,2396.72 1010.72,2395.78 1012.16,2395.78C1013.17,2395.78 1014.02,2396.36 1014.02,2398.35L1014.02,2407.55L1016.34,2407.55L1016.34,2398.03C1016.34,2395.53 1014.9,2393.97 1012.74,2393.97Z" style="fill:white;fill-rule:nonzero;"/>
                <path d="M1029.72,2404.45L1029.72,2398.38C1029.72,2395.61 1028.26,2393.97 1025.06,2393.97C1023.57,2393.97 1022.11,2394.27 1020.47,2394.88L1021.05,2396.56C1022.41,2396.11 1023.64,2395.86 1024.63,2395.86C1026.47,2395.86 1027.4,2396.56 1027.4,2398.48L1027.4,2399.46L1025.36,2399.46C1021.65,2399.46 1019.51,2401 1019.51,2403.85C1019.51,2406.22 1021.1,2407.85 1023.75,2407.85C1025.36,2407.85 1026.77,2407.25 1027.7,2405.86C1028.11,2407.17 1028.96,2407.7 1030.3,2407.85L1030.82,2406.24C1030.14,2405.99 1029.72,2405.61 1029.72,2404.45ZM1024.28,2406.12C1022.76,2406.12 1021.98,2405.28 1021.98,2403.72C1021.98,2401.91 1023.22,2401 1025.66,2401L1027.4,2401L1027.4,2404.05C1026.64,2405.43 1025.64,2406.12 1024.28,2406.12Z" style="fill:white;fill-rule:nonzero;"/>
                <path d="M1038.08,2393.97C1035.33,2393.97 1033.3,2395.51 1033.3,2397.62C1033.3,2399.49 1034.43,2400.72 1037.3,2401.48C1039.87,2402.16 1040.53,2402.66 1040.53,2403.97C1040.53,2405.23 1039.42,2405.99 1037.68,2405.99C1036.24,2405.99 1035.01,2405.51 1033.95,2404.7L1032.72,2406.12C1033.88,2407.12 1035.49,2407.85 1037.73,2407.85C1040.43,2407.85 1042.97,2406.59 1042.97,2403.82C1042.97,2401.5 1041.36,2400.39 1038.56,2399.69C1036.42,2399.13 1035.71,2398.63 1035.71,2397.55C1035.71,2396.49 1036.64,2395.81 1038.16,2395.81C1039.39,2395.81 1040.43,2396.19 1041.61,2396.94L1042.59,2395.48C1041.33,2394.53 1039.95,2393.97 1038.08,2393.97Z" style="fill:white;fill-rule:nonzero;"/>
                <path d="M990.451,2432.74L992.97,2432.74L987.428,2415.39L984.406,2415.39L978.839,2432.74L981.257,2432.74L982.567,2428.38L989.141,2428.38L990.451,2432.74ZM983.146,2426.45L985.867,2417.37L988.562,2426.45L983.146,2426.45Z" style="fill:white;fill-rule:nonzero;"/>
                <path d="M1000.2,2415.39L995.644,2415.39L995.644,2432.74L998.034,2432.74L998.034,2426.37L1000.23,2426.37C1004.06,2426.37 1006.95,2424.73 1006.95,2420.75C1006.95,2417.1 1004.39,2415.39 1000.2,2415.39ZM1000.13,2424.48L998.034,2424.48L998.034,2417.25L1000.18,2417.25C1002.75,2417.25 1004.41,2418.18 1004.41,2420.78C1004.41,2423.73 1002.7,2424.48 1000.13,2424.48Z" style="fill:white;fill-rule:nonzero;"/>
                <path d="M1018.01,2432.74L1020.53,2432.74L1014.99,2415.39L1011.97,2415.39L1006.4,2432.74L1008.82,2432.74L1010.13,2428.38L1016.7,2428.38L1018.01,2432.74ZM1010.71,2426.45L1013.43,2417.37L1016.12,2426.45L1010.71,2426.45Z" style="fill:white;fill-rule:nonzero;"/>
            </g>
        </g>
    </g>
</svg>
