<?xml version="1.0" encoding="UTF-8" standalone="no"?>
<!DOCTYPE svg PUBLIC "-//W3C//DTD SVG 1.1//EN" "http://www.w3.org/Graphics/SVG/1.1/DTD/svg11.dtd">
<svg width="100%" height="100%" viewBox="0 0 450 450" version="1.1" xmlns="http://www.w3.org/2000/svg" xmlns:xlink="http://www.w3.org/1999/xlink" xml:space="preserve" xmlns:serif="http://www.serif.com/" style="fill-rule:evenodd;clip-rule:evenodd;stroke-linejoin:round;stroke-miterlimit:2;">
    <g transform="matrix(1,0,0,1,-1350,-150)">
        <g transform="matrix(1.7682,0,0,1,0,0)">
            <g transform="matrix(0.678655,0,0,1.2,458.092,-480)">
                <circle cx="637.5" cy="712.5" r="187.5" style="fill:rgb(44,80,140);"/>
            </g>
        </g>
        <g transform="matrix(1.7682,0,0,1,0,0)">
            <g id="Logo-Facultad-Ciencias-Jurídicas.svg" serif:id="Logo Facultad Ciencias Jurídicas.svg" transform="matrix(0.388932,0,0,0.68771,890.735,375)">
                <g transform="matrix(1,0,0,1,-234,-234)">
                    <g>
                        <path d="M234.001,7.089C358.979,7.089 460.911,109.021 460.911,233.999C460.911,358.977 358.979,460.908 234.001,460.908C109.023,460.908 7.092,358.977 7.092,233.999C7.092,109.021 109.023,7.089 234.001,7.089M234.001,0C362.884,0 468,105.116 468,233.999C468,362.882 362.884,468 234.001,468C105.118,468 0,362.882 0,233.999C0,105.116 105.118,0 234.001,0" style="fill:white;"/>
                        <path d="M225.474,408.546C132.939,404.102 59.25,327.64 59.25,233.996C59.25,137.501 137.503,59.247 234.001,59.247C330.497,59.247 408.75,137.501 408.75,233.996C408.75,327.457 335.349,403.803 243.055,408.52C251.93,384.69 252.424,360.362 246.618,337.467L221.882,337.467C216.074,360.369 216.573,384.705 225.474,408.546ZM190.87,316.415C219.648,313.378 248.371,313.378 277.044,316.415C275.358,321.48 275.46,326.439 277.044,331.302C248.136,334.859 219.415,334.749 190.87,331.302C192.431,326.338 192.531,321.375 190.87,316.415ZM178.785,314.663C183.525,314.663 187.368,318.506 187.368,323.246C187.368,327.984 183.525,331.826 178.785,331.826C174.044,331.826 170.202,327.984 170.202,323.246C170.202,318.506 174.044,314.663 178.785,314.663ZM289.83,314.663C294.57,314.663 298.413,318.506 298.413,323.246C298.413,327.984 294.57,331.826 289.83,331.826C285.089,331.826 281.247,327.984 281.247,323.246C281.247,318.506 285.089,314.663 289.83,314.663ZM362.484,264.127C346.621,287.274 267.865,283.239 260.322,263.941L260.322,278.933C267.617,321.843 354.134,320.477 362.469,278.748L362.484,264.127ZM107.382,264.126C123.247,287.273 202.001,283.241 209.543,263.941L209.543,278.933C202.248,321.842 115.734,320.477 107.397,278.748L107.382,264.126ZM234.347,73.089L213.091,124.996L221.884,310.475C229.862,308.501 238.222,308.439 246.97,310.475L255.825,124.996L234.347,73.089ZM234.932,72.397C207.374,73.97 212.007,133.197 163.755,126.378L209.11,251.774C212.112,280.855 103.872,280.915 107.237,252.517L154.756,124.302C151.064,120.96 147.537,117.532 144.375,113.92C140.523,109.4 144.31,104.81 148.528,107.694C153.768,114.753 160.64,119.118 170.416,118.676C195.044,116.084 199.85,99.239 205.671,86.496C213.573,71.634 225.08,64.687 234.932,64.875C246.426,64.922 257.125,71.774 264.192,86.496C270.016,99.239 274.819,116.084 299.449,118.676C309.226,119.118 316.095,114.753 321.336,107.694C325.556,104.81 329.341,109.4 325.488,113.92C322.329,117.532 318.802,120.96 315.109,124.302L362.629,252.517C365.993,280.915 257.753,280.855 260.755,251.774L306.111,126.378C257.858,133.197 262.491,73.97 234.932,72.397ZM155.625,244.097L155.625,265.365C136.302,265.645 120.27,263.651 114.524,254.536C119.282,246.866 134.516,244.107 155.625,244.097ZM161.971,244.097L161.971,265.365C181.293,265.645 197.326,263.651 203.069,254.536C198.311,246.866 183.079,244.107 161.971,244.097ZM307.895,244.097L307.895,265.365C288.573,265.645 272.538,263.651 266.794,254.536C271.552,246.866 286.786,244.107 307.895,244.097ZM314.239,244.097L314.239,265.365C333.563,265.645 349.596,263.651 355.339,254.536C350.584,246.866 335.349,244.107 314.239,244.097ZM161.971,139.744L161.971,237.755C175.537,236.812 188.803,238.521 200.025,243.946L161.971,139.744ZM155.544,139.744L155.544,237.755C141.978,236.812 128.713,238.521 117.491,243.946L155.544,139.744ZM307.895,139.744L307.895,237.755C294.326,236.812 281.063,238.521 269.841,243.946L307.895,139.744ZM314.319,139.744L314.319,237.755C327.887,236.812 341.15,238.521 352.372,243.946L314.319,139.744Z" style="fill:white;"/>
                        <g>
                            <path d="M25.314,251.144C23.836,251.258 23.76,251.264 23.663,250.016L23.435,247.065C23.286,245.136 23.653,243.963 24.399,243.255C24.862,242.836 25.749,242.462 27.271,241.925C27.539,241.447 27.437,240.616 27.008,240.497C24.477,240.769 21.749,240.98 21.105,241.03C21.222,241.554 21.427,243.714 21.615,246.14L22.23,254.086C22.374,255.903 22.483,257.799 22.533,259.434C22.717,259.839 23.669,259.766 23.872,259.407L23.927,258.64C24.06,256.915 24.383,256.661 27.9,256.389L41.979,255.3C45.499,255.027 45.782,255.234 46.178,256.918L46.465,258.154C46.717,258.439 47.593,258.372 47.798,258.051C47.546,255.784 47.373,253.892 47.239,252.151C47.098,250.334 46.98,248.478 46.875,246.127C46.626,245.879 45.75,245.947 45.542,246.23L45.461,247.644C45.365,249.364 45.08,249.614 41.56,249.887L36.451,250.282C35.429,250.361 35.312,250.332 35.233,249.311L35.008,246.398C34.853,244.393 35.123,243.953 36.911,243.435L37.805,243.175C38.125,242.882 38.013,241.933 37.655,241.731C36.525,241.895 35.127,242.029 33.728,242.137C32.29,242.249 30.884,242.332 29.664,242.35C29.345,242.604 29.381,243.558 29.738,243.799L30.663,243.918C32.552,244.152 32.85,244.548 33.005,246.553L33.23,249.466C33.309,250.487 33.198,250.534 32.174,250.613L25.314,251.144Z" style="fill:white;fill-rule:nonzero;"/>
                            <path d="M37.914,227.44C37.955,226.11 38.041,225.809 38.653,225.638L41.947,224.713C43.364,224.301 44.282,224.063 44.548,224.072C44.775,224.079 45.036,224.239 45.161,225.117L45.314,226.338C45.606,226.765 46.41,226.714 46.652,226.303C46.63,224.554 46.65,223.072 46.708,221.174C46.769,219.199 46.859,217.149 46.991,215.329C46.773,214.98 45.854,215.027 45.656,215.249L45.384,216.685C45.113,218.083 44.23,218.398 41.93,219.125L26.891,223.83C24.165,224.696 22.746,225.108 21.635,225.378C21.06,225.512 20.864,225.734 20.848,226.228C20.846,226.304 22.664,227.766 23.025,229.602C24.13,229.522 25.439,230.209 27.805,231.156L36.963,234.898C39.661,236.011 41.459,236.789 42.956,237.481C44.416,238.171 44.695,238.94 44.781,239.854L44.864,240.882C45.161,241.158 45.961,241.22 46.203,240.81C46.257,239.064 46.182,238.188 46.222,236.898C46.31,235.305 46.339,233.937 46.457,232.61C46.278,232.225 45.397,232.273 45.123,232.493L44.898,233.627C44.675,234.684 44.432,235.171 44.205,235.164C43.901,235.155 43.599,235.107 42.848,234.856L38.494,233.239C37.781,232.988 37.746,232.873 37.774,231.962L37.914,227.44ZM35.79,231.14C35.76,232.089 35.64,232.276 34.625,231.902L31.806,230.865C30.077,230.241 28.049,229.418 27.185,229.087C27.993,228.77 30.065,228.15 31.715,227.668L34.822,226.776C35.819,226.503 35.927,226.696 35.9,227.57L35.79,231.14Z" style="fill:white;fill-rule:nonzero;"/>
                            <path d="M23.968,196.6C23.333,200.5 23.833,204.509 25.612,207.53C27.329,210.464 30.239,212.938 34.815,213.682C39.467,214.439 42.916,212.884 45.419,210.521C47.837,208.182 49.308,204.571 49.906,200.895C50.381,197.97 49.992,195.173 49.76,193.056C48.984,192.391 46.836,191.387 44.103,190.673C43.616,190.825 43.357,191.707 43.609,192.056C45.995,193.483 48.917,196.115 48.179,200.653C47.447,205.154 42.731,208.814 35.266,207.6C27.8,206.386 24.962,201.343 25.639,197.179C26.231,193.541 28.497,191.446 32.151,191.001C32.531,190.793 32.546,189.756 32.12,189.533C29.889,189.516 26.87,189.141 26.197,189.031C25.939,190.144 24.59,192.774 23.968,196.6Z" style="fill:white;fill-rule:nonzero;"/>
                            <path d="M42.328,184.294C46.276,185.542 49.207,185.592 51.36,184.202C53.568,182.75 54.78,180.422 55.651,177.668C56.579,174.732 56.511,171.8 55.315,169.668C53.734,166.981 50.722,165.671 47.318,164.595L43.262,163.313C40.328,162.386 37.621,161.372 36.806,160.676C36.148,160.109 36.148,159.352 36.229,158.341L36.29,157.643C36.09,157.261 35.339,157.104 35.051,157.252C34.689,158.652 34.29,160 33.867,161.339C33.398,162.822 32.927,164.228 32.236,166.162C32.386,166.449 33.091,166.751 33.474,166.554L33.965,165.632C34.455,164.711 34.924,163.982 35.788,163.896C36.856,163.795 39.654,164.52 42.588,165.447L46.97,166.831C51.931,168.399 55.541,171.095 54.075,175.734C52.334,181.244 47.513,180.239 43.276,178.9L34.91,176.256C31.541,175.192 31.32,174.883 31.546,173.16L31.676,172.244C31.549,171.885 30.748,171.632 30.437,171.853C29.961,173.616 29.424,175.399 28.864,177.173C28.314,178.911 27.718,180.714 27.095,182.43C27.188,182.898 28.001,183.115 28.311,182.894L28.778,182.045C29.62,180.518 29.906,180.369 33.274,181.433L42.328,184.294Z" style="fill:white;fill-rule:nonzero;"/>
                            <path d="M45.788,147.247C42.593,145.735 42.415,145.399 42.906,143.739L43.192,142.782C43.116,142.41 42.329,142.037 41.994,142.215C41.249,143.964 40.467,145.695 39.687,147.343C38.908,148.99 38.065,150.692 37.151,152.446C37.162,152.955 37.949,153.328 38.317,153.082L38.926,152.15C39.863,150.702 40.27,150.643 43.465,152.155L56.242,158.202C59.427,159.709 59.604,160.045 59.078,161.688L58.633,163.074C58.718,163.451 59.54,163.756 59.893,163.545C60.832,161.383 61.61,159.65 62.357,158.071L64.534,153.471C65.867,150.654 67.462,147.373 68.392,145.585C67.695,144.666 65.234,142.493 63.527,141.475C63.005,141.522 62.494,142.247 62.705,142.684C65.733,146.597 65.381,147.607 63.901,150.733C62.715,153.24 62.147,153.728 61.351,153.898C60.59,154.084 59.424,153.701 57.811,152.938L45.788,147.247Z" style="fill:white;fill-rule:nonzero;"/>
                            <path d="M67.166,136.756C70.19,138.581 70.365,138.952 69.645,140.515L68.924,142.077C68.964,142.456 69.716,142.91 70.069,142.768C71.378,140.451 72.376,138.746 73.317,137.186C74.2,135.723 75.203,134.11 76.544,132.034C76.485,131.688 75.733,131.234 75.399,131.344L74.451,132.547C73.373,133.894 72.995,133.932 69.97,132.107L55.628,123.455C54.782,122.945 54.744,122.789 55.215,122.008L56.392,120.055C57.865,117.615 59.668,118.082 62.083,118.784C62.441,118.778 62.906,117.861 62.712,117.521C60.819,116.468 58.324,114.653 57.411,113.658C57.276,113.665 57.011,113.816 56.893,114.011C56.775,114.207 56.749,114.323 56.734,114.492C57.242,115.198 56.98,115.706 55.685,117.853L48.386,129.954C46.894,132.426 46.705,132.446 46.054,132.275C45.877,132.346 45.747,132.489 45.649,132.652C45.55,132.814 45.517,133.016 45.536,133.205C46.666,134.198 48.583,135.575 50.414,137.612C50.955,137.672 51.393,137.093 51.433,136.585C49.648,134.177 48.759,132.709 50.192,130.333L51.409,128.316C51.88,127.535 52.043,127.633 52.824,128.104L67.166,136.756Z" style="fill:white;fill-rule:nonzero;"/>
                            <path d="M78.612,114.265C79.422,113.211 79.667,113.016 80.265,113.235L83.477,114.411C84.868,114.905 85.752,115.249 85.963,115.411C86.143,115.55 86.261,115.832 85.849,116.617L85.259,117.697C85.246,118.215 85.929,118.643 86.365,118.452C87.369,117.019 88.252,115.829 89.41,114.323C90.614,112.756 91.884,111.146 93.056,109.746C93.083,109.335 92.31,108.837 92.02,108.902L90.959,109.907C89.922,110.883 89.021,110.622 86.73,109.867L71.779,104.892C69.061,104.001 67.669,103.506 66.61,103.075C66.065,102.848 65.776,102.913 65.475,103.305C65.428,103.365 66.048,105.614 65.268,107.315C66.211,107.896 66.872,109.219 68.237,111.37L73.479,119.76C75.018,122.241 76.022,123.923 76.832,125.359C77.612,126.773 77.39,127.56 76.925,128.352L76.391,129.234C76.471,129.631 77.084,130.15 77.52,129.959C78.584,128.574 79.036,127.819 79.822,126.796C80.824,125.555 81.648,124.462 82.519,123.455C82.6,123.037 81.857,122.562 81.506,122.58L80.66,123.368C79.861,124.095 79.38,124.348 79.199,124.21C78.959,124.025 78.741,123.81 78.278,123.166L75.692,119.309C75.259,118.689 75.299,118.575 75.854,117.852L78.612,114.265ZM74.725,116.025C74.146,116.778 73.939,116.859 73.334,115.963L71.654,113.473C70.615,111.956 69.452,110.103 68.944,109.329C69.785,109.544 71.829,110.252 73.448,110.826L76.491,111.919C77.46,112.28 77.434,112.5 76.901,113.193L74.725,116.025Z" style="fill:white;fill-rule:nonzero;"/>
                            <path d="M91.514,103.347C93.95,105.835 93.999,106.212 92.963,107.598L92.254,108.558C92.177,108.914 92.815,109.566 93.192,109.516C94.684,107.944 96.042,106.562 97.344,105.287C98.324,104.334 99.84,103.169 101.117,101.919C103.916,99.18 105.799,96.648 106.745,93.919C108.351,89.316 107.217,84.682 103.655,81.042C100.332,77.647 95.241,76.354 90.436,78.558C87.899,79.716 85.459,81.679 83.231,83.86C80.353,86.676 78.342,88.856 76.194,91.224C75.895,91.57 76.663,92.355 77.067,92.225L77.636,91.774C79.019,90.687 79.578,91.15 82.104,93.731L91.514,103.347ZM84.708,88.629C83.884,87.787 83.406,87.245 83.356,86.868C83.306,86.491 83.69,85.85 84.423,85.132C89.341,80.32 94.766,80.7 99.551,85.59C103.167,89.284 105.658,95.036 100.958,99.636C99.98,100.593 98.952,101.12 97.932,101.055C96.884,100.963 95.873,100.038 94.411,98.544L84.708,88.629Z" style="fill:white;fill-rule:nonzero;"/>
                            <path d="M121.743,76.591C123.611,79.529 123.582,79.907 122.282,81.049L121.39,81.842C121.241,82.174 121.73,82.944 122.109,82.973C123.894,81.743 125.508,80.672 127.046,79.694C128.202,78.964 129.926,78.136 131.434,77.177C134.737,75.076 137.103,72.987 138.593,70.513C141.115,66.341 140.962,61.573 138.229,57.275C135.679,53.267 130.965,50.95 125.809,52.114C123.087,52.722 120.294,54.14 117.664,55.813C114.266,57.974 111.848,59.691 109.257,61.564C108.893,61.841 109.483,62.768 109.905,62.724L110.555,62.4C112.132,61.623 112.583,62.191 114.521,65.238L121.743,76.591ZM118.123,60.785C117.491,59.79 117.135,59.161 117.165,58.782C117.194,58.403 117.701,57.855 118.567,57.304C124.373,53.611 129.603,55.104 133.275,60.877C136.049,65.239 137.298,71.381 131.749,74.911C130.594,75.645 129.48,75.948 128.495,75.674C127.489,75.368 126.691,74.254 125.569,72.49L118.123,60.785Z" style="fill:white;fill-rule:nonzero;"/>
                            <path d="M146.527,43.653C145.949,42.37 145.918,42.301 147.059,41.786L149.826,40.539C151.52,39.774 152.749,39.72 153.708,40.08C154.377,40.362 155.331,41.183 156.259,42.225C156.746,42.38 157.512,41.952 157.478,41.508C156.259,39.268 154.892,36.883 154.607,36.344C154.188,36.617 152.228,37.543 150.008,38.544L142.674,41.852C141.015,42.604 139.301,43.336 137.639,44.002C137.391,44.365 137.717,45.181 138.12,45.251L139.065,45.034C140.767,44.641 141.068,44.755 142.489,47.903L148.309,60.808C149.745,63.992 149.631,64.293 148.178,65.24L146.663,66.216C146.468,66.523 146.843,67.354 147.214,67.437C149.779,66.197 151.462,65.396 153.123,64.647L157.62,62.618C160.456,61.339 163.802,59.872 165.669,59.113C165.733,57.961 165.3,54.782 164.625,52.917C164.299,52.564 163.371,52.816 163.266,53.322C163.127,58.097 161.995,58.733 158.979,60.093C156.454,61.232 155.672,61.251 154.941,60.83C154.26,60.428 153.622,59.382 152.903,57.787L151.043,53.663C150.574,52.624 150.593,52.573 151.526,52.152L153.913,51.076C155.711,50.265 156.251,50.355 157.347,51.862L157.911,52.651C158.296,52.853 159.15,52.425 159.183,52.035C158.614,50.958 158.027,49.721 157.435,48.406C156.842,47.092 156.303,45.834 155.872,44.693C155.557,44.46 154.687,44.852 154.569,45.239L154.786,46.184C155.19,48.004 154.885,48.433 153.086,49.244L150.7,50.321C149.766,50.742 149.701,50.688 149.263,49.718L146.527,43.653Z" style="fill:white;fill-rule:nonzero;"/>
                            <path d="M185.745,26.186C181.908,27.132 178.417,29.165 176.335,31.986C174.311,34.717 173.177,38.364 174.288,42.866C175.417,47.441 178.2,50.004 181.355,51.379C184.456,52.686 188.354,52.621 191.97,51.729C194.847,51.019 197.267,49.563 199.123,48.52C199.43,47.545 199.511,45.176 199.096,42.381C198.765,41.993 197.852,42.101 197.63,42.469C197.253,45.224 195.979,48.944 191.515,50.046C187.088,51.138 181.871,48.237 180.059,40.894C178.247,33.55 181.772,28.961 185.867,27.951C189.446,27.068 192.262,28.33 194.105,31.516C194.445,31.784 195.405,31.391 195.443,30.912C194.583,28.853 193.744,25.929 193.581,25.267C192.456,25.466 189.508,25.257 185.745,26.186Z" style="fill:white;fill-rule:nonzero;"/>
                            <path d="M208.242,28.446C207.755,24.911 207.945,24.617 209.638,24.077L210.667,23.744C210.933,23.476 210.814,22.606 210.485,22.42C208.46,22.775 206.581,23.06 204.813,23.304C203.008,23.552 201.123,23.786 199.079,23.99C198.81,24.259 198.929,25.129 199.262,25.314L200.342,25.358C202.115,25.42 202.377,25.652 202.864,29.187L204.769,43.024C205.256,46.558 205.066,46.853 203.376,47.392L202.348,47.726C202.078,47.994 202.198,48.864 202.53,49.05C204.553,48.694 206.431,48.41 208.236,48.161C210.004,47.918 211.852,47.689 213.899,47.484C214.164,47.216 214.082,46.341 213.754,46.155L212.673,46.112C210.897,46.05 210.634,45.818 210.148,42.283L208.242,28.446Z" style="fill:white;fill-rule:nonzero;"/>
                            <path d="M224.102,24.77C224.047,23.364 224.044,23.288 225.295,23.239L228.328,23.121C230.186,23.049 231.345,23.461 232.098,24.154C232.613,24.667 233.188,25.786 233.658,27.1C234.051,27.427 234.921,27.317 235.057,26.893C234.768,24.359 234.396,21.636 234.335,21.029C233.844,21.125 231.679,21.247 229.246,21.341L221.207,21.654C219.386,21.728 217.523,21.762 215.732,21.756C215.366,21.999 215.362,22.878 215.709,23.094L216.666,23.248C218.391,23.523 218.628,23.741 218.762,27.193L219.312,41.339C219.448,44.829 219.228,45.065 217.527,45.397L215.756,45.733C215.46,45.944 215.495,46.856 215.808,47.072C218.652,46.885 220.511,46.775 222.332,46.704L227.263,46.512C230.371,46.392 234.023,46.288 236.039,46.286C236.53,45.242 237.322,42.132 237.397,40.151C237.228,39.701 236.273,39.586 235.985,40.016C234.063,44.39 232.776,44.554 229.469,44.682C226.702,44.79 225.97,44.514 225.451,43.849C224.97,43.221 224.772,42.011 224.704,40.264L224.528,35.743C224.484,34.603 224.52,34.564 225.544,34.524L228.16,34.423C230.131,34.346 230.598,34.632 231.048,36.441L231.275,37.383C231.555,37.715 232.507,37.64 232.685,37.29C232.561,36.078 232.482,34.711 232.426,33.27C232.37,31.83 232.343,30.461 232.372,29.242C232.168,28.908 231.214,28.945 230.959,29.259L230.806,30.216C230.497,32.055 230.053,32.338 228.082,32.415L225.466,32.516C224.442,32.556 224.401,32.482 224.36,31.418L224.102,24.77Z" style="fill:white;fill-rule:nonzero;"/>
                            <path d="M263.95,32.785C264.245,29.721 264.669,26.898 265.183,25.916C265.6,25.154 266.348,24.921 267.346,24.864L268.037,24.816C268.369,24.544 268.369,23.745 268.164,23.497C266.682,23.43 265.317,23.333 263.919,23.199C262.371,23.05 260.899,22.875 258.863,22.603C258.614,22.807 258.462,23.592 258.736,23.922L259.743,24.171C260.75,24.421 261.557,24.766 261.821,25.593C262.139,26.655 262.018,29.507 261.723,32.571L261.222,37.792C261.156,38.473 261.094,39.116 260.907,39.48C260.12,38.526 259.15,37.097 257.674,34.969L254.856,30.918C251.84,26.543 249.656,23.431 249.441,21.697C248.639,21.696 247.539,21.624 246.253,21.501C244.706,21.352 242.818,21.137 241.048,20.891C240.659,20.968 240.534,21.869 240.77,22.196L241.814,22.449C243.12,22.765 243.606,23.27 243.847,23.942C244.023,24.494 244.003,25.103 243.803,27.183L242.879,36.793C242.584,39.858 242.198,42.684 241.684,43.666C241.305,44.431 240.523,44.623 239.484,44.714L238.83,44.766C238.498,45.038 238.498,45.837 238.703,46.085C240.148,46.148 241.55,46.249 242.948,46.384C244.458,46.529 245.969,46.707 248.004,46.979C248.253,46.775 248.405,45.99 248.131,45.66L247.086,45.407C246.117,45.161 245.272,44.813 245.008,43.985C244.69,42.924 244.811,40.072 245.106,37.007L245.811,29.667C245.946,28.268 246.008,27.624 246.233,27.264C246.86,27.897 247.956,29.606 249.892,32.503L257.592,44.164C259.16,46.524 260.224,48.573 260.261,48.577C261.167,48.664 262.264,48.35 262.572,47.921C262.616,46.666 262.845,44.283 263.082,41.824L263.95,32.785Z" style="fill:white;fill-rule:nonzero;"/>
                            <path d="M288.436,27.716C284.601,26.763 280.565,26.932 277.408,28.456C274.343,29.927 271.639,32.623 270.521,37.124C269.384,41.698 270.651,45.263 272.8,47.951C274.932,50.553 278.41,52.315 282.024,53.213C284.901,53.928 287.72,53.769 289.849,53.712C290.575,52.993 291.752,50.936 292.688,48.27C292.577,47.773 291.72,47.442 291.351,47.664C289.732,49.925 286.87,52.621 282.408,51.512C277.982,50.413 274.721,45.412 276.545,38.072C278.368,30.731 283.628,28.318 287.721,29.334C291.298,30.223 293.201,32.654 293.344,36.332C293.52,36.728 294.552,36.827 294.81,36.421C295.009,34.2 295.632,31.221 295.796,30.559C294.708,30.211 292.198,28.65 288.436,27.716Z" style="fill:white;fill-rule:nonzero;"/>
                            <path d="M307.298,40.222C308.518,36.869 308.823,36.697 310.572,37.01L311.638,37.196C311.998,37.083 312.299,36.257 312.095,35.94C310.138,35.309 308.343,34.683 306.666,34.073C304.954,33.45 303.178,32.776 301.276,32.003C300.912,32.115 300.611,32.94 300.819,33.259L301.754,33.802C303.292,34.685 303.416,35.012 302.196,38.365L297.42,51.491C296.2,54.844 295.895,55.016 294.149,54.704L293.084,54.519C292.72,54.63 292.42,55.456 292.627,55.775C294.581,56.405 296.375,57.03 298.088,57.653C299.764,58.263 301.506,58.924 303.411,59.698C303.771,59.585 304.107,58.773 303.903,58.455L302.968,57.912C301.426,57.028 301.303,56.7 302.522,53.348L307.298,40.222Z" style="fill:white;fill-rule:nonzero;"/>
                            <path d="M319.664,57.475C320.861,58.054 321.101,58.255 321.008,58.884L320.509,62.268C320.308,63.731 320.151,64.666 320.035,64.905C319.936,65.11 319.683,65.283 318.83,65.039L317.653,64.681C317.144,64.774 316.863,65.529 317.139,65.917C318.746,66.61 320.091,67.232 321.8,68.06C323.579,68.92 325.414,69.837 327.022,70.701C327.43,70.643 327.761,69.785 327.639,69.514L326.439,68.68C325.273,67.862 325.345,66.928 325.619,64.531L327.453,48.881C327.774,46.039 327.976,44.575 328.183,43.45C328.294,42.871 328.172,42.601 327.727,42.385C327.659,42.352 325.582,43.416 323.759,42.998C323.381,44.039 322.22,44.955 320.391,46.729L313.241,53.566C311.124,55.576 309.682,56.901 308.439,57.986C307.214,59.037 306.398,58.979 305.528,58.685L304.555,58.341C304.183,58.5 303.799,59.206 304.076,59.594C305.648,60.355 306.478,60.643 307.64,61.206C309.059,61.935 310.296,62.52 311.46,63.168C311.885,63.162 312.199,62.338 312.11,61.998L311.167,61.33C310.292,60.696 309.947,60.275 310.046,60.07C310.178,59.797 310.345,59.541 310.88,58.957L314.132,55.641C314.651,55.091 314.77,55.107 315.591,55.504L319.664,57.475ZM317.151,54.027C316.296,53.613 316.174,53.427 316.929,52.653L319.026,50.501C320.301,49.176 321.879,47.66 322.533,47.006C322.493,47.873 322.215,50.018 321.982,51.721L321.53,54.922C321.373,55.944 321.153,55.964 320.366,55.583L317.151,54.027Z" style="fill:white;fill-rule:nonzero;"/>
                            <path d="M345.218,73.97C347.454,70.438 346.099,66.971 344.781,64.652L343.371,62.186C342.293,60.334 341.829,58.151 342.764,56.674C343.78,55.068 345.811,54.419 347.932,55.761C350.245,57.225 350.141,60.443 349.649,62.426C349.735,62.93 350.557,63.405 350.962,63.121C352.323,60.97 353.1,59.032 353.289,58.165C352.945,57.858 352.697,57.611 352.361,57.219C351.321,56.023 350.085,55.061 349.025,54.39C344.368,51.442 339.962,52.156 337.697,55.806C335.685,58.985 337,62.516 338.579,65.135C339.897,67.319 341.364,70.406 339.717,73.008C338.701,74.613 336.572,75.56 334.194,74.055C331.464,72.327 331.185,68.012 331.865,65.519C331.832,65.003 331.073,64.568 330.584,64.843C329.202,67.027 328.155,69.603 328.319,70.695C328.749,71.506 330.051,73.496 333.004,75.365C337.855,78.435 342.718,77.921 345.218,73.97Z" style="fill:white;fill-rule:nonzero;"/>
                            <path d="M356.883,85.413C354.303,88.507 352.321,90.467 351.849,90.914C350.88,91.838 349.59,93.088 348.919,92.528C348.598,92.261 348.423,91.521 348.244,90.728C348.064,89.934 347.831,89.146 347.364,88.757C347.043,88.489 346.659,88.416 346.231,88.454C345.481,88.522 344.522,88.96 344.061,89.513C343.235,90.503 344.465,91.875 345.307,92.528C349.134,95.473 352.89,95.297 356.024,93.556C357.615,92.656 359.47,90.788 361.393,88.482L370.207,77.918C372.495,75.174 372.817,75.145 374.378,76.002L375.258,76.49C375.637,76.51 376.195,75.841 376.107,75.472C374.541,74.264 373.062,73.073 371.662,71.906C370.292,70.763 368.855,69.521 367.036,67.904C366.657,67.884 366.099,68.553 366.187,68.922L367.15,70.022C368.322,71.346 368.326,71.696 366.038,74.44L356.883,85.413Z" style="fill:white;fill-rule:nonzero;"/>
                            <path d="M371.242,91.37C368.22,94.2 366.739,96.731 366.897,99.288C367.081,101.925 368.515,104.122 370.49,106.231C372.595,108.478 375.184,109.856 377.629,109.858C380.746,109.796 383.363,107.813 385.969,105.372L389.074,102.464C391.319,100.361 393.53,98.499 394.537,98.129C395.353,97.833 396.012,98.205 396.854,98.77L397.433,99.165C397.864,99.178 398.369,98.6 398.381,98.277C397.338,97.276 396.358,96.267 395.398,95.242C394.335,94.107 393.341,93.007 391.993,91.457C391.67,91.447 391.06,91.914 391.045,92.345L391.608,93.224C392.171,94.103 392.576,94.869 392.228,95.664C391.793,96.644 389.79,98.728 387.544,100.831L384.19,103.973C380.392,107.53 376.274,109.356 372.948,105.804C368.998,101.587 372.236,97.877 375.48,94.839L381.884,88.842C384.462,86.427 384.84,86.386 386.231,87.427L386.965,87.988C387.341,88.054 387.954,87.479 387.913,87.101C386.61,85.821 385.319,84.48 384.047,83.122C382.801,81.792 381.522,80.388 380.331,79.005C379.878,78.856 379.291,79.458 379.331,79.837L379.842,80.66C380.761,82.142 380.751,82.464 378.172,84.879L371.242,91.37Z" style="fill:white;fill-rule:nonzero;"/>
                            <path d="M387.256,116.217C384.389,118.21 384.041,118.175 382.815,116.944L382.073,116.21C381.743,116.07 380.99,116.593 380.976,116.973C382.166,118.552 383.141,119.91 384.225,121.468C385.265,122.965 386.241,124.414 387.328,126.111C387.668,126.199 388.421,125.676 388.426,125.349L387.996,124.397C387.27,122.82 387.358,122.481 390.225,120.488L394.059,117.823C394.682,117.39 394.788,117.409 395.547,118.501C396.089,119.281 396.187,119.954 395.606,120.913C394.453,122.779 393.424,124.558 392.466,126.705C391.166,129.649 391.397,132.171 393.391,135.04C394.064,136.007 394.82,136.962 395.384,137.31C395.679,137.337 396.146,137.013 396.106,136.624C395.812,136.134 395.435,135.193 395.527,133.926C395.766,131.538 397.219,128.633 399.97,123.668C400.203,123.275 400.39,123.145 400.762,123.349C402.477,124.284 404.963,125.33 407.742,123.399C409.739,122.01 410.65,119.99 410.453,117.444C410.346,115.762 409.167,113.203 407.322,110.549C405.262,107.585 403.447,105.24 401.665,103.008C401.249,102.742 400.471,103.283 400.532,103.703L400.993,104.632C401.717,106.073 401.417,106.374 398.295,108.544L387.256,116.217ZM403.387,111.339C404.885,110.297 405.022,110.295 405.912,111.575C407.605,114.011 406.945,116.924 404.135,118.877C402.294,120.157 400.882,120.258 399.983,120.096C398.977,119.915 398.24,119.455 397.459,118.331C396.179,116.489 396.207,116.33 397.3,115.57L403.387,111.339Z" style="fill:white;fill-rule:nonzero;"/>
                            <path d="M416.347,135.708C419.465,133.973 419.808,134.043 420.925,135.426L421.609,136.264C421.955,136.414 422.722,135.987 422.777,135.614C421.711,133.856 420.764,132.207 419.897,130.648C419.011,129.055 418.11,127.383 417.179,125.553C416.831,125.399 416.064,125.826 416.011,126.203L416.362,127.225C416.947,128.9 416.825,129.229 413.708,130.963L401.502,137.754C398.384,139.488 398.041,139.418 396.925,138.038L396.242,137.201C395.894,137.047 395.126,137.474 395.074,137.851C396.138,139.607 397.084,141.254 397.97,142.847C398.838,144.406 399.721,146.046 400.653,147.879C400.999,148.03 401.785,147.636 401.839,147.262L401.488,146.239C400.902,144.561 401.023,144.233 404.141,142.498L416.347,135.708ZM420.897,126.92C420.476,127.024 420.222,127.426 420.27,127.747L426.016,133.072C426.583,133.624 427.132,133.751 427.435,133.67C427.704,133.607 428.203,133.33 428.811,132.47C429.355,131.65 429.399,131.103 429.214,130.77C429.084,130.538 428.733,130.297 428.039,129.987L420.897,126.92Z" style="fill:white;fill-rule:nonzero;"/>
                            <path d="M408.514,150.693C405.296,152.023 404.928,151.928 404.029,150.449L403.403,149.433C403.102,149.229 402.259,149.577 402.165,149.945C403.066,151.917 403.841,153.692 404.537,155.377C405.055,156.641 405.571,158.483 406.253,160.134C407.749,163.753 409.395,166.445 411.573,168.342C415.244,171.551 419.966,172.228 424.673,170.283C429.063,168.468 432.164,164.228 431.913,158.947C431.786,156.161 430.876,153.165 429.685,150.284C428.146,146.562 426.875,143.883 425.481,141.006C425.271,140.6 424.256,141.019 424.226,141.443L424.432,142.139C424.924,143.827 424.285,144.173 420.948,145.553L408.514,150.693ZM424.708,149.873C425.797,149.423 426.479,149.182 426.847,149.277C427.215,149.372 427.667,149.966 428.059,150.915C430.688,157.274 428.309,162.165 421.986,164.778C417.209,166.753 410.943,166.916 408.431,160.839C407.908,159.574 407.803,158.424 408.244,157.502C408.72,156.564 409.956,155.971 411.888,155.173L424.708,149.873Z" style="fill:white;fill-rule:nonzero;"/>
                            <path d="M434.271,180.941C437.708,179.983 438.025,180.132 438.788,181.737L439.257,182.711C439.559,182.939 440.405,182.703 440.545,182.352C439.92,180.394 439.384,178.57 438.905,176.851C438.416,175.096 437.93,173.259 437.453,171.262C437.15,171.031 436.304,171.267 436.165,171.621L436.268,172.697C436.445,174.462 436.25,174.753 432.813,175.712L419.359,179.463C415.922,180.421 415.605,180.273 414.843,178.671L414.374,177.697C414.071,177.466 413.225,177.702 413.086,178.056C413.711,180.012 414.246,181.835 414.735,183.59C415.214,185.309 415.69,187.11 416.168,189.11C416.469,189.337 417.326,189.138 417.466,188.787L417.363,187.71C417.185,185.942 417.38,185.651 420.817,184.693L434.271,180.941Z" style="fill:white;fill-rule:nonzero;"/>
                            <path d="M445.014,202.641C444.381,198.74 442.638,195.096 439.994,192.793C437.436,190.554 433.894,189.128 429.316,189.871C424.664,190.626 421.885,193.193 420.259,196.226C418.705,199.21 418.453,203.101 419.05,206.777C419.525,209.703 420.78,212.232 421.669,214.167C422.616,214.552 424.971,214.824 427.79,214.637C428.204,214.338 428.17,213.42 427.821,213.169C425.106,212.57 421.501,210.999 420.765,206.46C420.034,201.959 423.349,196.994 430.815,195.783C438.281,194.571 442.569,198.457 443.244,202.62C443.835,206.259 442.349,208.964 439.024,210.543C438.729,210.86 439.043,211.848 439.518,211.925C441.639,211.235 444.622,210.635 445.295,210.526C445.187,209.389 445.635,206.467 445.014,202.641Z" style="fill:white;fill-rule:nonzero;"/>
                            <path d="M430.111,228.242C430.152,229.571 430.085,229.878 429.484,230.086L426.254,231.212C424.865,231.712 423.963,232.005 423.698,232.014C423.47,232.021 423.2,231.877 423.021,231.008L422.793,229.799C422.475,229.391 421.676,229.491 421.46,229.916C421.59,231.661 421.662,233.141 421.72,235.04C421.781,237.014 421.819,239.066 421.799,240.891C422.039,241.226 422.953,241.121 423.136,240.888L423.32,239.438C423.504,238.025 424.366,237.657 426.617,236.789L441.336,231.164C444.003,230.131 445.394,229.632 446.486,229.294C447.051,229.125 447.234,228.891 447.219,228.398C447.217,228.322 445.312,226.974 444.838,225.164C443.74,225.312 442.39,224.708 439.971,223.908L430.599,220.739C427.837,219.795 425.995,219.13 424.458,218.532C422.959,217.933 422.632,217.183 422.49,216.276L422.344,215.255C422.03,214.998 421.227,214.985 421.011,215.41C421.065,217.155 421.194,218.025 421.234,219.315C421.245,220.911 421.3,222.278 421.265,223.609C421.467,223.983 422.343,223.88 422.603,223.644L422.758,222.499C422.915,221.429 423.127,220.928 423.355,220.921C423.658,220.912 423.963,220.941 424.728,221.145L429.174,222.49C429.901,222.696 429.943,222.809 429.971,223.72L430.111,228.242ZM432.003,224.418C431.973,223.468 432.081,223.275 433.117,223.585L435.995,224.446C437.76,224.962 439.835,225.658 440.718,225.935C439.931,226.302 437.901,227.049 436.284,227.631L433.238,228.714C432.26,229.048 432.14,228.862 432.113,227.988L432.003,224.418Z" style="fill:white;fill-rule:nonzero;"/>
                            <path d="M427.362,258.563C431.529,258.902 433.969,256.092 435.41,253.847L436.94,251.453C438.079,249.638 439.796,248.214 441.539,248.355C443.433,248.509 444.951,250.007 444.747,252.508C444.525,255.237 441.628,256.639 439.643,257.125C439.237,257.434 439.198,258.384 439.637,258.61C442.175,258.816 444.251,258.604 445.107,258.369C445.219,257.921 445.323,257.587 445.514,257.107C446.09,255.63 446.368,254.09 446.469,252.839C446.916,247.346 444.238,243.776 439.954,243.465C436.203,243.16 433.687,245.964 432.102,248.58C430.78,250.761 428.727,253.494 425.659,253.244C423.765,253.09 421.937,251.644 422.166,248.839C422.428,245.62 426.119,243.368 428.643,242.812C429.084,242.543 429.117,241.669 428.647,241.364C426.071,241.154 423.303,241.424 422.412,242.076C421.894,242.834 420.736,244.911 420.453,248.395C419.987,254.116 422.702,258.184 427.362,258.563Z" style="fill:white;fill-rule:nonzero;"/>
                            <path d="M40.91,299.287C37.859,300.458 36.024,301.869 35.379,303.787C34.73,305.77 35.126,307.803 35.943,309.932C36.815,312.202 38.299,313.979 40.086,314.707C42.384,315.589 44.888,314.916 47.519,313.905L50.655,312.701C52.922,311.831 55.092,311.126 55.939,311.154C56.623,311.181 56.995,311.648 57.443,312.312L57.749,312.773C58.06,312.91 58.602,312.638 58.706,312.405C58.241,311.363 57.824,310.334 57.427,309.299C56.987,308.153 56.586,307.053 56.061,305.518C55.828,305.415 55.243,305.575 55.104,305.886L55.254,306.696C55.405,307.506 55.474,308.187 54.983,308.665C54.373,309.253 52.289,310.182 50.021,311.052L46.634,312.353C42.799,313.826 39.244,313.937 37.867,310.351C36.232,306.092 39.703,304.342 42.978,303.084L49.445,300.601C52.048,299.601 52.337,299.683 53.045,300.858L53.415,301.487C53.67,301.646 54.289,301.409 54.372,301.12C53.8,299.796 53.254,298.432 52.727,297.061C52.211,295.717 51.693,294.31 51.233,292.945C50.946,292.701 50.337,292.967 50.254,293.256L50.383,294.01C50.615,295.367 50.512,295.6 47.908,296.599L40.91,299.287Z" style="fill:white;fill-rule:nonzero;"/>
                            <path d="M61.471,334.177C63.62,333.041 65.666,332.096 66.537,332.009C67.22,331.953 67.699,332.345 68.169,332.979L68.501,333.414C68.824,333.515 69.351,333.168 69.426,332.925C68.826,331.919 68.298,330.976 67.781,329.996C67.207,328.911 66.684,327.863 65.979,326.403C65.737,326.327 65.153,326.568 65.054,326.892L65.327,327.664C65.599,328.436 65.722,329.118 65.291,329.651C64.729,330.322 62.795,331.479 60.646,332.615L56.985,334.549C56.507,334.802 56.056,335.04 55.735,335.074C56.023,334.141 56.545,332.881 57.307,330.985L58.756,327.368C60.333,323.48 61.438,320.69 62.488,319.796C62.141,319.267 61.711,318.51 61.235,317.608C60.661,316.523 59.984,315.185 59.378,313.91C59.159,313.687 58.51,313.996 58.397,314.293L58.684,315.092C59.042,316.09 58.919,316.63 58.58,317.08C58.293,317.436 57.883,317.687 56.424,318.458L49.685,322.018C47.536,323.154 45.504,324.126 44.634,324.213C43.964,324.295 43.498,323.862 42.987,323.216L42.67,322.807C42.346,322.707 41.819,323.053 41.744,323.296C42.33,324.276 42.872,325.245 43.39,326.225C43.949,327.284 44.487,328.358 45.191,329.819C45.434,329.894 46.017,329.654 46.116,329.33L45.829,328.531C45.571,327.785 45.434,327.077 45.865,326.543C46.427,325.873 48.361,324.716 50.51,323.58L55.657,320.86C56.638,320.342 57.09,320.103 57.425,320.096C57.279,320.784 56.628,322.248 55.557,324.782L51.208,334.921C50.332,336.979 49.441,338.569 49.455,338.596C49.791,339.231 50.474,339.818 50.891,339.835C51.738,339.32 53.409,338.437 55.133,337.526L61.471,334.177Z" style="fill:white;fill-rule:nonzero;"/>
                            <path d="M70.51,342.449C72.872,340.915 73.146,340.952 74.1,341.981L74.684,342.604C74.964,342.704 75.546,342.326 75.569,342.029C74.635,340.702 73.801,339.454 73.033,338.273C72.25,337.066 71.45,335.798 70.619,334.406C70.336,334.303 69.755,334.681 69.734,334.981L70.065,335.767C70.616,337.055 70.538,337.32 68.175,338.854L58.927,344.86C56.565,346.394 56.291,346.357 55.338,345.33L54.755,344.707C54.472,344.605 53.89,344.982 53.869,345.282C54.802,346.608 55.636,347.854 56.419,349.061C57.187,350.243 57.971,351.487 58.804,352.881C59.084,352.98 59.682,352.628 59.705,352.331L59.373,351.544C58.821,350.254 58.899,349.989 61.261,348.455L70.51,342.449Z" style="fill:white;fill-rule:nonzero;"/>
                            <path d="M80.193,360.312C82.739,359.631 84.526,359.195 85.713,359.11C86.45,359.032 86.928,359.307 87.561,359.879L88.157,360.404C88.427,360.46 88.976,359.997 88.924,359.734C88.344,359.083 87.772,358.388 87.147,357.582C86.449,356.68 85.772,355.763 84.956,354.612C84.618,354.419 84.121,354.804 84.079,355.14L84.501,356.027C84.8,356.706 84.852,356.969 84.686,357.098C84.543,357.208 84.227,357.339 83.648,357.522C82.621,357.862 79.175,358.9 77.222,359.465L74.295,360.291C73.363,360.557 72.262,360.803 71.712,360.925C71.987,360.447 72.478,359.611 73.098,358.599L76.818,352.379C77.8,350.708 78.503,349.557 78.692,349.41C78.906,349.244 79.177,349.3 79.602,349.653L80.295,350.255C80.618,350.232 81.086,349.908 81.081,349.609C79.913,348.199 79.102,347.195 78.257,346.104C77.302,344.871 76.74,344.054 75.827,342.827C75.544,342.705 75.063,342.963 74.95,343.354L75.448,344.486C75.846,345.392 75.89,345.548 74.311,348.212L67.634,359.531C67.085,360.488 66.14,361.864 65.702,362.621C65.694,362.855 65.785,363.126 66.005,363.411C66.281,363.766 66.575,363.994 66.841,364.091C68.592,363.608 70.943,362.773 74.749,361.76L80.193,360.312Z" style="fill:white;fill-rule:nonzero;"/>
                            <path d="M91.842,366.482C92.65,365.719 92.693,365.678 93.372,366.396L95.018,368.138C96.026,369.205 96.383,370.108 96.362,370.916C96.325,371.488 95.959,372.412 95.422,373.373C95.432,373.777 95.949,374.237 96.272,374.097C97.628,372.609 99.054,370.973 99.382,370.622C99.071,370.379 97.873,369.156 96.553,367.759L92.191,363.143C91.2,362.099 90.212,361.009 89.286,359.941C88.951,359.85 88.426,360.305 88.478,360.623L88.884,361.272C89.617,362.44 89.61,362.694 87.628,364.567L79.505,372.243C77.501,374.137 77.246,374.13 76.165,373.291L75.045,372.412C74.766,372.346 74.242,372.841 74.276,373.139C75.865,374.732 76.896,375.78 77.885,376.826L80.56,379.657C82.247,381.442 84.206,383.559 85.254,384.756C86.13,384.506 88.39,383.361 89.607,382.377C89.786,382.042 89.358,381.415 88.953,381.467C85.355,382.597 84.589,381.917 82.794,380.018C81.293,378.429 81.076,377.851 81.202,377.196C81.326,376.585 81.941,375.838 82.945,374.89L85.541,372.437C86.195,371.818 86.238,371.819 86.793,372.407L88.213,373.909C89.282,375.041 89.355,375.468 88.513,376.675L88.071,377.299C88.02,377.638 88.559,378.165 88.859,378.089C89.515,377.386 90.287,376.629 91.114,375.847C91.942,375.065 92.741,374.338 93.48,373.722C93.573,373.427 93.056,372.879 92.736,372.891L92.088,373.297C90.835,374.069 90.435,373.952 89.365,372.82L87.946,371.318C87.391,370.73 87.414,370.667 88.025,370.09L91.842,366.482Z" style="fill:white;fill-rule:nonzero;"/>
                            <path d="M93.536,386.557C91.741,388.65 91.468,388.693 90.287,387.996L89.574,387.583C89.294,387.541 88.823,388.091 88.888,388.384C90.111,389.354 91.126,390.197 92.264,391.172C93.356,392.109 94.39,393.022 95.558,394.102C95.835,394.102 96.306,393.552 96.245,393.301L95.728,392.66C94.859,391.599 94.859,391.323 96.653,389.23L99.052,386.431C99.442,385.976 99.527,385.97 100.324,386.653C100.893,387.142 101.102,387.636 100.848,388.484C100.339,390.139 99.907,391.703 99.602,393.534C99.194,396.042 99.872,397.923 101.966,399.718C102.672,400.323 103.44,400.903 103.941,401.056C104.171,401.018 104.463,400.677 104.356,400.388C104.033,400.073 103.558,399.428 103.376,398.442C103.084,396.57 103.616,394.062 104.731,389.722C104.831,389.374 104.948,389.238 105.273,389.32C106.769,389.693 108.876,389.998 110.615,387.97C111.865,386.512 112.159,384.787 111.503,382.882C111.086,381.618 109.676,379.897 107.738,378.236C105.575,376.382 103.722,374.951 101.917,373.6C101.546,373.479 101.059,374.047 101.19,374.356L101.727,374.974C102.566,375.931 102.397,376.221 100.443,378.499L93.536,386.557ZM104.889,379.622C105.827,378.529 105.931,378.499 106.866,379.3C108.643,380.825 108.718,383.182 106.96,385.232C105.808,386.577 104.75,386.935 104.03,386.99C103.226,387.052 102.572,386.846 101.751,386.143C100.406,384.99 100.396,384.863 101.08,384.066L104.889,379.622Z" style="fill:white;fill-rule:nonzero;"/>
                            <path d="M119.994,405.69C121.912,403.004 120.997,400.212 120.06,398.326L119.058,396.319C118.29,394.812 118.02,393.071 118.822,391.948C119.694,390.727 121.324,390.305 122.936,391.457C124.695,392.713 124.471,395.244 123.996,396.786C124.041,397.187 124.668,397.598 125,397.392C126.168,395.756 126.866,394.263 127.053,393.588C126.795,393.33 126.61,393.125 126.363,392.801C125.596,391.812 124.665,391 123.858,390.424C120.317,387.895 116.813,388.264 114.867,391.04C113.141,393.458 114.021,396.299 115.15,398.433C116.093,400.212 117.113,402.71 115.7,404.688C114.828,405.909 113.108,406.561 111.3,405.27C109.225,403.788 109.195,400.374 109.841,398.439C109.838,398.031 109.259,397.654 108.861,397.85C107.675,399.51 106.737,401.495 106.817,402.363C107.121,403.021 108.059,404.647 110.305,406.251C113.993,408.884 117.849,408.693 119.994,405.69Z" style="fill:white;fill-rule:nonzero;"/>
                            <path d="M133.741,402.65C135.21,400.247 135.473,400.162 136.777,400.678L137.573,400.988C137.87,400.957 138.231,400.365 138.123,400.087C136.708,399.293 135.417,398.528 134.215,397.794C132.987,397.044 131.718,396.244 130.367,395.348C130.068,395.378 129.706,395.969 129.817,396.249L130.455,396.815C131.508,397.739 131.552,398.012 130.084,400.416L124.334,409.825C122.866,412.229 122.603,412.314 121.3,411.799L120.505,411.489C120.206,411.519 119.844,412.11 119.955,412.39C121.369,413.183 122.659,413.947 123.887,414.698C125.089,415.432 126.333,416.216 127.686,417.114C127.982,417.082 128.369,416.506 128.261,416.228L127.622,415.662C126.568,414.737 126.523,414.464 127.992,412.06L133.741,402.65Z" style="fill:white;fill-rule:nonzero;"/>
                            <path d="M135.527,416.599C134.318,419.067 134.05,419.203 132.746,418.797L131.845,418.523C131.56,418.559 131.243,419.206 131.379,419.473C132.942,420.169 134.329,420.815 135.62,421.449C136.588,421.927 137.855,422.748 139.122,423.368C141.897,424.729 144.278,425.463 146.558,425.447C150.407,425.429 153.556,423.364 155.326,419.753C156.977,416.385 156.597,412.256 153.69,409.261C152.16,407.678 150.055,406.38 147.846,405.297C144.991,403.898 142.839,402.976 140.51,402.002C140.174,401.87 139.792,402.649 139.996,402.916L140.481,403.22C141.654,403.962 141.457,404.501 140.203,407.06L135.527,416.599ZM144.685,407.654C145.095,406.818 145.373,406.32 145.64,406.183C145.907,406.047 146.485,406.163 147.213,406.52C152.09,408.911 153.237,413.048 150.86,417.898C149.064,421.563 145.44,424.933 140.778,422.648C139.808,422.172 139.146,421.547 138.925,420.77C138.717,419.966 139.139,418.97 139.865,417.488L144.685,407.654Z" style="fill:white;fill-rule:nonzero;"/>
                            <path d="M166.185,427.306C167.175,427.656 167.381,427.792 167.363,428.294L167.269,430.993C167.24,432.158 167.199,432.906 167.129,433.103C167.069,433.273 166.886,433.431 166.196,433.314L165.24,433.136C164.849,433.254 164.695,433.871 164.946,434.151C166.267,434.554 167.377,434.924 168.791,435.423C170.262,435.942 171.782,436.5 173.12,437.036C173.435,436.956 173.619,436.253 173.5,436.051L172.485,435.502C171.498,434.963 171.473,434.224 171.477,432.319L171.542,419.88C171.543,417.621 171.573,416.455 171.637,415.555C171.673,415.09 171.554,414.889 171.186,414.759C171.129,414.739 169.594,415.756 168.126,415.588C167.921,416.438 167.091,417.259 165.811,418.811L160.802,424.803C159.318,426.566 158.303,427.733 157.423,428.693C156.554,429.625 155.909,429.652 155.201,429.497L154.407,429.313C154.129,429.47 153.89,430.057 154.141,430.338C155.441,430.797 156.118,430.95 157.079,431.289C158.256,431.737 159.278,432.087 160.248,432.493C160.581,432.451 160.756,431.777 160.656,431.518L159.857,431.077C159.115,430.656 158.807,430.357 158.867,430.187C158.947,429.961 159.055,429.745 159.424,429.24L161.684,426.353C162.043,425.876 162.138,425.878 162.817,426.117L166.185,427.306ZM163.91,424.821C163.203,424.572 163.092,424.437 163.616,423.763L165.072,421.891C165.956,420.739 167.061,419.411 167.517,418.841C167.562,419.525 167.532,421.232 167.498,422.588L167.425,425.139C167.392,425.955 167.22,425.99 166.57,425.76L163.91,424.821Z" style="fill:white;fill-rule:nonzero;"/>
                            <path d="M179.482,434.196C178.868,436.875 178.639,437.068 177.276,436.971L176.336,436.91C176.067,437.01 175.906,437.712 176.099,437.941C177.78,438.262 179.277,438.575 180.68,438.897C181.731,439.141 183.152,439.651 184.527,439.967C187.539,440.658 190.025,440.829 192.242,440.294C195.985,439.398 198.579,436.669 199.479,432.749C200.317,429.094 199.005,425.16 195.492,422.908C193.641,421.716 191.295,420.932 188.897,420.382C185.798,419.671 183.492,419.265 181.003,418.847C180.646,418.796 180.452,419.641 180.711,419.854L181.253,420.04C182.564,420.495 182.495,421.064 181.858,423.842L179.482,434.196ZM186.358,423.397C186.566,422.491 186.722,421.942 186.952,421.748C187.181,421.554 187.77,421.535 188.56,421.717C193.854,422.931 195.915,426.698 194.707,431.963C193.795,435.94 191.036,440.048 185.975,438.887C184.922,438.646 184.134,438.188 183.742,437.482C183.356,436.747 183.539,435.681 183.908,434.072L186.358,423.397Z" style="fill:white;fill-rule:nonzero;"/>
                            <path d="M213.536,440.448C213.376,443.192 213.182,443.421 211.822,443.552L210.885,443.648C210.636,443.792 210.594,444.511 210.823,444.704C212.534,444.741 214.063,444.8 215.499,444.884C216.576,444.95 218.062,445.216 219.47,445.299C222.556,445.478 225.036,445.233 227.132,444.337C230.674,442.83 232.778,439.706 233.012,435.692C233.23,431.948 231.282,428.287 227.442,426.652C225.418,425.785 222.975,425.403 220.519,425.259C217.345,425.074 215.004,425.058 212.48,425.06C212.118,425.069 212.068,425.935 212.359,426.102L212.924,426.195C214.293,426.425 214.32,426.998 214.154,429.844L213.536,440.448ZM218.517,428.655C218.571,427.727 218.634,427.159 218.828,426.93C219.022,426.701 219.6,426.584 220.408,426.632C225.831,426.948 228.491,430.319 228.176,435.711C227.939,439.785 225.902,444.295 220.719,443.993C219.64,443.93 218.787,443.61 218.283,442.979C217.78,442.319 217.783,441.237 217.879,439.589L218.517,428.655Z" style="fill:white;fill-rule:nonzero;"/>
                            <path d="M243.307,428.136C243.247,427.028 243.244,426.968 244.231,426.914L246.623,426.785C248.089,426.706 249.009,427.017 249.612,427.556C250.024,427.955 250.492,428.831 250.878,429.862C251.192,430.116 251.878,430.019 251.98,429.683C251.722,427.686 251.396,425.54 251.34,425.063C250.954,425.143 249.247,425.266 247.327,425.369L240.985,425.711C239.548,425.792 238.078,425.841 236.664,425.857C236.378,426.053 236.386,426.747 236.662,426.914L237.419,427.023C238.784,427.22 238.974,427.39 239.121,430.113L239.723,441.273C239.871,444.026 239.701,444.215 238.362,444.498L236.968,444.784C236.737,444.954 236.776,445.673 237.025,445.84C239.267,445.659 240.734,445.55 242.171,445.472L246.06,445.262C248.513,445.13 251.394,445.005 252.985,444.979C253.361,444.15 253.949,441.685 253.985,440.12C253.846,439.767 253.09,439.688 252.868,440.03C251.403,443.506 250.389,443.651 247.781,443.791C245.597,443.909 245.016,443.7 244.598,443.182C244.212,442.691 244.04,441.739 243.966,440.36L243.774,436.794C243.725,435.895 243.753,435.863 244.561,435.82L246.625,435.708C248.18,435.624 248.552,435.845 248.928,437.267L249.119,438.008C249.344,438.267 250.095,438.196 250.231,437.918C250.119,436.963 250.04,435.885 249.979,434.748C249.918,433.611 249.88,432.531 249.888,431.569C249.723,431.307 248.971,431.348 248.773,431.599L248.664,432.356C248.442,433.811 248.094,434.04 246.539,434.124L244.476,434.236C243.668,434.279 243.635,434.221 243.59,433.382L243.307,428.136Z" style="fill:white;fill-rule:nonzero;"/>
                            <path d="M273.363,435.033C274.394,434.833 274.641,434.847 274.879,435.289L276.164,437.664C276.728,438.684 277.07,439.35 277.11,439.556C277.144,439.732 277.066,439.961 276.412,440.21L275.498,440.54C275.22,440.839 275.399,441.449 275.757,441.564C277.1,441.243 278.245,441.001 279.717,440.716C281.249,440.42 282.843,440.132 284.268,439.918C284.499,439.689 284.302,438.99 284.097,438.876L282.944,438.916C281.82,438.95 281.424,438.325 280.464,436.68L274.227,425.917C273.086,423.968 272.522,422.946 272.121,422.138C271.918,421.719 271.713,421.606 271.33,421.68C271.271,421.691 270.461,423.345 269.11,423.943C269.364,424.78 269.062,425.907 268.744,427.894L267.454,435.597C267.066,437.868 266.78,439.388 266.507,440.661C266.229,441.905 265.686,442.254 264.996,442.479L264.219,442.721C264.059,442.998 264.15,443.625 264.508,443.74C265.861,443.479 266.523,443.268 267.524,443.075C268.765,442.865 269.824,442.651 270.866,442.51C271.132,442.305 270.942,441.636 270.725,441.463L269.813,441.486C268.959,441.499 268.542,441.396 268.508,441.22C268.463,440.985 268.447,440.744 268.51,440.121L268.998,436.487C269.067,435.894 269.15,435.848 269.857,435.711L273.363,435.033ZM270.144,434.04C269.408,434.182 269.244,434.122 269.355,433.276L269.664,430.924C269.844,429.484 270.125,427.78 270.23,427.057C270.614,427.624 271.452,429.112 272.11,430.299L273.337,432.536C273.721,433.256 273.59,433.373 272.913,433.504L270.144,434.04Z" style="fill:white;fill-rule:nonzero;"/>
                            <path d="M301.286,421.85C300.561,419.53 300.004,417.346 300.077,416.474C300.147,415.792 300.619,415.393 301.328,415.046L301.817,414.799C301.974,414.499 301.73,413.918 301.505,413.8C300.406,414.206 299.383,414.554 298.325,414.885C297.153,415.251 296.028,415.575 294.463,416.001C294.345,416.226 294.475,416.843 294.776,417L295.585,416.873C296.394,416.745 297.087,416.749 297.532,417.27C298.089,417.945 298.875,420.057 299.6,422.377L300.836,426.329C300.997,426.844 301.149,427.331 301.124,427.654C300.259,427.201 299.115,426.458 297.39,425.363L294.097,423.279C290.562,421.021 288.02,419.426 287.332,418.231C286.748,418.476 285.925,418.761 284.952,419.065C283.78,419.431 282.341,419.853 280.978,420.217C280.718,420.392 280.904,421.086 281.175,421.251L282.013,421.115C283.06,420.945 283.568,421.163 283.949,421.579C284.247,421.926 284.418,422.375 284.911,423.95L287.185,431.225C287.91,433.545 288.495,435.719 288.422,436.591C288.381,437.264 287.871,437.644 287.143,438.029L286.683,438.266C286.525,438.566 286.77,439.148 286.995,439.265C288.065,438.868 289.117,438.512 290.175,438.181C291.318,437.824 292.472,437.491 294.036,437.064C294.154,436.839 294.024,436.222 293.724,436.065L292.886,436.202C292.106,436.32 291.384,436.325 290.938,435.805C290.382,435.13 289.596,433.018 288.871,430.698L287.134,425.142C286.803,424.082 286.65,423.595 286.704,423.264C287.354,423.532 288.675,424.44 290.972,425.954L300.149,432.077C302.013,433.314 303.415,434.478 303.443,434.469C304.129,434.255 304.83,433.69 304.923,433.284C304.571,432.357 304.007,430.553 303.425,428.692L301.286,421.85Z" style="fill:white;fill-rule:nonzero;"/>
                            <path d="M315.697,424.536C316.824,427.087 316.769,427.406 315.594,428.089L314.42,428.772C314.274,429.035 314.554,429.669 314.847,429.738C316.743,428.834 318.161,428.185 319.477,427.603C320.711,427.058 322.091,426.471 323.899,425.738C324.018,425.487 323.737,424.853 323.472,424.772L322.314,425.12C321.006,425.501 320.745,425.354 319.618,422.804L314.273,410.708C313.958,409.995 314.004,409.877 314.662,409.586L316.309,408.858C318.367,407.949 319.321,409.068 320.563,410.617C320.797,410.776 321.513,410.394 321.542,410.086C320.796,408.547 320.007,406.243 319.868,405.186C319.778,405.129 319.538,405.107 319.373,405.179C319.209,405.252 319.138,405.315 319.052,405.418C319.061,406.105 318.661,406.314 316.85,407.114L306.646,411.623C304.56,412.545 304.429,412.472 304.086,412.066C303.94,412.032 303.791,412.065 303.653,412.126C303.516,412.186 303.403,412.302 303.33,412.433C303.61,413.586 304.224,415.346 304.484,417.493C304.806,417.777 305.351,417.601 305.608,417.291C305.546,414.925 305.638,413.573 307.641,412.688L309.342,411.936C310.001,411.645 310.061,411.783 310.352,412.441L315.697,424.536Z" style="fill:white;fill-rule:nonzero;"/>
                            <path d="M329.846,399.589C324.421,402.734 322.884,408.928 325.864,414.068C329.01,419.493 334.781,420.721 339.998,417.695C345.58,414.459 347.396,408.867 344.115,403.208C341.059,397.938 335.246,396.458 329.846,399.589ZM340.161,405.951C342.6,410.156 343.202,414.247 339.801,416.219C335.57,418.672 331.503,414.232 329.667,411.065C327.153,406.73 327.136,402.751 330.329,400.9C333.548,399.033 337.588,401.512 340.161,405.951Z" style="fill:white;fill-rule:nonzero;"/>
                            <path d="M348.425,391.147C347.732,390.204 347.696,390.155 348.493,389.57L350.376,388.187C351.607,387.282 352.546,387.039 353.332,387.244C353.806,387.38 354.426,387.819 355.421,388.615C355.853,388.595 356.367,388.181 356.269,387.843C355.031,386.26 353.752,384.52 353.45,384.109C353.147,384.406 351.785,385.444 350.237,386.581L345.166,390.306C344.009,391.161 342.783,392.024 341.707,392.74C341.513,393.032 341.959,393.64 342.284,393.626L342.821,393.343C344.033,392.713 344.338,392.823 345.987,395.068L352.588,404.052C354.238,406.298 354.217,406.574 353.253,407.542L352.544,408.249C352.458,408.537 352.869,409.096 353.169,409.1C354.584,407.985 355.78,407.081 356.891,406.265C358.051,405.413 359.246,404.56 360.778,403.509C360.84,403.239 360.43,402.68 360.154,402.659L359.171,403.194C357.979,403.847 357.692,403.76 356.042,401.514L353.646,398.254C353.167,397.602 353.138,397.511 353.79,397.033L355.648,395.667C356.928,394.727 357.335,394.725 358.428,395.707L358.975,396.198C359.305,396.29 359.895,395.82 359.881,395.495C359.3,394.807 358.627,393.925 357.971,393.032C357.297,392.115 356.655,391.207 356.134,390.396C355.831,390.289 355.206,390.711 355.194,391.051L355.499,391.72C356.13,393.084 355.989,393.449 354.709,394.389L352.851,395.754C352.199,396.233 352.121,396.178 351.641,395.524L348.425,391.147Z" style="fill:white;fill-rule:nonzero;"/>
                            <path d="M369.298,387.728C370.087,387.035 370.307,386.922 370.736,387.183L373.044,388.584C374.046,389.18 374.678,389.581 374.817,389.739C374.935,389.874 374.983,390.111 374.544,390.656L373.922,391.402C373.833,391.801 374.296,392.237 374.663,392.156C375.66,391.2 376.526,390.413 377.653,389.423C378.825,388.394 380.055,387.341 381.177,386.436C381.26,386.122 380.738,385.618 380.503,385.623L379.528,386.24C378.575,386.837 377.918,386.497 376.258,385.563L365.439,379.424C363.47,378.318 362.467,377.722 361.713,377.226C361.326,376.967 361.091,376.973 360.798,377.231C360.753,377.27 360.889,379.107 360.025,380.305C360.667,380.899 360.977,382.025 361.705,383.9L364.483,391.2C365.295,393.356 365.816,394.812 366.224,396.049C366.612,397.263 366.32,397.838 365.838,398.381L365.29,398.983C365.291,399.302 365.687,399.798 366.054,399.716C367.09,398.806 367.555,398.291 368.321,397.618C369.286,396.81 370.091,396.09 370.92,395.443C371.046,395.132 370.543,394.65 370.269,394.61L369.494,395.091C368.764,395.533 368.352,395.655 368.233,395.52C368.075,395.34 367.94,395.14 367.68,394.571L366.266,391.188C366.025,390.642 366.073,390.56 366.614,390.085L369.298,387.728ZM366.018,388.497C365.455,388.992 365.283,389.023 364.951,388.236L364.03,386.051C363.458,384.717 362.84,383.104 362.565,382.427C363.183,382.722 364.658,383.583 365.825,384.275L368.014,385.587C368.709,386.014 368.656,386.181 368.137,386.636L366.018,388.497Z" style="fill:white;fill-rule:nonzero;"/>
                            <path d="M391.83,367.423C390.636,366.327 390.536,365.991 391.034,365.227L391.413,364.637C391.443,364.339 390.936,363.874 390.642,363.93C389.996,364.722 389.022,365.822 388.049,366.882C387.056,367.964 386.043,369.029 384.558,370.558C384.467,370.923 384.973,371.388 385.329,371.266L386.354,370.415C387.483,369.495 387.738,369.485 388.932,370.581L390.325,371.859C391.762,373.179 391.762,373.667 390.605,374.928C389.855,375.746 388.667,376.774 386.985,377.185C384.693,377.729 381.819,377.088 378.66,374.188C375.166,370.982 373.811,366.601 377.037,363.085C378.924,361.029 381.24,360.592 383.967,361.793C384.329,361.84 384.854,361.224 384.692,360.912C383.142,359.896 381.576,358.5 380.853,357.958C380.203,358.663 378.559,359.392 376.308,361.845C374.583,363.724 373.291,365.839 372.727,368.092C371.776,372.102 373.073,375.571 375.837,378.107C379.018,381.027 383.094,381.513 386.505,379.882C388.563,378.878 389.894,377.738 391.274,376.234C392.411,374.996 393.868,372.833 394.335,371.838C394.682,371.058 395.143,370.423 395.421,369.986C395.477,369.793 395.123,369.428 394.954,369.435C394.48,369.774 393.998,369.412 393.069,368.56L391.83,367.423Z" style="fill:white;fill-rule:nonzero;"/>
                            <path d="M399.023,355.287C399.646,354.443 399.837,354.285 400.312,354.449L402.865,355.329C403.97,355.698 404.673,355.956 404.842,356.081C404.987,356.188 405.084,356.409 404.77,357.035L404.321,357.896C404.319,358.305 404.864,358.633 405.205,358.475C405.977,357.329 406.655,356.376 407.547,355.17C408.473,353.916 409.452,352.625 410.356,351.503C410.371,351.178 409.753,350.796 409.525,350.851L408.703,351.661C407.899,352.447 407.184,352.255 405.365,351.693L393.488,347.991C391.33,347.329 390.223,346.959 389.381,346.635C388.947,346.464 388.72,346.52 388.488,346.833C388.452,346.881 388.975,348.648 388.385,350.002C389.139,350.446 389.68,351.48 390.79,353.158L395.054,359.702C396.306,361.636 397.124,362.949 397.785,364.071C398.422,365.175 398.258,365.799 397.903,366.431L397.495,367.136C397.564,367.448 398.056,367.848 398.397,367.691C399.216,366.582 399.561,365.979 400.167,365.159C400.939,364.165 401.573,363.29 402.245,362.482C402.302,362.151 401.709,361.787 401.432,361.806L400.777,362.441C400.157,363.028 399.781,363.234 399.636,363.128C399.443,362.985 399.268,362.819 398.894,362.318L396.794,359.312C396.443,358.829 396.472,358.739 396.9,358.16L399.023,355.287ZM395.981,356.735C395.535,357.338 395.374,357.405 394.883,356.707L393.519,354.766C392.676,353.584 391.73,352.139 391.317,351.536C391.984,351.693 393.608,352.222 394.895,352.65L397.313,353.467C398.083,353.737 398.067,353.912 397.657,354.467L395.981,356.735Z" style="fill:white;fill-rule:nonzero;"/>
                            <path d="M413.717,334.916C410.895,333.202 408.179,334.323 406.368,335.397L404.441,336.546C402.995,337.424 401.279,337.821 400.099,337.105C398.817,336.326 398.275,334.733 399.304,333.039C400.426,331.192 402.967,331.227 404.54,331.586C404.936,331.512 405.299,330.856 405.069,330.541C403.351,329.497 401.811,328.912 401.124,328.775C400.886,329.052 400.695,329.251 400.39,329.522C399.461,330.36 398.72,331.349 398.206,332.196C395.947,335.915 396.575,339.382 399.488,341.117C402.027,342.659 404.795,341.57 406.839,340.285C408.544,339.213 410.959,338.01 413.037,339.272C414.319,340.051 415.097,341.718 413.944,343.617C412.62,345.797 409.218,346.08 407.24,345.579C406.833,345.613 406.501,346.218 406.725,346.6C408.469,347.66 410.518,348.448 411.378,348.303C412.011,347.951 413.563,346.895 414.995,344.536C417.348,340.663 416.871,336.832 413.717,334.916Z" style="fill:white;fill-rule:nonzero;"/>
                            <path d="M419.648,326.243C422.157,327.461 422.321,327.741 421.866,329.021L421.412,330.301C421.47,330.596 422.094,330.898 422.361,330.762C423.224,328.846 423.887,327.434 424.515,326.14C425.104,324.927 425.777,323.587 426.683,321.859C426.612,321.591 425.988,321.288 425.734,321.398L425.075,322.412C424.323,323.548 424.029,323.605 421.52,322.387L409.624,316.612C408.923,316.272 408.881,316.152 409.195,315.504L409.982,313.885C410.964,311.86 412.415,312.098 414.365,312.477C414.646,312.447 414.946,311.692 414.768,311.44C413.205,310.747 411.113,309.498 410.324,308.782C410.219,308.797 410.021,308.935 409.942,309.097C409.864,309.259 409.851,309.353 409.851,309.486C410.302,310.005 410.132,310.423 409.268,312.204L404.396,322.24C403.4,324.291 403.253,324.32 402.728,324.232C402.595,324.301 402.502,324.423 402.437,324.558C402.371,324.693 402.36,324.854 402.388,325.001C403.348,325.7 404.953,326.646 406.539,328.116C406.969,328.125 407.272,327.638 407.267,327.236C405.691,325.47 404.887,324.38 405.843,322.41L406.656,320.736C406.97,320.089 407.105,320.154 407.752,320.468L419.648,326.243Z" style="fill:white;fill-rule:nonzero;"/>
                            <path d="M425.78,306.012C426.151,305.03 426.292,304.827 426.794,304.856L429.49,305.009C430.654,305.064 431.401,305.122 431.597,305.196C431.765,305.259 431.919,305.446 431.787,306.133L431.588,307.084C431.697,307.478 432.311,307.646 432.597,307.401C433.028,306.089 433.422,304.988 433.952,303.585C434.504,302.126 435.095,300.618 435.66,299.292C435.587,298.976 434.888,298.776 434.684,298.891L434.112,299.894C433.552,300.868 432.812,300.877 430.908,300.831L418.473,300.494C416.215,300.442 415.05,300.387 414.151,300.304C413.688,300.257 413.484,300.372 413.346,300.737C413.325,300.793 414.308,302.351 414.108,303.814C414.953,304.037 415.755,304.886 417.279,306.199L423.16,311.339C424.89,312.861 426.034,313.902 426.974,314.802C427.887,315.691 427.9,316.337 427.729,317.042L427.528,317.831C427.679,318.112 428.261,318.364 428.547,318.12C429.034,316.83 429.202,316.156 429.563,315.203C430.036,314.036 430.408,313.022 430.836,312.061C430.801,311.727 430.131,311.538 429.87,311.632L429.411,312.421C428.974,313.154 428.668,313.455 428.5,313.392C428.276,313.307 428.062,313.194 427.565,312.814L424.728,310.491C424.26,310.122 424.263,310.027 424.518,309.353L425.78,306.012ZM423.246,308.231C422.981,308.933 422.844,309.042 422.182,308.503L420.342,307.006C419.21,306.097 417.907,304.963 417.346,304.495C418.031,304.465 419.737,304.532 421.092,304.595L423.641,304.725C424.456,304.776 424.487,304.948 424.243,305.593L423.246,308.231Z" style="fill:white;fill-rule:nonzero;"/>
                        </g>
                    </g>
                </g>
            </g>
        </g>
    </g>
</svg>
