<?xml version="1.0" encoding="UTF-8" standalone="no"?>
<!DOCTYPE svg PUBLIC "-//W3C//DTD SVG 1.1//EN" "http://www.w3.org/Graphics/SVG/1.1/DTD/svg11.dtd">
<svg width="100%" height="100%" viewBox="0 0 450 450" version="1.1" xmlns="http://www.w3.org/2000/svg" xmlns:xlink="http://www.w3.org/1999/xlink" xml:space="preserve" xmlns:serif="http://www.serif.com/" style="fill-rule:evenodd;clip-rule:evenodd;stroke-linejoin:round;stroke-miterlimit:2;">
    <g transform="matrix(1,0,0,1,-750,-1338.55)">
        <g transform="matrix(1.7682,0,0,1,0,0)">
            <g transform="matrix(0.678655,0,0,1.2,118.765,708.554)">
                <circle cx="637.5" cy="712.5" r="187.5" style="fill:rgb(44,80,140);"/>
            </g>
        </g>
        <g transform="matrix(1.7682,0,0,1,0,0)">
            <g id="Logo-EndNote" serif:id="Logo EndNote" transform="matrix(0.325815,0,0,0.576107,444.996,1375.81)">
                <path d="M107.8,289.1L48.3,289.1L48.3,314.7L83,314.7L83,333.2L48.3,333.2L48.3,361.2L107.8,361.2L107.8,379.7L26.6,379.7L26.6,270.4L107.8,270.4L107.8,289.1ZM158.6,306.2C172.3,305.3 184.1,315.6 185.1,329.3C185.2,330.4 185.2,331.6 185.1,332.7L185.1,379.4L164.8,379.4L164.8,337.8C165.5,331.5 161,325.8 154.7,325C154,324.9 153.4,324.9 152.7,324.9C146.7,325.2 141.2,328.1 137.6,333L137.6,379.3L117.2,379.3L117.2,308L137,308L137,310.6C137,313.1 136.7,316.2 136.7,316.2C142,309.8 150.1,306.1 158.6,306.2ZM250.4,370.5C245.3,377.7 236.8,381.8 228,381.4C208.4,381.4 193.4,365.6 193.4,343.8C193.4,322 208.2,306.2 227.8,306.2C236.8,305.7 245.4,310 250.6,317.4C250.6,315 250.3,309.1 250.3,303.9L250.3,270.3L270.6,270.3L270.6,379.5L250.5,379.5L250.5,370.5L250.4,370.5ZM214.4,343.8C213.6,353.9 221.1,362.7 231.2,363.5C241.3,364.3 250.1,356.8 250.9,346.7C251,345.7 251,344.8 250.9,343.8C251.7,333.7 244.2,324.9 234.1,324.1C224,323.3 215.2,330.8 214.4,340.9C214.3,341.9 214.3,342.8 214.4,343.8ZM304.4,379.5L283,379.5L283,270.4L311.5,270.4L348.3,343.2L348.3,270.4L369.6,270.4L369.6,379.5L343.3,379.5L304.1,303.8L304.4,379.5ZM377.9,343.8C377.6,322.7 394.4,305.3 415.5,305C436.6,304.7 454,321.5 454.3,342.6C454.6,363.7 437.8,381.1 416.7,381.4L416,381.4C395.5,382 378.4,365.8 377.8,345.3C377.9,344.8 377.9,344.3 377.9,343.8ZM398.2,343.8C397.4,353.7 404.8,362.3 414.6,363.1C424.4,363.9 433.1,356.5 433.9,346.7C434,345.8 434,344.8 433.9,343.9C434.7,334 427.3,325.4 417.5,324.6C407.6,323.8 399,331.2 398.2,341C398.1,341.9 398.1,342.8 398.2,343.8ZM488.9,281L488.9,308.1L504.3,308.1L504.3,325.2L488.9,325.2L488.9,357.4C488.9,361.9 492.5,362.5 495.6,362.5C500.7,362.5 505,362.1 505,362.1L505,379.4C505,379.4 495.2,380.4 489.2,380.4C479.1,380.4 468.7,378.7 468.7,364.3L468.7,325.1L457.5,325.1L457.5,308L468.7,308L468.7,281L488.9,281ZM585.2,349.9L532,349.9C533.2,359.1 541.6,365.6 550.8,364.4C555.7,363.8 560.1,361 562.8,356.9L583.8,359.1C575,378.3 552.3,386.8 533.1,378C519.7,371.9 511,358.6 510.7,343.9C509.9,323.9 525.5,307.1 545.4,306.4L547.7,306.4C567.3,306.4 585.1,319.2 585.1,349.1L585.2,349.9ZM531.6,336.4L563.6,336.4C562.4,328.7 555.6,323.1 547.8,323.3C540,323 533.1,328.5 531.6,336.2L531.6,336.4ZM603.2,275.4L597.6,275.4L597.6,289.8L592,289.8L592,275.4L586.4,275.4L586.4,270.4L603.2,270.4L603.2,275.4ZM614.2,285.6L611.7,278.7L611.7,289.9L606.1,289.9L606.1,270.4L613.6,270.4L616.5,278.5L619.5,270.4L626.6,270.4L626.6,289.8L621,289.8L621,278.6L618.5,285.5L614.2,285.6Z" style="fill:white;fill-rule:nonzero;"/>
            </g>
        </g>
    </g>
</svg>
