<?xml version="1.0" encoding="UTF-8" standalone="no"?>
<!DOCTYPE svg PUBLIC "-//W3C//DTD SVG 1.1//EN" "http://www.w3.org/Graphics/SVG/1.1/DTD/svg11.dtd">
<svg width="100%" height="100%" viewBox="0 0 450 450" version="1.1" xmlns="http://www.w3.org/2000/svg" xmlns:xlink="http://www.w3.org/1999/xlink" xml:space="preserve" xmlns:serif="http://www.serif.com/" style="fill-rule:evenodd;clip-rule:evenodd;stroke-linejoin:round;stroke-miterlimit:2;">
    <g transform="matrix(1,0,0,1,-750,-750)">
        <g transform="matrix(1.7682,0,0,1,0,0)">
            <g transform="matrix(0.678655,0,0,1.2,118.765,120)">
                <circle cx="637.5" cy="712.5" r="187.5" style="fill:rgb(44,80,140);"/>
            </g>
        </g>
        <g transform="matrix(1.7682,0,0,1,0,0)">
            <g id="Logo-Facultad-de-Medicina-y-Odontologia.svg" serif:id="Logo Facultad de Medicina y Odontologia.svg" transform="matrix(0.332674,0,0,0.588235,551.407,975)">
                <g transform="matrix(1,0,0,1,-259.5,-255)">
                    <clipPath id="_clip1">
                        <rect x="0" y="0" width="519" height="510"/>
                    </clipPath>
                    <g clip-path="url(#_clip1)">
                        <g>
                            <path d="M235.632,207.695L235.636,207.698C237.595,209.117 239.598,210.536 241.635,211.951C243.72,213.398 245.802,214.816 247.873,216.2C258.727,223.452 270.405,230.552 282.093,237.094L281.449,238.244C269.752,231.697 258.045,224.577 247.142,217.293C244.983,215.85 242.894,214.428 240.883,213.032C238.831,211.607 236.816,210.179 234.845,208.752L234.827,208.739L234.823,208.736L235.319,208.097L235.618,207.685L235.632,207.695ZM235.946,230.207C250.468,239.524 264.995,247.877 279.525,255.264L278.927,256.438C264.367,249.036 249.803,240.662 235.236,231.314L235.946,230.207ZM237.345,252.72C243.971,256.125 250.442,259.678 256.66,263.469C262.891,267.27 268.882,271.313 274.537,275.694L273.734,276.735C268.118,272.387 262.167,268.369 255.976,264.592C249.771,260.811 243.331,257.272 236.746,253.89L237.345,252.72ZM243.26,275.688C247.609,278.979 251.961,282.076 256.314,284.934C260.674,287.795 265.022,290.408 269.354,292.725L268.736,293.883C264.34,291.533 259.96,288.903 255.593,286.037C251.222,283.168 246.845,280.053 242.467,276.738L243.26,275.688ZM249.749,300.379L268.294,311.651L267.614,312.774L249.07,301.502L249.749,300.379ZM265.093,202.997C269.826,198.594 273.218,194.142 274.745,189.926C275.57,187.654 275.849,185.452 275.501,183.368C275.155,181.297 274.181,179.324 272.498,177.498C270.224,175.029 266.659,172.826 261.606,170.993L261.566,170.978L261.566,200.675C262.745,201.44 263.921,202.214 265.093,202.997M245.96,168.359C245.075,169.006 244.268,169.689 243.544,170.407C241.275,172.656 239.828,175.217 239.343,177.897C238.86,180.563 239.326,183.366 240.879,186.112L240.879,186.115C241.612,187.413 242.593,188.705 243.835,189.967C244.541,190.366 245.251,190.769 245.96,191.175L245.96,168.359ZM287.056,112.219C285.071,112.219 283.462,113.4 283.462,114.855C283.462,116.311 285.071,117.492 287.056,117.492C289.041,117.492 290.651,116.311 290.651,114.855C290.651,113.4 289.041,112.219 287.056,112.219M225.468,112.219C227.452,112.219 229.063,113.4 229.063,114.855C229.063,116.311 227.452,117.492 225.468,117.492C223.484,117.492 221.873,116.311 221.873,114.855C221.873,113.4 223.484,112.219 225.468,112.219M404.507,55.631C390.221,57.002 376.275,56.531 362.673,54.216C349.073,51.902 335.809,47.743 322.88,41.74L321.962,43.731C335.061,49.814 348.509,54.03 362.305,56.378C376.098,58.724 390.236,59.203 404.716,57.812L404.507,55.631ZM381.57,74.922L381.539,74.922L381.539,74.921C378.727,74.859 375.874,74.691 373.004,74.42C370.146,74.149 367.261,73.772 364.368,73.294C349.545,70.839 334.789,65.698 322.68,58.144L321.522,60.003C333.893,67.718 348.929,72.965 364.009,75.462C366.934,75.946 369.872,76.329 372.802,76.605C375.719,76.882 378.623,77.053 381.491,77.116L381.495,77.115L381.531,77.117L381.57,74.922ZM371.259,81.364L371.227,81.363C368.416,81.237 365.569,81.004 362.706,80.667C359.855,80.332 356.978,79.889 354.097,79.345C339.334,76.553 324.699,71.078 312.765,63.252L311.565,65.083C323.756,73.078 338.67,78.665 353.689,81.505C356.603,82.055 359.53,82.505 362.453,82.848C365.363,83.19 368.263,83.427 371.129,83.556L371.133,83.556L371.169,83.557L371.259,81.364ZM102.029,62.817C116.368,63.437 130.271,62.234 143.733,59.209C157.192,56.184 170.22,51.334 182.815,44.661L183.837,46.601C171.075,53.364 157.867,58.279 144.213,61.347C130.563,64.416 116.469,65.634 101.936,65.007L102.029,62.817ZM125.947,80.878L125.979,80.876L125.979,80.875C128.784,80.666 131.624,80.347 134.476,79.925C137.316,79.507 140.177,78.978 143.041,78.348C157.714,75.119 172.18,69.211 183.876,61.032L185.13,62.827C173.181,71.182 158.441,77.21 143.513,80.495C140.617,81.132 137.704,81.669 134.793,82.099C131.894,82.527 129.003,82.851 126.142,83.064L126.138,83.064L126.102,83.067L125.947,80.878ZM136.583,86.77L136.614,86.767L136.614,86.766C139.415,86.494 142.246,86.111 145.088,85.625C147.917,85.14 150.767,84.548 153.615,83.853C168.212,80.291 182.538,74.054 194.046,65.611L195.341,67.378C183.585,76.003 168.986,82.364 154.136,85.988C151.256,86.691 148.355,87.293 145.454,87.79C142.566,88.285 139.683,88.674 136.827,88.952L136.823,88.952L136.788,88.956L136.583,86.77ZM126.202,81.994C135.185,87.265 144.592,91.121 154.059,93.109C163.9,94.439 171.871,91.135 179.842,87.831C196.409,80.961 212.31,73.57 245.358,105.353L245.323,108.625L244.506,107.455C212.494,76.668 196.588,83.263 180.684,89.857C172.429,93.28 164.173,96.703 153.725,95.277L153.648,95.263C132.534,90.841 111.759,77.16 95.185,59.957L94.438,59.176L93.852,58.556C90.599,55.095 87.508,51.492 84.614,47.793C81.719,44.091 79.032,40.312 76.586,36.503L76.585,36.504L76.577,36.492L74.734,33.671L77.883,34.865C100.434,43.414 118.495,37.98 136.7,32.504C149.679,28.6 162.73,24.674 177.615,25.631L177.71,25.639C195.879,28.367 209.877,48.193 223.873,68.015C230.78,77.799 237.688,87.582 245.038,95.213L244.973,98.293L243.458,96.732C235.986,88.975 229.031,79.127 222.078,69.279C208.361,49.851 194.643,30.422 177.41,27.817C162.948,26.902 150.102,30.765 137.328,34.608C119.601,39.94 102.009,45.233 80.211,38.017C82.136,40.871 84.183,43.686 86.34,46.444C87.87,48.399 89.461,50.333 91.105,52.235C107.786,54.939 123.406,54.841 138.626,52.121C154.064,49.361 169.101,43.902 184.423,35.934L185.437,37.884C169.917,45.955 154.676,51.486 139.012,54.285C124.356,56.904 109.335,57.131 93.376,54.805C94.059,55.56 94.749,56.31 95.448,57.053L105.758,67.04C109.504,70.338 113.405,73.434 117.424,76.274C120.351,78.449 123.278,80.432 126.202,81.994M381.374,76.049C372.682,81.786 363.489,86.13 354.14,88.612C344.382,90.457 336.248,87.576 328.114,84.693C311.21,78.703 294.943,72.157 263.61,105.632L263.816,108.896L264.57,107.685C294.922,75.26 311.153,81.011 327.381,86.761C335.804,89.747 344.228,92.731 354.587,90.759L354.663,90.742C375.515,85.216 395.544,70.465 411.193,52.415L411.898,51.596L412.45,50.947C415.518,47.32 418.415,43.558 421.111,39.713C423.808,35.865 426.292,31.95 428.534,28.017L428.536,28.017L428.542,28.006L430.236,25.091L427.153,26.449C405.082,36.17 386.761,31.692 368.292,27.179C355.128,23.962 341.889,20.726 327.073,22.463L326.98,22.476C308.979,26.154 296.04,46.687 283.105,67.216C276.72,77.349 270.336,87.481 263.397,95.487L263.623,98.56L265.054,96.923C272.11,88.784 278.536,78.583 284.963,68.384C297.642,48.263 310.321,28.141 327.394,24.635C341.788,22.963 354.82,26.146 367.777,29.313C385.759,33.708 403.605,38.069 424.994,29.72C423.222,32.67 421.325,35.59 419.316,38.457C417.891,40.49 416.403,42.504 414.861,44.49C398.345,48.066 382.741,48.787 367.401,46.87C351.838,44.924 336.535,40.262 320.816,33.11L319.906,35.11C335.828,42.354 351.339,47.078 367.128,49.05C381.902,50.896 396.913,50.336 412.729,47.175C412.086,47.966 411.436,48.75 410.777,49.53L401.006,60.043C397.438,63.533 393.704,66.83 389.84,69.877C387.032,72.203 384.214,74.337 381.374,76.049M191.609,112.021L197.016,119.134C199.751,111.049 205.639,105.277 215.001,104.081L215.038,104.076L215.074,104.076C224.109,103.929 227.753,106.891 231.191,109.685C233.336,111.427 235.397,113.103 238.728,113.807L238.794,113.822L238.857,113.849C239.429,114.1 239.813,114.441 240.028,114.867C240.25,115.303 240.277,115.793 240.134,116.334L240.13,116.352L240.124,116.372L240.121,116.377C239.6,118.093 238.981,119.671 238.268,121.106C237.549,122.551 236.73,123.863 235.815,125.038C231.23,130.922 224.287,133.326 215.246,132.327L215.246,135.324C221.176,142.165 232.961,144.428 245.96,146.859L245.96,116.041L245.261,115.338C211.673,82.251 195.547,89.232 179.423,96.214C176.823,97.339 174.224,98.465 171.553,99.434C175.8,102.303 178.878,106.723 181.658,110.713C184.633,114.98 187.251,118.736 190.427,119.285L190.427,110.466L191.609,112.021ZM315.628,121.381C318.984,118.762 321.238,114.87 323.525,110.92C327.05,104.83 330.653,98.609 338.506,96.267C335.361,95.453 332.292,94.449 329.222,93.445C311.66,87.709 294.098,81.972 262.391,113.798L261.566,114.626L261.566,149.192L262.075,148.932C266.722,146.404 271.736,145.095 276.673,143.808C284.429,141.785 291.991,139.812 297.374,133.171L295.735,130.642C291.089,131.043 286.983,129.972 283.207,128.007C279.366,126.006 275.876,123.076 272.509,119.829L272.417,119.741L272.364,119.623C271.538,117.776 271.311,116.218 271.681,114.952C272.068,113.627 273.07,112.662 274.687,112.057L274.686,112.056C277.09,111.152 279.118,109.695 281.153,108.234C285.3,105.257 289.476,102.257 296.978,103.381C298.041,103.541 299.163,103.898 300.31,104.424C304.57,106.379 309.234,110.706 312.628,115.834C313.8,117.605 314.821,119.476 315.628,121.381M261.566,52.507L261.566,91.269C268.897,84.46 274.139,74.556 279.678,64.09C281.401,60.835 283.152,57.525 285.005,54.232L283.788,54.061L278.815,53.492L273.803,53.048L268.758,52.726L263.678,52.534L261.566,52.507ZM221.745,55.902C223.337,58.365 224.892,60.837 226.427,63.277C232.872,73.527 238.977,83.231 245.96,89.376L245.96,52.88L243.321,53.048L238.311,53.492L233.337,54.061L228.402,54.753L223.505,55.564L221.745,55.902ZM366.678,94.716C367.228,94.603 367.779,94.484 368.33,94.362L371.165,94.216L368.683,95.593L365.117,97.575C365.567,98.929 366.282,100.198 366.998,101.466C368.712,104.506 370.427,107.546 368.989,112.006L368.723,112.832L368,112.353C366.235,111.185 364.239,111.15 362.294,111.117C360.161,111.08 358.082,111.045 356.22,109.683C356.111,109.749 356.007,109.814 355.909,109.881L355.906,109.881C355.718,110.007 355.546,110.14 355.388,110.281C354.789,110.814 354.53,111.392 354.611,112.01C354.902,112.109 355.278,112.168 355.653,112.227L355.654,112.227C357.083,112.454 358.512,112.681 358.273,114.573L358.221,114.982L357.829,115.113C355.986,115.736 354.278,116.793 352.571,117.849C349.103,119.996 345.631,122.144 340.77,121.079C340.23,122.638 341.275,123.672 342.32,124.705L342.318,124.706C343.021,125.4 343.724,126.095 344.121,126.976L344.42,127.637L343.732,127.871C341.94,128.476 340.853,129.799 339.777,131.106C338.472,132.694 337.179,134.265 334.713,134.826L334.613,134.849L334.521,134.841C330.349,134.523 329.689,132.851 329.025,131.163C328.847,130.715 328.669,130.265 328.403,129.87L326.225,130.832C324.858,141.797 320.638,149.55 314.583,155.24C308.675,160.792 301.037,164.354 292.613,167.009C295.005,169.881 297.077,173.205 298.737,177.08L298.755,177.12L298.764,177.147L298.764,177.15C299.278,178.801 299.641,180.503 299.837,182.244C300.034,183.984 300.064,185.761 299.915,187.567C299.171,196.553 293.978,206.292 282.634,215.812C283.518,216.523 284.396,217.243 285.266,217.967C287.351,219.705 289.366,221.455 291.294,223.212L291.295,223.211L291.299,223.215L291.325,223.238L291.365,223.287C293.522,225.879 294.153,229.261 293.633,232.287C293.356,233.899 292.75,235.417 291.873,236.665C290.981,237.934 289.804,238.928 288.401,239.468C287.875,239.671 287.32,239.807 286.738,239.871C288.671,241.982 289.655,245.753 289.638,249.205C289.63,250.622 289.457,252.023 289.116,253.288C288.769,254.582 288.241,255.75 287.531,256.67C286.512,257.992 285.142,258.803 283.416,258.779C285.82,261.891 286.364,266.406 285.707,270.362C285.446,271.936 284.986,273.438 284.362,274.754C283.728,276.092 282.921,277.244 281.98,278.092C280.815,279.139 279.458,279.729 277.974,279.654C279.669,281.871 280.296,284.783 280.097,287.469C279.994,288.852 279.663,290.194 279.135,291.381C278.597,292.588 277.853,293.637 276.931,294.408C275.79,295.362 274.393,295.893 272.795,295.795C275.9,299.112 277.093,303.018 276.983,306.371C276.933,307.875 276.622,309.274 276.105,310.461C275.574,311.678 274.823,312.686 273.909,313.379C273.051,314.029 272.059,314.403 270.979,314.42C271.365,314.893 271.719,315.399 272.036,315.928C273.4,318.211 274.105,320.987 273.986,323.776C273.868,326.574 272.926,329.393 270.999,331.756C270.02,332.957 268.786,334.039 267.282,334.938L266.361,335.488L266.287,334.418C265.895,328.676 259.903,325.488 253.822,322.256C249.599,320.01 245.331,317.74 242.673,314.516L242.669,314.512C240.828,312.606 240.081,309.729 240.326,306.971C240.431,305.803 240.71,304.654 241.157,303.613C241.611,302.559 242.239,301.602 243.035,300.828C244.063,299.83 245.358,299.145 246.903,298.949L238.976,293.445L238.945,293.426C236.943,291.869 235.685,288.971 235.237,285.908L235.236,285.908C234.941,283.881 234.996,281.768 235.424,279.922C235.865,278.018 236.708,276.379 237.974,275.375C238.435,275.01 238.946,274.729 239.512,274.547C236.277,272.526 233.019,270.528 229.743,268.547L229.698,268.52L229.646,268.473C227.207,266.285 226.514,263.104 226.874,260.104C227.065,258.508 227.556,256.961 228.238,255.649C228.933,254.31 229.838,253.2 230.843,252.506C231.263,252.215 231.702,251.994 232.151,251.857C231.641,251.591 231.129,251.325 230.615,251.06L230.598,251.05C225.499,248.208 223.67,243.625 223.833,239.422C223.896,237.812 224.25,236.26 224.824,234.886C225.405,233.497 226.214,232.279 227.176,231.355C228.04,230.524 229.032,229.903 230.097,229.597L229.191,229.193L229.153,229.175L229.128,229.162C225.613,227.133 223.764,224.352 223.081,221.427C222.552,219.162 222.728,216.818 223.372,214.674C224.014,212.539 225.126,210.592 226.469,209.118C227.694,207.773 229.121,206.626 230.584,206.148C227.038,203.381 223.697,200.549 220.627,197.638L220.614,197.629L220.611,197.625L220.589,197.603L220.56,197.566C219.821,196.63 219.159,195.677 218.57,194.716C215.004,188.897 214.266,182.887 215.521,177.462C216.334,173.949 217.986,170.684 220.243,167.878C216.132,167.511 212.026,166.468 207.925,164.853C203.454,163.09 198.984,160.639 194.516,157.632L194.222,157.435L194.222,150.776L189.917,148.624L189.495,148.413L189.559,147.949L190.414,141.674L188.758,136.705L185.111,132.815L181.744,139.289L181.721,139.336L181.675,139.393C180.8,140.5 179.861,141.195 178.88,141.591C177.894,141.988 176.876,142.078 175.84,141.975L175.437,141.936L175.291,141.558C174.212,138.759 171.465,137.078 169.024,135.583C166.747,134.19 164.711,132.943 164.177,130.984L164.151,130.888L164.151,127.232L167.837,127.232L167.461,124.783C162.875,124.941 158.744,123.578 154.587,122.205C151.514,121.19 148.423,120.17 145.175,119.787L144.589,119.718L144.589,115.553L152.472,115.553L152.472,113.726C151.669,113.409 150.728,113.216 149.663,113.142C148.451,113.058 147.082,113.126 145.57,113.331C144.132,114.845 142.543,115.881 140.808,116.433C140.444,116.549 140.083,116.642 139.731,116.712C139.366,116.783 138.996,116.836 138.62,116.868L138.618,116.868L138.585,116.87L138.236,116.898L138.016,116.618C136.349,114.482 136.947,112.451 137.547,110.422C137.942,109.083 138.337,107.743 137.911,106.5L137.611,105.627L140.896,105.627L141.29,103.264L137.49,102.252L137.15,102.16L137.034,101.829C136.611,100.598 136.866,99.384 137.804,98.188L138.458,97.465C137.326,96.884 136.203,96.294 135.088,95.693L132.587,97.707L128.956,100.778L125.4,103.933L121.921,107.172L118.519,110.492L115.199,113.892L111.96,117.372L108.806,120.927L105.735,124.559L102.75,128.265L99.854,132.043L97.046,135.891L94.329,139.808L91.707,143.795L89.177,147.845L86.743,151.962L84.406,156.139L82.169,160.38L80.031,164.679L77.996,169.037L76.064,173.452L74.237,177.923L72.517,182.446L70.905,187.021L69.403,191.647L68.011,196.322L66.734,201.045L65.569,205.813L64.521,210.625L63.59,215.48L62.778,220.377L62.087,225.313L61.518,230.287L61.073,235.299L60.753,240.344L60.56,245.424L60.5,250.062L60.5,251.015L60.56,255.656L60.753,260.735L61.073,265.779L61.518,270.791L62.087,275.764L62.778,280.699L63.59,285.596L64.521,290.451L65.569,295.264L66.734,300.031L68.012,304.754L69.403,309.43L70.905,314.055L72.517,318.629L74.237,323.153L76.064,327.623L77.996,332.037L80.031,336.395L82.169,340.695L84.406,344.936L86.743,349.113L89.177,353.229L91.706,357.281L94.329,361.266L97.045,365.182L99.853,369.031L102.749,372.809L105.733,376.514L108.804,380.147L111.959,383.701L115.198,387.18L118.518,390.582L121.919,393.903L125.398,397.141L128.954,400.295L132.585,403.367L136.291,406.352L140.069,409.248L143.917,412.055L147.834,414.772L151.819,417.395L155.871,419.924L159.987,422.358L164.165,424.695L168.405,426.932L172.706,429.07L177.064,431.106L181.478,433.037L185.948,434.863L190.472,436.584L195.048,438.195L199.673,439.699L204.349,441.09L209.071,442.369L213.839,443.533L218.652,444.582L223.507,445.512L228.403,446.322L233.339,447.014L238.313,447.584L243.323,448.029L248.369,448.35L253.448,448.541L258.089,448.602L259.042,448.602L263.681,448.541L268.761,448.35L273.806,448.029L278.818,447.584L283.79,447.014L288.727,446.322L293.622,445.512L298.478,444.582L303.29,443.531L308.058,442.367L312.78,441.09L317.455,439.699L322.08,438.195L326.655,436.584L331.179,434.863L335.65,433.037L340.064,431.106L344.421,429.07L348.722,426.932L352.962,424.695L357.14,422.358L361.255,419.926L365.306,417.395L369.291,414.774L373.208,412.057L377.057,409.25L380.834,406.354L384.54,403.369L388.171,400.297L391.728,397.143L395.206,393.904L398.608,390.584L401.928,387.184L405.167,383.703L408.321,380.149L411.393,376.516L414.377,372.811L417.274,369.033L420.081,365.184L422.798,361.268L425.421,357.281L427.95,353.231L430.384,349.113L432.721,344.936L434.958,340.695L437.095,336.397L439.131,332.037L441.064,327.623L442.89,323.153L444.61,318.629L446.222,314.053L447.725,309.428L449.116,304.752L450.394,300.029L451.559,295.262L452.608,290.449L453.536,285.594L454.349,280.697L455.04,275.762L455.609,270.787L456.054,265.776L456.374,260.731L456.568,255.653L456.627,251.012L456.627,250.059L456.568,245.421L456.374,240.341L456.054,235.296L455.609,230.284L455.04,225.31L454.349,220.375L453.536,215.479L452.608,210.624L451.558,205.812L450.394,201.044L449.115,196.322L447.724,191.646L446.222,187.021L444.61,182.446L442.89,177.923L441.064,173.452L439.131,169.038L437.095,164.679L434.958,160.381L432.721,156.14L430.384,151.962L427.95,147.846L425.421,143.796L422.798,139.81L420.082,135.893L417.275,132.045L414.378,128.267L411.395,124.562L408.323,120.93L405.169,117.374L401.929,113.895L398.61,110.494L395.208,107.174L391.73,103.935L388.174,100.78L384.542,97.709L380.837,94.724L377.059,91.828L375.645,90.797C372.717,92.246 369.729,93.553 366.678,94.716M261.566,46.778L263.825,46.807L269.052,47.006L274.244,47.336L279.401,47.793L284.519,48.379L288.132,48.884C290.7,44.675 293.507,40.559 296.707,36.688L296.729,36.668C304.999,27.192 314.467,20.517 325.405,17.293C336.339,14.071 348.708,14.303 362.782,18.638L362.787,18.638C376.313,22.903 389.393,25.435 401.922,25.834C414.423,26.231 426.388,24.509 437.714,20.269L440.372,19.275L439.071,21.799C428.814,41.697 417.078,58.185 403.716,70.906C396.684,77.6 389.2,83.252 381.247,87.807L384.384,90.214L388.196,93.283L391.932,96.442L395.591,99.687L399.169,103.019L402.669,106.435L406.084,109.934L409.415,113.513L412.661,117.172L415.82,120.907L418.89,124.719L421.87,128.605L424.757,132.565L427.552,136.594L430.251,140.696L432.853,144.863L435.357,149.098L437.76,153.397L440.062,157.76L442.261,162.184L444.355,166.669L446.343,171.211L448.222,175.812L449.991,180.466L451.651,185.175L453.196,189.935L454.628,194.747L455.943,199.606L457.14,204.513L458.219,209.465L459.177,214.463L460.012,219.501L460.723,224.58L461.309,229.699L461.767,234.854L462.096,240.047L462.294,245.272L462.345,249.212L462.368,249.212L462.368,251.859L462.345,251.859L462.294,255.799L462.096,261.026L461.767,266.217L461.309,271.373L460.723,276.492L460.012,281.572L459.177,286.612L458.219,291.61L457.14,296.561L455.943,301.467L454.628,306.328L453.196,311.139L451.651,315.901L449.991,320.61L448.222,325.264L446.343,329.863L444.355,334.406L442.261,338.891L440.061,343.317L437.759,347.68L435.356,351.979L432.852,356.213L430.249,360.381L427.551,364.483L424.756,368.512L421.868,372.473L418.888,376.358L415.82,380.17L412.659,383.906L409.413,387.565L406.082,391.145L402.666,394.643L399.167,398.059L395.588,401.389L391.93,404.637L388.195,407.795L384.382,410.863L380.496,413.844L376.536,416.733L372.507,419.526L368.405,422.225L364.237,424.826L360.003,427.33L355.704,429.735L351.341,432.035L346.917,434.235L342.433,436.328L337.891,438.317L333.29,440.195L328.636,441.967L323.927,443.625L319.166,445.17L314.355,446.602L309.495,447.918L304.588,449.115L299.637,450.194L294.64,451.151L289.601,451.987L284.522,452.697L279.403,453.283L274.247,453.74L269.055,454.07L263.829,454.268L259.89,454.319L259.89,454.342L257.242,454.342L257.242,454.319L253.302,454.268L248.075,454.07L242.882,453.74L237.727,453.283L232.608,452.697L227.528,451.987L222.489,451.151L217.493,450.194L212.54,449.115L207.634,447.918L202.774,446.602L197.962,445.17L193.201,443.625L188.492,441.967L183.839,440.195L179.237,438.317L174.694,436.328L170.21,434.235L165.786,432.035L161.423,429.733L157.123,427.33L152.888,424.826L148.72,422.225L144.619,419.526L140.589,416.731L136.629,413.844L132.743,410.863L128.931,407.793L125.195,404.635L121.536,401.389L117.958,398.057L114.458,394.641L111.043,391.141L107.712,387.563L104.466,383.904L101.307,380.17L98.237,376.356L95.257,372.471L92.37,368.512L89.575,364.481L86.877,360.381L84.275,356.213L81.771,351.979L79.367,347.678L77.066,343.315L74.866,338.891L72.773,334.406L70.784,329.865L68.905,325.264L67.136,320.61L65.478,315.901L63.931,311.141L62.5,306.328L61.185,301.469L59.987,296.563L58.908,291.612L57.95,286.613L57.115,281.574L56.404,276.494L55.819,271.377L55.361,266.221L55.031,261.029L54.833,255.803L54.782,251.863L54.759,251.863L54.759,249.216L54.782,249.216L54.833,245.276L55.031,240.049L55.361,234.857L55.819,229.701L56.404,224.583L57.115,219.504L57.95,214.464L58.908,209.466L59.987,204.514L61.185,199.607L62.5,194.748L63.931,189.936L65.478,185.175L67.136,180.466L68.905,175.812L70.784,171.211L72.773,166.669L74.866,162.183L77.067,157.759L79.368,153.396L81.772,149.097L84.276,144.863L86.878,140.695L89.576,136.593L92.371,132.563L95.259,128.603L98.239,124.717L101.309,120.905L104.468,117.17L107.714,113.511L111.045,109.932L114.461,106.432L117.96,103.017L121.538,99.686L125.197,96.44L128.933,93.281L129.691,92.671C102.646,76.918 80.884,54.855 66.859,27.499L66.857,27.5L66.852,27.492L65.407,24.746L68.256,25.971C92.804,36.53 113.869,30.563 134.359,24.759C146.513,21.317 158.47,17.931 170.933,17.994L170.954,17.994C192.985,18.547 206.831,33.783 218.324,50.722L222.488,49.925L227.527,49.09L232.605,48.379L237.724,47.793L242.879,47.336L245.96,47.139L245.96,30.796C245.416,30.5 244.891,30.174 244.388,29.822C243.703,29.343 243.052,28.809 242.444,28.227L242.441,28.229C239.319,25.244 237.373,21.04 237.373,16.386L237.373,16.383L237.378,16.383C237.378,11.856 239.212,7.759 242.174,4.798C245.135,1.838 249.23,0.006 253.754,0.004L253.754,-0L253.763,-0L253.763,0.004C258.29,0.005 262.386,1.838 265.349,4.799C268.31,7.76 270.142,11.855 270.144,16.381L270.148,16.381L270.148,16.393L270.144,16.393C270.143,18.549 269.725,20.609 268.968,22.491C268.719,23.111 268.437,23.709 268.123,24.275C266.611,27.022 264.326,29.292 261.566,30.791L261.566,46.778Z" style="fill:white;"/>
                            <path d="M146.533,100.968C162.311,103.795 170.95,112.63 179.588,121.463C183.846,125.82 188.106,130.175 193.217,133.776L192.459,134.853C187.256,131.187 182.949,126.783 178.645,122.38C170.155,113.698 161.664,105.014 146.301,102.262L146.533,100.968Z" style="fill:white;fill-rule:nonzero;"/>
                            <path d="M359.342,99.254C348.681,98.097 340.388,107.126 332.095,116.154C327.87,120.754 323.644,125.356 319.066,128.676L318.292,127.609C322.765,124.365 326.946,119.814 331.126,115.263C339.643,105.99 348.16,96.717 359.481,97.946L359.342,99.254Z" style="fill:white;fill-rule:nonzero;"/>
                            <path d="M213.286,184.765L203.312,194.219L200.783,194.219L200.783,190.109L195.724,192.323C194.615,195.699 191.51,194.219 189.402,195.167C193.532,207.359 185.397,202.122 183.395,205.6C178.163,204.775 173.931,211.237 167.272,212.555C169.714,217.923 180.284,217.291 186.147,224.374C190.617,222.07 192.806,216.909 196.989,216.033C200.953,215.376 203.867,215.704 201.731,220.775C198.676,225.039 195.763,222.018 192.563,224.569C191.404,226.676 187.679,228.64 189.086,230.891C192.725,233.148 188.665,234.263 188.454,235.95C184.734,240.849 185.577,243.273 190.982,243.22C203.934,242.796 213.606,234.23 222.565,236.806C223.006,234.127 224.301,231.162 227.022,229.626C218.385,223.483 219.815,210.471 228.287,205.804C219.923,201.982 213.568,194.396 213.286,184.765" style="fill:white;"/>
                            <path d="M303.805,184.765L315.689,194.219L318.218,194.219L318.218,190.109L323.277,192.323C324.386,195.699 327.492,194.219 329.599,195.167C325.47,207.359 333.604,202.122 335.606,205.6C340.837,204.775 345.072,211.237 351.729,212.555C349.286,217.923 338.717,217.291 332.853,224.374C328.384,222.07 326.197,216.909 322.012,216.033C318.048,215.376 315.134,215.704 317.27,220.775C320.326,225.039 323.24,222.018 326.438,224.569C327.597,226.676 331.323,228.64 329.915,230.891C326.276,233.148 330.337,234.263 330.548,235.95C334.267,240.849 333.423,243.273 328.019,243.22C315.067,242.796 311.821,235.273 302.862,237.849C302.422,235.169 296.784,238.63 294.063,237.095C302.701,230.951 295.538,220.544 287.067,215.878C295.431,212.055 303.523,194.396 303.805,184.765" style="fill:white;"/>
                            <path d="M215.495,172.606C213.804,175.556 212.982,178.306 213.429,181.257L205.209,189.477L202.996,189.162C203.101,187.581 205.112,185.9 203.312,184.419C201.731,183.349 200.151,183.349 198.57,184.419C200.174,185.894 198.57,187.37 198.57,188.845C196.884,189.477 195.198,188.806 193.512,190.742L188.454,194.219L188.454,187.264C189.171,186.105 192.394,185.447 189.402,183.787L184.975,186.632C186.081,181.696 188.056,178.389 191.299,177.464C189.996,171.721 181.776,173.398 178.97,169.56C184.403,169.025 187.298,165.791 188.454,160.709C193.862,165.261 187.841,173.622 200.467,175.567C205.209,174.513 212.758,178.572 215.495,172.606" style="fill:white;"/>
                            <path d="M303.506,172.606C305.196,175.556 306.019,178.306 305.572,181.257L313.792,189.477L316.005,189.162C315.9,187.581 313.89,185.9 315.689,184.419C317.269,183.349 318.85,183.349 320.431,184.419C318.827,185.894 320.431,187.37 320.431,188.845C322.116,189.477 323.803,188.806 325.489,190.742L330.548,194.219L330.548,187.264C329.83,186.105 326.607,185.447 329.599,183.787L334.025,186.632C332.919,181.696 330.945,178.389 327.702,177.464C329.005,171.721 337.226,173.398 340.031,169.56C334.598,169.025 331.703,165.791 330.548,160.709C325.14,165.261 331.16,173.622 318.534,175.567C313.792,174.513 306.243,178.572 303.506,172.606" style="fill:white;"/>
                            <path d="M140.717,135.734C158.527,147.603 155.172,163.549 173.911,169.244C175.285,167.347 174.333,165.451 174.544,163.554C175.913,163.554 177.283,162.273 178.654,163.554L178.654,167.031C182.277,165.239 185.423,162.765 186.873,157.863L190.034,157.863C191.12,155.844 191.43,154.213 190.034,153.437C188.243,153.226 186.451,154.647 184.66,152.805L187.189,147.747L188.454,142.056L187.189,139.211L185.925,136.049C184.958,139.023 180.736,141.529 180.235,144.269L176.441,145.218L173.911,142.056L171.698,143.953L171.382,147.431L168.853,147.747L169.169,153.437C165.688,158.459 164.532,148.8 162.214,146.482C159.369,141.951 163.035,134.273 153.679,132.888C153.363,134.153 155.139,136.583 152.73,136.682L149.569,136.366L151.15,131.308L148.304,131.308L146.091,134.785L140.717,135.734Z" style="fill:white;"/>
                            <path d="M378.284,135.734C360.475,147.603 363.829,163.549 345.09,169.244C343.716,167.347 344.669,165.451 344.458,163.554C343.088,163.554 341.718,162.273 340.347,163.554L340.347,167.031C336.724,165.239 333.577,162.765 332.128,157.863L328.967,157.863C327.881,155.844 327.571,154.213 328.967,153.437C330.759,153.226 332.55,154.647 334.341,152.805L331.811,147.747L330.548,142.056L331.811,139.211L333.076,136.049C334.043,139.023 338.265,141.529 338.766,144.269L342.56,145.218L345.09,142.056L347.303,143.953L347.619,147.431L350.147,147.747L349.832,153.437C353.313,158.459 354.469,148.8 356.787,146.482C359.632,141.951 355.966,134.273 365.323,132.888C365.638,134.153 363.862,136.583 366.27,136.682L369.432,136.366L367.851,131.308L370.697,131.308L372.91,134.785L378.284,135.734Z" style="fill:white;"/>
                            <path d="M146.871,130.052L146.401,132.406L141.233,132.563C137.5,133.344 134.315,135.226 133.09,141.035L128.548,145.428L124.319,142.761C122.127,144.591 119.308,144.696 117.742,148.252C113.409,145.428 115.81,141.349 112.261,137.897C110.799,136.432 109.338,136.851 107.876,139.153C111.477,143.598 105.057,150.396 118.682,152.489L117.429,158.45L118.682,161.432C107.758,160.961 100.737,156.41 99.419,145.899C99.275,133.399 111.255,126.495 127.608,127.385L146.871,130.052Z" style="fill:white;"/>
                            <path d="M372.13,130.052L372.6,132.406L377.768,132.563C381.501,133.344 384.686,135.226 385.911,141.035L390.453,145.428L394.682,142.761C396.874,144.591 399.693,144.696 401.259,148.252C405.592,145.428 403.191,141.349 406.74,137.897C408.202,136.432 409.663,136.851 411.126,139.153C407.524,143.598 413.944,150.396 400.319,152.489L401.572,158.45L400.319,161.432C411.243,160.961 418.264,156.41 419.582,145.899C419.726,133.399 407.745,126.495 391.393,127.385L372.13,130.052Z" style="fill:white;"/>
                            <path d="M182.131,175.567L173.279,176.515C128.457,164.399 94.116,172.319 71.798,190.109L69.585,187.264C74.036,182.043 79.146,177.615 85.708,174.935L85.708,169.56C105.946,170.89 109.393,160.316 139.769,164.503L142.93,160.392L147.987,161.973L147.987,158.496L132.181,149.011L139.769,149.011L137.556,139.211C162.394,150.854 150.482,170.431 182.131,175.567" style="fill:white;"/>
                            <path d="M336.87,175.567L345.722,176.515C390.544,164.399 424.885,172.319 447.202,190.109L449.415,187.264C444.966,182.043 439.854,177.615 433.292,174.935L433.292,169.56C413.055,170.89 409.608,160.316 379.232,164.503L376.071,160.392L371.013,161.973L371.013,158.496L386.82,149.011L379.232,149.011L381.446,139.211C356.607,150.854 368.52,170.431 336.87,175.567" style="fill:white;"/>
                            <path d="M174.859,179.045C177.494,180.415 182.13,178.641 182.762,183.154C179.965,184.156 177.311,186.159 184.66,189.162L184.66,197.697C182.061,202.506 174.889,201.026 170.433,206.549L167.272,202.44C163.469,197.679 158.667,205.922 151.149,204.02C150.899,199.014 156.366,200.01 156.402,197.576C154.735,195.509 154.639,193.441 155.258,191.375C158.638,192.637 160.303,189.041 164.11,189.162C166.898,187.963 166.083,185.138 160.633,184.104C153.045,181.894 143.312,192.401 131.864,189.478C128.825,190.928 123.212,191.664 126.174,185.684L122.064,183.471C114.126,194.597 109.758,186.432 104.676,193.272C100.749,196.6 98.536,195.545 98.038,190.109L92.979,190.109C94.723,195.611 89.036,195.825 87.921,202.756C81.112,201.655 83.449,196.125 79.069,195.168C74.874,190.721 80.965,188.846 81.915,185.684C102.674,172.624 137.873,168.711 174.859,179.045" style="fill:white;"/>
                            <path d="M344.142,179.045C341.507,180.415 336.872,178.641 336.238,183.154C339.036,184.156 341.69,186.159 334.341,189.162L334.341,197.697C336.94,202.506 344.111,201.026 348.568,206.549L351.729,202.44C355.532,197.679 360.334,205.922 367.852,204.02C368.101,199.014 362.635,200.01 362.599,197.576C364.266,195.509 364.362,193.441 363.743,191.375C360.363,192.637 358.699,189.041 354.89,189.162C352.103,187.963 352.917,185.138 358.368,184.104C365.956,181.894 375.689,192.401 387.136,189.478C390.177,190.928 395.788,191.664 392.828,185.684L396.937,183.471C404.876,194.597 409.244,186.432 414.325,193.272C418.251,196.6 420.464,195.545 420.963,190.109L426.022,190.109C424.278,195.611 429.965,195.825 431.08,202.756C437.888,201.655 435.552,196.125 439.932,195.168C444.128,190.721 438.035,188.846 437.086,185.684C416.326,172.624 381.128,168.711 344.142,179.045" style="fill:white;"/>
                            <path d="M74.327,197.697L80.334,201.806C83.706,205.146 87.077,206.412 90.45,205.6C100.2,196.61 112.597,200.851 120.168,192.638L121.748,196.117C131.841,188.004 138.664,197.478 147.355,192.323C146.96,196.564 140.182,197.381 141.032,199.91C142.613,200.647 141.237,203.253 145.774,202.123L145.459,206.549C155.229,208.938 164.379,202.145 169.169,207.181L168.852,209.711C165.546,209.523 162.912,210.685 161.265,213.82L163.163,216.349L166.956,215.401L166.956,217.929C175.769,225.465 177.423,219.301 185.925,230.26C184.027,230.68 180.729,228.612 180.234,231.524C184.14,237.531 182.131,243.537 183.079,249.544L180.234,249.544C185.034,206.025 107.654,205.759 80.65,218.43C73.405,211.986 78.925,204.763 74.327,197.697" style="fill:white;"/>
                            <path d="M444.674,197.697L438.667,201.806C435.296,205.146 431.923,206.412 428.551,205.6C418.801,196.61 406.404,200.851 398.833,192.638L397.253,196.117C387.16,188.004 380.337,197.478 371.646,192.323C372.041,196.564 378.819,197.381 377.968,199.91C376.388,200.647 377.765,203.253 373.226,202.123L373.542,206.549C363.771,208.938 354.622,202.145 349.832,207.181L350.148,209.711C353.455,209.523 356.089,210.685 357.736,213.82L355.839,216.349L352.045,215.401L352.045,217.929C343.232,225.465 341.578,219.301 333.076,230.26C334.974,230.68 338.271,228.612 338.767,231.524C334.861,237.531 336.87,243.537 335.922,249.544L338.767,249.544C333.967,206.025 411.347,205.759 438.351,218.43C445.595,211.986 440.075,204.763 444.674,197.697" style="fill:white;"/>
                            <path d="M82.165,221.662C89.636,229.341 87.612,239.666 94.772,246.566C96.433,247.396 97.886,246.981 99.131,245.321C100.583,243.661 98.301,239.354 100.686,236.604L105.201,238.784C104.319,242.986 111.22,246.255 114.228,249.99C117.86,252.325 119.832,251.133 120.144,246.411C115.37,244.958 118.69,239.769 115.63,236.449C118.639,237.591 123.983,238.732 120.455,230.534C118.172,227.317 114.021,227.992 114.384,221.818C137.317,223.426 128.808,232.817 142.246,234.114C145.722,234.529 147.331,233.699 147.071,231.624C144.101,228.561 146.025,227.681 148.472,224.619C160.094,228.199 155.995,233.025 162.325,237.227C164.919,236.864 164.4,231.364 168.239,232.402C169.018,238.576 175.244,238.213 174.777,250.925L177.734,250.458C180.716,205.979 101.616,210.091 82.165,221.662" style="fill:white;"/>
                            <path d="M436.837,221.662C429.365,229.341 431.389,239.666 424.229,246.566C422.568,247.396 421.116,246.981 419.87,245.321C418.418,243.661 420.7,239.354 418.314,236.604L413.8,238.784C414.683,242.986 407.781,246.255 404.773,249.99C401.141,252.325 399.169,251.133 398.858,246.411C403.631,244.958 400.311,239.769 403.371,236.449C400.362,237.591 395.019,238.732 398.546,230.534C400.829,227.317 404.98,227.992 404.616,221.818C381.685,223.426 390.193,232.817 376.755,234.114C373.278,234.529 371.671,233.699 371.93,231.624C374.9,228.561 372.976,227.681 370.529,224.619C358.907,228.199 363.006,233.025 356.676,237.227C354.082,236.864 354.601,231.364 350.761,232.402C349.983,238.576 343.757,238.213 344.224,250.925L341.267,250.458C338.284,205.979 417.386,210.091 436.837,221.662" style="fill:white;"/>
                            <path d="M92.031,247.963C80.746,252.273 72.434,259.805 65.792,269.145L68.321,275.784C68.598,282.11 62.927,280.456 66.108,287.797C70.112,284.602 74.117,283.463 78.121,286.848C77.723,293.45 84.727,297.583 81.282,303.604L86.341,308.346C92.088,289.378 75.925,272.876 94.876,251.442L92.031,247.963Z" style="fill:white;"/>
                            <path d="M426.97,247.963C438.255,252.273 446.566,259.805 453.21,269.145L450.681,275.784C450.402,282.11 456.074,280.456 452.894,287.797C448.889,284.602 444.884,283.463 440.88,286.848C441.277,293.45 434.275,297.583 437.719,303.604L432.66,308.346C426.913,289.378 443.075,272.876 424.124,251.442L426.97,247.963Z" style="fill:white;"/>
                            <path d="M166.956,240.059C168.315,241.7 168.014,243.524 166.956,245.434C162.317,243.417 163.116,250.262 159.685,252.073C156.681,251.609 157.2,248.225 153.995,247.962C155.397,253.041 149.147,254.497 146.724,257.764L144.511,252.705C144.405,251.124 147.119,248.235 144.194,247.962C143.611,246.26 140.611,248.384 138.819,248.595C138.609,245.96 142.124,240.607 138.187,240.692C137.028,239.32 135.87,239.425 134.71,241.007C123.858,255.703 131.304,266.613 131.549,277.996C133.905,285.189 129.651,282.211 128.703,284.318C127.333,281.639 125.646,281.32 123.645,283.371C125.651,285.32 123.645,288.217 123.645,290.642C120.104,297.234 117.744,287.269 114.793,285.584C112.736,280.051 109.735,285.162 107.206,284.951C107.311,278.945 110.958,272.937 107.522,266.932C106.048,263.725 104.572,263.83 103.097,267.248L101.831,289.06C101.814,297.605 111.122,298.816 108.154,308.662C105.439,309.363 101.638,306.857 102.147,309.926C106.11,320.818 98.741,326.391 103.412,341.541C99.618,332.476 92.048,328.381 92.031,314.351C95.189,312.695 89.376,304.297 89.818,296.965C88.634,280.314 88.393,256.805 104.677,247.014L117.639,255.867L123.645,253.654L120.8,240.059L125.226,230.891L132.813,231.524L147.672,238.794L152.098,230.259C159.669,233.929 157.27,244.546 166.956,240.059" style="fill:white;"/>
                            <path d="M352.045,240.059C350.686,241.7 350.987,243.524 352.045,245.434C356.684,243.417 355.885,250.262 359.316,252.073C362.32,251.609 361.801,248.225 365.007,247.962C363.605,253.041 369.854,254.497 372.277,257.764L374.491,252.705C374.596,251.124 371.882,248.235 374.807,247.962C375.39,246.26 378.39,248.384 380.181,248.595C380.392,245.96 376.877,240.607 380.814,240.692C381.973,239.32 383.131,239.425 384.291,241.007C395.142,255.703 387.696,266.613 387.452,277.996C385.096,285.189 389.349,282.211 390.298,284.318C391.668,281.639 393.355,281.32 395.357,283.371C393.349,285.32 395.357,288.217 395.357,290.642C398.897,297.234 401.257,287.269 404.208,285.584C406.265,280.051 409.266,285.162 411.795,284.951C411.69,278.945 408.043,272.937 411.48,266.932C412.954,263.725 414.429,263.83 415.905,267.248L417.169,289.06C417.187,297.605 407.879,298.816 410.847,308.662C413.562,309.363 417.364,306.857 416.854,309.926C412.891,320.818 420.26,326.391 415.589,341.541C419.383,332.476 426.953,328.381 426.97,314.351C423.812,312.695 429.625,304.297 429.183,296.965C430.368,280.314 430.608,256.805 414.324,247.014L401.362,255.867L395.357,253.654L398.201,240.059L393.775,230.891L386.188,231.524L371.329,238.794L366.903,230.259C359.332,233.929 361.73,244.546 352.045,240.059" style="fill:white;"/>
                            <path d="M173.575,254.199C169.064,254.917 164.553,253.912 160.042,256.352C157.249,257.715 154.457,257.785 151.664,256.567C151.485,258.862 148.512,258.252 147.583,260.549C141.926,259.471 142.499,256.889 139.957,255.06L136.734,256.567L131.794,256.567C133.906,258.467 138.273,260.153 138.131,262.27C139.849,263.274 138.346,264.278 138.453,265.283C136.05,266.319 132.324,266.567 132.223,269.371C136.304,270.877 141.245,268.403 144.145,270.018L146.401,269.264L149.408,269.586L150.482,273.676C151.735,272.6 152.558,270.555 154.241,270.448C163.908,270.949 165.628,259.293 173.575,254.199" style="fill:white;"/>
                            <path d="M345.426,254.199C349.937,254.917 354.448,253.912 358.96,256.352C361.751,257.715 364.544,257.785 367.337,256.567C367.516,258.862 370.488,258.252 371.419,260.549C377.075,259.471 376.502,256.889 379.044,255.06L382.267,256.567L387.207,256.567C385.095,258.467 380.728,260.153 380.87,262.27C379.152,263.274 380.655,264.278 380.548,265.283C382.951,266.319 386.677,266.567 386.778,269.371C382.697,270.877 377.755,268.403 374.856,270.018L372.601,269.264L369.593,269.586L368.519,273.676C367.265,272.6 366.443,270.555 364.759,270.448C355.093,270.949 353.374,259.293 345.426,254.199" style="fill:white;"/>
                            <path d="M106.181,286.635C104.722,287.539 104.375,288.998 105.139,291.012C109.168,292.68 107.779,297.785 110.662,300.078L111.183,309.77C110.732,314.076 107.988,312.758 106.39,314.25C103.749,318.073 104.34,321.268 109.411,321.024C117.296,320.364 119.659,314.285 124.939,315.606C133.761,313.59 137.687,316.994 143.591,317.481C145.328,311.924 139.249,308.555 141.299,303.934C143.626,301.92 145.952,300.598 148.281,300.809C149.983,302.268 152.102,300.912 153.387,305.186L156.618,302.268C159.57,298.967 161.376,304.213 165.996,305.186C163.886,298.819 157.651,296.578 148.593,297.16L142.863,300.703C139.423,302.893 137.235,301.121 134.421,301.328C132.213,299.69 132.883,296.506 130.566,294.867L127.752,299.557C125.954,302.44 125.972,305.323 127.231,308.207C128.377,309.979 131.608,309.873 130.67,313.522L126.814,313.522C120.111,312.41 123.931,306.713 117.956,303.309C118.373,300.496 121.604,299.453 119.207,294.867C114.866,288.061 111.253,292.61 106.181,286.635" style="fill:white;"/>
                            <path d="M412.82,286.635C414.278,287.539 414.626,288.998 413.862,291.012C409.833,292.68 411.221,297.785 408.339,300.078L407.818,309.77C408.269,314.076 411.013,312.758 412.611,314.25C415.251,318.073 414.661,321.268 409.59,321.024C401.704,320.364 399.342,314.285 394.062,315.606C385.239,313.59 381.314,316.994 375.409,317.481C373.673,311.924 379.752,308.555 377.702,303.934C375.375,301.92 373.048,300.598 370.719,300.809C369.018,302.268 366.899,300.912 365.614,305.186L362.383,302.268C359.43,298.967 357.625,304.213 353.005,305.186C355.115,298.819 361.35,296.578 370.407,297.16L376.139,300.703C379.578,302.893 381.766,301.121 384.58,301.328C386.788,299.69 386.118,296.506 388.435,294.867L391.249,299.557C393.047,302.44 393.03,305.323 391.77,308.207C390.624,309.979 387.393,309.873 388.331,313.522L392.186,313.522C398.89,312.41 395.07,306.713 401.044,303.309C400.628,300.496 397.397,299.453 399.794,294.867C404.135,288.061 407.749,292.61 412.82,286.635" style="fill:white;"/>
                            <path d="M221.689,245.487L224.353,246.102L223.738,250.2C202.77,269.119 199.737,308.356 192.367,324.781C189.27,322.727 186.907,328.844 183.168,329.086L173.743,329.086C181.454,323.85 180.64,314.574 189.725,313.104C189.918,310.6 185.344,309.197 185.627,305.317C184.187,298.139 194.019,293.164 195.052,286.262C195.618,284.895 195.345,283.529 194.233,282.164C190.026,279.692 189.588,285.852 187.266,287.695L184.603,288.926C184.33,287.764 185.493,285.793 183.784,285.442C182.349,287.268 180.915,287.279 179.48,286.467C181.165,284.35 179.618,282.233 179.685,280.115L181.862,279.666C184.593,275.09 178.709,269.164 190.955,266.387C191.774,264.748 193.67,266.346 193.414,261.469L196.077,261.469C198.124,265.088 194.068,269.967 197.102,272.328L198.946,271.918C202.633,257.781 215.543,255.938 221.689,245.487" style="fill:white;"/>
                            <path d="M297.311,245.487L294.648,246.102L295.263,250.2C316.23,269.119 319.263,308.356 326.633,324.781C329.73,322.727 332.093,328.844 335.833,329.086L345.256,329.086C337.547,323.85 338.36,314.574 329.275,313.104C329.083,310.6 333.657,309.197 333.374,305.317C334.814,298.139 324.982,293.164 323.948,286.262C323.383,284.895 323.655,283.529 324.768,282.164C328.975,279.692 329.412,285.852 331.734,287.695L334.397,288.926C334.67,287.764 333.508,285.793 335.217,285.442C336.651,287.268 338.085,287.279 339.52,286.467C337.835,284.35 339.383,282.233 339.316,280.115L337.14,279.666C334.407,275.09 340.291,269.164 328.045,266.387C327.227,264.748 325.331,266.346 325.586,261.469L322.924,261.469C320.876,265.088 324.932,269.967 321.9,272.328L320.054,271.918C316.366,257.781 303.458,255.938 297.311,245.487" style="fill:white;"/>
                            <path d="M228.042,250.405L225.378,250.814C207.347,269.664 204.273,301.219 195.258,323.963C195.553,325.805 197.396,326.215 200.79,325.192C205.042,318 200.856,308.229 209.522,306.479L211.161,307.018C209.058,316.66 215.713,313.406 213.698,318.84L216.567,318.84C218.149,318.506 217.14,315.217 219.436,315.153C219.745,317.912 222.646,317.36 222.509,320.479L224.763,320.479C228.259,318.309 224.96,309.959 229.886,308.596C227.196,306.203 228.349,301.125 221.28,297.121C219.846,298.76 219.931,301.295 216.977,302.039C216.247,298.522 216.038,294.932 216.977,291.18C220.255,292.67 223.534,293.34 226.812,292.203C221.069,286.039 229.271,285.783 230.5,282.574L229.476,279.5L223.943,282.983L228.042,250.405Z" style="fill:white;"/>
                            <path d="M290.96,250.405L293.623,250.814C311.654,269.664 314.728,301.219 323.743,323.963C323.448,325.805 321.605,326.215 318.211,325.192C313.959,318 318.145,308.229 309.48,306.479L307.839,307.018C309.943,316.66 303.288,313.406 305.303,318.84L302.434,318.84C300.852,318.506 301.862,315.217 299.565,315.153C299.256,317.912 296.355,317.36 296.492,320.479L294.238,320.479C290.742,318.309 294.041,309.959 289.115,308.596C291.806,306.203 290.651,301.125 297.722,297.121C299.155,298.76 299.07,301.295 302.024,302.039C302.754,298.522 302.963,294.932 302.024,291.18C298.745,292.67 295.468,293.34 292.189,292.203C297.932,286.039 289.731,285.783 288.501,282.574L289.525,279.5L295.058,282.983L290.96,250.405Z" style="fill:white;"/>
                            <path d="M252.48,324.155L252.98,340.87C252.779,347.577 263.435,347.108 263.968,341.872L263.968,331.762C260.739,328.225 255.81,327.292 252.48,324.155" style="fill:white;"/>
                            <path d="M264.424,450.582C282.149,446.967 289.066,438.377 288.59,426.383C275.515,428.246 266.019,434.814 264.424,450.582" style="fill:white;"/>
                            <path d="M264.903,450.451C282.733,453.51 289.915,461.879 289.813,473.885C276.686,472.43 266.99,466.16 264.903,450.451" style="fill:white;"/>
                            <path d="M288.715,449.69C300.059,447.055 307.768,439.376 309,422.704C295.4,426.967 287.726,435.333 288.715,449.69" style="fill:white;"/>
                            <path d="M311.347,442.231C322.082,439.737 329.379,432.469 330.546,416.69C317.673,420.725 310.409,428.641 311.347,442.231" style="fill:white;"/>
                            <path d="M333.756,437.711C344.134,433.994 350.544,425.936 349.883,410.127C337.562,415.617 331.26,424.318 333.756,437.711" style="fill:white;"/>
                            <path d="M334.821,438.967C343.574,432.27 353.823,431.262 366.741,440.397C355.44,447.764 344.712,448.334 334.821,438.967" style="fill:white;"/>
                            <path d="M358.436,427.244C365.303,420.148 374.251,417.894 386.911,424.275C377.873,432.303 368.442,434.232 358.435,427.244" style="fill:white;"/>
                            <path d="M357.497,422.926C354.264,413.596 356.291,404.594 367.7,396.178C370.784,407.863 368.248,417.151 357.497,422.926" style="fill:white;"/>
                            <path d="M378.759,415.465C383.712,408.547 391.051,405.492 402.649,409.326C395.965,417.313 388.172,420.151 378.759,415.465" style="fill:white;"/>
                            <path d="M374.477,408.791C370.624,401.205 371.301,393.283 380.053,384.764C384.055,394.379 382.978,402.602 374.477,408.791" style="fill:white;"/>
                            <path d="M393.363,402.918C398.316,396 405.656,392.945 417.254,396.779C410.57,404.766 402.777,407.606 393.363,402.918" style="fill:white;"/>
                            <path d="M390.4,398.02C386.103,390.676 386.308,382.729 394.539,373.704C399.105,383.063 398.518,391.336 390.4,398.02" style="fill:white;"/>
                            <path d="M408.09,387.799C411.69,380.908 417.942,377.209 428.923,379.199C423.894,387.278 417.205,390.838 408.09,387.799" style="fill:white;"/>
                            <path d="M404.983,384.531C399.838,378.701 398.625,371.539 404.419,362C410.158,369.59 411.087,377.109 404.983,384.531" style="fill:white;"/>
                            <path d="M418.742,372.969C422.138,366.469 428.034,362.979 438.393,364.858C433.649,372.477 427.34,375.838 418.742,372.969" style="fill:white;"/>
                            <path d="M416.412,370.674C411.763,365.002 410.864,358.209 416.651,349.414C421.803,356.766 422.421,363.887 416.412,370.674" style="fill:white;"/>
                            <path d="M429.938,359.297C431.874,352.76 436.629,348.524 446.413,348.387C443.447,356.184 438.292,360.375 429.938,359.297" style="fill:white;"/>
                            <path d="M438.609,343.471C440.545,336.934 445.3,332.7 455.084,332.561C452.118,340.358 446.963,344.549 438.609,343.471" style="fill:white;"/>
                            <path d="M446.796,328.955C447.776,322.211 451.875,317.336 461.538,315.799C459.72,323.939 455.22,328.826 446.796,328.955" style="fill:white;"/>
                            <path d="M436.656,309.061C434.149,315.399 435.28,321.666 442.897,327.809C445.371,319.842 443.898,313.364 436.656,309.061" style="fill:white;"/>
                            <path d="M430.513,322.055C428.007,328.393 429.138,334.66 436.754,340.803C439.229,332.836 437.755,326.358 430.513,322.055" style="fill:white;"/>
                            <path d="M423.729,336.791C420.045,342.527 419.944,348.895 426.23,356.393C430.198,349.053 430.004,342.412 423.73,336.791" style="fill:white;"/>
                            <path d="M453.433,313.627C453.316,308.002 455.992,303.479 463.652,300.916C463.275,307.791 460.273,312.381 453.433,313.627" style="fill:white;"/>
                            <path d="M442.545,297.276C441.022,302.692 442.48,307.741 449.251,312.143C450.61,305.391 448.855,300.196 442.545,297.275" style="fill:white;"/>
                            <path d="M312.357,445.059C322.865,441.733 332.847,444.266 341.893,457.247C328.762,460.336 318.478,457.227 312.357,445.059" style="fill:white;"/>
                            <path d="M288.856,448.588C300.434,447.33 310.247,452.033 316.915,467.363C302.669,467.83 292.663,462.469 288.856,448.588" style="fill:white;"/>
                            <path d="M159.386,421.227C162.71,411.928 160.771,402.907 149.446,394.379C146.246,406.036 148.691,415.346 159.386,421.227" style="fill:white;"/>
                            <path d="M252.183,449.795C234.494,446.008 227.662,437.35 228.255,425.359C241.311,427.352 250.743,434.014 252.183,449.795" style="fill:white;"/>
                            <path d="M251.703,449.66C233.845,452.545 226.581,460.842 226.564,472.848C239.704,471.521 249.463,465.348 251.703,449.66" style="fill:white;"/>
                            <path d="M227.901,448.664C216.584,445.918 208.95,438.164 207.881,421.48C221.44,425.877 229.031,434.316 227.901,448.664" style="fill:white;"/>
                            <path d="M205.344,440.983C194.633,438.383 187.408,431.045 186.397,415.254C199.229,419.417 206.414,427.403 205.344,440.983" style="fill:white;"/>
                            <path d="M182.98,436.244C172.64,432.426 166.309,424.305 167.125,408.502C179.392,414.115 185.608,422.877 182.98,436.244" style="fill:white;"/>
                            <path d="M181.902,437.49C173.214,430.705 162.976,429.597 149.969,438.605C161.198,446.084 171.92,446.758 181.902,437.49" style="fill:white;"/>
                            <path d="M158.404,425.537C151.606,418.371 142.681,416.031 129.96,422.287C138.917,430.404 148.329,432.424 158.404,425.537" style="fill:white;"/>
                            <path d="M138.198,413.557C133.313,406.59 126.004,403.465 114.369,407.184C120.973,415.237 128.738,418.151 138.198,413.557" style="fill:white;"/>
                            <path d="M142.545,406.926C146.472,399.377 145.873,391.451 137.205,382.844C133.108,392.42 134.106,400.653 142.545,406.926" style="fill:white;"/>
                            <path d="M123.717,400.867C118.832,393.9 111.523,390.775 99.888,394.494C106.493,402.547 114.257,405.461 123.717,400.867" style="fill:white;"/>
                            <path d="M126.728,395.998C131.097,388.697 130.97,380.748 122.829,371.643C118.17,380.957 118.676,389.234 126.728,395.998" style="fill:white;"/>
                            <path d="M109.14,385.604C105.608,378.678 99.393,374.918 88.393,376.801C93.342,384.928 99.995,388.555 109.14,385.604" style="fill:white;"/>
                            <path d="M112.278,382.367C117.479,376.588 118.762,369.437 113.064,359.842C107.25,367.375 106.248,374.887 112.278,382.367" style="fill:white;"/>
                            <path d="M100.986,368.399C105.69,362.772 106.656,355.989 100.955,347.137C95.732,354.438 95.045,361.553 100.986,368.399" style="fill:white;"/>
                            <path d="M96.142,369.742C94.271,363.187 89.557,358.904 79.776,358.67C82.664,366.496 87.778,370.738 96.142,369.742" style="fill:white;"/>
                            <path d="M87.571,356.889C85.7,350.334 80.987,346.051 71.205,345.817C74.093,353.643 79.208,357.885 87.571,356.889" style="fill:white;"/>
                            <path d="M79.057,340.979C77.186,334.424 72.472,330.141 62.691,329.907C65.579,337.733 70.693,341.975 79.057,340.979" style="fill:white;"/>
                            <path d="M71.013,326.383C70.1,319.629 66.048,314.715 56.402,313.082C58.139,321.242 62.592,326.172 71.013,326.383" style="fill:white;"/>
                            <path d="M81.349,306.588C83.792,312.951 82.601,319.207 74.923,325.274C72.528,317.283 74.065,310.82 81.349,306.588" style="fill:white;"/>
                            <path d="M87.363,319.643C89.807,326.006 88.615,332.262 80.938,338.329C78.542,330.338 80.079,323.873 87.363,319.643" style="fill:white;"/>
                            <path d="M94.002,334.446C97.63,340.217 97.668,346.587 91.309,354.022C87.414,346.645 87.673,340.007 94.002,334.445" style="fill:white;"/>
                            <path d="M64.528,310.99C64.7,305.367 62.068,300.818 54.434,298.179C54.743,305.058 57.7,309.677 64.528,310.99" style="fill:white;"/>
                            <path d="M75.575,294.746C77.045,300.176 75.538,305.213 68.723,309.547C67.43,302.783 69.237,297.605 75.575,294.746" style="fill:white;"/>
                            <path d="M204.305,443.801C193.83,440.371 183.824,442.807 174.651,455.699C187.751,458.918 198.066,455.91 204.305,443.801" style="fill:white;"/>
                            <path d="M227.77,447.561C216.206,446.19 206.347,450.797 199.529,466.061C213.77,466.666 223.828,461.405 227.77,447.561" style="fill:white;"/>
                            <path d="M459.764,104.676L453.874,114.619L465.24,112.211L459.764,104.676ZM460.669,103.059L467.066,111.862L470.255,111.146C471.315,110.903 472.103,110.589 472.63,110.205C473.333,109.696 473.642,109.039 473.558,108.238C473.523,107.765 473.074,106.845 472.231,105.473L472.908,104.981L478.93,113.27L478.253,113.762C477.467,112.971 476.559,112.499 475.535,112.37C474.514,112.231 472.74,112.427 470.228,112.968L443.86,118.503L443.604,118.152L457.519,94.315C458.832,92.046 459.539,90.459 459.64,89.542C459.718,88.844 459.509,88.094 459.02,87.289L459.697,86.797L468.458,98.857L467.782,99.349L467.421,98.854C466.719,97.887 466.084,97.303 465.533,97.111C465.142,96.982 464.759,97.049 464.388,97.318C464.169,97.478 463.97,97.68 463.792,97.924C463.699,98.03 463.372,98.545 462.814,99.479L460.669,103.059ZM479.792,117.538L480.511,117.107L488.807,130.914L488.089,131.346L487.562,130.469C487.103,129.703 486.591,129.169 486.038,128.868C485.656,128.637 485.188,128.565 484.634,128.654C484.241,128.691 483.379,129.11 482.049,129.908L464.679,140.346C463.329,141.156 462.529,141.737 462.277,142.086C462.023,142.43 461.902,142.892 461.912,143.483C461.919,144.067 462.149,144.734 462.592,145.472L463.119,146.349L462.395,146.784L454.099,132.977L454.824,132.541L455.351,133.419C455.81,134.184 456.314,134.722 456.867,135.024C457.256,135.25 457.722,135.332 458.283,135.258C458.679,135.21 459.54,134.791 460.864,133.996L478.235,123.559C479.584,122.748 480.384,122.168 480.636,121.819C480.883,121.461 480.999,120.993 480.993,120.409C480.988,119.815 480.763,119.154 480.32,118.416L479.792,117.538ZM463.365,150.042L473.431,145.975L473.747,146.759C471.374,148.814 469.851,151.069 469.181,153.53C468.509,155.986 468.62,158.332 469.525,160.569C470.387,162.704 471.708,164.237 473.482,165.168C475.255,166.1 477.33,166.432 479.718,166.154C482.107,165.874 484.433,165.278 486.691,164.365C489.431,163.258 491.702,161.964 493.505,160.483C495.31,159.009 496.406,157.354 496.792,155.516C497.183,153.686 496.973,151.78 496.173,149.802C495.895,149.112 495.538,148.436 495.097,147.778C494.66,147.11 494.144,146.456 493.556,145.807L487.617,148.207C486.494,148.66 485.793,149.035 485.533,149.324C485.263,149.61 485.092,150.055 485.021,150.645C484.95,151.234 485.051,151.878 485.329,152.569L485.626,153.302L484.85,153.615L479.243,139.738L480.019,139.424C480.515,140.445 480.955,141.119 481.339,141.449C481.728,141.77 482.218,141.947 482.812,141.967C483.13,141.989 483.808,141.782 484.851,141.362L490.79,138.961C492.341,140.459 493.726,142.109 494.935,143.92C496.148,145.722 497.185,147.687 498.042,149.809C499.137,152.52 499.672,154.921 499.662,157.008C499.646,159.098 499.322,161.07 498.671,162.92C498.023,164.772 497.104,166.39 495.915,167.774C494.368,169.536 492.398,170.909 489.995,171.88C485.702,173.614 481.461,173.572 477.279,171.748C473.095,169.925 470.079,166.727 468.23,162.147C467.658,160.73 467.247,159.406 467.011,158.18C466.876,157.515 466.796,156.385 466.761,154.785C466.728,153.192 466.663,152.265 466.561,152.013C466.402,151.617 466.113,151.317 465.688,151.094C465.263,150.872 464.592,150.784 463.681,150.826L463.365,150.042ZM481.028,195.2C481.71,197.94 483.628,199.668 486.777,200.402C489.353,200.99 492.794,200.748 497.083,199.678C502.185,198.406 505.732,196.571 507.724,194.172C509.12,192.496 509.535,190.531 508.973,188.281C508.596,186.769 507.911,185.596 506.929,184.762C505.667,183.71 503.91,183.076 501.661,182.87C499.419,182.662 496.635,182.973 493.316,183.8C489.358,184.787 486.493,185.893 484.72,187.118C482.94,188.346 481.787,189.624 481.26,190.97C480.738,192.307 480.658,193.718 481.028,195.2M479.689,195.822C478.32,191.104 478.747,186.889 480.954,183.174C483.171,179.463 486.494,177.052 490.935,175.946C494.727,174.999 498.336,175.275 501.773,176.776C506.328,178.766 509.276,182.443 510.614,187.808C511.953,193.181 511.169,197.797 508.253,201.649C505.95,204.686 502.824,206.703 498.872,207.689C494.433,208.796 490.353,208.206 486.644,205.926C482.925,203.64 480.607,200.278 479.689,195.822M504.271,211.347L515.15,211.555L517.535,238.813L516.701,238.886L516.611,237.866C516.533,236.978 516.308,236.274 515.945,235.76C515.701,235.385 515.312,235.114 514.775,234.944C514.406,234.813 513.448,234.811 511.902,234.946L491.714,236.712C490.146,236.85 489.171,237.02 488.792,237.217C488.413,237.422 488.102,237.783 487.853,238.319C487.603,238.847 487.517,239.547 487.591,240.405L487.681,241.425L486.839,241.498L485.406,225.127L486.248,225.053L486.365,226.39C486.444,227.286 486.66,227.984 487.025,228.504C487.275,228.871 487.658,229.15 488.197,229.336C488.574,229.467 489.531,229.468 491.068,229.334L510.623,227.623C512.192,227.486 513.188,227.305 513.597,227.09C514.013,226.867 514.308,226.49 514.47,225.94C514.576,225.549 514.558,224.632 514.431,223.187L514.208,220.629C514.065,218.999 513.66,217.664 512.993,216.625C512.327,215.594 511.341,214.731 510.028,214.051C508.722,213.364 506.833,212.774 504.353,212.274L504.271,211.347ZM487.644,259.993C487.595,262.815 488.999,264.981 491.851,266.505C494.188,267.741 497.574,268.397 501.993,268.473C507.251,268.565 511.153,267.71 513.697,265.909C515.48,264.653 516.388,262.86 516.428,260.542C516.455,258.983 516.098,257.675 515.365,256.614C514.418,255.27 512.885,254.205 510.766,253.423C508.654,252.642 505.884,252.221 502.464,252.161C498.386,252.09 495.331,252.417 493.302,253.142C491.265,253.866 489.822,254.803 488.963,255.968C488.113,257.124 487.671,258.466 487.644,259.993M486.189,260.247C486.089,255.335 487.593,251.374 490.687,248.357C493.787,245.347 497.622,243.878 502.197,243.957C506.105,244.026 509.521,245.226 512.451,247.566C516.337,250.666 518.232,254.981 518.135,260.51C518.038,266.046 516.087,270.301 512.273,273.268C509.262,275.604 505.72,276.745 501.65,276.675C497.074,276.594 493.286,274.969 490.292,271.807C487.292,268.635 485.924,264.788 486.189,260.247M485.26,277.073L493.478,278.522L493.337,279.325C491.351,279.469 489.898,279.757 488.97,280.192C488.036,280.626 487.238,281.311 486.57,282.241C486.195,282.759 485.89,283.729 485.641,285.141L485.243,287.403L508.645,291.528C510.195,291.801 511.18,291.889 511.599,291.79C512.02,291.682 512.415,291.405 512.792,290.962C513.179,290.509 513.445,289.854 513.597,288.991L513.775,287.983L514.599,288.13L511.798,304.016L510.973,303.87L511.152,302.862C511.306,301.983 511.271,301.245 511.052,300.655C510.914,300.229 510.609,299.86 510.136,299.55C509.815,299.319 508.89,299.069 507.363,298.8L483.96,294.673L483.573,296.874C483.212,298.913 483.378,300.477 484.085,301.555C485.064,303.067 486.646,304.188 488.823,304.926L488.673,305.774L480.454,304.325L485.26,277.073ZM473.845,325.692L496.718,317.139L484.118,313.046C482.363,312.475 481.095,312.341 480.312,312.641C479.253,313.063 478.471,314.091 477.971,315.729L477.167,315.468L480.312,305.792L481.115,306.051C480.868,307.343 480.806,308.235 480.917,308.745C481.029,309.253 481.334,309.719 481.826,310.139C482.317,310.561 483.259,310.997 484.639,311.446L509.038,319.374L508.799,320.112L477.962,331.995L496.594,338.05C498.276,338.596 499.536,338.581 500.378,337.999C501.224,337.426 501.808,336.635 502.128,335.647L502.354,334.953L503.15,335.214L499.774,345.606L498.977,345.346C499.488,343.726 499.519,342.499 499.077,341.653C498.634,340.807 497.638,340.134 496.081,339.628L475.399,332.906L474.413,333.279C473.437,333.648 472.751,334.027 472.345,334.425C471.948,334.818 471.591,335.463 471.273,336.345L470.468,336.084L473.845,325.691L473.845,325.692ZM464.009,352.137C462.772,354.675 463.13,357.231 465.07,359.817C466.665,361.925 469.456,363.95 473.431,365.887C478.157,368.194 482.054,369.067 485.121,368.51C487.268,368.124 488.847,366.884 489.865,364.801C490.548,363.399 490.777,362.061 490.56,360.791C490.271,359.173 489.331,357.559 487.742,355.957C486.158,354.354 483.826,352.803 480.751,351.303C477.084,349.515 474.179,348.52 472.033,348.319C469.88,348.116 468.176,348.354 466.906,349.046C465.648,349.736 464.679,350.765 464.009,352.137M462.583,351.753C464.568,347.26 467.605,344.305 471.685,342.878C475.767,341.46 479.863,341.749 483.976,343.755C487.489,345.469 490.077,348 491.743,351.358C493.955,355.811 493.849,360.522 491.425,365.493C488.997,370.469 485.431,373.501 480.72,374.579C477.003,375.423 473.312,374.96 469.652,373.175C465.539,371.169 462.793,368.094 461.417,363.964C460.037,359.821 460.423,355.757 462.583,351.753M444.894,385.051L464.589,398.842C465.63,399.571 466.302,399.964 466.603,400.034C466.91,400.096 467.209,400.061 467.495,399.909C467.921,399.708 468.349,399.286 468.793,398.651C470.243,396.581 470.646,394.505 469.994,392.419C469.122,389.594 466.683,386.779 462.661,383.962C459.421,381.692 456.48,380.391 453.83,380.051C451.753,379.799 449.999,380.114 448.568,380.996C447.552,381.621 446.331,382.971 444.894,385.051M461.96,411.344L461.274,410.864L461.861,410.025C462.372,409.294 462.654,408.649 462.691,408.096C462.738,407.544 462.626,407.041 462.355,406.575C462.175,406.279 461.433,405.673 460.131,404.76L443.531,393.137C442.241,392.236 441.385,391.739 440.963,391.653C440.546,391.559 440.075,391.635 439.54,391.887C439.009,392.13 438.493,392.612 437.999,393.317L437.411,394.155L436.719,393.671L444.628,382.374C446.742,379.356 448.854,377.219 450.959,375.958C453.534,374.417 456.247,373.772 459.091,374.038C461.945,374.303 464.649,375.337 467.215,377.134C468.993,378.38 470.427,379.807 471.519,381.425C472.618,383.048 473.335,384.647 473.675,386.229C474.017,387.824 474.07,389.413 473.827,391.014C473.581,392.61 473.025,394.38 472.152,396.315C471.769,397.175 471.008,398.423 469.869,400.048L461.96,411.344ZM426.175,407.034C424.25,409.098 423.845,411.647 424.945,414.688C425.855,417.169 427.931,419.924 431.164,422.938C435.01,426.525 438.482,428.499 441.578,428.862C443.743,429.122 445.617,428.397 447.199,426.702C448.261,425.562 448.872,424.351 449.036,423.072C449.232,421.441 448.806,419.622 447.753,417.625C446.708,415.631 444.931,413.464 442.429,411.132C439.446,408.349 436.957,406.549 434.964,405.73C432.966,404.903 431.266,404.634 429.849,404.926C428.445,405.217 427.217,405.917 426.175,407.034M424.924,406.249C428.136,402.533 431.905,400.594 436.222,400.424C440.54,400.261 444.373,401.736 447.72,404.854C450.578,407.521 452.314,410.698 452.925,414.397C453.74,419.301 452.26,423.777 448.489,427.822C444.712,431.87 440.414,433.727 435.595,433.38C431.794,433.1 428.399,431.579 425.421,428.801C422.075,425.681 420.347,421.938 420.239,417.585C420.13,413.222 421.689,409.446 424.924,406.249" style="fill:white;fill-rule:nonzero;"/>
                            <path d="M36.542,122.549L57.363,134.569C58.465,135.205 59.168,135.539 59.475,135.581C59.785,135.617 60.081,135.557 60.352,135.38C60.759,135.141 61.147,134.685 61.536,134.013C62.8,131.823 63.02,129.72 62.188,127.7C61.074,124.962 58.398,122.368 54.146,119.915C50.722,117.937 47.678,116.896 45.009,116.787C42.917,116.718 41.197,117.184 39.848,118.187C38.892,118.898 37.793,120.35 36.542,122.548M55.835,147.253L55.109,146.834L55.621,145.947C56.067,145.175 56.291,144.508 56.279,143.954C56.277,143.399 56.123,142.906 55.813,142.468C55.606,142.188 54.815,141.65 53.438,140.855L35.888,130.722C34.524,129.935 33.629,129.517 33.201,129.466C32.777,129.409 32.315,129.528 31.804,129.823C31.297,130.113 30.823,130.638 30.394,131.382L29.882,132.269L29.149,131.847L36.044,119.904C37.886,116.714 39.804,114.401 41.791,112.96C44.222,111.201 46.87,110.321 49.725,110.34C52.591,110.356 55.374,111.148 58.089,112.715C59.969,113.8 61.521,115.099 62.75,116.615C63.985,118.135 64.839,119.666 65.316,121.214C65.796,122.771 65.986,124.349 65.886,125.966C65.778,127.579 65.378,129.39 64.677,131.394C64.37,132.282 63.722,133.592 62.73,135.311L55.835,147.253ZM39.665,157.816L28.111,158.091L36.177,166.452L39.665,157.816ZM41.517,157.727L37.44,167.816L39.738,170.142C40.506,170.911 41.189,171.414 41.794,171.658C42.599,171.985 43.319,171.898 43.955,171.402C44.336,171.121 44.879,170.254 45.596,168.812L46.372,169.125L42.534,178.624L41.758,178.311C42.012,177.226 41.931,176.205 41.497,175.27C41.075,174.329 39.968,172.927 38.178,171.084L19.511,151.656L19.674,151.254L47.263,150.421C49.882,150.333 51.603,150.093 52.434,149.691C53.067,149.387 53.592,148.813 54.015,147.972L54.792,148.285L49.208,162.107L48.431,161.792L48.661,161.225C49.108,160.117 49.267,159.269 49.138,158.699C49.04,158.3 48.78,158.011 48.355,157.84C48.104,157.738 47.827,157.677 47.526,157.655C47.386,157.632 46.776,157.628 45.688,157.649L41.517,157.728L41.517,157.727ZM13.292,168.775L21.313,171.075L21.09,171.857C19.099,171.794 17.624,171.928 16.656,172.264C15.682,172.597 14.815,173.196 14.054,174.051C13.628,174.526 13.223,175.458 12.827,176.838L12.194,179.044L35.038,185.594C36.551,186.028 37.521,186.218 37.948,186.163C38.378,186.101 38.8,185.866 39.222,185.463C39.654,185.055 39.986,184.432 40.228,183.589L40.51,182.606L41.315,182.836L36.868,198.343L36.063,198.111L36.346,197.128C36.591,196.271 36.634,195.532 36.478,194.923C36.386,194.485 36.12,194.086 35.683,193.727C35.387,193.464 34.493,193.119 33.003,192.692L10.159,186.142L9.544,188.289C8.974,190.279 8.974,191.854 9.565,192.998C10.38,194.604 11.836,195.885 13.924,196.847L13.687,197.674L5.665,195.375L13.292,168.775ZM25.163,201.411L35.716,204.062L31.907,231.157L31.078,231.041L31.221,230.027C31.345,229.144 31.284,228.407 31.044,227.825C30.893,227.404 30.573,227.054 30.089,226.767C29.759,226.556 28.825,226.339 27.29,226.122L7.222,223.302C5.662,223.083 4.675,223.03 4.261,223.137C3.845,223.251 3.461,223.532 3.098,223.999C2.735,224.457 2.493,225.119 2.374,225.974L2.231,226.986L1.395,226.869L3.682,210.595L4.519,210.712L4.332,212.041C4.207,212.932 4.261,213.66 4.499,214.25C4.66,214.664 4.971,215.02 5.453,215.323C5.791,215.536 6.724,215.753 8.252,215.967L27.69,218.698C29.25,218.919 30.261,218.967 30.708,218.849C31.164,218.725 31.535,218.425 31.817,217.924C32.009,217.568 32.197,216.669 32.399,215.234L32.757,212.692C32.984,211.071 32.89,209.679 32.474,208.517C32.057,207.361 31.29,206.298 30.163,205.341C29.046,204.378 27.338,203.378 25.033,202.333L25.163,201.411ZM-0,263.345L0.555,247.456L1.399,247.486L1.372,248.277C1.331,249.471 1.426,250.296 1.658,250.755C1.891,251.213 2.229,251.543 2.655,251.744C3.091,251.945 4.188,252.085 5.94,252.146L21.016,252.673C23.774,252.769 25.604,252.623 26.518,252.236C27.423,251.849 28.184,251.193 28.813,250.26C29.437,249.326 29.772,248.136 29.823,246.679C29.882,245.012 29.559,243.581 28.848,242.384C28.138,241.18 27.137,240.268 25.84,239.64C24.542,239.013 22.259,238.639 18.987,238.525L6.431,238.086C5.052,238.037 4.062,238.151 3.463,238.417C2.863,238.683 2.44,239.032 2.2,239.459C1.827,240.129 1.623,241.084 1.58,242.332L0.735,242.302L1.106,231.652L1.952,231.683L1.93,232.318C1.899,233.178 2.045,233.905 2.374,234.491C2.702,235.076 3.207,235.513 3.896,235.793C4.378,236.004 5.242,236.135 6.497,236.179L18.193,236.587C21.813,236.714 24.417,237.046 26.005,237.574C27.593,238.111 29.024,239.325 30.309,241.217C31.593,243.109 32.179,245.658 32.067,248.853C31.975,251.511 31.546,253.56 30.782,254.992C29.744,256.935 28.455,258.295 26.915,259.064C25.368,259.824 23.322,260.164 20.757,260.074L5.682,259.548C3.914,259.486 2.811,259.541 2.369,259.728C1.929,259.906 1.575,260.236 1.303,260.715C1.022,261.185 0.875,262.074 0.845,263.377L-0,263.345ZM0.713,272.029L11.305,270.728L11.413,271.607C8.73,272.607 6.765,274.099 5.509,276.09C4.26,278.071 3.772,280.21 4.053,282.496C4.287,284.406 5.048,286.085 6.345,287.545C7.642,289.002 9.217,289.996 11.085,290.509C13.472,291.177 16.056,291.345 18.835,291.004C21.567,290.667 24.019,290.015 26.181,289.047C28.344,288.078 29.913,286.79 30.878,285.172C31.853,283.56 32.188,281.581 31.899,279.234C31.663,277.307 31.031,275.596 29.987,274.099C28.952,272.6 27.298,271.092 25.017,269.568L27.657,269.243C29.653,270.741 31.174,272.368 32.202,274.124C33.239,275.888 33.905,278.002 34.21,280.488C34.61,283.746 34.312,286.728 33.314,289.422C32.316,292.114 30.679,294.3 28.399,295.978C26.112,297.65 23.588,298.663 20.824,299.002C17.907,299.36 15.05,298.937 12.244,297.728C9.44,296.525 7.155,294.718 5.397,292.302C3.632,289.884 2.577,287.215 2.22,284.3C1.956,282.152 2.139,279.824 2.776,277.316C3.145,275.864 3.314,274.953 3.269,274.576C3.209,274.096 2.981,273.705 2.584,273.393C2.187,273.084 1.596,272.922 0.82,272.907L0.713,272.029ZM30.072,316.349L21.011,323.522L32.483,325.344L30.072,316.349ZM31.497,315.163L34.313,325.675L37.548,326.147C38.625,326.301 39.473,326.29 40.103,326.123C40.941,325.897 41.466,325.396 41.674,324.616C41.81,324.163 41.721,323.143 41.425,321.56L42.234,321.344L44.886,331.239L44.077,331.456C43.627,330.437 42.948,329.672 42.039,329.185C41.135,328.689 39.408,328.236 36.869,327.84L10.27,323.558L10.157,323.138L31.688,305.871C33.729,304.224 34.957,302.996 35.38,302.177C35.702,301.552 35.776,300.777 35.608,299.851L36.417,299.634L40.275,314.033L39.466,314.25L39.308,313.658C38.999,312.504 38.614,311.732 38.168,311.353C37.85,311.093 37.468,311.019 37.026,311.138C36.765,311.207 36.507,311.326 36.253,311.49C36.127,311.554 35.638,311.92 34.782,312.59L31.497,315.164L31.497,315.163ZM24.109,354.055L35.673,348.907L35.31,348.092C34.758,346.852 34.112,345.917 33.394,345.294C32.665,344.669 31.737,344.284 30.609,344.131C29.48,343.981 28.122,344.153 26.541,344.661L26.219,343.938L40.354,337.645L40.676,338.368C38.121,339.819 36.683,341.317 36.353,342.864C36.022,344.413 36.181,345.93 36.84,347.411L37.203,348.225L45.818,344.389C47.257,343.749 48.118,343.264 48.411,342.946C48.699,342.624 48.872,342.172 48.937,341.592C49.008,341.008 48.861,340.317 48.512,339.532L48.095,338.596L48.86,338.255L55.412,352.971L54.647,353.311L54.23,352.378C53.868,351.561 53.426,350.969 52.914,350.602C52.563,350.327 52.106,350.198 51.546,350.219C51.151,350.208 50.248,350.524 48.831,351.155L30.317,359.399C28.879,360.038 28.011,360.51 27.719,360.827C27.424,361.137 27.251,361.587 27.187,362.167C27.126,362.755 27.269,363.438 27.618,364.225L28.035,365.161L27.263,365.505L16.692,341.762L24.77,338.167L25.147,339.016C23.334,340.053 22.152,341.172 21.591,342.374C21.034,343.581 20.907,345.012 21.204,346.69C21.367,347.61 21.945,349.194 22.942,351.434L24.109,354.055Z" style="fill:white;fill-rule:nonzero;"/>
                            <path d="M325.338,489.697L318.007,480.761L316.384,492.263L325.338,489.697ZM326.548,491.101L316.087,494.099L315.67,497.342C315.536,498.422 315.562,499.269 315.741,499.896C315.98,500.73 316.491,501.246 317.273,501.441C317.729,501.568 318.747,501.461 320.325,501.138L320.556,501.943L310.707,504.767L310.477,503.963C311.488,503.494 312.241,502.802 312.713,501.885C313.193,500.972 313.616,499.238 313.967,496.693L317.784,470.021L318.202,469.902L335.842,491.131C337.525,493.14 338.775,494.347 339.601,494.756C340.231,495.068 341.007,495.127 341.93,494.943L342.161,495.748L327.832,499.857L327.601,499.052L328.191,498.883C329.338,498.554 330.104,498.156 330.474,497.703C330.729,497.381 330.796,496.998 330.67,496.558C330.595,496.297 330.474,496.043 330.305,495.791C330.236,495.666 329.864,495.183 329.179,494.34L326.548,491.101ZM282.978,477.06L300.394,494.176L298.779,481.027C298.554,479.195 298.14,477.988 297.537,477.406C296.707,476.625 295.446,476.349 293.749,476.59L293.646,475.75L303.745,474.509L303.849,475.349C302.575,475.67 301.739,475.992 301.325,476.308C300.911,476.625 300.617,477.097 300.444,477.72C300.271,478.343 300.273,479.383 300.449,480.822L303.576,506.287L302.807,506.381L279.003,483.455L281.391,502.9C281.607,504.656 282.152,505.793 283.036,506.308C283.913,506.834 284.875,507.027 285.906,506.902L286.63,506.812L286.733,507.644L275.886,508.976L275.784,508.144C277.468,507.922 278.595,507.431 279.174,506.674C279.753,505.914 279.943,504.726 279.743,503.103L277.093,481.517L276.339,480.783C275.593,480.052 274.958,479.592 274.426,479.392C273.901,479.199 273.169,479.148 272.234,479.232L272.131,478.392L282.978,477.06ZM272.136,508.09L272.165,508.926L256.067,509.488L256.037,508.652L257.061,508.615C257.952,508.586 258.667,508.396 259.198,508.06C259.587,507.838 259.876,507.463 260.067,506.935C260.226,506.574 260.277,505.617 260.223,504.066L259.516,483.814C259.461,482.24 259.341,481.259 259.157,480.869C258.981,480.48 258.635,480.15 258.112,479.873C257.599,479.597 256.904,479.472 256.044,479.504L255.021,479.539L254.991,478.695L271.09,478.133L271.119,478.976L270.096,479.013C269.204,479.045 268.489,479.224 267.958,479.56C267.57,479.791 267.273,480.16 267.066,480.685C266.916,481.056 266.864,482.013 266.918,483.554L267.625,503.808C267.68,505.381 267.8,506.363 267.984,506.752C268.176,507.142 268.529,507.47 269.043,507.748C269.566,508.031 270.253,508.156 271.112,508.125L272.136,508.09ZM253.235,478.045L252.305,488.676L251.424,488.599C251.002,485.767 249.952,483.535 248.267,481.892C246.587,480.258 244.597,479.338 242.302,479.136C240.386,478.968 238.585,479.363 236.889,480.328C235.192,481.293 233.893,482.629 233.002,484.349C231.853,486.545 231.151,489.037 230.907,491.826C230.668,494.568 230.796,497.101 231.294,499.42C231.793,501.736 232.725,503.539 234.108,504.818C235.482,506.107 237.348,506.847 239.704,507.052C241.636,507.222 243.442,506.959 245.123,506.25C246.804,505.549 248.623,504.244 250.589,502.33L250.357,504.98C248.478,506.621 246.57,507.769 244.638,508.41C242.697,509.058 240.491,509.271 237.995,509.052C234.728,508.765 231.872,507.855 229.445,506.318C227.019,504.783 225.221,502.726 224.053,500.148C222.894,497.562 222.427,494.883 222.67,492.109C222.926,489.181 223.934,486.474 225.701,483.982C227.46,481.488 229.702,479.631 232.432,478.412C235.163,477.187 237.991,476.711 240.919,476.968C243.075,477.156 245.314,477.82 247.635,478.965C248.979,479.627 249.835,479.982 250.213,480.015C250.692,480.056 251.125,479.916 251.512,479.592C251.898,479.267 252.179,478.724 252.355,477.968L253.235,478.045ZM216.802,505.435L216.642,506.258L200.829,503.183L200.989,502.361L201.993,502.556C202.869,502.728 203.609,502.705 204.202,502.496C204.631,502.367 204.997,502.066 205.302,501.595C205.537,501.279 205.803,500.359 206.099,498.836L209.966,478.943C210.267,477.398 210.37,476.414 210.278,475.994C210.194,475.574 209.932,475.176 209.485,474.789C209.047,474.402 208.398,474.127 207.552,473.963L206.548,473.767L206.708,472.937L222.521,476.011L222.36,476.84L221.355,476.644C220.48,476.474 219.741,476.49 219.149,476.699C218.719,476.836 218.346,477.127 218.026,477.593C217.796,477.92 217.53,478.842 217.236,480.355L213.369,500.25C213.069,501.795 212.965,502.777 213.057,503.199C213.156,503.621 213.427,504.021 213.864,504.406C214.31,504.801 214.951,505.076 215.796,505.24L216.802,505.435ZM185.614,468.707L178.987,491.818C178.637,493.041 178.483,493.804 178.516,494.111C178.556,494.422 178.688,494.693 178.923,494.914C179.253,495.252 179.79,495.517 180.536,495.732C182.966,496.429 185.06,496.133 186.819,494.838C189.207,493.095 191.075,489.871 192.429,485.152C193.519,481.349 193.792,478.144 193.252,475.529C192.814,473.482 191.944,471.926 190.645,470.859C189.725,470.103 188.05,469.388 185.614,468.707M166.31,493.404L166.541,492.597L167.525,492.881C168.382,493.127 169.084,493.181 169.618,493.037C170.157,492.9 170.597,492.633 170.948,492.224C171.17,491.957 171.5,491.058 171.939,489.531L177.525,470.051C177.958,468.537 178.148,467.566 178.093,467.14C178.045,466.715 177.818,466.295 177.407,465.871C177.005,465.447 176.382,465.115 175.554,464.879L174.57,464.597L174.803,463.783L188.059,467.584C191.6,468.599 194.309,469.902 196.188,471.48C198.482,473.414 199.976,475.769 200.649,478.545C201.326,481.33 201.232,484.222 200.367,487.234C199.769,489.322 198.884,491.142 197.71,492.701C196.535,494.269 195.256,495.467 193.87,496.304C192.475,497.146 190.989,497.713 189.396,498.006C187.806,498.293 185.951,498.342 183.837,498.146C182.9,498.064 181.474,497.752 179.566,497.205L166.31,493.404ZM159.253,457.851L153.953,469.217L154.509,469.476C156.279,470.302 157.817,470.343 159.137,469.607C160.449,468.867 161.722,467.457 162.956,465.398L163.736,465.761L156.919,480.381L156.139,480.017C156.714,478.343 156.977,476.883 156.925,475.617C156.865,474.349 156.571,473.383 156.032,472.703C155.497,472.035 154.56,471.383 153.232,470.763L149.564,478.629C148.847,480.168 148.474,481.133 148.446,481.539C148.412,481.943 148.527,482.34 148.784,482.724C149.03,483.113 149.558,483.486 150.359,483.861L152.025,484.636C154.633,485.853 157.003,486.222 159.141,485.748C161.275,485.279 163.259,483.963 165.102,481.81L165.86,482.164L160.47,490.459L136.332,479.203L136.687,478.443L137.614,478.877C138.423,479.254 139.146,479.41 139.772,479.351C140.219,479.328 140.647,479.127 141.056,478.744C141.361,478.492 141.842,477.664 142.497,476.258L151.062,457.89C151.651,456.627 151.978,455.836 152.041,455.515C152.131,454.976 152.044,454.482 151.8,454.051C151.453,453.418 150.832,452.898 149.925,452.474L148.997,452.043L149.355,451.277L172.726,462.174L168.875,470.433L168.095,470.07C168.635,467.865 168.755,466.158 168.441,464.943C168.133,463.73 167.415,462.607 166.284,461.584C165.636,460.972 164.251,460.181 162.135,459.195L159.253,457.851ZM119.743,456.357L138.452,444.843L148.599,452.215L148.102,452.898L147.292,452.31C146.558,451.777 145.877,451.474 145.251,451.412C144.816,451.365 144.361,451.474 143.882,451.74C143.536,451.939 142.91,452.654 142.013,453.89L130.073,470.324C129.148,471.597 128.638,472.443 128.537,472.859C128.442,473.279 128.519,473.758 128.759,474.297C129.001,474.845 129.467,475.367 130.17,475.877L130.98,476.465L130.487,477.142L117.468,467.683L117.96,467.006L118.769,467.593C119.51,468.133 120.189,468.424 120.821,468.49C121.245,468.541 121.711,468.427 122.198,468.138C122.539,467.947 123.169,467.224 124.081,465.97L137.502,447.498L111.425,463.293L110.98,462.97L117.675,433.342L104.92,450.898C104.031,452.123 103.511,452.904 103.368,453.232C103.083,453.955 103.069,454.711 103.325,455.482C103.576,456.258 104.269,457.058 105.411,457.888L104.919,458.566L96.386,452.367L96.878,451.689L97.135,451.877C97.678,452.289 98.261,452.57 98.874,452.728C99.488,452.886 100.039,452.892 100.512,452.758C100.989,452.615 101.505,452.301 102.058,451.83C102.184,451.709 102.648,451.097 103.459,449.98L114.919,434.207C115.835,432.945 116.337,432.111 116.433,431.701C116.523,431.287 116.447,430.81 116.206,430.271C115.958,429.728 115.487,429.203 114.79,428.697L114,428.123L114.497,427.437L124.681,434.838L119.743,456.357Z" style="fill:white;fill-rule:nonzero;"/>
                            <rect x="387.173" y="457.98" width="10.06" height="10.061" style="fill:white;"/>
                            <rect x="397.232" y="447.922" width="10.061" height="10.059" style="fill:white;"/>
                            <rect x="377.112" y="447.935" width="10.061" height="10.059" style="fill:white;"/>
                            <rect x="377.112" y="468.041" width="10.061" height="10.061" style="fill:white;"/>
                            <rect x="397.232" y="468.021" width="10.061" height="10.061" style="fill:white;"/>
                            <rect x="60.694" y="402.646" width="10.06" height="10.061" style="fill:white;"/>
                            <rect x="70.754" y="392.586" width="10.061" height="10.061" style="fill:white;"/>
                            <rect x="50.633" y="392.599" width="10.061" height="10.061" style="fill:white;"/>
                            <rect x="50.633" y="412.707" width="10.061" height="10.059" style="fill:white;"/>
                            <rect x="70.754" y="412.685" width="10.061" height="10.061" style="fill:white;"/>
                            <g id="Layer-1" serif:id="Layer 1">
                                <path d="M309.029,376.495C309.018,376.495 309.007,376.495 308.996,376.496C308.844,377.149 308.699,377.978 308.533,378.614C308.333,379.391 308.133,380.169 307.936,380.947C308.755,380.924 309.574,380.902 310.395,380.885C310.147,380.119 309.897,379.352 309.646,378.585C309.433,377.943 309.213,377.14 309.029,376.495" style="fill:white;"/>
                                <path d="M344.265,377.593C344.253,377.592 344.242,377.591 344.231,377.59C344.008,378.221 343.77,379.029 343.533,379.642C343.246,380.393 342.961,381.143 342.678,381.894C343.494,381.962 344.312,382.034 345.128,382.109C344.969,381.319 344.807,380.529 344.644,379.74C344.502,379.077 344.375,378.253 344.265,377.593" style="fill:white;"/>
                                <path d="M365.626,380.39C364.173,380.161 362.72,379.943 361.264,379.735C361.158,380.482 361.051,381.23 360.943,381.977C362.306,382.173 363.665,382.377 365.026,382.59C364.923,383.251 364.818,383.911 364.715,384.574C363.365,384.362 362.013,384.159 360.659,383.965C360.537,384.82 360.414,385.674 360.292,386.529C361.791,386.743 363.288,386.969 364.785,387.206C364.679,387.872 364.574,388.54 364.467,389.205C362.165,388.84 359.86,388.504 357.553,388.192C358.038,384.586 358.524,380.982 359.01,377.377C361.324,377.69 363.634,378.027 365.941,378.391C365.836,379.057 365.731,379.724 365.626,380.39M354.316,378.867C353.964,381.793 353.612,384.717 353.259,387.644C352.441,387.545 351.621,387.45 350.802,387.358C351.131,384.429 351.459,381.502 351.787,378.573C350.778,378.46 349.767,378.351 348.757,378.248C348.828,377.561 348.898,376.873 348.968,376.186C351.864,376.483 354.755,376.82 357.643,377.196C357.555,377.882 357.465,378.566 357.376,379.251C356.356,379.118 355.337,378.989 354.316,378.867M345.901,386.849C345.71,385.891 345.516,384.935 345.32,383.979C344.268,383.881 343.215,383.789 342.163,383.702C341.824,384.611 341.488,385.521 341.155,386.431C340.306,386.363 339.457,386.298 338.608,386.238C339.976,382.688 341.383,379.149 342.83,375.619C343.949,375.712 345.069,375.81 346.187,375.914C347.023,379.646 347.819,383.379 348.574,387.116C347.684,387.024 346.792,386.934 345.901,386.849M336.244,386.078C335.422,386.025 334.599,385.977 333.778,385.931C333.941,382.989 334.104,380.046 334.267,377.105C333.254,377.048 332.24,376.998 331.226,376.951C331.257,376.26 331.289,375.57 331.321,374.881C334.225,375.014 337.128,375.186 340.029,375.401C339.978,376.089 339.927,376.778 339.877,377.467C338.853,377.391 337.83,377.321 336.806,377.256C336.618,380.197 336.432,383.138 336.244,386.078M329.509,385.724C328.686,385.69 327.863,385.659 327.041,385.632C327.162,381.997 327.284,378.361 327.404,374.726C328.257,374.754 329.108,374.786 329.961,374.821C329.81,378.455 329.66,382.09 329.509,385.724M325.896,361.372C324.82,361.342 323.744,361.318 322.668,361.299C322.617,364.246 322.566,367.191 322.513,370.138C321.649,370.123 320.784,370.11 319.919,370.102C319.947,367.157 319.975,364.209 320.003,361.263C318.938,361.254 317.874,361.249 316.809,361.249C316.808,360.558 316.808,359.867 316.808,359.176C319.856,359.175 322.905,359.217 325.952,359.3C325.933,359.99 325.914,360.681 325.896,361.372M324.884,385.567C324.018,385.545 323.152,385.526 322.285,385.51C321.529,384.093 320.764,382.68 319.988,381.268C319.34,380.096 318.603,378.683 318.073,377.402C318.052,377.402 318.028,377.401 318.006,377.401C318.085,378.86 318.111,380.398 318.105,382.18C318.101,383.275 318.097,384.371 318.092,385.466C317.335,385.463 316.576,385.463 315.817,385.465C315.804,381.828 315.79,378.19 315.778,374.553C316.776,374.55 317.776,374.551 318.775,374.556C319.552,375.894 320.32,377.234 321.077,378.578C321.728,379.736 322.349,381.106 322.833,382.347C322.844,382.347 322.855,382.348 322.866,382.348C322.745,380.904 322.724,379.429 322.755,377.779C322.775,376.721 322.795,375.664 322.815,374.607C323.6,374.621 324.386,374.638 325.171,374.659C325.075,378.295 324.978,381.931 324.884,385.567M311.695,385.508C311.398,384.58 311.098,383.651 310.794,382.723C309.739,382.744 308.684,382.77 307.629,382.803C307.396,383.743 307.164,384.685 306.935,385.627C306.085,385.655 305.235,385.686 304.384,385.722C305.344,382.041 306.345,378.365 307.383,374.696C308.505,374.661 309.628,374.634 310.75,374.612C311.999,378.225 313.208,381.846 314.376,385.473C313.482,385.481 312.588,385.492 311.695,385.508M300.915,385.885C300.783,384.497 300.65,383.109 300.515,381.722C300.395,380.416 300.261,378.834 300.176,377.25C300.164,377.251 300.152,377.251 300.142,377.251C299.85,378.662 299.472,380.24 299.116,381.541C298.748,382.984 298.386,384.427 298.031,385.872C297.387,385.912 296.743,385.955 296.1,385.998C295.614,384.625 295.123,383.253 294.627,381.882C294.171,380.617 293.693,379.094 293.3,377.695C293.289,377.695 293.279,377.696 293.268,377.697C293.328,379.17 293.389,380.854 293.428,382.215C293.462,383.598 293.497,384.98 293.534,386.363C292.771,386.423 292.01,386.484 291.248,386.548C291.173,382.904 291.106,379.26 291.049,375.615C292.185,375.522 293.322,375.434 294.459,375.353C294.914,376.537 295.366,377.723 295.814,378.909C296.266,380.144 296.685,381.48 297.014,382.74C297.035,382.739 297.056,382.738 297.077,382.736C297.292,381.456 297.581,379.995 297.89,378.76C298.209,377.529 298.533,376.299 298.862,375.069C299.983,375.004 301.104,374.946 302.225,374.894C302.596,378.517 302.961,382.142 303.318,385.766C302.517,385.804 301.716,385.842 300.915,385.885M284.825,387.34C282.082,387.633 280.301,386.309 279.879,382.867C279.635,380.853 279.392,378.839 279.148,376.824C279.997,376.722 280.845,376.622 281.692,376.527C281.926,378.602 282.16,380.678 282.394,382.753C282.608,384.636 283.446,385.501 284.698,385.368C285.999,385.23 286.627,384.259 286.436,382.325C286.23,380.247 286.024,378.169 285.818,376.09C286.667,376.006 287.517,375.925 288.367,375.848C288.552,377.88 288.736,379.91 288.922,381.942C289.221,385.299 287.666,387.04 284.825,387.34M275.858,388.249C275.653,386.74 275.447,385.232 275.242,383.725C273.87,383.911 272.502,384.108 271.132,384.313C271.359,385.818 271.583,387.323 271.81,388.828C270.994,388.951 270.179,389.076 269.362,389.205L267.656,378.428C268.5,378.294 269.345,378.164 270.191,378.037C270.398,379.419 270.606,380.801 270.814,382.183C272.191,381.976 273.57,381.779 274.95,381.592L274.384,377.437C275.231,377.321 276.079,377.208 276.927,377.1C277.388,380.708 277.851,384.316 278.313,387.924C277.494,388.029 276.676,388.136 275.858,388.249M315.558,359.179C315.561,359.854 315.564,360.528 315.567,361.203C314.028,361.209 312.491,361.226 310.953,361.255C310.966,362.01 310.98,362.765 310.994,363.52C312.434,363.494 313.874,363.477 315.315,363.47C315.318,364.14 315.322,364.809 315.325,365.479C313.892,365.486 312.461,365.502 311.03,365.528C311.046,366.391 311.062,367.254 311.077,368.118C312.664,368.088 314.25,368.071 315.836,368.066C315.838,368.741 315.841,369.416 315.843,370.09C313.401,370.098 310.96,370.135 308.519,370.198L308.232,359.29C310.674,359.227 313.117,359.189 315.558,359.179M372.113,335.962C369.81,328.832 336.232,327.394 315.301,327.41C286.62,327.431 260.242,334.043 261.042,354.646L261.734,424.889C298.758,415.798 335.782,414.76 372.805,421.774L372.113,335.962Z" style="fill:white;"/>
                                <path d="M193.072,376.873C193.061,376.874 193.05,376.874 193.039,376.875C192.898,377.529 192.768,378.363 192.614,379.001C192.427,379.783 192.243,380.565 192.061,381.348C192.884,381.305 193.709,381.269 194.534,381.235C194.272,380.474 194.006,379.712 193.739,378.951C193.51,378.312 193.271,377.513 193.072,376.873" style="fill:white;"/>
                                <path d="M229.216,362.761C229.204,362.76 229.192,362.758 229.18,362.757C228.927,363.38 228.655,364.18 228.389,364.786C228.064,365.527 227.742,366.268 227.424,367.01C228.305,367.105 229.185,367.205 230.065,367.31C229.909,366.514 229.749,365.718 229.588,364.923C229.448,364.254 229.323,363.426 229.216,362.761" style="fill:white;"/>
                                <path d="M238.22,371.808C238.085,372.656 237.364,373.18 236.415,373.036C235.534,372.904 234.983,372.188 235.105,371.337C235.23,370.457 235.968,369.939 236.897,370.081C237.809,370.218 238.346,370.91 238.22,371.808M230.799,372.082C230.614,371.117 230.425,370.153 230.233,369.189C229.103,369.052 227.971,368.924 226.84,368.803C226.46,369.702 226.083,370.602 225.71,371.503C224.801,371.41 223.89,371.323 222.98,371.24C224.494,367.724 226.065,364.223 227.694,360.738C228.908,360.867 230.122,361.005 231.335,361.152C232.17,364.918 232.944,368.687 233.659,372.458C232.706,372.326 231.752,372.201 230.799,372.082M221.52,371.115C220.638,371.041 219.756,370.973 218.874,370.91L219.65,360.025C220.576,360.091 221.5,360.163 222.426,360.24C222.123,363.864 221.822,367.489 221.52,371.115M218.022,361.992C216.912,361.92 215.8,361.855 214.69,361.8C214.541,364.742 214.391,367.685 214.243,370.628C213.36,370.583 212.477,370.544 211.593,370.51C211.707,367.565 211.82,364.621 211.934,361.676C210.835,361.634 209.735,361.599 208.635,361.572L208.685,359.5C211.844,359.578 215.001,359.719 218.156,359.923C218.112,360.613 218.067,361.302 218.022,361.992M214.271,379.541C216.226,380.36 217.07,381.429 216.968,382.961C216.84,384.79 215.342,386.232 212.347,386.093C211.099,386.035 209.877,385.654 209.267,385.297C209.456,384.627 209.646,383.959 209.839,383.29C210.486,383.65 211.522,384.028 212.587,384.078C213.733,384.13 214.364,383.698 214.403,382.985C214.44,382.307 213.934,381.887 212.611,381.372C210.783,380.641 209.577,379.605 209.624,378.018C209.676,376.159 211.378,374.791 214.086,374.927C215.403,374.995 216.328,375.295 216.991,375.645C216.755,376.29 216.522,376.935 216.29,377.581C215.863,377.344 215.052,376.986 213.95,376.93C212.832,376.874 212.267,377.353 212.244,377.904C212.215,378.601 212.826,378.931 214.271,379.541M205.778,385.738C205.621,385.411 205.356,384.533 205.057,383.187C204.759,381.807 204.278,381.446 203.233,381.427C202.986,381.427 202.736,381.427 202.487,381.428L202.496,385.719C201.678,385.72 200.859,385.727 200.042,385.738C199.993,382.149 199.943,378.56 199.894,374.971C200.729,374.831 201.96,374.722 203.363,374.725C205.074,374.73 206.271,374.992 207.076,375.622C207.765,376.153 208.119,376.94 208.095,377.943C208.06,379.319 207.019,380.249 206.049,380.575C206.049,380.592 206.049,380.608 206.048,380.625C206.826,380.943 207.245,381.665 207.503,382.674C207.823,383.928 208.114,385.36 208.314,385.787C207.469,385.766 206.624,385.749 205.778,385.738M197.275,370.413C197.184,366.776 197.092,363.14 197.001,359.504C198.086,359.477 199.171,359.457 200.257,359.445C201.126,360.768 201.98,362.096 202.82,363.428C203.54,364.578 204.23,365.942 204.768,367.176L204.803,367.176C204.656,365.734 204.612,364.261 204.624,362.609C204.632,361.551 204.64,360.494 204.649,359.436C205.501,359.442 206.356,359.453 207.21,359.469C207.143,363.105 207.076,366.743 207.01,370.379C206.08,370.362 205.149,370.351 204.219,370.346C203.389,368.938 202.544,367.534 201.683,366.135C200.967,364.973 200.145,363.573 199.549,362.303C199.523,362.303 199.499,362.303 199.475,362.304C199.587,363.76 199.645,365.297 199.67,367.079C199.686,368.174 199.701,369.27 199.718,370.365C198.902,370.376 198.089,370.392 197.275,370.413M195.918,385.835C195.606,384.911 195.289,383.988 194.969,383.065C193.909,383.106 192.85,383.153 191.792,383.209C191.578,384.155 191.368,385.103 191.16,386.048C190.311,386.097 189.461,386.149 188.612,386.207C189.472,382.503 190.389,378.803 191.366,375.109C192.505,375.049 193.644,374.999 194.783,374.956C196.115,378.547 197.387,382.15 198.6,385.762C197.706,385.78 196.811,385.806 195.918,385.835M187.26,359.951C189.787,359.783 192.315,359.655 194.846,359.568L194.915,361.59C193.326,361.646 191.736,361.716 190.148,361.804C190.189,362.557 190.231,363.312 190.272,364.066C191.755,363.984 193.239,363.918 194.724,363.865C194.747,364.534 194.771,365.203 194.795,365.872C193.323,365.925 191.852,365.99 190.382,366.071C190.429,366.933 190.476,367.795 190.524,368.658C192.147,368.569 193.772,368.497 195.396,368.442C195.42,369.117 195.442,369.791 195.464,370.465C192.97,370.548 190.476,370.672 187.985,370.839C187.743,367.21 187.502,363.581 187.26,359.951M183.235,371.386C179.199,371.746 176.844,369.667 176.474,366.575C176.029,362.879 178.783,360.477 182.522,360.153C183.964,360.027 185.079,360.187 185.59,360.394C185.443,361.053 185.298,361.714 185.154,362.373C184.596,362.205 183.801,362.074 182.805,362.16C180.629,362.348 179.049,363.703 179.304,366.119C179.534,368.292 181.078,369.509 183.44,369.304C184.266,369.232 185.131,369.017 185.661,368.766C185.839,369.401 186.016,370.037 186.192,370.674C185.736,370.919 184.643,371.261 183.235,371.386M171.146,372.766C169.815,372.956 168.45,372.824 167.738,372.592C167.811,371.898 167.886,371.204 167.964,370.509C168.716,370.734 169.882,370.901 171.017,370.74C172.238,370.566 172.823,370.017 172.729,369.311C172.639,368.637 172.025,368.324 170.53,368.078C168.46,367.72 166.99,366.941 166.741,365.374C166.446,363.538 167.984,361.857 170.863,361.46C172.263,361.269 173.296,361.382 174.06,361.597C173.935,362.276 173.812,362.956 173.691,363.634C173.196,363.485 172.273,363.293 171.1,363.453C169.91,363.617 169.406,364.201 169.486,364.745C169.586,365.434 170.294,365.638 171.935,365.954C174.153,366.375 175.247,367.261 175.432,368.785C175.648,370.607 174.341,372.314 171.146,372.766M258.453,349.87L252.225,348.486L251.878,343.295L245.305,343.642L243.921,340.527L248.419,333.954C246.688,327.263 146.691,320.228 146.691,342.948L147.728,422.879C184.867,416.405 222.005,416.087 259.144,422.533L258.453,349.87Z" style="fill:white;"/>
                                <path d="M203.648,376.571C203.021,376.569 202.664,376.602 202.478,376.651C202.48,377.65 202.482,378.649 202.484,379.648C202.819,379.647 203.152,379.647 203.487,379.648C204.757,379.651 205.517,379.048 205.529,378.091C205.543,377.105 204.837,376.575 203.648,376.571" style="fill:white;"/>
                            </g>
                        </g>
                    </g>
                </g>
            </g>
        </g>
    </g>
</svg>
