<?xml version="1.0" encoding="UTF-8" standalone="no"?>
<!DOCTYPE svg PUBLIC "-//W3C//DTD SVG 1.1//EN" "http://www.w3.org/Graphics/SVG/1.1/DTD/svg11.dtd">
<svg width="100%" height="100%" viewBox="0 0 450 450" version="1.1" xmlns="http://www.w3.org/2000/svg" xmlns:xlink="http://www.w3.org/1999/xlink" xml:space="preserve" xmlns:serif="http://www.serif.com/" style="fill-rule:evenodd;clip-rule:evenodd;stroke-linejoin:round;stroke-miterlimit:2;">
    <g transform="matrix(1,0,0,1,-1950,-750)">
        <g transform="matrix(1.7682,0,0,1,0,0)">
            <g transform="matrix(0.678655,0,0,1.2,797.42,120)">
                <circle cx="637.5" cy="712.5" r="187.5" style="fill:rgb(44,80,140);"/>
            </g>
        </g>
        <g transform="matrix(1.7682,0,0,1,0,0)">
            <g transform="matrix(0.154181,0,0,0.272622,1092.39,605.766)">
                <path d="M524.167,933.333L524.167,886.656L625.16,886.656L625.16,804.167L832.939,804.167C854.373,804.167 874.929,812.681 890.085,827.837C905.241,842.994 913.756,863.55 913.756,884.984L913.756,933.333L1357.51,933.333L1357.51,1440C1357.51,1696.41 1149.34,1904.59 892.923,1904.59C636.509,1904.59 428.333,1696.41 428.333,1440L428.333,933.333L524.167,933.333ZM913.756,1862.42L913.756,975L1315.85,975L1315.85,1440C1315.85,1666.44 1137.5,1851.55 913.756,1862.42ZM872.089,1762.03L773.605,1663.55C765.803,1668.33 757.207,1671.95 748.062,1674.15L748.062,1837.42C787.07,1851.66 828.727,1860.31 872.089,1862.42L872.089,1762.03ZM599.723,1744.68C631.04,1774.83 666.986,1800.19 706.396,1819.61L706.396,1674.15C697.252,1671.95 688.657,1668.33 680.853,1663.55L599.723,1744.68ZM504.97,1608.54C521.777,1647.14 544.176,1682.74 571.141,1714.33L651.391,1634.09C646.606,1626.28 642.991,1617.69 640.792,1608.54L504.97,1608.54ZM872.089,1608.54L813.666,1608.54C811.467,1617.69 807.853,1626.28 803.067,1634.09L872.089,1703.11L872.089,1608.54ZM727.229,1540.48C753.295,1540.48 774.458,1561.64 774.458,1587.71C774.458,1613.78 753.295,1634.94 727.229,1634.94C701.163,1634.94 680,1613.78 680,1587.71C680,1561.64 701.163,1540.48 727.229,1540.48ZM872.089,1566.88L872.089,1472.31L803.067,1541.33C807.852,1549.13 811.467,1557.73 813.666,1566.88L872.089,1566.88ZM470.04,1445.83C470.61,1487.95 477.35,1528.58 489.393,1566.88L640.792,1566.88C642.991,1557.73 646.605,1549.14 651.391,1541.33L555.89,1445.83L470.04,1445.83ZM839.643,1445.83L748.062,1445.83L748.062,1501.27C757.206,1503.47 765.801,1507.09 773.605,1511.87L839.643,1445.83ZM706.396,1445.83L614.816,1445.83L680.853,1511.87C688.655,1507.09 697.251,1503.47 706.396,1501.27L706.396,1445.83ZM524.167,975L524.167,1337.68L832.923,1337.68C843.31,1337.68 853.273,1341.8 860.618,1349.15C867.963,1356.5 872.089,1366.46 872.089,1376.85L872.089,1404.17L470,1404.17L470,975L524.167,975ZM625.16,928.323L565.833,928.323C565.833,928.323 565.833,1296.01 565.833,1296.01C565.833,1296.01 832.923,1296.01 832.923,1296.01C846.748,1296.01 860.209,1299.55 872.089,1306.14L872.089,1267.5C872.089,1257.11 867.963,1247.15 860.618,1239.81C853.273,1232.46 843.31,1228.33 832.923,1228.33L625.16,1228.33L625.16,928.323ZM872.089,1196.8C860.209,1190.21 846.748,1186.67 832.923,1186.67C832.923,1186.67 666.827,1186.67 666.827,1186.67C666.827,1186.67 666.827,845.833 666.827,845.833C666.827,845.833 832.892,845.833 832.939,845.833C843.322,845.833 853.28,849.958 860.622,857.3C867.965,864.642 872.089,874.601 872.089,884.984L872.089,1196.8Z" style="fill:white;"/>
            </g>
        </g>
        <g transform="matrix(1.7682,0,0,1,0,0)">
            <g transform="matrix(0.154181,0,0,0.272622,1091.75,613.238)">
                <path d="M1087.5,984.045C1046.11,984.045 1012.5,1017.65 1012.5,1059.05C1012.5,1100.44 1046.11,1134.05 1087.5,1134.05C1128.89,1134.05 1162.5,1100.44 1162.5,1059.05C1162.5,1017.65 1128.89,984.045 1087.5,984.045ZM1087.5,1021.55C1108.2,1021.55 1125,1038.35 1125,1059.05C1125,1079.74 1108.2,1096.55 1087.5,1096.55C1066.8,1096.55 1050,1079.74 1050,1059.05C1050,1038.35 1066.8,1021.55 1087.5,1021.55Z" style="fill:white;"/>
            </g>
        </g>
        <g transform="matrix(1.7682,0,0,1,0,0)">
            <g transform="matrix(0.154181,0,0,0.272622,1092.39,608.765)">
                <path d="M1010.34,1454.42L1010.34,1688.34C1010.34,1719.97 1036.02,1745.65 1067.66,1745.65C1067.66,1745.65 1098.96,1745.65 1098.96,1745.65C1130.6,1745.65 1156.28,1719.97 1156.28,1688.34L1156.28,1454.42C1180.48,1443.24 1197.28,1418.74 1197.28,1390.35C1197.28,1390.35 1197.28,1237.92 1197.28,1237.92C1197.28,1198.96 1165.65,1167.33 1126.69,1167.33L1039.93,1167.33C1000.97,1167.33 969.341,1198.96 969.341,1237.92C969.341,1237.92 969.341,1390.35 969.341,1390.35C969.341,1418.74 986.14,1443.24 1010.34,1454.42ZM1039.93,1419.27C1046.6,1419.27 1052.01,1424.67 1052.01,1431.34C1052.01,1483.69 1052.01,1688.34 1052.01,1688.34C1052.01,1696.98 1059.02,1703.99 1067.66,1703.99L1098.96,1703.99C1107.6,1703.99 1114.61,1696.98 1114.61,1688.34C1114.61,1688.34 1114.61,1483.69 1114.61,1431.34C1114.61,1424.67 1120.02,1419.27 1126.69,1419.27C1126.69,1419.27 1126.69,1419.27 1126.69,1419.27C1142.65,1419.27 1155.61,1406.31 1155.61,1390.35L1155.61,1237.92C1155.61,1221.96 1142.65,1209 1126.69,1209L1039.93,1209C1023.97,1209 1011.01,1221.96 1011.01,1237.92L1011.01,1390.35C1011.01,1406.31 1023.97,1419.27 1039.93,1419.27L1039.93,1419.27Z" style="fill:white;"/>
            </g>
        </g>
    </g>
</svg>
