<?xml version="1.0" encoding="UTF-8" standalone="no"?>
<!DOCTYPE svg PUBLIC "-//W3C//DTD SVG 1.1//EN" "http://www.w3.org/Graphics/SVG/1.1/DTD/svg11.dtd">
<svg width="100%" height="100%" viewBox="0 0 450 450" version="1.1" xmlns="http://www.w3.org/2000/svg" xmlns:xlink="http://www.w3.org/1999/xlink" xml:space="preserve" xmlns:serif="http://www.serif.com/" style="fill-rule:evenodd;clip-rule:evenodd;stroke-linejoin:round;stroke-miterlimit:2;">
    <g transform="matrix(1,0,0,1,-150,-150)">
        <g transform="matrix(1.7682,0,0,1,0,0)">
            <g transform="matrix(0.678655,0,0,1.2,-220.563,-480)">
                <circle cx="637.5" cy="712.5" r="187.5" style="fill:rgb(44,80,140);"/>
            </g>
        </g>
        <g transform="matrix(1.7682,0,0,1,0,0)">
            <g id="Logo-Facultad-Ciencias-Basicas.svg" serif:id="Logo Facultad Ciencias Basicas.svg" transform="matrix(0.477683,0,0,0.844641,222.514,384.055)">
                <g transform="matrix(1,0,0,1,-170.5,-153.5)">
                    <path d="M271.671,91.306C275.503,116.014 264.757,136.269 249.981,155.176C284.427,129.336 280.626,109.568 271.671,91.306" style="fill:white;"/>
                    <path d="M280.448,191.314C256.156,240.078 206.14,273.212 148.135,273.212C66.546,273.212 0,206.666 0,125.076C0,72.808 26.426,26.379 67.506,0L102.753,31.667C68.221,48.348 45.072,84.277 45.072,125.076C45.072,181.841 91.37,228.14 148.135,228.14C193.371,228.14 231.233,200.173 245.042,159.505L280.448,191.314Z" style="fill:white;"/>
                    <path d="M143.452,203.724L115.966,167.908C136.014,152.271 174.537,113.81 190.337,137.119C206.137,160.429 161.609,184.369 143.452,203.724Z" style="fill:white;"/>
                    <path d="M102.036,150.927L74.55,115.111C94.598,99.473 133.12,61.012 148.92,84.322C164.721,107.631 120.193,131.571 102.036,150.927Z" style="fill:white;"/>
                    <path d="M95.681,81.834L84.932,72.177C99.55,42.834 129.647,22.894 164.553,22.894C213.652,22.894 253.697,62.939 253.697,112.037C253.697,143.49 237.794,171.431 213.074,187.304L191.863,168.247C212.643,158.21 226.574,136.589 226.574,112.037C226.574,77.878 198.712,50.017 164.553,50.017C148.076,50.017 133.225,56.183 122.228,66.476C113.808,69.489 104.573,75.325 95.681,81.834ZM106.965,89.295C106.711,89.964 106.469,90.639 106.238,91.319L105.298,90.474C105.852,90.077 106.407,89.684 106.965,89.295Z" style="fill:white;"/>
                    <path d="M76.494,141.777L90.38,159.872C91.011,160.695 91.722,161.441 92.497,162.102C53.502,198.535 21.744,246.835 0,306.083C14.196,252.314 34.944,189.098 76.494,141.777ZM150.912,87.973C156.896,102.327 141.817,116.815 125.78,130.229L125.727,130.274L125.186,130.725L125.171,130.737C123.164,132.411 121.146,134.067 119.155,135.705L118.637,136.131L118.466,136.271L118.231,136.465L117.66,136.936L117.474,137.089L117.43,137.125L117.372,137.173L117.09,137.406L116.902,137.561L116.83,137.621L116.752,137.685L116.523,137.875L116.328,138.036L116.232,138.115L116.148,138.185L115.958,138.343L115.753,138.513L115.638,138.608L115.555,138.677L115.396,138.809L115.178,138.99L115.047,139.099L114.97,139.164L114.837,139.275L114.605,139.468L114.459,139.59L114.347,139.684L114.281,139.739L114.232,139.78C114.082,139.905 113.933,140.03 113.784,140.155L113.728,140.202L113.585,140.323L113.549,140.352L113.453,140.433L113.34,140.528L113.295,140.566L113.262,140.594L113.179,140.664L113.058,140.767L113.007,140.81L112.977,140.835L112.906,140.895L112.775,141.006L112.719,141.053L112.693,141.075L112.634,141.125L112.492,141.246L112.433,141.295L112.412,141.314L112.363,141.355L112.207,141.487L112.148,141.538L112.132,141.552L112.093,141.584L111.919,141.733L111.864,141.78L111.853,141.789L111.824,141.813L111.621,141.987L111.581,142.021L111.576,142.026C111.297,142.264 111.021,142.502 110.745,142.74L110.741,142.744L110.695,142.783L110.496,142.955L110.475,142.974L110.463,142.984L110.394,143.044L110.234,143.182L110.187,143.224L110.11,143.29L109.974,143.41L109.938,143.441L109.912,143.463L109.835,143.531L109.714,143.636L109.671,143.674L109.638,143.703L109.563,143.768L109.456,143.863L109.406,143.906L109.366,143.941L109.295,144.004L109.199,144.089L109.142,144.139L109.096,144.18L109.03,144.238L108.943,144.314L108.88,144.371L108.827,144.418L108.766,144.472L108.689,144.54L108.618,144.603L108.559,144.655L108.504,144.705L108.436,144.765L108.358,144.835L108.294,144.893L108.244,144.937L108.185,144.99L108.1,145.067L108.029,145.13L107.986,145.168L107.935,145.214L107.842,145.298L107.767,145.366L107.73,145.399L107.687,145.438L107.585,145.53L107.506,145.602L107.475,145.63L107.44,145.662L107.33,145.763L107.246,145.838L107.222,145.86L107.195,145.885L107.074,145.996L106.989,146.074L106.971,146.09L106.951,146.108L106.815,146.233L106.733,146.309L106.709,146.331L106.546,146.482L106.479,146.543L106.474,146.548C106.392,146.624 106.31,146.701 106.228,146.777L105.992,146.997L105.984,147.005L105.977,147.011L105.903,147.081L105.756,147.219L105.728,147.245L105.647,147.322L105.522,147.44L105.482,147.478L105.4,147.556L105.29,147.66L105.237,147.711L105.159,147.786L105.06,147.881L105.026,147.913L104.995,147.943L104.921,148.014L104.831,148.101L104.792,148.139L104.754,148.175L104.686,148.242L104.605,148.32L104.559,148.365L104.516,148.407L104.453,148.468L104.38,148.539L104.327,148.591L104.279,148.638L104.222,148.694L104.157,148.758L104.098,148.816L104.045,148.868L103.936,148.977L103.871,149.041L103.813,149.099L103.767,149.144L103.717,149.195L103.499,149.413L103.422,149.491L103.321,149.592L103.284,149.63L103.2,149.716L103.13,149.787L103.102,149.816L103.071,149.847L102.98,149.941L102.906,150.016L102.884,150.039L102.86,150.064L102.76,150.167L102.685,150.244L102.669,150.261L102.651,150.28L102.54,150.395L102.466,150.472L102.456,150.484L102.444,150.496L102.315,150.631L102.25,150.7L102.239,150.711L102.23,150.721L102.143,150.813L102.036,150.927L86.685,130.923C104.392,113.308 125.511,98.471 150.912,87.973ZM164.755,82.83C209.702,67.936 267.026,65.874 340.777,83.873C276.119,76.089 214.839,86.53 161.336,113.733C167.355,103.531 169.011,93.117 164.755,82.83Z" style="fill:white;"/>
                </g>
            </g>
        </g>
    </g>
</svg>
