<?xml version="1.0" encoding="UTF-8" standalone="no"?>
<!DOCTYPE svg PUBLIC "-//W3C//DTD SVG 1.1//EN" "http://www.w3.org/Graphics/SVG/1.1/DTD/svg11.dtd">
<svg width="100%" height="100%" viewBox="0 0 450 450" version="1.1" xmlns="http://www.w3.org/2000/svg" xmlns:xlink="http://www.w3.org/1999/xlink" xml:space="preserve" xmlns:serif="http://www.serif.com/" style="fill-rule:evenodd;clip-rule:evenodd;stroke-linejoin:round;stroke-miterlimit:2;">
    <g transform="matrix(1,0,0,1,-1350,-750)">
        <g transform="matrix(1.7682,0,0,1,0,0)">
            <g transform="matrix(0.678655,0,0,1.2,458.092,120)">
                <circle cx="637.5" cy="712.5" r="187.5" style="fill:rgb(44,80,140);"/>
            </g>
        </g>
        <g transform="matrix(1.7682,0,0,1,0,0)">
            <g id="Facultad-de-Ciencias-Sociales" serif:id="Facultad de Ciencias Sociales" transform="matrix(2.37028,0,0,4.19114,784.952,789.211)">
                <g transform="matrix(1,0,0,1,30.5122,78.9007)">
                    <path d="M0,-68.868L5.726,-65.419L8.928,-71.304C9.528,-71.388 10.132,-71.456 10.739,-71.514L6.661,-64.025L6.289,-63.344L5.622,-63.746L-1.662,-68.13C-1.117,-68.391 -0.562,-68.631 0,-68.868M-15.367,-57.061L-8.667,-56.849L-8.84,-63.684C-8.363,-64.059 -7.879,-64.424 -7.386,-64.775L-7.17,-56.1L-7.147,-55.314L-7.932,-55.339L-16.423,-55.606C-16.083,-56.1 -15.727,-56.585 -15.367,-57.061M-22.689,-39.428L-16.741,-42.704L-20.326,-48.381C-20.101,-48.941 -19.86,-49.491 -19.61,-50.033L-15.059,-42.829L-14.636,-42.16L-15.329,-41.782L-22.892,-37.622C-22.838,-38.229 -22.771,-38.829 -22.689,-39.428M-20.344,-20.542L-16.869,-26.501L-22.689,-29.445C-22.771,-30.024 -22.834,-30.611 -22.883,-31.201L-15.49,-27.472L-14.787,-27.115L-15.186,-26.43L-19.613,-18.844C-19.869,-19.405 -20.114,-19.968 -20.344,-20.542M-8.766,-5.129L-8.695,-12.062L-15.274,-11.693C-15.631,-12.159 -15.986,-12.637 -16.322,-13.12L-7.982,-13.586L-7.188,-13.633L-7.205,-12.841L-7.287,-4.028C-7.791,-4.383 -8.282,-4.745 -8.766,-5.129M8.917,2.428L5.504,-3.586L0.007,-0.008C-0.542,-0.229 -1.086,-0.472 -1.617,-0.718L5.357,-5.26L6.018,-5.693L6.405,-5.004L10.746,2.642C10.132,2.584 9.521,2.515 8.917,2.428M28.155,0.101L22.229,-3.445L19.154,2.479C18.567,2.555 17.975,2.617 17.38,2.668L21.268,-4.821L21.632,-5.523L22.31,-5.117L29.835,-0.624C29.281,-0.367 28.725,-0.127 28.155,0.101M43.569,-11.513L36.783,-11.609L37.004,-4.986C36.529,-4.616 36.043,-4.26 35.56,-3.919L35.273,-12.334L35.249,-13.116L36.023,-13.101L44.66,-12.985C44.303,-12.488 43.944,-11.995 43.569,-11.513M51.127,-29.479L45.179,-26.249L48.724,-20.412C48.492,-19.856 48.254,-19.299 48,-18.75L43.511,-26.149L43.1,-26.816L43.785,-27.188L51.321,-31.275C51.267,-30.671 51.202,-30.072 51.127,-29.479M48.744,-48.414L45.222,-42.34L51.144,-39.286C51.218,-38.702 51.278,-38.11 51.327,-37.517L43.841,-41.378L43.146,-41.735L43.54,-42.411L48.006,-50.105C48.263,-49.548 48.508,-48.983 48.744,-48.414M37.017,-63.88L36.953,-56.942L43.681,-57.21C44.047,-56.737 44.401,-56.255 44.745,-55.765L36.237,-55.43L35.46,-55.397L35.467,-56.175L35.542,-64.968C36.043,-64.619 36.535,-64.255 37.017,-63.88M19.294,-71.329L22.685,-65.421L28.275,-68.933C28.833,-68.703 29.379,-68.466 29.921,-68.214L22.821,-63.755L22.168,-63.34L21.779,-64.012L17.46,-71.536C18.076,-71.483 18.687,-71.413 19.294,-71.329" style="fill:white;fill-rule:nonzero;"/>
                </g>
                <g transform="matrix(1,0,0,1,75.5869,26.8299)">
                    <path d="M0,35.173L-6.822,35.191C-5.561,33.471 -4.481,31.61 -3.607,29.64L0,35.173ZM-10.048,30.167L-10.048,38.477L-18.339,38.477C-22.009,40.699 -26.31,41.981 -30.904,41.981C-35.5,41.981 -39.802,40.699 -43.473,38.477L-51.769,38.477L-51.769,30.157C-53.972,26.499 -55.242,22.218 -55.242,17.646C-55.242,13.073 -53.972,8.793 -51.769,5.134L-51.769,-3.187L-43.467,-3.187C-39.797,-5.407 -35.497,-6.687 -30.904,-6.687C-26.313,-6.687 -22.014,-5.407 -18.345,-3.187L-10.048,-3.187L-10.048,5.126C-7.842,8.786 -6.57,13.069 -6.57,17.646C-6.57,22.222 -7.842,26.506 -10.048,30.167M-18.816,44.864C-16.897,44.011 -15.084,42.962 -13.402,41.74L-13.125,48.051L-18.816,44.864ZM-31.222,53.07L-34.579,47.182C-33.36,47.335 -32.121,47.423 -30.862,47.423C-29.947,47.423 -29.043,47.375 -28.149,47.294L-31.222,53.07ZM-49.105,48.121L-49.125,41.132C-47.378,42.492 -45.48,43.664 -43.457,44.614L-49.105,48.121ZM-61.968,35.134L-58.429,28.9C-57.546,31.046 -56.418,33.066 -55.083,34.929L-61.968,35.134ZM-62.117,0.308L-55.017,0.243C-56.351,2.089 -57.481,4.09 -58.37,6.217L-62.117,0.308ZM-43.389,-9.38C-45.363,-8.459 -47.221,-7.329 -48.934,-6.016L-49.225,-12.646L-43.389,-9.38ZM-31.152,-17.891L-27.688,-11.986C-28.731,-12.097 -29.79,-12.157 -30.862,-12.157C-32.002,-12.157 -33.124,-12.086 -34.23,-11.961L-31.152,-17.891ZM-13.243,-12.765L-13.226,-6.348C-14.939,-7.613 -16.795,-8.694 -18.76,-9.573L-13.243,-12.765ZM-0.067,0.11L-3.479,5.909C-4.323,3.95 -5.375,2.101 -6.603,0.383L-0.067,0.11ZM-60.453,21.032L-66.844,17.588L-60.417,13.957C-60.567,15.163 -60.653,16.388 -60.653,17.633C-60.653,18.783 -60.581,19.916 -60.453,21.032M-1.215,14.66L4.475,17.641L-1.259,20.978C-1.136,19.878 -1.065,18.764 -1.065,17.633C-1.065,16.63 -1.117,15.638 -1.215,14.66M-1.536,22.862L6.388,18.251L6.358,16.953L-1.454,12.857C-1.744,11.071 -2.194,9.339 -2.788,7.673L1.909,-0.316L1.238,-1.438L-7.7,-1.065C-8.91,-2.56 -10.261,-3.935 -11.732,-5.172L-11.761,-14.055L-12.88,-14.698L-20.498,-10.29C-22.198,-10.925 -23.974,-11.402 -25.803,-11.717L-30.55,-19.813L-31.853,-19.781L-36.049,-11.694C-37.988,-11.351 -39.863,-10.821 -41.655,-10.12L-49.663,-14.602L-50.771,-13.917L-50.375,-4.836C-51.633,-3.741 -52.806,-2.548 -53.867,-1.259L-63.471,-1.173L-64.096,-0.028L-59.028,7.963C-59.488,9.296 -59.856,10.67 -60.125,12.081L-68.755,16.953L-68.738,18.259L-60.182,22.872C-59.923,24.312 -59.563,25.713 -59.106,27.073L-63.917,35.55L-63.248,36.663L-53.977,36.385C-52.953,37.645 -51.828,38.817 -50.614,39.894L-50.588,49.456L-49.455,50.083L-41.791,45.332C-40.086,46.009 -38.306,46.533 -36.464,46.886L-31.846,54.986L-30.542,54.967L-26.348,47.08C-24.352,46.775 -22.421,46.269 -20.574,45.586L-12.686,50.004L-11.577,49.315L-11.961,40.633C-10.517,39.444 -9.188,38.12 -7.988,36.685L1.378,36.659L1.998,35.51L-2.921,27.966C-2.313,26.327 -1.85,24.62 -1.536,22.862" style="fill:white;fill-rule:nonzero;"/>
                </g>
                <g transform="matrix(1,0,0,1,58.9551,58.79)">
                    <path d="M0,5.377L5.389,5.377L5.389,0C3.884,2.061 2.063,3.876 0,5.377" style="fill:white;fill-rule:nonzero;"/>
                </g>
                <g transform="matrix(1,0,0,1,25.0166,64.1671)">
                    <path d="M0,-5.38L0,0L5.392,0C3.326,-1.501 1.505,-3.317 0,-5.38" style="fill:white;fill-rule:nonzero;"/>
                </g>
                <g transform="matrix(1,0,0,1,44.6826,65.3065)">
                    <path d="M0,2.504C3.773,2.504 7.338,1.598 10.495,0L-10.497,0C-7.34,1.598 -3.774,2.504 0,2.504" style="fill:white;fill-rule:nonzero;"/>
                </g>
                <g transform="matrix(1,0,0,1,65.5391,54.9207)">
                    <path d="M0,-20.889L0,0C1.582,-3.144 2.478,-6.691 2.478,-10.445C2.478,-14.198 1.582,-17.744 0,-20.889" style="fill:white;fill-rule:nonzero;"/>
                </g>
                <g transform="matrix(1,0,0,1,21.3457,44.4776)">
                    <path d="M0,-0.002C0,3.748 0.894,7.291 2.473,10.434L2.473,-10.436C0.894,-7.294 0,-3.751 0,-0.002" style="fill:white;fill-rule:nonzero;"/>
                </g>
                <g transform="matrix(1,0,0,1,44.6826,23.6431)">
                    <path d="M0,-2.5C-3.771,-2.5 -7.333,-1.595 -10.49,0L10.488,0C7.333,-1.595 3.771,-2.5 0,-2.5" style="fill:white;fill-rule:nonzero;"/>
                </g>
                <g transform="matrix(1,0,0,1,32.1846,31.594)">
                    <path d="M0,32.573L4.977,32.573L5.043,32.177C8.302,6.893 12.262,1.487 -5.085,0.162L-6.947,0C-7.022,0.113 -7.094,0.229 -7.168,0.344L-7.168,25.421C-5.329,28.295 -2.879,30.74 0,32.573" style="fill:white;fill-rule:nonzero;"/>
                </g>
                <g transform="matrix(1,0,0,1,30.4146,30.1652)">
                    <path d="M0,-5.384L-5.398,-5.384L-5.398,0C-3.891,-2.064 -2.068,-3.882 0,-5.384" style="fill:white;fill-rule:nonzero;"/>
                </g>
                <g transform="matrix(1,0,0,1,43.501,31.1762)">
                    <path d="M0,-6.395L-11.309,-6.395C-13.411,-5.058 -15.288,-3.398 -16.861,-1.48L1.231,0L19.148,-1.571C17.59,-3.451 15.738,-5.079 13.67,-6.395L2.658,-6.395C3.426,-5.937 3.949,-5.109 3.949,-4.159C3.949,-2.71 2.768,-1.534 1.328,-1.534C-0.107,-1.534 -1.289,-2.71 -1.289,-4.159C-1.289,-5.109 -0.767,-5.937 0,-6.395" style="fill:white;fill-rule:nonzero;"/>
                </g>
                <g transform="matrix(1,0,0,1,50.1982,46.372)">
                    <path d="M0,17.545C-3.012,9.806 -3.089,6.681 -5.505,-0.25C-7.915,6.677 -7.995,9.806 -11.014,17.536L-11.11,17.795L0.066,17.795L0,17.545Z" style="fill:white;fill-rule:nonzero;"/>
                </g>
                <g transform="matrix(1,0,0,1,64.3447,24.7811)">
                    <path d="M0,5.382L0,0L-5.396,0C-3.329,1.502 -1.507,3.319 0,5.382" style="fill:white;fill-rule:nonzero;"/>
                </g>
                <g transform="matrix(1,0,0,1,64.3447,38.7856)">
                    <path d="M0,18.232L0,-6.851C-0.064,-6.95 -0.127,-7.051 -0.192,-7.149L-2.104,-7.026C-19.448,-5.694 -15.442,-0.291 -12.188,24.99L-12.122,25.381L-7.166,25.381C-4.288,23.548 -1.84,21.105 0,18.232" style="fill:white;fill-rule:nonzero;"/>
                </g>
            </g>
        </g>
    </g>
</svg>
