<?xml version="1.0" encoding="UTF-8" standalone="no"?>
<!DOCTYPE svg PUBLIC "-//W3C//DTD SVG 1.1//EN" "http://www.w3.org/Graphics/SVG/1.1/DTD/svg11.dtd">
<svg width="100%" height="100%" viewBox="0 0 450 450" version="1.1" xmlns="http://www.w3.org/2000/svg" xmlns:xlink="http://www.w3.org/1999/xlink" xml:space="preserve" xmlns:serif="http://www.serif.com/" style="fill-rule:evenodd;clip-rule:evenodd;stroke-linejoin:round;stroke-miterlimit:2;">
    <g transform="matrix(1,0,0,1,-1950,-150)">
        <g transform="matrix(1.7682,0,0,1,0,0)">
            <g transform="matrix(0.678655,0,0,1.2,797.42,-480)">
                <circle cx="637.5" cy="712.5" r="187.5" style="fill:rgb(44,80,140);"/>
            </g>
        </g>
        <g transform="matrix(1.7682,0,0,1,0,0)">
            <g id="Logo-Facultad-de-Ciencias-del-Mar.svg" serif:id="Logo Facultad de Ciencias del Mar.svg" transform="matrix(0.33616,0,0,0.597132,1230.06,375)">
                <g transform="matrix(1,0,0,1,-171,-198)">
                    <clipPath id="_clip1">
                        <rect x="0" y="0" width="342" height="396"/>
                    </clipPath>
                    <g clip-path="url(#_clip1)">
                        <g>
                            <path d="M0.197,18.976C117.981,-49.072 196.792,94.207 339.084,11.292C290.269,45.32 270.781,66.703 238.296,85.76C221.265,92.52 202.647,95.699 181.15,93.378C109.717,74.69 87.833,34.522 0.197,74.626L0.197,18.976Z" style="fill:white;"/>
                            <path d="M-0,112.506L-0,184.421C70.962,148.372 71.671,182.436 121.339,185.65C156.55,181.976 189.839,132.552 219.363,111.3C131.779,173.975 127.359,53.045 0,112.506" style="fill:white;"/>
                            <path d="M0.197,226.607L0.197,339.136C0.197,400.723 71.734,396.424 124.949,394.943C97.473,373.919 75.973,349.806 61.47,319.814C78.945,275.989 104.244,236.822 134.578,203.712C90.121,246.975 58.693,179.291 0.197,226.607" style="fill:white;"/>
                            <path d="M289.085,291.556C317.92,291.556 341.307,314.943 341.307,343.779C341.307,372.615 317.92,396 289.085,396C260.249,396 236.862,372.615 236.862,343.779C236.862,314.943 260.249,291.556 289.085,291.556" style="fill:white;"/>
                        </g>
                    </g>
                </g>
            </g>
        </g>
    </g>
</svg>
