<?xml version="1.0" encoding="UTF-8" standalone="no"?><!DOCTYPE svg PUBLIC "-//W3C//DTD SVG 1.1//EN" "http://www.w3.org/Graphics/SVG/1.1/DTD/svg11.dtd"><svg width="100%" height="100%" viewBox="0 0 108 108" version="1.1" xmlns="http://www.w3.org/2000/svg" xmlns:xlink="http://www.w3.org/1999/xlink" xml:space="preserve" xmlns:serif="http://www.serif.com/" style="fill-rule:evenodd;clip-rule:evenodd;stroke-linejoin:round;stroke-miterlimit:2;"><circle cx="54" cy="54" r="54" style="fill:#1b3155;"/><path id="path3280" d="M53.998,18.644c-19.524,0.004 -35.35,15.83 -35.354,35.354c0.004,19.53 15.83,35.356 35.354,35.358c19.53,-0.004 35.356,-15.828 35.358,-35.358c-0.002,-19.524 -15.828,-35.35 -35.358,-35.354Zm-30.82,37.568l11.022,-0c0.157,4.108 0.721,7.794 1.591,11.047l-9.694,-0c-1.615,-3.39 -2.632,-7.109 -2.919,-11.047Zm33.032,-19.884l-0,-12.796c2.079,1.557 6.609,5.526 9.796,12.796l-9.796,0Zm11.422,4.416c0.946,3.175 1.578,6.861 1.757,11.048l-13.179,0l-0,-11.048l11.422,-0Zm-16.845,-16.432c0.384,-0.319 0.712,-0.57 1.003,-0.787l0,12.801l-9.807,0c1.167,-2.658 2.513,-4.879 3.852,-6.702c1.812,-2.462 3.619,-4.201 4.952,-5.312Zm1.003,16.432l0,11.048l-13.17,0c0.179,-4.207 0.826,-7.873 1.779,-11.048l11.391,-0Zm-17.59,11.048l-11.022,0c0.285,-3.935 1.299,-7.659 2.915,-11.048l9.698,-0c-0.87,3.255 -1.434,6.943 -1.591,11.048Zm4.409,4.42l13.181,-0l0,11.047l-11.424,-0c-0.946,-3.174 -1.578,-6.859 -1.757,-11.047Zm13.181,15.468l0,12.793c-2.077,-1.556 -6.609,-5.522 -9.796,-12.793l9.796,0Zm5.421,12.011c-0.382,0.318 -0.712,0.567 -1.001,0.786l-0,-12.794l9.805,-0c-1.165,2.656 -2.513,4.874 -3.852,6.697c-1.81,2.458 -3.62,4.201 -4.952,5.311Zm-1.001,-16.432l-0,-11.047l13.168,-0c-0.179,4.205 -0.827,7.871 -1.777,11.047l-11.391,-0Zm17.59,-11.047l11.018,-0c-0.286,3.936 -1.302,7.657 -2.917,11.047l-9.692,-0c0.868,-3.253 1.431,-6.939 1.591,-11.047Zm-0,-4.42c-0.16,-4.108 -0.721,-7.793 -1.594,-11.048l9.697,-0c1.615,3.389 2.632,7.113 2.915,11.048l-11.018,0Zm5.553,-15.466l-8.594,0c-1.947,-5.038 -4.501,-8.865 -6.886,-11.612c6.329,2.137 11.732,6.247 15.48,11.612Zm-35.228,-11.612c-2.383,2.749 -4.939,6.576 -6.884,11.612l-8.594,0c3.75,-5.365 9.153,-9.475 15.478,-11.612Zm-15.471,46.966l8.589,0c1.943,5.03 4.495,8.855 6.877,11.602c-6.32,-2.135 -11.718,-6.241 -15.466,-11.602Zm35.224,11.602c2.382,-2.747 4.934,-6.572 6.879,-11.602l8.589,0c-3.748,5.361 -9.146,9.467 -15.468,11.602Z" style="fill:#fff;fill-rule:nonzero;"/></svg>