<?xml version="1.0" encoding="UTF-8" standalone="no"?>
<!DOCTYPE svg PUBLIC "-//W3C//DTD SVG 1.1//EN" "http://www.w3.org/Graphics/SVG/1.1/DTD/svg11.dtd">
<svg width="100%" height="100%" viewBox="0 0 450 450" version="1.1" xmlns="http://www.w3.org/2000/svg" xmlns:xlink="http://www.w3.org/1999/xlink" xml:space="preserve" xmlns:serif="http://www.serif.com/" style="fill-rule:evenodd;clip-rule:evenodd;stroke-linejoin:round;stroke-miterlimit:2;">
    <g transform="matrix(1,0,0,1,-150,-750)">
        <g transform="matrix(1.7682,0,0,1,0,0)">
            <g transform="matrix(0.678655,0,0,1.2,-220.563,120)">
                <circle cx="637.5" cy="712.5" r="187.5" style="fill:rgb(44,80,140);"/>
            </g>
        </g>
        <g transform="matrix(1.7682,0,0,1,0,0)">
            <g id="Logo-Facultad-de-Ingeniería.svg" serif:id="Logo Facultad de Ingeniería.svg" transform="matrix(0.402413,0,0,0.711549,212.08,975)">
                <g transform="matrix(1,0,0,1,-144,-198.5)">
                    <clipPath id="_clip1">
                        <rect x="0" y="0" width="288" height="397"/>
                    </clipPath>
                    <g clip-path="url(#_clip1)">
                        <path d="M248.436,0.007C248.436,-0.002 248.445,-0.002 248.462,0.007L259.2,0.007C275.095,0.007 288,12.912 288,28.807L288,367.207C288,383.102 275.095,396.007 259.2,396.007L28.8,396.007C12.905,396.007 0,383.102 0,367.207L0,28.807C0,12.912 12.905,0.007 28.8,0.007L248.436,0.007ZM134.723,17.314L120.858,48.141C118.876,52.604 118.806,54.964 121.747,59.388L154.594,101.002C157.545,105.529 157.116,108.02 154.16,114.728L127.184,177.603C124.365,184.556 121.603,187.231 114.464,188.435L68.815,191.626C59.887,191.577 57.805,193.591 53.866,202.96L38.732,238.712C33.784,248.107 35.212,255.201 45.864,259.956L209.825,329.654C220.406,334.323 224.321,332.855 229.41,320.134L245.441,284.022C248.98,277.093 249.042,273.3 244.685,267.514L214.749,230.353C212.013,226.404 211.025,222.134 213.885,217.165L240.887,150.701C243.078,144.924 247.288,141.55 253.658,141.342L270.693,141.409L270.693,367.207C270.693,373.55 265.543,378.7 259.2,378.7L28.8,378.7C22.457,378.7 17.307,373.55 17.307,367.207L17.307,28.807C17.307,22.464 22.457,17.314 28.8,17.314L134.723,17.314Z" style="fill:white;"/>
                    </g>
                </g>
            </g>
        </g>
    </g>
</svg>
