<?xml version="1.0" encoding="UTF-8" standalone="no"?>
<!DOCTYPE svg PUBLIC "-//W3C//DTD SVG 1.1//EN" "http://www.w3.org/Graphics/SVG/1.1/DTD/svg11.dtd">
<svg width="100%" height="100%" viewBox="0 0 450 450" version="1.1" xmlns="http://www.w3.org/2000/svg" xmlns:xlink="http://www.w3.org/1999/xlink" xml:space="preserve" xmlns:serif="http://www.serif.com/" style="fill-rule:evenodd;clip-rule:evenodd;stroke-linejoin:round;stroke-miterlimit:2;">
    <g transform="matrix(1,0,0,1,-149.201,-1338.55)">
        <g transform="matrix(1.7682,0,0,1,0,0)">
            <g transform="matrix(0.678655,0,0,1.2,-221.015,708.554)">
                <circle cx="637.5" cy="712.5" r="187.5" style="fill:rgb(44,80,140);"/>
            </g>
        </g>
        <g transform="matrix(1.7682,0,0,1,0,0)">
            <g id="Logo-Mendeley" serif:id="Logo Mendeley" transform="matrix(0.0721258,0,0,0.127533,121.478,1475.05)">
                <path d="M1250.3,399.1C1250.7,399.1 1251,399.2 1251.3,399.2C1251.6,399.2 1251.9,399.1 1252.3,399.1C1387.7,399.1 1497.5,508.8 1497.5,644.4C1497.5,720.2 1463,788 1408.9,833C1385.3,855.3 1355.8,871.7 1319.8,880C1298.4,886.2 1275.6,889.6 1252.3,889.6L1250.3,889.6C1226.9,889.6 1204.2,886.2 1182.7,880C1146.7,871.7 1117.1,855.3 1093.6,833C1039.5,788 1005,720.3 1005,644.4C1005,508.8 1114.9,399.1 1250.3,399.1M211.5,1385.8C343.3,1402.4 460.3,1306.4 472.7,1171.6C476.8,1126.1 468.3,1081.9 450.5,1042.8C265.9,637.7 1176.7,628.4 1022.8,1010.8C1022.5,1011.3 1022.1,1011.7 1021.7,1012.4C948.9,1128.7 988.3,1280 1109.4,1349.9C1153.9,1375.6 1203.1,1386.4 1251.3,1384.4C1299.5,1386.4 1348.8,1375.6 1393.2,1349.9C1514.2,1279.9 1553.6,1128.7 1480.8,1012.4C1480.5,1011.7 1480,1011.3 1479.7,1010.8C1325.9,628.4 2236.8,637.6 2052,1042.8C2034.2,1081.9 2025.7,1126.1 2029.8,1171.6C2042.3,1306.5 2159.2,1402.4 2291,1385.8C2349.6,1378.4 2401.3,1350.1 2439.5,1309C2439.5,1309 2500.8,1258.2 2499.8,1128.4C2498.9,1022.7 2439.5,964.1 2439.5,964.1C2391.6,915.7 2323.5,889.1 2250.5,896.9C2081.4,893.1 2056.3,760.8 2104.1,511.1C2121.6,466.9 2129.2,419.4 2127.7,372C2132.4,244.4 2068.2,118.5 1950,50.1C1935.6,41.8 1920.8,35 1905.7,28.8C1901.7,27 1897.5,25.6 1893.4,23.9C1888.7,22.2 1884.2,20.4 1879.5,19.1C1842.7,6.7 1803.4,-0.1 1762.5,0.4C1635.3,1.6 1524.5,69.6 1462.4,170.5C1377.2,263.9 1338.8,320.6 1251.2,320.6C1168,320.6 1125.1,263.8 1039.9,170.5C978,69.5 867.2,1.5 740,0.3C699,-0.1 659.8,6.6 623.1,19C618.4,20.4 613.7,22.2 609.2,23.8C605,25.4 601,26.9 596.8,28.7C581.8,34.9 566.9,41.7 552.6,50C434.3,118.5 370.2,244.4 374.8,372C373.2,419.4 380.9,466.9 398.4,511.1C446.1,760.8 421,893.1 252,896.9C169.3,888 107.5,922.1 45,984.6C-17.6,1047.1 -12.4,1214.4 45,1287.4C86.6,1340.5 143.1,1377.2 211.5,1385.8" style="fill:white;fill-rule:nonzero;"/>
            </g>
        </g>
    </g>
</svg>
