<?xml version="1.0" encoding="UTF-8" standalone="no"?>
<!DOCTYPE svg PUBLIC "-//W3C//DTD SVG 1.1//EN" "http://www.w3.org/Graphics/SVG/1.1/DTD/svg11.dtd">
<svg width="100%" height="100%" viewBox="0 0 450 450" version="1.1" xmlns="http://www.w3.org/2000/svg" xmlns:xlink="http://www.w3.org/1999/xlink" xml:space="preserve" xmlns:serif="http://www.serif.com/" style="fill-rule:evenodd;clip-rule:evenodd;stroke-linejoin:round;stroke-miterlimit:2;">
    <g transform="matrix(1,0,0,1,-750,-150)">
        <g transform="matrix(1.7682,0,0,1,0,0)">
            <g transform="matrix(0.678655,0,0,1.2,118.765,-480)">
                <circle cx="637.5" cy="712.5" r="187.5" style="fill:rgb(44,80,140);"/>
            </g>
        </g>
        <g transform="matrix(1.7682,0,0,1,0,0)">
            <g transform="matrix(0.0919241,0,0,0.162541,425.079,137.204)">
                <path d="M762.917,722.917L762.917,600L762.952,598.607L763.057,597.233L763.229,595.878L763.467,594.545L763.77,593.235L764.135,591.95L764.561,590.692L765.046,589.462L765.589,588.263C769.967,579.185 779.257,572.917 790,572.917L1029.3,572.917C1102.59,572.917 1171.3,592.507 1230.49,626.735C1228.72,616.57 1227.81,606.116 1227.81,595.447L1227.81,541.28L1409.71,541.28L1591.61,541.28L1591.61,595.447C1591.61,660.411 1557.55,717.421 1506.33,749.594C1511.94,755.756 1516.17,763.238 1518.48,771.566C1541.06,763.423 1565.41,758.984 1590.81,758.984C1771.71,758.984 2069.31,758.984 2069.31,758.984L2070.7,759.02L2072.07,759.124L2073.43,759.297L2074.76,759.535L2076.07,759.838L2077.36,760.203L2078.62,760.629L2079.85,761.114L2081.05,761.657L2082.21,762.255L2083.35,762.908L2084.45,763.612L2085.51,764.368L2086.53,765.172L2086.59,765.221C2091.91,769.635 2095.51,776.046 2096.25,783.3L2096.36,784.675L2096.39,786.068L2096.39,1500C2096.39,1507.19 2093.53,1514.09 2088.44,1519.17C2083.35,1524.25 2076.45,1527.1 2069.26,1527.08C2069.26,1527.08 2006.32,1526.98 1919.41,1526.83L1919.41,1875L1919.41,1875.82C1918.96,2156.77 1690.74,2384.71 1409.71,2384.71C1128.39,2384.71 900,2156.32 900,1875L900,1677.08L630,1677.08C615.042,1677.08 602.917,1664.96 602.917,1650L602.917,750L602.952,748.607L603.057,747.233L603.229,745.878L603.467,744.545L603.77,743.235L604.135,741.95L604.561,740.692L605.046,739.462L605.589,738.263C609.967,729.185 619.257,722.917 630,722.917L762.917,722.917ZM762.917,777.083L657.083,777.083L657.083,1622.92C657.083,1622.92 1317.6,1622.92 1317.6,1622.92C1339.12,1622.92 1359.77,1631.48 1374.97,1646.71C1390.18,1661.94 1398.71,1682.59 1398.68,1704.12C1398.58,1775.32 1398.39,1899.77 1398.29,1970.96C1398.28,1978.11 1401.11,1984.96 1406.16,1990.02C1411.21,1995.08 1418.06,1997.92 1425.21,1997.92C1440.04,1997.92 1452.11,1997.92 1452.11,1997.92C1467.06,1997.92 1479.2,2010.05 1479.2,2025C1479.2,2039.95 1467.06,2052.08 1452.11,2052.08C1452.11,2052.08 1425.21,2052.08 1425.21,2052.08C1403.68,2052.08 1383.04,2043.52 1367.83,2028.29C1352.62,2013.06 1344.09,1992.41 1344.12,1970.88C1344.12,1970.88 1344.52,1704.04 1344.52,1704.04C1344.53,1696.89 1341.69,1690.04 1336.64,1684.98C1331.6,1679.92 1324.74,1677.08 1317.6,1677.08L953.653,1677.08L953.653,1875C953.653,2126.7 1158,2331.05 1409.71,2331.05C1661.41,2331.05 1865.76,2126.7 1865.76,1875L1865.76,1526.74C1722.7,1526.49 1542.41,1526.18 1458.7,1526.02C1451.56,1526.01 1444.7,1528.84 1439.64,1533.88C1434.58,1538.93 1431.74,1545.79 1431.74,1552.94L1431.74,1564.15L1377.57,1564.15L1377.57,1552.94C1377.57,1545.79 1374.73,1538.93 1369.67,1533.88C1364.61,1528.84 1357.75,1526.01 1350.6,1526.02L790.051,1527.08C782.86,1527.1 775.958,1524.25 770.867,1519.17C765.777,1514.09 762.917,1507.19 762.917,1500L762.917,777.083ZM1312.21,2144.97L1507.21,2144.97C1522.15,2144.97 1534.29,2132.83 1534.29,2117.88C1534.29,2102.93 1522.15,2090.8 1507.21,2090.8L1312.21,2090.8C1297.26,2090.8 1285.12,2102.93 1285.12,2117.88C1285.12,2132.83 1297.26,2144.97 1312.21,2144.97ZM1431.74,1465.93L1431.74,1476.45C1440.35,1473.42 1449.5,1471.84 1458.81,1471.85C1458.81,1471.85 2042.23,1472.87 2042.23,1472.87L2042.23,813.151L1590.81,813.151C1563.15,813.151 1537.15,820.207 1514.5,832.614C1511.31,844.23 1506.41,856.068 1498.93,866.103C1493.72,873.084 1487.14,879.338 1479.69,884.68L1471.43,1020.45C1567.05,1047.37 1637.23,1135.29 1637.23,1239.47C1637.23,1357.61 1547,1454.83 1431.74,1465.93ZM1302.16,758.907C1238.37,678.593 1139.85,627.083 1029.3,627.083L817.083,627.083L817.083,1472.87C817.083,1472.87 1350.5,1471.85 1350.5,1471.85C1359.81,1471.84 1368.95,1473.42 1377.57,1476.45L1377.57,1460.88C1345.16,1448.06 1322.21,1416.43 1322.21,1379.49C1322.21,1347.43 1339.49,1319.38 1365.23,1304.14L1357.74,1180.96C1257.18,1157.43 1182.18,1067.11 1182.18,959.415C1182.18,872.735 1230.76,797.312 1302.16,758.907ZM1408.12,1132.76C1408.65,1132.78 1409.18,1132.79 1409.71,1132.79C1468.59,1132.79 1516.39,1180.59 1516.39,1239.47C1516.39,1298.35 1468.59,1346.15 1409.71,1346.15C1391.32,1346.15 1376.38,1361.09 1376.38,1379.49C1376.38,1397.88 1391.32,1412.82 1409.71,1412.82C1505.39,1412.82 1583.06,1335.15 1583.06,1239.47C1583.06,1144.33 1506.24,1066.98 1411.29,1066.13C1410.76,1066.11 1410.23,1066.1 1409.7,1066.1C1350.82,1066.1 1303.02,1018.29 1303.02,959.415C1303.02,900.536 1350.82,852.734 1409.7,852.734C1417.86,852.734 1444.61,848.328 1455.5,833.722C1469.15,815.416 1466.28,786.068 1466.28,786.068L1409.7,786.068C1314.03,786.068 1236.35,863.742 1236.35,959.415C1236.35,1054.56 1313.17,1131.91 1408.12,1132.76ZM1281.97,595.447C1281.97,665.992 1339.16,723.181 1409.71,723.181C1480.25,723.181 1537.44,665.992 1537.44,595.447L1409.71,595.447L1281.97,595.447Z" style="fill:white;"/>
            </g>
        </g>
    </g>
</svg>
