<?xml version="1.0" encoding="UTF-8" standalone="no"?>
<!DOCTYPE svg PUBLIC "-//W3C//DTD SVG 1.1//EN" "http://www.w3.org/Graphics/SVG/1.1/DTD/svg11.dtd">
<svg width="100%" height="100%" viewBox="0 0 246 339" version="1.1" xmlns="http://www.w3.org/2000/svg" xmlns:xlink="http://www.w3.org/1999/xlink" xml:space="preserve" xmlns:serif="http://www.serif.com/" style="fill-rule:evenodd;clip-rule:evenodd;stroke-linejoin:round;stroke-miterlimit:2;">
    <g transform="matrix(1,0,0,1,-505.615,-2645.45)">
        <g transform="matrix(1.7682,0,0,1,0,0)">
            <g transform="matrix(1,0,0,1,-0.829741,374.123)">
                <g transform="matrix(0.565546,0,0,1,74.6985,246.245)">
                    <path d="M548.471,2029.07C545.914,2026.51 542.446,2025.08 538.831,2025.08C510.727,2025.08 387.288,2025.08 387.288,2025.08C380.506,2025.08 375,2030.58 375,2037.37L375,2351.54C375,2358.32 380.506,2363.83 387.288,2363.83L608.472,2363.83C615.254,2363.83 620.76,2358.32 620.76,2351.54L620.76,2106.99C620.76,2103.39 619.328,2099.93 616.778,2097.38C603.622,2084.22 561.642,2042.24 548.471,2029.07Z" style="fill:rgb(44,80,140);"/>
                </g>
                <g transform="matrix(0.565546,0,0,1,74.6985,246.245)">
                    <path d="M526.804,2037.58L526.804,2106.73C526.804,2113.51 532.31,2119.02 539.092,2119.02L608.26,2119.02L608.26,2194.45L387.5,2194.45L387.5,2037.58L526.804,2037.58Z" style="fill:white;"/>
                </g>
            </g>
        </g>
        <g transform="matrix(1.7682,0,0,1,0,0)">
            <g transform="matrix(0.748251,0,0,1.32306,-393.035,-273.522)">
                <path d="M963.09,2390.19L953.695,2390.19L953.695,2407.55L963.291,2407.55L963.291,2405.64L956.086,2405.64L956.086,2399.69L961.931,2399.69L961.931,2397.78L956.086,2397.78L956.086,2392.1L962.813,2392.1L963.09,2390.19Z" style="fill:white;fill-rule:nonzero;"/>
                <path d="M972.968,2393.97C971.229,2393.97 969.817,2394.88 968.91,2396.24L968.708,2394.27L966.721,2394.27L966.721,2407.55L969.035,2407.55L969.035,2398.13C969.918,2396.72 970.926,2395.78 972.413,2395.78C973.699,2395.78 974.506,2396.36 974.506,2398.35L974.506,2407.55L976.82,2407.55L976.82,2398.03C976.82,2395.51 975.412,2393.97 972.968,2393.97Z" style="fill:white;fill-rule:nonzero;"/>
                <path d="M989.219,2388.66L989.219,2395.61C988.337,2394.68 987.203,2393.97 985.64,2393.97C982.389,2393.97 980.426,2396.92 980.426,2400.97C980.426,2405.11 982.213,2407.85 985.438,2407.85C987.077,2407.85 988.413,2407.05 989.269,2405.71L989.496,2407.55L991.534,2407.55L991.534,2388.93L989.219,2388.66ZM985.942,2406.01C984.027,2406.01 982.917,2404.43 982.917,2400.92C982.917,2397.47 984.153,2395.81 986.144,2395.81C987.455,2395.81 988.387,2396.49 989.219,2397.55L989.219,2404.05C988.337,2405.28 987.429,2406.01 985.942,2406.01Z" style="fill:white;fill-rule:nonzero;"/>
                <path d="M1008.54,2390.19L1006.3,2390.19L1006.3,2399.66C1006.3,2401.78 1006.58,2404.55 1006.63,2404.96L999.496,2390.19L996.374,2390.19L996.374,2407.55L998.613,2407.55L998.613,2399.59C998.613,2396.36 998.412,2394.25 998.286,2392.81L1005.34,2407.55L1008.54,2407.55L1008.54,2390.19Z" style="fill:white;fill-rule:nonzero;"/>
                <path d="M1018.44,2393.97C1014.66,2393.97 1012.5,2396.82 1012.5,2400.92C1012.5,2405.13 1014.64,2407.85 1018.42,2407.85C1022.17,2407.85 1024.34,2405.01 1024.34,2400.9C1024.34,2396.69 1022.22,2393.97 1018.44,2393.97ZM1018.44,2395.83C1020.64,2395.83 1021.85,2397.45 1021.85,2400.9C1021.85,2404.38 1020.64,2405.99 1018.42,2405.99C1016.2,2405.99 1014.99,2404.38 1014.99,2400.92C1014.99,2397.45 1016.23,2395.83 1018.44,2395.83Z" style="fill:white;fill-rule:nonzero;"/>
                <path d="M1033.99,2405.41C1033.33,2405.76 1032.8,2405.94 1032.22,2405.94C1031.06,2405.94 1030.63,2405.31 1030.63,2403.97L1030.63,2396.06L1033.53,2396.06L1033.78,2394.27L1030.63,2394.27L1030.63,2391L1028.32,2391.28L1028.32,2394.27L1026,2394.27L1026,2396.06L1028.32,2396.06L1028.32,2404.07C1028.32,2406.54 1029.65,2407.85 1031.89,2407.85C1033.03,2407.85 1033.99,2407.55 1034.87,2406.95L1033.99,2405.41Z" style="fill:white;fill-rule:nonzero;"/>
                <path d="M1046.91,2400.52C1046.91,2396.46 1045.02,2393.97 1041.44,2393.97C1038.02,2393.97 1035.93,2396.92 1035.93,2401.05C1035.93,2405.26 1038.09,2407.85 1041.8,2407.85C1043.64,2407.85 1045.12,2407.22 1046.43,2406.19L1045.43,2404.8C1044.27,2405.61 1043.29,2405.96 1041.97,2405.96C1040.06,2405.96 1038.62,2404.78 1038.39,2401.7L1046.86,2401.7C1046.88,2401.4 1046.91,2400.97 1046.91,2400.52ZM1044.62,2399.99L1038.39,2399.99C1038.57,2397.04 1039.73,2395.81 1041.5,2395.81C1043.59,2395.81 1044.62,2397.24 1044.62,2399.84L1044.62,2399.99Z" style="fill:white;fill-rule:nonzero;"/>
            </g>
        </g>
    </g>
</svg>
