<?xml version="1.0" encoding="UTF-8" standalone="no"?>
<!DOCTYPE svg PUBLIC "-//W3C//DTD SVG 1.1//EN" "http://www.w3.org/Graphics/SVG/1.1/DTD/svg11.dtd">
<svg width="100%" height="100%" viewBox="0 0 246 339" version="1.1" xmlns="http://www.w3.org/2000/svg" xmlns:xlink="http://www.w3.org/1999/xlink" xml:space="preserve" xmlns:serif="http://www.serif.com/" style="fill-rule:evenodd;clip-rule:evenodd;stroke-linejoin:round;stroke-miterlimit:2;">
    <g transform="matrix(1,0,0,1,-507.082,-2271.32)">
        <g transform="matrix(1.7682,0,0,1,0,0)">
            <g>
                <g transform="matrix(0.565546,0,0,1,74.6985,246.245)">
                    <path d="M548.471,2029.07C545.914,2026.51 542.446,2025.08 538.831,2025.08C510.727,2025.08 387.288,2025.08 387.288,2025.08C380.506,2025.08 375,2030.58 375,2037.37L375,2351.54C375,2358.32 380.506,2363.83 387.288,2363.83L608.472,2363.83C615.254,2363.83 620.76,2358.32 620.76,2351.54L620.76,2106.99C620.76,2103.39 619.328,2099.93 616.778,2097.38C603.622,2084.22 561.642,2042.24 548.471,2029.07Z" style="fill:rgb(44,80,140);"/>
                </g>
                <g transform="matrix(0.565546,0,0,1,74.6985,246.245)">
                    <path d="M526.804,2037.58L526.804,2106.73C526.804,2113.51 532.31,2119.02 539.092,2119.02L608.26,2119.02L608.26,2194.45L387.5,2194.45L387.5,2037.58L526.804,2037.58Z" style="fill:white;"/>
                </g>
            </g>
            <g transform="matrix(0.748251,0,0,1.32306,-391.809,-667.162)">
                <path d="M955.103,2390.19L945.709,2390.19L945.709,2407.55L955.305,2407.55L955.305,2405.64L948.099,2405.64L948.099,2399.69L953.944,2399.69L953.944,2397.78L948.099,2397.78L948.099,2392.1L954.826,2392.1L955.103,2390.19Z" style="fill:white;fill-rule:nonzero;"/>
                <path d="M962.537,2393.97C959.79,2393.97 957.752,2395.51 957.752,2397.62C957.752,2399.49 958.884,2400.72 961.755,2401.48C964.327,2402.16 964.982,2402.66 964.982,2403.97C964.982,2405.23 963.873,2405.99 962.134,2405.99C960.697,2405.99 959.463,2405.51 958.406,2404.7L957.172,2406.12C958.33,2407.12 959.941,2407.85 962.184,2407.85C964.882,2407.85 967.423,2406.59 967.423,2403.82C967.423,2401.5 965.813,2400.39 963.016,2399.69C960.873,2399.13 960.167,2398.63 960.167,2397.55C960.167,2396.49 961.1,2395.81 962.613,2395.81C963.848,2395.81 964.882,2396.19 966.064,2396.94L967.046,2395.48C965.788,2394.53 964.403,2393.97 962.537,2393.97Z" style="fill:white;fill-rule:nonzero;"/>
                <path d="M976.518,2405.41C975.863,2405.76 975.334,2405.94 974.755,2405.94C973.596,2405.94 973.167,2405.31 973.167,2403.97L973.167,2396.06L976.065,2396.06L976.317,2394.27L973.167,2394.27L973.167,2391L970.853,2391.28L970.853,2394.27L968.535,2394.27L968.535,2396.06L970.853,2396.06L970.853,2404.07C970.853,2406.54 972.186,2407.85 974.427,2407.85C975.561,2407.85 976.518,2407.55 977.4,2406.95L976.518,2405.41Z" style="fill:white;fill-rule:nonzero;"/>
                <path d="M985.487,2393.97C983.875,2393.97 982.64,2394.98 981.935,2396.97L981.709,2394.27L979.721,2394.27L979.721,2407.55L982.036,2407.55L982.036,2399.97C982.59,2397.42 983.547,2396.24 985.21,2396.24C985.689,2396.24 985.966,2396.29 986.369,2396.39L986.797,2394.12C986.394,2394.02 985.916,2393.97 985.487,2393.97Z" style="fill:white;fill-rule:nonzero;"/>
                <path d="M997.757,2404.45L997.757,2398.38C997.757,2395.61 996.298,2393.97 993.098,2393.97C991.61,2393.97 990.148,2394.27 988.512,2394.88L989.091,2396.56C990.451,2396.11 991.686,2395.86 992.669,2395.86C994.509,2395.86 995.442,2396.56 995.442,2398.48L995.442,2399.46L993.4,2399.46C989.695,2399.46 987.556,2401 987.556,2403.85C987.556,2406.22 989.142,2407.85 991.787,2407.85C993.4,2407.85 994.812,2407.25 995.744,2405.86C996.147,2407.17 997.002,2407.7 998.336,2407.85L998.865,2406.24C998.185,2405.99 997.757,2405.61 997.757,2404.45ZM992.316,2406.12C990.804,2406.12 990.022,2405.28 990.022,2403.72C990.022,2401.91 991.257,2401 993.703,2401L995.442,2401L995.442,2404.05C994.686,2405.43 993.677,2406.12 992.316,2406.12Z" style="fill:white;fill-rule:nonzero;"/>
                <path d="M1008.34,2405.41C1007.68,2405.76 1007.15,2405.94 1006.58,2405.94C1005.42,2405.94 1004.99,2405.31 1004.99,2403.97L1004.99,2396.06L1007.88,2396.06L1008.14,2394.27L1004.99,2394.27L1004.99,2391L1002.67,2391.28L1002.67,2394.27L1000.36,2394.27L1000.36,2396.06L1002.67,2396.06L1002.67,2404.07C1002.67,2406.54 1004.01,2407.85 1006.25,2407.85C1007.38,2407.85 1008.34,2407.55 1009.22,2406.95L1008.34,2405.41Z" style="fill:white;fill-rule:nonzero;"/>
                <path d="M1021.26,2400.52C1021.26,2396.46 1019.38,2393.97 1015.8,2393.97C1012.37,2393.97 1010.28,2396.92 1010.28,2401.05C1010.28,2405.26 1012.45,2407.85 1016.15,2407.85C1017.99,2407.85 1019.48,2407.22 1020.78,2406.19L1019.78,2404.8C1018.62,2405.61 1017.64,2405.96 1016.33,2405.96C1014.41,2405.96 1012.97,2404.78 1012.75,2401.7L1021.21,2401.7C1021.24,2401.4 1021.26,2400.97 1021.26,2400.52ZM1018.97,2399.99L1012.75,2399.99C1012.92,2397.04 1014.08,2395.81 1015.85,2395.81C1017.94,2395.81 1018.97,2397.24 1018.97,2399.84L1018.97,2399.99Z" style="fill:white;fill-rule:nonzero;"/>
                <path d="M1034.97,2392.79C1033.41,2393.49 1032.2,2394.05 1028.9,2393.97C1025.97,2393.97 1023.78,2395.88 1023.78,2398.61C1023.78,2400.32 1024.49,2401.48 1026.03,2402.28C1025.07,2402.91 1024.57,2403.77 1024.57,2404.63C1024.57,2405.96 1025.62,2407.14 1027.99,2407.14L1030.08,2407.14C1031.75,2407.14 1032.76,2407.78 1032.76,2409.04C1032.76,2410.37 1031.75,2411.1 1028.87,2411.1C1025.95,2411.1 1025.27,2410.4 1025.27,2408.89L1023.18,2408.89C1023.18,2411.58 1024.54,2412.91 1028.87,2412.91C1032.98,2412.91 1035.1,2411.46 1035.1,2408.89C1035.1,2406.77 1033.28,2405.21 1030.56,2405.21L1028.44,2405.21C1027.08,2405.21 1026.7,2404.73 1026.7,2404.12C1026.7,2403.64 1026.98,2403.16 1027.36,2402.89C1027.91,2403.06 1028.44,2403.14 1029.05,2403.14C1032.22,2403.14 1034.11,2401.25 1034.11,2398.63C1034.11,2397.09 1033.33,2395.98 1031.77,2395.28C1033.28,2395.28 1034.54,2395.23 1035.65,2394.88L1034.97,2392.79ZM1028.9,2395.63C1030.79,2395.63 1031.75,2396.64 1031.75,2398.58C1031.75,2400.5 1030.76,2401.61 1028.95,2401.61C1027.13,2401.61 1026.15,2400.37 1026.15,2398.61C1026.15,2396.87 1027.11,2395.63 1028.9,2395.63Z" style="fill:white;fill-rule:nonzero;"/>
                <path d="M1039.1,2387.9C1038.15,2387.9 1037.49,2388.58 1037.49,2389.49C1037.49,2390.37 1038.15,2391.05 1039.1,2391.05C1040.08,2391.05 1040.74,2390.37 1040.74,2389.49C1040.74,2388.58 1040.08,2387.9 1039.1,2387.9ZM1040.28,2394.27L1037.97,2394.27L1037.97,2407.55L1040.28,2407.55L1040.28,2394.27Z" style="fill:white;fill-rule:nonzero;"/>
                <path d="M1053.81,2404.45L1053.81,2398.38C1053.81,2395.61 1052.35,2393.97 1049.15,2393.97C1047.67,2393.97 1046.2,2394.27 1044.57,2394.88L1045.15,2396.56C1046.51,2396.11 1047.74,2395.86 1048.73,2395.86C1050.57,2395.86 1051.5,2396.56 1051.5,2398.48L1051.5,2399.46L1049.46,2399.46C1045.75,2399.46 1043.61,2401 1043.61,2403.85C1043.61,2406.22 1045.2,2407.85 1047.84,2407.85C1049.46,2407.85 1050.87,2407.25 1051.8,2405.86C1052.2,2407.17 1053.06,2407.7 1054.39,2407.85L1054.92,2406.24C1054.24,2405.99 1053.81,2405.61 1053.81,2404.45ZM1048.37,2406.12C1046.86,2406.12 1046.08,2405.28 1046.08,2403.72C1046.08,2401.91 1047.31,2401 1049.76,2401L1051.5,2401L1051.5,2404.05C1050.74,2405.43 1049.73,2406.12 1048.37,2406.12Z" style="fill:white;fill-rule:nonzero;"/>
                <path d="M936.034,2413.85L936.034,2420.8C935.152,2419.87 934.018,2419.17 932.455,2419.17C929.204,2419.17 927.242,2422.11 927.242,2426.17C927.242,2430.3 929.028,2433.05 932.253,2433.05C933.892,2433.05 935.228,2432.24 936.085,2430.91L936.311,2432.74L938.349,2432.74L938.349,2414.13L936.034,2413.85ZM932.757,2431.21C930.842,2431.21 929.733,2429.62 929.733,2426.12C929.733,2422.66 930.968,2421 932.959,2421C934.27,2421 935.203,2421.68 936.034,2422.74L936.034,2429.24C935.152,2430.48 934.245,2431.21 932.757,2431.21Z" style="fill:white;fill-rule:nonzero;"/>
                <path d="M953.088,2425.72C953.088,2421.66 951.201,2419.17 947.622,2419.17C944.195,2419.17 942.106,2422.11 942.106,2426.24C942.106,2430.45 944.27,2433.05 947.975,2433.05C949.815,2433.05 951.301,2432.42 952.61,2431.39L951.603,2430C950.445,2430.8 949.462,2431.16 948.151,2431.16C946.236,2431.16 944.799,2429.97 944.572,2426.9L953.037,2426.9C953.062,2426.6 953.088,2426.17 953.088,2425.72ZM950.798,2425.19L944.572,2425.19C944.748,2422.24 945.908,2421 947.672,2421C949.765,2421 950.798,2422.44 950.798,2425.04L950.798,2425.19Z" style="fill:white;fill-rule:nonzero;"/>
                <path d="M969.44,2419.17C967.827,2419.17 966.592,2419.89 965.685,2421.13L965.685,2413.85L963.37,2414.13L963.37,2432.74L965.408,2432.74L965.634,2431.28C966.542,2432.39 967.701,2433.05 969.163,2433.05C972.389,2433.05 974.377,2430.25 974.377,2426.09C974.377,2421.66 972.439,2419.17 969.44,2419.17ZM968.609,2431.21C967.424,2431.21 966.365,2430.48 965.685,2429.42L965.685,2423.07C966.365,2422.01 967.323,2421 968.785,2421C970.65,2421 971.886,2422.31 971.886,2426.09C971.886,2429.72 970.55,2431.21 968.609,2431.21Z" style="fill:white;fill-rule:nonzero;"/>
                <path d="M984.986,2412.57L979.97,2415.44L980.675,2416.67L986.019,2414.51L984.986,2412.57ZM987.981,2419.47L985.667,2419.47L985.667,2428.94C984.86,2430.28 983.776,2431.23 982.339,2431.23C980.902,2431.23 980.297,2430.55 980.297,2428.74L980.297,2419.47L977.983,2419.47L977.983,2428.99C977.983,2431.59 979.366,2433.05 981.684,2433.05C983.574,2433.05 984.81,2432.29 985.818,2430.68L985.994,2432.74L987.981,2432.74L987.981,2419.47Z" style="fill:white;fill-rule:nonzero;"/>
                <path d="M996.297,2419.17C993.55,2419.17 991.512,2420.7 991.512,2422.82C991.512,2424.68 992.644,2425.92 995.516,2426.67C998.087,2427.35 998.743,2427.86 998.743,2429.17C998.743,2430.43 997.633,2431.18 995.894,2431.18C994.457,2431.18 993.223,2430.7 992.166,2429.9L990.932,2431.31C992.091,2432.32 993.701,2433.05 995.944,2433.05C998.642,2433.05 1001.18,2431.79 1001.18,2429.02C1001.18,2426.7 999.573,2425.59 996.776,2424.88C994.633,2424.33 993.927,2423.82 993.927,2422.74C993.927,2421.68 994.86,2421 996.373,2421C997.608,2421 998.642,2421.38 999.824,2422.14L1000.81,2420.68C999.548,2419.72 998.163,2419.17 996.297,2419.17Z" style="fill:white;fill-rule:nonzero;"/>
                <path d="M1012.62,2419.47L1012.45,2420.95C1011.54,2419.95 1010.36,2419.17 1008.72,2419.17C1005.47,2419.17 1003.5,2422.11 1003.5,2426.17C1003.5,2430.3 1005.29,2433.05 1008.52,2433.05C1010.13,2433.05 1011.44,2432.26 1012.3,2430.98L1012.3,2437.83L1014.61,2438.11L1014.61,2419.47L1012.62,2419.47ZM1009.02,2431.21C1007.1,2431.21 1006,2429.62 1006,2426.12C1006,2422.66 1007.23,2421 1009.22,2421C1010.53,2421 1011.47,2421.68 1012.3,2422.74L1012.3,2429.24C1011.42,2430.48 1010.51,2431.21 1009.02,2431.21Z" style="fill:white;fill-rule:nonzero;"/>
                <path d="M1029.1,2419.47L1026.78,2419.47L1026.78,2428.94C1025.98,2430.28 1024.89,2431.23 1023.46,2431.23C1022.02,2431.23 1021.41,2430.55 1021.41,2428.74L1021.41,2419.47L1019.1,2419.47L1019.1,2428.99C1019.1,2431.59 1020.48,2433.05 1022.8,2433.05C1024.69,2433.05 1025.93,2432.29 1026.93,2430.68L1027.11,2432.74L1029.1,2432.74L1029.1,2419.47Z" style="fill:white;fill-rule:nonzero;"/>
                <path d="M1043.84,2425.72C1043.84,2421.66 1041.95,2419.17 1038.37,2419.17C1034.94,2419.17 1032.86,2422.11 1032.86,2426.24C1032.86,2430.45 1035.02,2433.05 1038.72,2433.05C1040.56,2433.05 1042.05,2432.42 1043.36,2431.39L1042.35,2430C1041.19,2430.8 1040.21,2431.16 1038.9,2431.16C1036.99,2431.16 1035.55,2429.97 1035.32,2426.9L1043.79,2426.9C1043.81,2426.6 1043.84,2426.17 1043.84,2425.72ZM1041.55,2425.19L1035.32,2425.19C1035.5,2422.24 1036.66,2421 1038.42,2421C1040.51,2421 1041.55,2422.44 1041.55,2425.04L1041.55,2425.19Z" style="fill:white;fill-rule:nonzero;"/>
                <path d="M1055.35,2413.85L1055.35,2420.8C1054.47,2419.87 1053.34,2419.17 1051.77,2419.17C1048.52,2419.17 1046.56,2422.11 1046.56,2426.17C1046.56,2430.3 1048.35,2433.05 1051.57,2433.05C1053.21,2433.05 1054.55,2432.24 1055.4,2430.91L1055.63,2432.74L1057.67,2432.74L1057.67,2414.13L1055.35,2413.85ZM1052.08,2431.21C1050.16,2431.21 1049.05,2429.62 1049.05,2426.12C1049.05,2422.66 1050.29,2421 1052.28,2421C1053.59,2421 1054.52,2421.68 1055.35,2422.74L1055.35,2429.24C1054.47,2430.48 1053.56,2431.21 1052.08,2431.21Z" style="fill:white;fill-rule:nonzero;"/>
                <path d="M1071.2,2429.65L1071.2,2423.57C1071.2,2420.8 1069.74,2419.17 1066.54,2419.17C1065.05,2419.17 1063.59,2419.47 1061.95,2420.07L1062.53,2421.76C1063.89,2421.3 1065.13,2421.05 1066.11,2421.05C1067.95,2421.05 1068.88,2421.76 1068.88,2423.68L1068.88,2424.66L1066.84,2424.66C1063.14,2424.66 1061,2426.19 1061,2429.04C1061,2431.41 1062.58,2433.05 1065.23,2433.05C1066.84,2433.05 1068.25,2432.44 1069.18,2431.06C1069.59,2432.37 1070.44,2432.89 1071.78,2433.05L1072.31,2431.43C1071.63,2431.18 1071.2,2430.8 1071.2,2429.65ZM1065.76,2431.31C1064.25,2431.31 1063.46,2430.48 1063.46,2428.91C1063.46,2427.1 1064.7,2426.19 1067.14,2426.19L1068.88,2426.19L1068.88,2429.24C1068.13,2430.63 1067.12,2431.31 1065.76,2431.31Z" style="fill:white;fill-rule:nonzero;"/>
            </g>
        </g>
    </g>
</svg>
