<?xml version="1.0" encoding="UTF-8" standalone="no"?><!DOCTYPE svg PUBLIC "-//W3C//DTD SVG 1.1//EN" "http://www.w3.org/Graphics/SVG/1.1/DTD/svg11.dtd"><svg width="100%" height="100%" viewBox="0 0 72 82" version="1.1" xmlns="http://www.w3.org/2000/svg" xmlns:xlink="http://www.w3.org/1999/xlink" xml:space="preserve" xmlns:serif="http://www.serif.com/" style="fill-rule:evenodd;clip-rule:evenodd;stroke-linejoin:round;stroke-miterlimit:2;"><g><path d="M48.142,0.958c-0.614,-0.613 -1.446,-0.958 -2.314,-0.958l-36.37,-0c-1.628,-0 -2.949,1.321 -2.949,2.949l-0,75.402c-0,1.628 1.321,2.949 2.949,2.949l53.084,0c1.628,0 2.949,-1.321 2.949,-2.949l0,-58.692c0,-0.865 -0.344,-1.695 -0.956,-2.307c-3.157,-3.157 -13.232,-13.232 -16.393,-16.394Z" style="fill:#2c508c;"/><path d="M42.942,3l-0,16.596c-0,1.628 1.321,2.95 2.949,2.95l16.6,-0l0,55.754l-52.982,0l-0,-75.3l33.433,-0Z" style="fill:#fff;"/><path d="M72,33.986c-0,-2.712 -2.202,-4.914 -4.913,-4.914l-62.174,0c-2.711,0 -4.913,2.202 -4.913,4.914l-0,22.928c-0,2.712 2.202,4.914 4.913,4.914l62.174,-0c2.711,-0 4.913,-2.202 4.913,-4.914l-0,-22.928Z" style="fill:#1b3155;"/></g><g transform="matrix(0.317534,0,0,0.317534,-281.61,-721.821)"><text x="957.498px" y="2407.55px" style="font-family:'MyriadPro-Bold', 'Myriad Pro', sans-serif;font-weight:700;font-size:25.194px;fill:#fff;">Manual</text><text x="927.882px" y="2437.78px" style="font-family:'MyriadPro-Bold', 'Myriad Pro', sans-serif;font-weight:700;font-size:25.194px;fill:#fff;">Normas t<tspan x="1029.41px " y="2437.78px ">e</tspan>sis</text></g></svg>