<?xml version="1.0" encoding="UTF-8" standalone="no"?>
<!DOCTYPE svg PUBLIC "-//W3C//DTD SVG 1.1//EN" "http://www.w3.org/Graphics/SVG/1.1/DTD/svg11.dtd">
<svg width="100%" height="100%" viewBox="0 0 246 339" version="1.1" xmlns="http://www.w3.org/2000/svg" xmlns:xlink="http://www.w3.org/1999/xlink" xml:space="preserve" xmlns:serif="http://www.serif.com/" style="fill-rule:evenodd;clip-rule:evenodd;stroke-linejoin:round;stroke-miterlimit:2;">
    <g transform="matrix(1,0,0,1,-781.439,-2645.45)">
        <g transform="matrix(1.7682,0,0,1,0,0)">
            <g transform="matrix(1,0,0,1,155.162,374.123)">
                <g transform="matrix(0.565546,0,0,1,74.6985,246.245)">
                    <path d="M548.471,2029.07C545.914,2026.51 542.446,2025.08 538.831,2025.08C510.727,2025.08 387.288,2025.08 387.288,2025.08C380.506,2025.08 375,2030.58 375,2037.37L375,2351.54C375,2358.32 380.506,2363.83 387.288,2363.83L608.472,2363.83C615.254,2363.83 620.76,2358.32 620.76,2351.54L620.76,2106.99C620.76,2103.39 619.328,2099.93 616.778,2097.38C603.622,2084.22 561.642,2042.24 548.471,2029.07Z" style="fill:rgb(44,80,140);"/>
                </g>
                <g transform="matrix(0.565546,0,0,1,74.6985,246.245)">
                    <path d="M526.804,2037.58L526.804,2106.73C526.804,2113.51 532.31,2119.02 539.092,2119.02L608.26,2119.02L608.26,2194.45L387.5,2194.45L387.5,2037.58L526.804,2037.58Z" style="fill:white;"/>
                </g>
            </g>
        </g>
        <g transform="matrix(1.7682,0,0,1,0,0)">
            <g transform="matrix(0.748251,0,0,1.32306,-237.072,-276.872)">
                <path d="M961.427,2390.19L958.178,2390.19L954.702,2402.81L951.049,2390.19L947.825,2390.19L946.389,2407.55L948.656,2407.55L949.235,2399.89C949.437,2397.35 949.563,2394.65 949.563,2392.61L953.518,2405.58L955.759,2405.58L959.513,2392.63C959.538,2394.07 959.714,2396.99 959.941,2399.71L960.545,2407.55L962.863,2407.55L961.427,2390.19Z" style="fill:white;fill-rule:nonzero;"/>
                <path d="M976.846,2400.52C976.846,2396.46 974.959,2393.97 971.38,2393.97C967.953,2393.97 965.864,2396.92 965.864,2401.05C965.864,2405.26 968.028,2407.85 971.733,2407.85C973.573,2407.85 975.059,2407.22 976.368,2406.19L975.361,2404.8C974.203,2405.61 973.22,2405.96 971.909,2405.96C969.994,2405.96 968.557,2404.78 968.33,2401.7L976.795,2401.7C976.821,2401.4 976.846,2400.97 976.846,2400.52ZM974.556,2399.99L968.33,2399.99C968.506,2397.04 969.666,2395.81 971.43,2395.81C973.523,2395.81 974.556,2397.24 974.556,2399.84L974.556,2399.99Z" style="fill:white;fill-rule:nonzero;"/>
                <path d="M986.699,2393.97C984.959,2393.97 983.548,2394.88 982.64,2396.24L982.439,2394.27L980.452,2394.27L980.452,2407.55L982.766,2407.55L982.766,2398.13C983.649,2396.72 984.657,2395.78 986.144,2395.78C987.43,2395.78 988.237,2396.36 988.237,2398.35L988.237,2407.55L990.551,2407.55L990.551,2398.03C990.551,2395.51 989.142,2393.97 986.699,2393.97Z" style="fill:white;fill-rule:nonzero;"/>
                <path d="M1002.95,2388.66L1002.95,2395.61C1002.07,2394.68 1000.93,2393.97 999.371,2393.97C996.12,2393.97 994.157,2396.92 994.157,2400.97C994.157,2405.11 995.944,2407.85 999.169,2407.85C1000.81,2407.85 1002.14,2407.05 1003,2405.71L1003.23,2407.55L1005.26,2407.55L1005.26,2388.93L1002.95,2388.66ZM999.673,2406.01C997.757,2406.01 996.648,2404.43 996.648,2400.92C996.648,2397.47 997.883,2395.81 999.875,2395.81C1001.19,2395.81 1002.12,2396.49 1002.95,2397.55L1002.95,2404.05C1002.07,2405.28 1001.16,2406.01 999.673,2406.01Z" style="fill:white;fill-rule:nonzero;"/>
                <path d="M1020,2400.52C1020,2396.46 1018.12,2393.97 1014.54,2393.97C1011.11,2393.97 1009.02,2396.92 1009.02,2401.05C1009.02,2405.26 1011.19,2407.85 1014.89,2407.85C1016.73,2407.85 1018.22,2407.22 1019.52,2406.19L1018.52,2404.8C1017.36,2405.61 1016.38,2405.96 1015.07,2405.96C1013.15,2405.96 1011.71,2404.78 1011.49,2401.7L1019.95,2401.7C1019.98,2401.4 1020,2400.97 1020,2400.52ZM1017.71,2399.99L1011.49,2399.99C1011.66,2397.04 1012.82,2395.81 1014.59,2395.81C1016.68,2395.81 1017.71,2397.24 1017.71,2399.84L1017.71,2399.99Z" style="fill:white;fill-rule:nonzero;"/>
                <path d="M1026.23,2407.85C1026.91,2407.85 1027.56,2407.67 1028.07,2407.4L1027.46,2405.79C1027.21,2405.89 1026.93,2405.94 1026.6,2405.94C1026,2405.94 1025.77,2405.59 1025.77,2404.88L1025.77,2388.66L1023.46,2388.93L1023.46,2404.93C1023.46,2406.82 1024.54,2407.85 1026.23,2407.85Z" style="fill:white;fill-rule:nonzero;"/>
                <path d="M1040.99,2400.52C1040.99,2396.46 1039.1,2393.97 1035.52,2393.97C1032.1,2393.97 1030.01,2396.92 1030.01,2401.05C1030.01,2405.26 1032.17,2407.85 1035.88,2407.85C1037.72,2407.85 1039.2,2407.22 1040.51,2406.19L1039.51,2404.8C1038.35,2405.61 1037.36,2405.96 1036.05,2405.96C1034.14,2405.96 1032.7,2404.78 1032.47,2401.7L1040.94,2401.7C1040.96,2401.4 1040.99,2400.97 1040.99,2400.52ZM1038.7,2399.99L1032.47,2399.99C1032.65,2397.04 1033.81,2395.81 1035.58,2395.81C1037.67,2395.81 1038.7,2397.24 1038.7,2399.84L1038.7,2399.99Z" style="fill:white;fill-rule:nonzero;"/>
                <path d="M1054.29,2394.27L1051.9,2394.27L1048.42,2405.86L1044.87,2394.27L1042.4,2394.27L1046.86,2407.55L1047.64,2407.55C1046.89,2409.61 1046.13,2410.65 1043.44,2411.1L1043.69,2412.91C1047.37,2412.51 1048.93,2410.45 1049.86,2407.62L1054.29,2394.27Z" style="fill:white;fill-rule:nonzero;"/>
            </g>
        </g>
    </g>
</svg>
