<?xml version="1.0" encoding="UTF-8" standalone="no"?>
<!DOCTYPE svg PUBLIC "-//W3C//DTD SVG 1.1//EN" "http://www.w3.org/Graphics/SVG/1.1/DTD/svg11.dtd">
<svg width="100%" height="100%" viewBox="0 0 246 339" version="1.1" xmlns="http://www.w3.org/2000/svg" xmlns:xlink="http://www.w3.org/1999/xlink" xml:space="preserve" xmlns:serif="http://www.serif.com/" style="fill-rule:evenodd;clip-rule:evenodd;stroke-linejoin:round;stroke-miterlimit:2;">
    <g transform="matrix(1,0,0,1,-1319.88,-2645.45)">
        <g transform="matrix(1.7682,0,0,1,0,0)">
            <g transform="matrix(1,0,0,1,459.677,374.123)">
                <g transform="matrix(0.565546,0,0,1,74.6985,246.245)">
                    <path d="M548.471,2029.07C545.914,2026.51 542.446,2025.08 538.831,2025.08C510.727,2025.08 387.288,2025.08 387.288,2025.08C380.506,2025.08 375,2030.58 375,2037.37L375,2351.54C375,2358.32 380.506,2363.83 387.288,2363.83L608.472,2363.83C615.254,2363.83 620.76,2358.32 620.76,2351.54L620.76,2106.99C620.76,2103.39 619.328,2099.93 616.778,2097.38C603.622,2084.22 561.642,2042.24 548.471,2029.07Z" style="fill:rgb(44,80,140);"/>
                </g>
                <g transform="matrix(0.565546,0,0,1,74.6985,246.245)">
                    <path d="M526.804,2037.58L526.804,2106.73C526.804,2113.51 532.31,2119.02 539.092,2119.02L608.26,2119.02L608.26,2194.45L387.5,2194.45L387.5,2037.58L526.804,2037.58Z" style="fill:white;"/>
                </g>
            </g>
        </g>
        <g transform="matrix(1.7682,0,0,1,0,0)">
            <g transform="matrix(0.748251,0,0,1.32306,67.5282,-276.372)">
                <path d="M971.758,2390.19L967.199,2390.19L967.199,2407.55L969.59,2407.55L969.59,2401.17L971.783,2401.17C975.614,2401.17 978.508,2399.54 978.508,2395.56C978.508,2391.9 975.942,2390.19 971.758,2390.19ZM971.682,2399.29L969.59,2399.29L969.59,2392.05L971.732,2392.05C974.303,2392.05 975.967,2392.99 975.967,2395.58C975.967,2398.53 974.253,2399.29 971.682,2399.29Z" style="fill:white;fill-rule:nonzero;"/>
                <path d="M984.001,2407.85C984.681,2407.85 985.336,2407.67 985.84,2407.4L985.235,2405.79C984.983,2405.89 984.706,2405.94 984.379,2405.94C983.774,2405.94 983.547,2405.59 983.547,2404.88L983.547,2388.66L981.233,2388.93L981.233,2404.93C981.233,2406.82 982.314,2407.85 984.001,2407.85Z" style="fill:white;fill-rule:nonzero;"/>
                <path d="M997.555,2404.45L997.555,2398.38C997.555,2395.61 996.096,2393.97 992.896,2393.97C991.409,2393.97 989.947,2394.27 988.311,2394.88L988.89,2396.56C990.249,2396.11 991.484,2395.86 992.468,2395.86C994.308,2395.86 995.241,2396.56 995.241,2398.48L995.241,2399.46L993.199,2399.46C989.494,2399.46 987.355,2401 987.355,2403.85C987.355,2406.22 988.94,2407.85 991.585,2407.85C993.199,2407.85 994.61,2407.25 995.542,2405.86C995.945,2407.17 996.8,2407.7 998.135,2407.85L998.664,2406.24C997.984,2405.99 997.555,2405.61 997.555,2404.45ZM992.115,2406.12C990.602,2406.12 989.821,2405.28 989.821,2403.72C989.821,2401.91 991.056,2401 993.501,2401L995.241,2401L995.241,2404.05C994.484,2405.43 993.476,2406.12 992.115,2406.12Z" style="fill:white;fill-rule:nonzero;"/>
                <path d="M1012.34,2392.79C1010.78,2393.49 1009.58,2394.05 1006.27,2393.97C1003.35,2393.97 1001.16,2395.88 1001.16,2398.61C1001.16,2400.32 1001.87,2401.48 1003.4,2402.28C1002.45,2402.91 1001.94,2403.77 1001.94,2404.63C1001.94,2405.96 1003,2407.14 1005.37,2407.14L1007.46,2407.14C1009.12,2407.14 1010.13,2407.78 1010.13,2409.04C1010.13,2410.37 1009.12,2411.1 1006.25,2411.1C1003.33,2411.1 1002.64,2410.4 1002.64,2408.89L1000.56,2408.89C1000.56,2411.58 1001.92,2412.91 1006.25,2412.91C1010.36,2412.91 1012.47,2411.46 1012.47,2408.89C1012.47,2406.77 1010.66,2405.21 1007.94,2405.21L1005.82,2405.21C1004.46,2405.21 1004.08,2404.73 1004.08,2404.12C1004.08,2403.64 1004.36,2403.16 1004.74,2402.89C1005.29,2403.06 1005.82,2403.14 1006.43,2403.14C1009.6,2403.14 1011.49,2401.25 1011.49,2398.63C1011.49,2397.09 1010.71,2395.98 1009.15,2395.28C1010.66,2395.28 1011.92,2395.23 1013.02,2394.88L1012.34,2392.79ZM1006.27,2395.63C1008.17,2395.63 1009.12,2396.64 1009.12,2398.58C1009.12,2400.5 1008.14,2401.61 1006.32,2401.61C1004.51,2401.61 1003.53,2400.37 1003.53,2398.61C1003.53,2396.87 1004.48,2395.63 1006.27,2395.63Z" style="fill:white;fill-rule:nonzero;"/>
                <path d="M1016.48,2387.9C1015.52,2387.9 1014.87,2388.58 1014.87,2389.49C1014.87,2390.37 1015.52,2391.05 1016.48,2391.05C1017.46,2391.05 1018.11,2390.37 1018.11,2389.49C1018.11,2388.58 1017.46,2387.9 1016.48,2387.9ZM1017.66,2394.27L1015.35,2394.27L1015.35,2407.55L1017.66,2407.55L1017.66,2394.27Z" style="fill:white;fill-rule:nonzero;"/>
                <path d="M1027.36,2393.97C1023.58,2393.97 1021.42,2396.82 1021.42,2400.92C1021.42,2405.13 1023.56,2407.85 1027.34,2407.85C1031.09,2407.85 1033.26,2405.01 1033.26,2400.9C1033.26,2396.69 1031.14,2393.97 1027.36,2393.97ZM1027.36,2395.83C1029.55,2395.83 1030.76,2397.45 1030.76,2400.9C1030.76,2404.38 1029.55,2405.99 1027.34,2405.99C1025.12,2405.99 1023.91,2404.38 1023.91,2400.92C1023.91,2397.45 1025.14,2395.83 1027.36,2395.83Z" style="fill:white;fill-rule:nonzero;"/>
            </g>
        </g>
    </g>
</svg>
