<?xml version="1.0" encoding="UTF-8" standalone="no"?>
<!DOCTYPE svg PUBLIC "-//W3C//DTD SVG 1.1//EN" "http://www.w3.org/Graphics/SVG/1.1/DTD/svg11.dtd">
<svg width="100%" height="100%" viewBox="0 0 246 339" version="1.1" xmlns="http://www.w3.org/2000/svg" xmlns:xlink="http://www.w3.org/1999/xlink" xml:space="preserve" xmlns:serif="http://www.serif.com/" style="fill-rule:evenodd;clip-rule:evenodd;stroke-linejoin:round;stroke-miterlimit:2;">
    <g transform="matrix(1,0,0,1,-794.644,-2271.32)">
        <g transform="matrix(1.7682,0,0,1,0,0)">
            <g transform="matrix(1,0,0,1,162.629,0)">
                <g transform="matrix(0.565546,0,0,1,74.6985,246.245)">
                    <path d="M548.471,2029.07C545.914,2026.51 542.446,2025.08 538.831,2025.08C510.727,2025.08 387.288,2025.08 387.288,2025.08C380.506,2025.08 375,2030.58 375,2037.37L375,2351.54C375,2358.32 380.506,2363.83 387.288,2363.83L608.472,2363.83C615.254,2363.83 620.76,2358.32 620.76,2351.54L620.76,2106.99C620.76,2103.39 619.328,2099.93 616.778,2097.38C603.622,2084.22 561.642,2042.24 548.471,2029.07Z" style="fill:rgb(44,80,140);"/>
                </g>
                <g transform="matrix(0.565546,0,0,1,74.6985,246.245)">
                    <path d="M526.804,2037.58L526.804,2106.73C526.804,2113.51 532.31,2119.02 539.092,2119.02L608.26,2119.02L608.26,2194.45L387.5,2194.45L387.5,2037.58L526.804,2037.58Z" style="fill:white;"/>
                </g>
            </g>
            <g transform="matrix(0.748251,0,0,1.32306,-229.726,-668.679)">
                <path d="M960.144,2407.55L962.989,2407.55L958.305,2399.76C960.799,2399.01 962.057,2397.55 962.057,2395.1C962.057,2391.85 959.792,2390.19 955.457,2390.19L950.899,2390.19L950.899,2407.55L953.289,2407.55L953.289,2400.19L955.986,2400.19L960.144,2407.55ZM953.289,2398.36L953.289,2392.05L955.432,2392.05C958.28,2392.05 959.515,2392.94 959.515,2395.1C959.515,2397.45 958.129,2398.36 955.709,2398.36L953.289,2398.36Z" style="fill:white;fill-rule:nonzero;"/>
                <path d="M975.913,2400.52C975.913,2396.46 974.027,2393.97 970.448,2393.97C967.02,2393.97 964.932,2396.92 964.932,2401.05C964.932,2405.26 967.096,2407.85 970.801,2407.85C972.641,2407.85 974.127,2407.22 975.435,2406.19L974.429,2404.8C973.271,2405.61 972.288,2405.96 970.977,2405.96C969.062,2405.96 967.625,2404.78 967.398,2401.7L975.863,2401.7C975.888,2401.4 975.913,2400.97 975.913,2400.52ZM973.624,2399.99L967.398,2399.99C967.574,2397.04 968.734,2395.81 970.498,2395.81C972.59,2395.81 973.624,2397.24 973.624,2399.84L973.624,2399.99Z" style="fill:white;fill-rule:nonzero;"/>
                <path d="M984.429,2393.97C980.827,2393.97 978.638,2396.79 978.638,2401.02C978.638,2405.31 980.852,2407.85 984.429,2407.85C985.966,2407.85 987.301,2407.35 988.485,2406.39L987.427,2404.88C986.419,2405.54 985.638,2405.89 984.53,2405.89C982.439,2405.89 981.129,2404.45 981.129,2400.97C981.129,2397.52 982.439,2395.88 984.53,2395.88C985.638,2395.88 986.47,2396.21 987.377,2396.87L988.485,2395.41C987.251,2394.37 985.991,2393.97 984.429,2393.97Z" style="fill:white;fill-rule:nonzero;"/>
                <path d="M1001.16,2394.27L998.843,2394.27L998.843,2403.75C998.037,2405.08 996.953,2406.04 995.516,2406.04C994.079,2406.04 993.474,2405.36 993.474,2403.55L993.474,2394.27L991.159,2394.27L991.159,2403.8C991.159,2406.39 992.543,2407.85 994.86,2407.85C996.751,2407.85 997.986,2407.1 998.994,2405.49L999.17,2407.55L1001.16,2407.55L1001.16,2394.27Z" style="fill:white;fill-rule:nonzero;"/>
                <path d="M1011.56,2393.97C1009.95,2393.97 1008.72,2394.98 1008.01,2396.97L1007.78,2394.27L1005.8,2394.27L1005.8,2407.55L1008.11,2407.55L1008.11,2399.97C1008.67,2397.42 1009.62,2396.24 1011.29,2396.24C1011.76,2396.24 1012.04,2396.29 1012.45,2396.39L1012.87,2394.12C1012.47,2394.02 1011.99,2393.97 1011.56,2393.97Z" style="fill:white;fill-rule:nonzero;"/>
                <path d="M1018.75,2393.97C1016,2393.97 1013.96,2395.51 1013.96,2397.62C1013.96,2399.49 1015.09,2400.72 1017.96,2401.48C1020.53,2402.16 1021.19,2402.66 1021.19,2403.97C1021.19,2405.23 1020.08,2405.99 1018.34,2405.99C1016.9,2405.99 1015.67,2405.51 1014.61,2404.7L1013.38,2406.12C1014.54,2407.12 1016.15,2407.85 1018.39,2407.85C1021.09,2407.85 1023.63,2406.59 1023.63,2403.82C1023.63,2401.5 1022.02,2400.39 1019.22,2399.69C1017.08,2399.13 1016.38,2398.63 1016.38,2397.55C1016.38,2396.49 1017.31,2395.81 1018.82,2395.81C1020.06,2395.81 1021.09,2396.19 1022.27,2396.94L1023.25,2395.48C1022,2394.53 1020.61,2393.97 1018.75,2393.97Z" style="fill:white;fill-rule:nonzero;"/>
                <path d="M1031.9,2393.97C1028.12,2393.97 1025.95,2396.82 1025.95,2400.92C1025.95,2405.13 1028.09,2407.85 1031.87,2407.85C1035.63,2407.85 1037.79,2405.01 1037.79,2400.9C1037.79,2396.69 1035.68,2393.97 1031.9,2393.97ZM1031.9,2395.83C1034.09,2395.83 1035.3,2397.45 1035.3,2400.9C1035.3,2404.38 1034.09,2405.99 1031.87,2405.99C1029.65,2405.99 1028.44,2404.38 1028.44,2400.92C1028.44,2397.45 1029.68,2395.83 1031.9,2395.83Z" style="fill:white;fill-rule:nonzero;"/>
                <path d="M1045.22,2393.97C1042.48,2393.97 1040.44,2395.51 1040.44,2397.62C1040.44,2399.49 1041.57,2400.72 1044.44,2401.48C1047.01,2402.16 1047.67,2402.66 1047.67,2403.97C1047.67,2405.23 1046.56,2405.99 1044.82,2405.99C1043.38,2405.99 1042.15,2405.51 1041.09,2404.7L1039.86,2406.12C1041.02,2407.12 1042.63,2407.85 1044.87,2407.85C1047.57,2407.85 1050.11,2406.59 1050.11,2403.82C1050.11,2401.5 1048.5,2400.39 1045.7,2399.69C1043.56,2399.13 1042.85,2398.63 1042.85,2397.55C1042.85,2396.49 1043.79,2395.81 1045.3,2395.81C1046.54,2395.81 1047.57,2396.19 1048.75,2396.94L1049.73,2395.48C1048.47,2394.53 1047.09,2393.97 1045.22,2393.97Z" style="fill:white;fill-rule:nonzero;"/>
                <path d="M961.329,2413.85L961.329,2420.8C960.447,2419.87 959.313,2419.17 957.75,2419.17C954.499,2419.17 952.536,2422.11 952.536,2426.17C952.536,2430.3 954.323,2433.05 957.548,2433.05C959.187,2433.05 960.523,2432.24 961.38,2430.91L961.606,2432.74L963.644,2432.74L963.644,2414.13L961.329,2413.85ZM958.052,2431.21C956.137,2431.21 955.028,2429.62 955.028,2426.12C955.028,2422.66 956.263,2421 958.254,2421C959.565,2421 960.497,2421.68 961.329,2422.74L961.329,2429.24C960.447,2430.48 959.54,2431.21 958.052,2431.21Z" style="fill:white;fill-rule:nonzero;"/>
                <path d="M969.415,2413.09C968.459,2413.09 967.804,2413.77 967.804,2414.68C967.804,2415.56 968.459,2416.24 969.415,2416.24C970.397,2416.24 971.051,2415.56 971.051,2414.68C971.051,2413.77 970.397,2413.09 969.415,2413.09ZM970.598,2419.47L968.283,2419.47L968.283,2432.74L970.598,2432.74L970.598,2419.47Z" style="fill:white;fill-rule:nonzero;"/>
                <path d="M985.336,2417.98C983.775,2418.69 982.567,2419.24 979.266,2419.17C976.342,2419.17 974.153,2421.08 974.153,2423.8C974.153,2425.51 974.858,2426.67 976.392,2427.48C975.437,2428.11 974.934,2428.96 974.934,2429.82C974.934,2431.16 975.991,2432.34 978.358,2432.34L980.45,2432.34C982.114,2432.34 983.122,2432.97 983.122,2434.23C983.122,2435.57 982.114,2436.3 979.24,2436.3C976.317,2436.3 975.636,2435.59 975.636,2434.08L973.548,2434.08C973.548,2436.78 974.907,2438.11 979.241,2438.11C983.349,2438.11 985.462,2436.65 985.462,2434.08C985.462,2431.96 983.651,2430.4 980.929,2430.4L978.812,2430.4C977.451,2430.4 977.072,2429.92 977.072,2429.32C977.072,2428.84 977.35,2428.36 977.728,2428.08C978.282,2428.26 978.812,2428.33 979.417,2428.33C982.592,2428.33 984.479,2426.45 984.479,2423.83C984.479,2422.29 983.7,2421.18 982.14,2420.47C983.649,2420.47 984.908,2420.42 986.016,2420.07L985.336,2417.98ZM979.266,2420.83C981.156,2420.83 982.114,2421.83 982.114,2423.78C982.114,2425.69 981.131,2426.8 979.316,2426.8C977.501,2426.8 976.518,2425.56 976.518,2423.8C976.518,2422.06 977.476,2420.83 979.266,2420.83Z" style="fill:white;fill-rule:nonzero;"/>
                <path d="M989.469,2413.09C988.513,2413.09 987.859,2413.77 987.859,2414.68C987.859,2415.56 988.513,2416.24 989.469,2416.24C990.451,2416.24 991.106,2415.56 991.106,2414.68C991.106,2413.77 990.451,2413.09 989.469,2413.09ZM990.652,2419.47L988.337,2419.47L988.337,2432.74L990.652,2432.74L990.652,2419.47Z" style="fill:white;fill-rule:nonzero;"/>
                <path d="M1001.18,2430.6C1000.53,2430.96 999.999,2431.13 999.42,2431.13C998.261,2431.13 997.832,2430.5 997.832,2429.17L997.832,2421.25L1000.73,2421.25L1000.98,2419.47L997.832,2419.47L997.832,2416.19L995.518,2416.47L995.518,2419.47L993.2,2419.47L993.2,2421.25L995.518,2421.25L995.518,2429.27C995.518,2431.74 996.851,2433.05 999.092,2433.05C1000.23,2433.05 1001.18,2432.74 1002.07,2432.14L1001.18,2430.6Z" style="fill:white;fill-rule:nonzero;"/>
                <path d="M1013.28,2429.65L1013.28,2423.57C1013.28,2420.8 1011.82,2419.17 1008.62,2419.17C1007.13,2419.17 1005.67,2419.47 1004.03,2420.07L1004.61,2421.76C1005.97,2421.3 1007.21,2421.05 1008.19,2421.05C1010.03,2421.05 1010.96,2421.76 1010.96,2423.68L1010.96,2424.66L1008.92,2424.66C1005.22,2424.66 1003.08,2426.19 1003.08,2429.04C1003.08,2431.41 1004.66,2433.05 1007.31,2433.05C1008.92,2433.05 1010.33,2432.44 1011.26,2431.06C1011.67,2432.37 1012.52,2432.89 1013.86,2433.05L1014.38,2431.43C1013.71,2431.18 1013.28,2430.8 1013.28,2429.65ZM1007.84,2431.31C1006.32,2431.31 1005.54,2430.48 1005.54,2428.91C1005.54,2427.1 1006.78,2426.19 1009.22,2426.19L1010.96,2426.19L1010.96,2429.24C1010.21,2430.63 1009.2,2431.31 1007.84,2431.31Z" style="fill:white;fill-rule:nonzero;"/>
                <path d="M1020.46,2433.05C1021.14,2433.05 1021.79,2432.87 1022.3,2432.59L1021.69,2430.98C1021.44,2431.08 1021.16,2431.13 1020.84,2431.13C1020.23,2431.13 1020,2430.78 1020,2430.08L1020,2413.85L1017.69,2414.13L1017.69,2430.12C1017.69,2432.01 1018.77,2433.05 1020.46,2433.05Z" style="fill:white;fill-rule:nonzero;"/>
                <path d="M1035.22,2425.72C1035.22,2421.66 1033.33,2419.17 1029.76,2419.17C1026.33,2419.17 1024.24,2422.11 1024.24,2426.24C1024.24,2430.45 1026.4,2433.05 1030.11,2433.05C1031.95,2433.05 1033.43,2432.42 1034.74,2431.39L1033.74,2430C1032.58,2430.8 1031.6,2431.16 1030.28,2431.16C1028.37,2431.16 1026.93,2429.97 1026.7,2426.9L1035.17,2426.9C1035.19,2426.6 1035.22,2426.17 1035.22,2425.72ZM1032.93,2425.19L1026.7,2425.19C1026.88,2422.24 1028.04,2421 1029.81,2421C1031.9,2421 1032.93,2422.44 1032.93,2425.04L1032.93,2425.19Z" style="fill:white;fill-rule:nonzero;"/>
                <path d="M1042.5,2419.17C1039.76,2419.17 1037.72,2420.7 1037.72,2422.82C1037.72,2424.68 1038.85,2425.92 1041.72,2426.67C1044.29,2427.35 1044.95,2427.86 1044.95,2429.17C1044.95,2430.43 1043.84,2431.18 1042.1,2431.18C1040.66,2431.18 1039.43,2430.7 1038.37,2429.9L1037.14,2431.31C1038.3,2432.32 1039.91,2433.05 1042.15,2433.05C1044.85,2433.05 1047.39,2431.79 1047.39,2429.02C1047.39,2426.7 1045.78,2425.59 1042.98,2424.88C1040.84,2424.33 1040.13,2423.82 1040.13,2422.74C1040.13,2421.68 1041.07,2421 1042.58,2421C1043.81,2421 1044.85,2421.38 1046.03,2422.14L1047.01,2420.68C1045.75,2419.72 1044.37,2419.17 1042.5,2419.17Z" style="fill:white;fill-rule:nonzero;"/>
            </g>
        </g>
    </g>
</svg>
