<?xml version="1.0" encoding="UTF-8" standalone="no"?>
<!DOCTYPE svg PUBLIC "-//W3C//DTD SVG 1.1//EN" "http://www.w3.org/Graphics/SVG/1.1/DTD/svg11.dtd">
<svg width="100%" height="100%" viewBox="0 0 246 339" version="1.1" xmlns="http://www.w3.org/2000/svg" xmlns:xlink="http://www.w3.org/1999/xlink" xml:space="preserve" xmlns:serif="http://www.serif.com/" style="fill-rule:evenodd;clip-rule:evenodd;stroke-linejoin:round;stroke-miterlimit:2;">
    <g transform="matrix(1,0,0,1,-1049.93,-2645.45)">
        <g transform="matrix(1.7682,0,0,1,0,0)">
            <g transform="matrix(1,0,0,1,307.004,374.123)">
                <g transform="matrix(0.565546,0,0,1,74.6985,246.245)">
                    <path d="M548.471,2029.07C545.914,2026.51 542.446,2025.08 538.831,2025.08C510.727,2025.08 387.288,2025.08 387.288,2025.08C380.506,2025.08 375,2030.58 375,2037.37L375,2351.54C375,2358.32 380.506,2363.83 387.288,2363.83L608.472,2363.83C615.254,2363.83 620.76,2358.32 620.76,2351.54L620.76,2106.99C620.76,2103.39 619.328,2099.93 616.778,2097.38C603.622,2084.22 561.642,2042.24 548.471,2029.07Z" style="fill:rgb(44,80,140);"/>
                </g>
                <g transform="matrix(0.565546,0,0,1,74.6985,246.245)">
                    <path d="M526.804,2037.58L526.804,2106.73C526.804,2113.51 532.31,2119.02 539.092,2119.02L608.26,2119.02L608.26,2194.45L387.5,2194.45L387.5,2037.58L526.804,2037.58Z" style="fill:white;"/>
                </g>
            </g>
        </g>
        <g transform="matrix(1.7682,0,0,1,0,0)">
            <g transform="matrix(0.748251,0,0,1.32306,-84.7011,-274.539)">
                <path d="M954.574,2390.19L952.156,2390.19L947.798,2404.96L943.441,2390.19L940.872,2390.19L946.463,2407.55L949.033,2407.55L954.574,2390.19Z" style="fill:white;fill-rule:nonzero;"/>
                <path d="M965.181,2404.45L965.181,2398.38C965.181,2395.61 963.722,2393.97 960.522,2393.97C959.034,2393.97 957.572,2394.27 955.936,2394.88L956.515,2396.56C957.875,2396.11 959.11,2395.86 960.093,2395.86C961.933,2395.86 962.866,2396.56 962.866,2398.48L962.866,2399.46L960.824,2399.46C957.119,2399.46 954.98,2401 954.98,2403.85C954.98,2406.22 956.565,2407.85 959.211,2407.85C960.824,2407.85 962.236,2407.25 963.168,2405.86C963.571,2407.17 964.426,2407.7 965.76,2407.85L966.289,2406.24C965.609,2405.99 965.181,2405.61 965.181,2404.45ZM959.74,2406.12C958.228,2406.12 957.446,2405.28 957.446,2403.72C957.446,2401.91 958.681,2401 961.127,2401L962.866,2401L962.866,2404.05C962.11,2405.43 961.101,2406.12 959.74,2406.12Z" style="fill:white;fill-rule:nonzero;"/>
                <path d="M976.117,2393.97C974.378,2393.97 972.966,2394.88 972.059,2396.24L971.858,2394.27L969.87,2394.27L969.87,2407.55L972.185,2407.55L972.185,2398.13C973.067,2396.72 974.075,2395.78 975.563,2395.78C976.848,2395.78 977.655,2396.36 977.655,2398.35L977.655,2407.55L979.97,2407.55L979.97,2398.03C979.97,2395.51 978.561,2393.97 976.117,2393.97Z" style="fill:white;fill-rule:nonzero;"/>
                <path d="M989.367,2393.97C985.765,2393.97 983.576,2396.79 983.576,2401.02C983.576,2405.31 985.79,2407.85 989.367,2407.85C990.904,2407.85 992.239,2407.35 993.423,2406.39L992.365,2404.88C991.357,2405.54 990.576,2405.89 989.468,2405.89C987.377,2405.89 986.067,2404.45 986.067,2400.97C986.067,2397.52 987.377,2395.88 989.468,2395.88C990.576,2395.88 991.408,2396.21 992.315,2396.87L993.423,2395.41C992.189,2394.37 990.929,2393.97 989.367,2393.97Z" style="fill:white;fill-rule:nonzero;"/>
                <path d="M1001.19,2393.97C997.404,2393.97 995.241,2396.82 995.241,2400.92C995.241,2405.13 997.379,2407.85 1001.16,2407.85C1004.92,2407.85 1007.08,2405.01 1007.08,2400.9C1007.08,2396.69 1004.97,2393.97 1001.19,2393.97ZM1001.19,2395.83C1003.38,2395.83 1004.59,2397.45 1004.59,2400.9C1004.59,2404.38 1003.38,2405.99 1001.16,2405.99C998.941,2405.99 997.732,2404.38 997.732,2400.92C997.732,2397.45 998.967,2395.83 1001.19,2395.83Z" style="fill:white;fill-rule:nonzero;"/>
                <path d="M1020.68,2394.27L1018.37,2394.27L1018.37,2403.75C1017.56,2405.08 1016.48,2406.04 1015.04,2406.04C1013.6,2406.04 1013,2405.36 1013,2403.55L1013,2394.27L1010.69,2394.27L1010.69,2403.8C1010.69,2406.39 1012.07,2407.85 1014.39,2407.85C1016.28,2407.85 1017.51,2407.1 1018.52,2405.49L1018.7,2407.55L1020.68,2407.55L1020.68,2394.27Z" style="fill:white;fill-rule:nonzero;"/>
                <path d="M1035.14,2394.27L1032.7,2394.27L1029.25,2405.49L1025.78,2394.27L1023.26,2394.27L1027.84,2407.55L1030.64,2407.55L1035.14,2394.27Z" style="fill:white;fill-rule:nonzero;"/>
                <path d="M1047.72,2400.52C1047.72,2396.46 1045.83,2393.97 1042.25,2393.97C1038.82,2393.97 1036.74,2396.92 1036.74,2401.05C1036.74,2405.26 1038.9,2407.85 1042.6,2407.85C1044.44,2407.85 1045.93,2407.22 1047.24,2406.19L1046.23,2404.8C1045.07,2405.61 1044.09,2405.96 1042.78,2405.96C1040.87,2405.96 1039.43,2404.78 1039.2,2401.7L1047.67,2401.7C1047.69,2401.4 1047.72,2400.97 1047.72,2400.52ZM1045.43,2399.99L1039.2,2399.99C1039.38,2397.04 1040.54,2395.81 1042.3,2395.81C1044.39,2395.81 1045.43,2397.24 1045.43,2399.84L1045.43,2399.99Z" style="fill:white;fill-rule:nonzero;"/>
                <path d="M1057.09,2393.97C1055.48,2393.97 1054.24,2394.98 1053.54,2396.97L1053.31,2394.27L1051.32,2394.27L1051.32,2407.55L1053.64,2407.55L1053.64,2399.97C1054.19,2397.42 1055.15,2396.24 1056.81,2396.24C1057.29,2396.24 1057.57,2396.29 1057.97,2396.39L1058.4,2394.12C1058,2394.02 1057.52,2393.97 1057.09,2393.97Z" style="fill:white;fill-rule:nonzero;"/>
            </g>
        </g>
    </g>
</svg>
