<?xml version="1.0" encoding="UTF-8" standalone="no"?>
<!DOCTYPE svg PUBLIC "-//W3C//DTD SVG 1.1//EN" "http://www.w3.org/Graphics/SVG/1.1/DTD/svg11.dtd">
<svg width="100%" height="100%" viewBox="0 0 1521 1277" version="1.1" xmlns="http://www.w3.org/2000/svg" xmlns:xlink="http://www.w3.org/1999/xlink" xml:space="preserve" xmlns:serif="http://www.serif.com/" style="fill-rule:evenodd;clip-rule:evenodd;stroke-linejoin:round;stroke-miterlimit:2;">
    <g transform="matrix(1,0,0,1,-916.708,-629.169)">
        <g transform="matrix(4.16667,0,0,4.16667,0,0)">
            <g transform="matrix(1,0,0,1,304.942,289.315)">
                <path d="M0,-65.844C14.618,-95.187 44.715,-115.127 79.621,-115.127C128.72,-115.127 168.765,-75.082 168.765,-25.984C168.765,5.469 152.862,33.41 128.142,49.283L106.931,30.226C127.711,20.189 141.642,-1.432 141.642,-25.984C141.642,-60.143 113.78,-88.004 79.621,-88.004C52.4,-88.004 29.616,-71.175 21.306,-46.702L0,-65.844Z" style="fill:rgb(46,81,140);"/>
            </g>
        </g>
        <g transform="matrix(4.16667,0,0,4.16667,0,0)">
            <g transform="matrix(1,0,0,1,359.856,466.043)">
                <path d="M0,-73.818C-29.742,-32.232 -74.418,-18.004 -123.054,-11.513C-35.759,0 -13.035,-34.324 0,-73.818" style="fill:rgb(46,81,140);"/>
            </g>
        </g>
        <g transform="matrix(4.16667,0,0,4.16667,0,0)">
            <g transform="matrix(1,0,0,1,491.682,306.469)">
                <path d="M0,-63.87C3.832,-39.162 -6.914,-18.907 -21.69,0C12.756,-25.84 8.955,-45.608 0,-63.87" style="fill:rgb(46,81,140);"/>
            </g>
        </g>
        <g transform="matrix(4.16667,0,0,4.16667,0,0)">
            <g transform="matrix(-1,0,0,1,546.233,211.029)">
                <path d="M0,-27.688C-21.311,-27.688 -38.691,-21.469 -38.691,-13.843C-38.691,-6.219 -21.311,0 0,0C21.311,0 38.691,-6.219 38.691,-13.843C38.691,-21.469 21.311,-27.688 0,-27.688" style="fill:rgb(46,81,140);"/>
            </g>
        </g>
        <g transform="matrix(4.16667,0,0,4.16667,0,0)">
            <g transform="matrix(1,0,0,1,500.458,232.899)">
                <path d="M-213.187,106.94C-194.284,130.854 -165.038,146.242 -132.313,146.242C-87.077,146.242 -49.215,118.275 -35.406,77.607L0,109.416C-24.292,158.18 -74.308,191.314 -132.313,191.314C-175.025,191.314 -213.614,173.077 -240.688,143.98C-232.154,130.764 -222.967,118.409 -213.187,106.94Z" style="fill:rgb(46,81,140);"/>
            </g>
        </g>
        <g transform="matrix(4.16667,0,0,4.16667,0,0)">
            <g transform="matrix(1,0,0,1,500.458,232.899)">
                <path d="M-249.62,133.452C-268.937,108.442 -280.448,77.111 -280.448,43.178C-280.448,-9.09 -254.022,-55.519 -212.942,-81.898L-177.695,-50.231C-212.227,-33.55 -235.376,2.379 -235.376,43.178C-235.376,59.248 -231.665,74.48 -225.057,88.052C-234.534,102.513 -242.625,117.825 -249.62,133.452Z" style="fill:rgb(46,81,140);"/>
            </g>
        </g>
        <g transform="matrix(4.16667,0,0,4.16667,0,0)">
            <g transform="matrix(1,0,0,1,220.01,174.99)">
                <path d="M30.822,191.352C33.637,195.002 36.618,198.517 39.76,201.889C24.231,225.908 10.865,252.781 0,282.387C7.637,253.462 17.17,221.803 30.822,191.352Z" style="fill:rgb(46,81,140);"/>
            </g>
        </g>
        <g transform="matrix(4.16667,0,0,4.16667,0,0)">
            <g transform="matrix(1,0,0,1,220.01,174.99)">
                <path d="M55.392,145.963C64.464,132.113 74.809,119.047 86.688,107.231L102.036,127.23C105.959,123.195 110.148,119.511 114.459,115.893C117.664,113.203 120.923,110.578 124.138,107.9C135.197,98.689 156.939,82.324 151.197,65.002L150.907,64.287C197.775,44.9 259.236,40.276 340.777,60.177C265.722,51.14 195.219,66.663 136.134,104.46C110.916,120.591 87.779,140.78 67.261,164.848C62.656,159.026 58.666,152.697 55.392,145.963Z" style="fill:rgb(46,81,140);"/>
            </g>
        </g>
        <g transform="matrix(4.16667,0,0,4.16667,0,0)">
            <g transform="matrix(1,0,0,1,220.01,174.99)">
                <path d="M55.392,145.963C58.668,152.697 62.657,159.025 67.261,164.848C57.479,176.317 48.291,188.667 39.76,201.889C36.622,198.52 33.638,195.006 30.822,191.352C37.827,175.725 45.916,160.415 55.392,145.963Z" style="fill:white;"/>
            </g>
        </g>
        <g transform="matrix(4.16667,0,0,4.16667,0,0)">
            <g transform="matrix(1,0,0,1,322.046,265.102)">
                <path d="M41.416,89.915L13.93,54.099C33.978,38.462 72.501,0.001 88.301,23.31C104.101,46.62 59.573,70.56 41.416,89.915Z" style="fill:rgb(46,81,140);"/>
            </g>
        </g>
        <g transform="matrix(4.16667,0,0,4.16667,0,0)">
            <g transform="matrix(1,0,0,1,322.046,265.102)">
                <path d="M-15.348,17.119L-27.486,1.302C-7.438,-14.336 31.084,-52.797 46.884,-29.487C47.71,-28.268 48.372,-27.047 48.871,-25.826C23.473,-15.325 2.356,-0.493 -15.348,17.119Z" style="fill:rgb(46,81,140);"/>
            </g>
        </g>
        <g transform="matrix(4.16667,0,0,4.16667,0,0)">
            <g transform="matrix(1,0,0,1,322.046,265.102)">
                <path d="M48.871,-25.826C58.1,-3.686 17.207,18.774 0,37.118L-15.348,17.119C2.353,-0.494 23.464,-15.327 48.871,-25.826Z" style="fill:white;"/>
            </g>
        </g>
    </g>
</svg>
