<?xml version="1.0" encoding="UTF-8" standalone="no"?>
<!DOCTYPE svg PUBLIC "-//W3C//DTD SVG 1.1//EN" "http://www.w3.org/Graphics/SVG/1.1/DTD/svg11.dtd">
<svg width="100%" height="100%" viewBox="0 0 780 780" version="1.1" xmlns="http://www.w3.org/2000/svg" xmlns:xlink="http://www.w3.org/1999/xlink" xml:space="preserve" xmlns:serif="http://www.serif.com/" style="fill-rule:evenodd;clip-rule:evenodd;stroke-miterlimit:22.926;">
    <g transform="matrix(1,0,0,1,-1258.33,-887.502)">
        <g transform="matrix(4.16667,0,0,4.16667,0,0)">
            <g transform="matrix(-1,0,0,1,395.541,376.399)">
                <path d="M-0.001,-139.714C-38.575,-139.714 -69.857,-108.432 -69.857,-69.858C-69.857,-31.282 -38.575,0 -0.001,0C38.574,0 69.856,-31.282 69.856,-69.858C69.856,-108.432 38.574,-139.714 -0.001,-139.714" style="fill:rgb(44,80,140);"/>
            </g>
        </g>
        <g transform="matrix(4.16667,0,0,4.16667,0,0)">
            <g transform="matrix(1,0,0,1,395.68,337.113)">
                <path d="M0,-94.895L-8.497,-74.145L-4.982,0C-1.793,-0.789 1.549,-0.814 5.046,0L8.586,-74.145L0,-94.895Z" style="fill:white;"/>
            </g>
        </g>
        <g transform="matrix(4.16667,0,0,4.16667,0,0)">
            <g transform="matrix(1,0,0,1,399.022,347.903)">
                <path d="M0,28.772C3.681,19.128 3.914,9.27 1.563,0L-8.325,0C-10.676,9.27 -10.442,19.128 -6.754,28.772L0,28.772Z" style="fill:white;"/>
            </g>
        </g>
        <g transform="matrix(4.16667,0,0,4.16667,0,0)">
            <g transform="matrix(-1,0,0,1,373.469,345.648)">
                <path d="M0,-6.861C-1.895,-6.861 -3.431,-5.325 -3.431,-3.43C-3.431,-1.536 -1.895,0 0,0C1.895,0 3.431,-1.536 3.431,-3.43C3.431,-5.325 1.895,-6.861 0,-6.861" style="fill:white;"/>
            </g>
        </g>
        <g transform="matrix(4.16667,0,0,4.16667,0,0)">
            <g transform="matrix(-1,0,0,1,417.859,345.648)">
                <path d="M0,-6.861C-1.895,-6.861 -3.431,-5.325 -3.431,-3.43C-3.431,-1.536 -1.895,0 0,0C1.895,0 3.431,-1.536 3.431,-3.43C3.431,-5.325 1.895,-6.861 0,-6.861" style="fill:white;"/>
            </g>
        </g>
        <g transform="matrix(4.16667,0,0,4.16667,0,0)">
            <g transform="matrix(-0.170232,0.985404,0.985404,0.170232,401.491,326.118)">
                <path d="M17.122,-20.576C13.967,-9.447 12.012,1.868 11.257,13.369C13.368,13.049 15.314,13.427 17.122,14.382C20.49,3.237 22.401,-8.084 22.986,-19.563C20.924,-19.286 18.963,-19.584 17.122,-20.576" style="fill:white;"/>
            </g>
        </g>
        <g transform="matrix(4.16667,0,0,4.16667,0,0)">
            <g transform="matrix(1,0,0,1,364.211,269.938)">
                <path d="M0,40.64L0,49.142C-7.724,49.254 -14.133,48.457 -16.43,44.813C-14.528,41.747 -8.438,40.644 0,40.64M2.537,40.64L2.537,49.142C10.261,49.254 16.67,48.457 18.966,44.813C17.064,41.747 10.975,40.644 2.537,40.64M2.537,-1.075L2.537,38.105C7.96,37.728 13.263,38.411 17.749,40.58L2.537,-1.075ZM-0.032,-1.075L-0.032,38.105C-5.455,37.728 -10.758,38.411 -15.244,40.58L-0.032,-1.075ZM82.692,48.647C76.351,57.9 44.868,56.287 41.853,48.573L41.853,54.566C44.769,71.719 79.354,71.173 82.686,54.492L82.692,48.647ZM60.87,-1.075L60.87,38.105C55.446,37.728 50.144,38.411 45.658,40.58L60.87,-1.075ZM63.438,-1.075L63.438,38.105C68.862,37.728 74.164,38.411 78.65,40.58L63.438,-1.075ZM60.87,40.64L60.87,49.142C53.146,49.254 46.736,48.457 44.44,44.813C46.342,41.747 52.432,40.644 60.87,40.64M63.406,40.64L63.406,49.142C71.131,49.254 77.54,48.457 79.836,44.813C77.935,41.747 71.845,40.644 63.406,40.64M31.703,-27.997C20.687,-27.368 22.539,-3.692 3.25,-6.418L21.381,43.709C22.581,55.334 -20.688,55.358 -19.343,44.006L-0.347,-7.248C-1.823,-8.584 -3.233,-9.954 -4.497,-11.398C-6.037,-13.205 -4.523,-15.04 -2.837,-13.887C-0.742,-11.065 2.005,-9.32 5.913,-9.497C15.758,-10.533 17.679,-17.267 20.006,-22.361C23.165,-28.302 27.765,-31.079 31.703,-31.004C36.298,-30.985 40.575,-28.246 43.4,-22.361C45.728,-17.267 47.648,-10.533 57.494,-9.497C61.402,-9.32 64.148,-11.065 66.243,-13.887C67.93,-15.04 69.443,-13.205 67.903,-11.398C66.64,-9.954 65.23,-8.584 63.754,-7.248L82.75,44.006C84.095,55.358 40.826,55.334 42.026,43.709L60.157,-6.418C40.868,-3.692 42.72,-27.368 31.703,-27.997" style="fill:white;"/>
            </g>
        </g>
        <g transform="matrix(4.16667,0,0,4.16667,0,0)">
            <g transform="matrix(-0.143436,0.98966,0.98966,0.143436,379.654,311.525)">
                <path d="M11.968,-33.357C20.216,-25.753 14.105,5.172 6.037,7.049L11.968,7.909C29.362,7.483 33.782,-26.821 17.752,-32.512L11.968,-33.357Z" style="fill:white;stroke:rgb(35,31,32);stroke-width:0.22px;"/>
            </g>
        </g>
        <g transform="matrix(4.16667,0,0,4.16667,0,0)">
            <g transform="matrix(1,0,0,1,395.542,397.249)">
                <path d="M0,-181.415C49.96,-181.415 90.707,-140.668 90.707,-90.708C90.707,-40.748 49.96,-0.001 0,-0.001C-49.96,-0.001 -90.707,-40.748 -90.707,-90.708C-90.707,-140.668 -49.96,-181.415 0,-181.415M0,-184.249C51.521,-184.249 93.541,-142.229 93.541,-90.708C93.541,-39.187 51.521,2.834 0,2.834C-51.521,2.834 -93.542,-39.187 -93.542,-90.708C-93.542,-142.229 -51.521,-184.249 0,-184.249" style="fill:rgb(44,80,140);"/>
            </g>
        </g>
        <g transform="matrix(4.16667,0,0,4.16667,0,0)">
            <g transform="matrix(1,0,0,1,312.809,293.488)">
                <path d="M0,0.015L3.319,0.661L3.62,-0.88C3.688,-1.233 3.659,-1.506 3.536,-1.701C3.412,-1.894 3.126,-2.063 2.676,-2.208L2.719,-2.438L5.579,-1.883L5.533,-1.651C5.206,-1.712 4.957,-1.716 4.786,-1.664C4.617,-1.612 4.48,-1.523 4.376,-1.396C4.27,-1.266 4.192,-1.062 4.136,-0.778L3.837,0.76L6.491,1.276C6.92,1.358 7.206,1.387 7.354,1.361C7.466,1.339 7.572,1.269 7.674,1.15C7.809,0.988 7.895,0.806 7.934,0.607L7.993,0.301L8.225,0.347L7.518,3.972L7.289,3.926L7.347,3.626C7.414,3.278 7.362,3.005 7.189,2.808C7.076,2.682 6.767,2.572 6.259,2.472L0.801,1.411C0.372,1.328 0.086,1.3 -0.061,1.328C-0.174,1.35 -0.28,1.417 -0.379,1.532C-0.514,1.69 -0.601,1.871 -0.64,2.076L-0.698,2.374L-0.93,2.329L0.292,-3.957L2.164,-3.677L2.123,-3.458C1.707,-3.427 1.393,-3.359 1.181,-3.25C0.968,-3.144 0.799,-2.992 0.676,-2.799C0.552,-2.607 0.446,-2.288 0.361,-1.848L0,0.015Z" style="fill:rgb(44,80,140);fill-rule:nonzero;"/>
            </g>
        </g>
        <g transform="matrix(4.16667,0,0,4.16667,0,0)">
            <g transform="matrix(1,0,0,1,319.723,288.849)">
                <path d="M0,-3.891L-3.745,-3.447L-0.815,-1.048L0,-3.891ZM0.5,-3.934L-0.418,-0.73L0.728,0.204C1.009,0.436 1.229,0.572 1.386,0.618C1.514,0.655 1.642,0.627 1.772,0.533C1.902,0.442 2.039,0.2 2.179,-0.19L2.407,-0.125L1.659,2.479L1.434,2.414C1.471,2.05 1.456,1.805 1.389,1.675C1.252,1.411 0.923,1.068 0.396,0.644L-5.577,-4.218L-5.517,-4.431L2.19,-5.336C2.81,-5.41 3.23,-5.518 3.449,-5.659C3.668,-5.802 3.835,-6.038 3.952,-6.37L4.177,-6.305L3.243,-3.041L3.016,-3.106C3.094,-3.44 3.104,-3.679 3.044,-3.822C2.983,-3.964 2.885,-4.056 2.751,-4.093C2.571,-4.144 2.266,-4.144 1.833,-4.093L0.5,-3.934Z" style="fill:rgb(44,80,140);fill-rule:nonzero;"/>
            </g>
        </g>
        <g transform="matrix(4.16667,0,0,4.16667,0,0)">
            <g transform="matrix(1,0,0,1,318.621,280.934)">
                <path d="M0,-9.033L2.787,-8.121L2.713,-7.936C1.803,-8.023 1.077,-7.91 0.538,-7.605C-0.002,-7.298 -0.398,-6.827 -0.654,-6.197C-0.869,-5.666 -0.927,-5.133 -0.832,-4.598C-0.734,-4.06 -0.442,-3.551 0.048,-3.068C0.538,-2.585 1.218,-2.167 2.093,-1.814C2.815,-1.524 3.488,-1.385 4.112,-1.402C4.734,-1.419 5.28,-1.603 5.753,-1.954C6.223,-2.305 6.578,-2.78 6.819,-3.376C7.029,-3.893 7.102,-4.396 7.04,-4.882C6.979,-5.367 6.715,-5.98 6.247,-6.721L6.438,-6.858C6.988,-6.169 7.317,-5.492 7.432,-4.825C7.547,-4.16 7.456,-3.458 7.159,-2.726C6.624,-1.402 5.72,-0.576 4.446,-0.247C3.497,0 2.528,-0.078 1.541,-0.477C0.743,-0.8 0.085,-1.272 -0.439,-1.9C-0.962,-2.527 -1.28,-3.226 -1.395,-4C-1.508,-4.773 -1.415,-5.532 -1.116,-6.273C-0.884,-6.851 -0.511,-7.363 -0.002,-7.808C0.15,-7.939 0.241,-8.038 0.269,-8.11C0.312,-8.216 0.312,-8.322 0.269,-8.433C0.204,-8.576 0.087,-8.708 -0.084,-8.827L0,-9.033Z" style="fill:rgb(44,80,140);fill-rule:nonzero;"/>
            </g>
        </g>
        <g transform="matrix(4.16667,0,0,4.16667,0,0)">
            <g transform="matrix(1,0,0,1,322.784,269.49)">
                <path d="M0,-4.78L-0.204,-4.897L1.319,-7.536L1.523,-7.419L1.36,-7.137C1.191,-6.845 1.185,-6.548 1.339,-6.249C1.408,-6.106 1.651,-5.915 2.064,-5.677L5.087,-3.93C5.834,-3.499 6.372,-3.09 6.697,-2.704C7.024,-2.319 7.21,-1.822 7.254,-1.218C7.297,-0.613 7.104,0.063 6.673,0.81C6.203,1.623 5.707,2.16 5.18,2.418C4.656,2.676 4.103,2.756 3.525,2.656C3.133,2.584 2.485,2.29 1.588,1.772L-1.324,0.091C-1.784,-0.174 -2.119,-0.284 -2.335,-0.241C-2.55,-0.195 -2.741,-0.032 -2.904,0.249L-3.066,0.529L-3.27,0.411L-1.409,-2.808L-1.205,-2.691L-1.372,-2.405C-1.549,-2.098 -1.578,-1.822 -1.46,-1.578C-1.38,-1.411 -1.133,-1.205 -0.715,-0.965L2.533,0.91C2.823,1.078 3.169,1.243 3.573,1.406C3.978,1.569 4.324,1.64 4.615,1.62C4.903,1.603 5.191,1.501 5.477,1.317C5.766,1.135 6.019,0.851 6.237,0.47C6.519,-0.017 6.665,-0.514 6.675,-1.021C6.684,-1.528 6.564,-1.948 6.313,-2.282C6.064,-2.613 5.542,-3.008 4.751,-3.465L1.735,-5.207C1.27,-5.475 0.949,-5.593 0.771,-5.558C0.528,-5.508 0.325,-5.343 0.162,-5.059L0,-4.78Z" style="fill:rgb(44,80,140);fill-rule:nonzero;"/>
            </g>
        </g>
        <g transform="matrix(4.16667,0,0,4.16667,0,0)">
            <g transform="matrix(1,0,0,1,333.965,264.87)">
                <path d="M0,-6.222L0.158,-6.365L1.614,-4.395L-2.301,0.995L-2.492,0.857L-2.301,0.594C-2.088,0.299 -2.03,0.02 -2.13,-0.246C-2.188,-0.396 -2.416,-0.617 -2.812,-0.905L-7.304,-4.17C-7.739,-4.484 -8.044,-4.636 -8.225,-4.619C-8.472,-4.595 -8.692,-4.452 -8.883,-4.188L-9.074,-3.926L-9.265,-4.064L-6.975,-7.217L-6.784,-7.078C-7.055,-6.712 -7.21,-6.426 -7.245,-6.226C-7.282,-6.025 -7.265,-5.856 -7.195,-5.722C-7.126,-5.587 -6.884,-5.37 -6.469,-5.069L-2.095,-1.891C-1.811,-1.685 -1.597,-1.57 -1.452,-1.549C-1.35,-1.538 -1.25,-1.562 -1.153,-1.622C-1.057,-1.683 -0.845,-1.939 -0.52,-2.387L-0.152,-2.894C0.236,-3.43 0.47,-3.832 0.548,-4.105C0.626,-4.378 0.628,-4.675 0.559,-4.998C0.488,-5.323 0.301,-5.73 0,-6.222" style="fill:rgb(44,80,140);fill-rule:nonzero;"/>
            </g>
        </g>
        <g transform="matrix(4.16667,0,0,4.16667,0,0)">
            <g transform="matrix(1,0,0,1,333.837,258.992)">
                <path d="M0,-9.698L1.584,-8.445L1.426,-8.263C1.126,-8.461 0.895,-8.58 0.726,-8.619C0.455,-8.681 0.204,-8.668 -0.026,-8.58C-0.258,-8.493 -0.49,-8.313 -0.721,-8.047L-1.517,-7.13L3.445,-2.819C3.844,-2.472 4.129,-2.299 4.305,-2.299C4.543,-2.303 4.773,-2.43 4.992,-2.684L5.187,-2.907L5.365,-2.754L2.97,0L2.795,-0.154L2.994,-0.385C3.233,-0.658 3.319,-0.925 3.252,-1.185C3.211,-1.345 3.01,-1.581 2.646,-1.898L-2.316,-6.212L-2.995,-5.431C-3.259,-5.129 -3.423,-4.892 -3.491,-4.725C-3.573,-4.506 -3.582,-4.264 -3.51,-3.995C-3.44,-3.729 -3.27,-3.455 -2.994,-3.178L-3.153,-2.996L-4.608,-4.396L0,-9.698Z" style="fill:rgb(44,80,140);fill-rule:nonzero;"/>
            </g>
        </g>
        <g transform="matrix(4.16667,0,0,4.16667,0,0)">
            <g transform="matrix(1,0,0,1,341.761,251.914)">
                <path d="M0,-3.014L-3.438,-4.561L-2.162,-0.997L0,-3.014ZM0.451,-2.791L-1.985,-0.52L-1.486,0.873C-1.363,1.215 -1.246,1.447 -1.133,1.567C-1.044,1.664 -0.919,1.705 -0.761,1.692C-0.602,1.679 -0.36,1.543 -0.037,1.282L0.124,1.454L-1.859,3.302L-2.02,3.131C-1.798,2.838 -1.686,2.619 -1.677,2.474C-1.658,2.177 -1.764,1.714 -1.996,1.079L-4.613,-6.164L-4.451,-6.316L2.622,-3.125C3.191,-2.867 3.605,-2.743 3.867,-2.752C4.127,-2.763 4.394,-2.878 4.665,-3.103L4.825,-2.93L2.342,-0.616L2.182,-0.787C2.42,-1.034 2.552,-1.233 2.574,-1.387C2.596,-1.538 2.559,-1.666 2.463,-1.768C2.335,-1.905 2.073,-2.063 1.675,-2.241L0.451,-2.791Z" style="fill:rgb(44,80,140);fill-rule:nonzero;"/>
            </g>
        </g>
        <g transform="matrix(4.16667,0,0,4.16667,0,0)">
            <g transform="matrix(1,0,0,1,348.453,239.92)">
                <path d="M0,6.689C0.507,6.48 0.91,6.269 1.209,6.059C2.013,5.498 2.481,4.748 2.618,3.812C2.752,2.876 2.481,1.925 1.803,0.957C1.12,-0.016 0.319,-0.599 -0.604,-0.788C-1.527,-0.978 -2.405,-0.784 -3.237,-0.2C-3.549,0.018 -3.87,0.317 -4.196,0.697L0,6.689ZM-1.655,8.607L-1.789,8.414L-1.525,8.23C-1.226,8.02 -1.083,7.777 -1.092,7.5C-1.094,7.331 -1.237,7.049 -1.514,6.65L-4.704,2.096C-5.011,1.656 -5.251,1.416 -5.427,1.373C-5.67,1.314 -5.923,1.379 -6.19,1.565L-6.457,1.751L-6.591,1.559L-3.722,-0.45C-2.667,-1.186 -1.783,-1.628 -1.066,-1.773C-0.349,-1.918 0.371,-1.83 1.097,-1.507C1.822,-1.182 2.44,-0.656 2.951,0.075C3.638,1.056 3.913,2.085 3.779,3.16C3.625,4.362 2.862,5.443 1.495,6.401L-1.655,8.607Z" style="fill:rgb(44,80,140);fill-rule:nonzero;"/>
            </g>
        </g>
        <g transform="matrix(4.16667,0,0,4.16667,0,0)">
            <g transform="matrix(1,0,0,1,359.048,232.718)">
                <path d="M0,6.924C0.536,6.796 0.967,6.652 1.294,6.491C2.175,6.062 2.756,5.394 3.036,4.491C3.315,3.588 3.196,2.604 2.68,1.544C2.159,0.474 1.456,-0.226 0.575,-0.557C-0.307,-0.891 -1.206,-0.835 -2.119,-0.389C-2.461,-0.222 -2.823,0.024 -3.206,0.346L0,6.924ZM-1.935,8.56L-2.036,8.35L-1.746,8.207C-1.418,8.049 -1.239,7.83 -1.204,7.555C-1.181,7.388 -1.276,7.087 -1.49,6.649L-3.928,1.651C-4.162,1.17 -4.363,0.892 -4.528,0.823C-4.76,0.728 -5.02,0.751 -5.313,0.895L-5.605,1.035L-5.707,0.825L-2.559,-0.711C-1.401,-1.274 -0.459,-1.574 0.271,-1.604C1.003,-1.636 1.701,-1.434 2.366,-1.001C3.032,-0.568 3.56,0.049 3.953,0.851C4.477,1.928 4.589,2.987 4.289,4.029C3.946,5.193 3.025,6.142 1.523,6.874L-1.935,8.56Z" style="fill:rgb(44,80,140);fill-rule:nonzero;"/>
            </g>
        </g>
        <g transform="matrix(4.16667,0,0,4.16667,0,0)">
            <g transform="matrix(1,0,0,1,365.013,235.183)">
                <path d="M0,-6.535L1.217,-3.361L2.983,-4.037C3.44,-4.215 3.72,-4.401 3.822,-4.598C3.958,-4.858 3.95,-5.222 3.798,-5.69L4.017,-5.772L5.089,-2.977L4.871,-2.892C4.665,-3.264 4.513,-3.493 4.416,-3.582C4.292,-3.692 4.134,-3.757 3.941,-3.772C3.748,-3.79 3.484,-3.733 3.15,-3.606L1.384,-2.928L2.4,-0.28C2.537,0.075 2.637,0.286 2.698,0.351C2.758,0.416 2.836,0.454 2.934,0.47C3.029,0.485 3.189,0.45 3.41,0.366L4.771,-0.157C5.226,-0.332 5.544,-0.49 5.724,-0.631C5.906,-0.774 6.056,-0.973 6.173,-1.233C6.324,-1.572 6.433,-2.037 6.5,-2.629L6.738,-2.72L6.818,-0.44L0.628,1.937L0.544,1.717L0.828,1.608C1.018,1.536 1.181,1.421 1.315,1.265C1.417,1.153 1.467,1.027 1.462,0.882C1.46,0.738 1.384,0.47 1.233,0.08L-0.769,-5.139C-0.964,-5.649 -1.138,-5.943 -1.285,-6.021C-1.489,-6.126 -1.755,-6.113 -2.087,-5.985L-2.37,-5.876L-2.455,-6.095L3.735,-8.472L4.498,-6.747L4.268,-6.659C4.023,-7.049 3.82,-7.304 3.657,-7.423C3.497,-7.543 3.302,-7.605 3.072,-7.612C2.893,-7.612 2.602,-7.534 2.203,-7.38L0,-6.535Z" style="fill:rgb(44,80,140);fill-rule:nonzero;"/>
            </g>
        </g>
        <g transform="matrix(4.16667,0,0,4.16667,0,0)">
            <g transform="matrix(1,0,0,1,381.757,232.967)">
                <path d="M0,-9.759L0.802,-6.937L0.609,-6.897C0.169,-7.698 -0.327,-8.238 -0.884,-8.513C-1.439,-8.788 -2.05,-8.855 -2.717,-8.715C-3.276,-8.595 -3.75,-8.346 -4.141,-7.967C-4.533,-7.588 -4.791,-7.059 -4.918,-6.383C-5.044,-5.709 -5.009,-4.91 -4.814,-3.987C-4.652,-3.224 -4.39,-2.59 -4.026,-2.085C-3.664,-1.577 -3.205,-1.226 -2.652,-1.033C-2.097,-0.839 -1.506,-0.808 -0.877,-0.943C-0.332,-1.059 0.125,-1.279 0.494,-1.601C0.862,-1.924 1.224,-2.485 1.578,-3.287L1.796,-3.205C1.532,-2.366 1.157,-1.712 0.667,-1.246C0.18,-0.778 -0.453,-0.462 -1.226,-0.297C-2.622,0 -3.811,-0.288 -4.797,-1.161C-5.532,-1.809 -6.01,-2.655 -6.231,-3.698C-6.411,-4.537 -6.385,-5.349 -6.16,-6.134C-5.932,-6.916 -5.529,-7.572 -4.951,-8.099C-4.375,-8.628 -3.694,-8.974 -2.912,-9.139C-2.303,-9.269 -1.671,-9.247 -1.016,-9.076C-0.823,-9.022 -0.689,-9.003 -0.615,-9.018C-0.503,-9.042 -0.414,-9.102 -0.347,-9.197C-0.265,-9.332 -0.221,-9.505 -0.216,-9.714L0,-9.759Z" style="fill:rgb(44,80,140);fill-rule:nonzero;"/>
            </g>
        </g>
        <g transform="matrix(4.16667,0,0,4.16667,0,0)">
            <g transform="matrix(1,0,0,1,388.296,223.41)">
                <path d="M0,7.624L0.028,7.856L-3.631,8.307L-3.66,8.073L-3.356,8.036C-3.005,7.993 -2.76,7.858 -2.626,7.633C-2.542,7.486 -2.531,7.156 -2.593,6.645L-3.272,1.128C-3.326,0.695 -3.387,0.414 -3.458,0.281C-3.515,0.182 -3.612,0.102 -3.75,0.043C-3.948,-0.035 -4.147,-0.063 -4.349,-0.037L-4.65,0L-4.68,-0.235L-1.021,-0.683L-0.992,-0.451L-1.3,-0.412C-1.649,-0.369 -1.89,-0.234 -2.023,-0.009C-2.112,0.138 -2.125,0.468 -2.063,0.979L-1.384,6.495C-1.333,6.929 -1.27,7.21 -1.198,7.342C-1.144,7.442 -1.044,7.522 -0.901,7.581C-0.708,7.659 -0.511,7.687 -0.31,7.661L0,7.624Z" style="fill:rgb(44,80,140);fill-rule:nonzero;"/>
            </g>
        </g>
        <g transform="matrix(4.16667,0,0,4.16667,0,0)">
            <g transform="matrix(1,0,0,1,391.247,230.559)">
                <path d="M0,-7.635L0.059,-4.233L1.95,-4.268C2.439,-4.277 2.767,-4.354 2.929,-4.506C3.146,-4.705 3.263,-5.05 3.278,-5.54L3.514,-5.544L3.566,-2.55L3.332,-2.545C3.265,-2.963 3.2,-3.23 3.139,-3.349C3.062,-3.494 2.934,-3.609 2.758,-3.692C2.584,-3.772 2.316,-3.811 1.957,-3.804L0.067,-3.772L0.117,-0.936C0.123,-0.554 0.143,-0.322 0.18,-0.24C0.214,-0.16 0.275,-0.095 0.359,-0.047C0.446,0.001 0.606,0.022 0.843,0.018L2.303,-0.008C2.788,-0.017 3.142,-0.056 3.36,-0.127C3.579,-0.198 3.789,-0.337 3.989,-0.539C4.246,-0.806 4.506,-1.206 4.772,-1.739L5.026,-1.743L4.322,0.425L-2.308,0.542L-2.313,0.308L-2.007,0.302C-1.805,0.297 -1.612,0.245 -1.433,0.145C-1.298,0.076 -1.207,-0.028 -1.161,-0.164C-1.116,-0.301 -1.097,-0.578 -1.103,-0.996L-1.201,-6.586C-1.211,-7.13 -1.272,-7.466 -1.382,-7.592C-1.539,-7.758 -1.794,-7.839 -2.149,-7.832L-2.453,-7.825L-2.457,-8.062L4.173,-8.177L4.301,-6.294L4.054,-6.289C3.956,-6.74 3.852,-7.05 3.741,-7.217C3.631,-7.386 3.469,-7.511 3.256,-7.596C3.085,-7.656 2.786,-7.682 2.359,-7.676L0,-7.635Z" style="fill:rgb(44,80,140);fill-rule:nonzero;"/>
            </g>
        </g>
        <g transform="matrix(4.16667,0,0,4.16667,0,0)">
            <g transform="matrix(1,0,0,1,397.043,231.67)">
                <path d="M0,-9.29L2.329,-9.128L7.126,-2.322L7.473,-7.273C7.51,-7.8 7.473,-8.133 7.364,-8.272C7.222,-8.46 6.98,-8.567 6.643,-8.59L6.346,-8.612L6.361,-8.846L9.349,-8.636L9.331,-8.402L9.028,-8.423C8.666,-8.45 8.399,-8.356 8.233,-8.148C8.131,-8.02 8.064,-7.715 8.029,-7.234L7.524,0L7.295,-0.015L2.121,-7.323L1.75,-2.039C1.714,-1.51 1.748,-1.176 1.853,-1.038C2.002,-0.849 2.242,-0.743 2.573,-0.721L2.879,-0.7L2.862,-0.465L-0.126,-0.673L-0.108,-0.908L0.188,-0.888C0.557,-0.862 0.823,-0.953 0.99,-1.161C1.092,-1.291 1.161,-1.594 1.193,-2.078L1.611,-8.044C1.382,-8.354 1.206,-8.56 1.085,-8.662C0.962,-8.764 0.779,-8.864 0.537,-8.961C0.418,-9.007 0.231,-9.039 -0.016,-9.056L0,-9.29Z" style="fill:rgb(44,80,140);fill-rule:nonzero;"/>
            </g>
        </g>
        <g transform="matrix(4.16667,0,0,4.16667,0,0)">
            <g transform="matrix(1,0,0,1,415.236,232.238)">
                <path d="M0,-7.791L-0.314,-4.877L-0.51,-4.912C-0.615,-5.819 -0.873,-6.504 -1.287,-6.968C-1.699,-7.432 -2.24,-7.724 -2.91,-7.841C-3.474,-7.94 -4.007,-7.887 -4.512,-7.683C-5.017,-7.477 -5.454,-7.085 -5.824,-6.506C-6.194,-5.926 -6.461,-5.171 -6.626,-4.245C-6.761,-3.478 -6.756,-2.791 -6.608,-2.186C-6.462,-1.58 -6.169,-1.083 -5.727,-0.695C-5.287,-0.31 -4.75,-0.059 -4.117,0.052C-3.566,0.15 -3.06,0.117 -2.599,-0.043C-2.135,-0.206 -1.591,-0.591 -0.962,-1.202L-0.791,-1.044C-1.35,-0.364 -1.941,0.1 -2.57,0.351C-3.198,0.601 -3.902,0.657 -4.683,0.52C-6.087,0.271 -7.081,-0.439 -7.668,-1.618C-8.105,-2.494 -8.233,-3.458 -8.048,-4.506C-7.9,-5.353 -7.572,-6.097 -7.068,-6.738C-6.565,-7.379 -5.945,-7.836 -5.213,-8.109C-4.479,-8.381 -3.718,-8.448 -2.932,-8.309C-2.318,-8.201 -1.742,-7.945 -1.198,-7.54C-1.041,-7.416 -0.923,-7.35 -0.848,-7.336C-0.734,-7.316 -0.631,-7.338 -0.533,-7.403C-0.405,-7.497 -0.302,-7.64 -0.219,-7.83L0,-7.791Z" style="fill:rgb(44,80,140);fill-rule:nonzero;"/>
            </g>
        </g>
        <g transform="matrix(4.16667,0,0,4.16667,0,0)">
            <g transform="matrix(1,0,0,1,418.348,225.443)">
                <path d="M0,8.813L-0.062,9.04L-3.623,8.087L-3.563,7.859L-3.268,7.938C-2.923,8.031 -2.647,7.996 -2.44,7.838C-2.306,7.734 -2.174,7.433 -2.039,6.934L-0.601,1.563C-0.488,1.143 -0.44,0.859 -0.457,0.709C-0.471,0.597 -0.531,0.486 -0.638,0.378C-0.791,0.233 -0.965,0.133 -1.162,0.079L-1.456,0L-1.396,-0.227L2.166,0.729L2.105,0.957L1.805,0.874C1.467,0.783 1.191,0.818 0.983,0.976C0.845,1.08 0.71,1.381 0.576,1.879L-0.862,7.249C-0.976,7.671 -1.023,7.955 -1.006,8.104C-0.992,8.217 -0.93,8.328 -0.819,8.436C-0.67,8.581 -0.497,8.68 -0.302,8.733L0,8.813Z" style="fill:rgb(44,80,140);fill-rule:nonzero;"/>
            </g>
        </g>
        <g transform="matrix(4.16667,0,0,4.16667,0,0)">
            <g transform="matrix(1,0,0,1,425.326,232.269)">
                <path d="M0,1.155L-0.114,-2.613L-2.76,0.095L0,1.155ZM-0.002,1.657L-3.111,0.464L-4.143,1.523C-4.398,1.783 -4.555,1.991 -4.613,2.145C-4.66,2.266 -4.643,2.396 -4.563,2.535C-4.48,2.672 -4.253,2.828 -3.876,3.005L-3.961,3.224L-6.489,2.254L-6.404,2.034C-6.047,2.104 -5.8,2.111 -5.666,2.052C-5.391,1.941 -5.021,1.64 -4.553,1.155L0.811,-4.372L1.019,-4.292L1.248,3.463C1.268,4.086 1.339,4.513 1.46,4.745C1.582,4.974 1.805,5.163 2.123,5.308L2.041,5.527L-1.129,4.312L-1.044,4.091C-0.72,4.199 -0.483,4.227 -0.336,4.179C-0.188,4.134 -0.089,4.043 -0.039,3.913C0.028,3.739 0.055,3.434 0.041,2.999L-0.002,1.657Z" style="fill:rgb(44,80,140);fill-rule:nonzero;"/>
            </g>
        </g>
        <g transform="matrix(4.16667,0,0,4.16667,0,0)">
            <g transform="matrix(1,0,0,1,436.565,238.732)">
                <path d="M0,-6.037L-1.305,-3.361L-1.515,-3.465C-1.332,-4.011 -1.257,-4.479 -1.285,-4.871C-1.313,-5.261 -1.447,-5.625 -1.688,-5.963C-1.929,-6.301 -2.223,-6.557 -2.572,-6.726C-2.969,-6.919 -3.354,-6.957 -3.73,-6.843C-4.105,-6.728 -4.37,-6.516 -4.52,-6.208C-4.635,-5.972 -4.658,-5.718 -4.589,-5.443C-4.491,-5.042 -4.117,-4.39 -3.463,-3.482C-2.93,-2.741 -2.581,-2.204 -2.418,-1.868C-2.256,-1.53 -2.171,-1.188 -2.164,-0.837C-2.16,-0.486 -2.231,-0.156 -2.383,0.151C-2.667,0.738 -3.142,1.133 -3.803,1.334C-4.463,1.536 -5.152,1.464 -5.867,1.115C-6.091,1.005 -6.294,0.886 -6.476,0.754C-6.585,0.678 -6.795,0.489 -7.106,0.188C-7.419,-0.111 -7.625,-0.287 -7.724,-0.334C-7.819,-0.382 -7.908,-0.388 -7.99,-0.358C-8.073,-0.33 -8.173,-0.23 -8.285,-0.065L-8.498,-0.167L-7.202,-2.821L-6.992,-2.717C-7.163,-2.115 -7.232,-1.634 -7.199,-1.277C-7.167,-0.919 -7.024,-0.566 -6.769,-0.215C-6.513,0.136 -6.182,0.411 -5.77,0.611C-5.295,0.842 -4.857,0.901 -4.459,0.784C-4.061,0.667 -3.778,0.439 -3.612,0.097C-3.519,-0.094 -3.478,-0.312 -3.488,-0.558C-3.497,-0.803 -3.572,-1.062 -3.712,-1.337C-3.805,-1.523 -4.091,-1.963 -4.571,-2.657C-5.053,-3.35 -5.38,-3.874 -5.551,-4.232C-5.723,-4.589 -5.815,-4.936 -5.83,-5.272C-5.846,-5.61 -5.774,-5.937 -5.618,-6.256C-5.348,-6.812 -4.901,-7.185 -4.281,-7.38C-3.659,-7.573 -3.019,-7.51 -2.361,-7.189C-1.95,-6.988 -1.564,-6.676 -1.202,-6.249C-1.036,-6.05 -0.908,-5.929 -0.821,-5.887C-0.722,-5.837 -0.626,-5.829 -0.535,-5.857C-0.444,-5.885 -0.336,-5.98 -0.21,-6.139L0,-6.037Z" style="fill:rgb(44,80,140);fill-rule:nonzero;"/>
            </g>
        </g>
        <g transform="matrix(4.16667,0,0,4.16667,0,0)">
            <g transform="matrix(1,0,0,1,442.391,244.323)">
                <path d="M0,-7.372L0.135,-7.563L3.154,-5.448L3.021,-5.258L2.765,-5.435C2.477,-5.637 2.208,-5.698 1.958,-5.622C1.796,-5.567 1.568,-5.331 1.271,-4.906L-1.14,-1.462C-1.513,-0.931 -1.87,-0.543 -2.217,-0.294C-2.563,-0.047 -2.964,0.101 -3.419,0.146C-3.874,0.191 -4.303,0.072 -4.706,-0.209C-5.031,-0.436 -5.23,-0.697 -5.307,-0.99C-5.38,-1.282 -5.346,-1.531 -5.198,-1.739C-5.079,-1.908 -4.947,-2.007 -4.8,-2.034C-4.611,-2.059 -4.439,-2.021 -4.286,-1.914C-4.175,-1.836 -4.102,-1.73 -4.064,-1.596C-4.025,-1.462 -4.05,-1.188 -4.137,-0.779C-4.188,-0.537 -4.151,-0.37 -4.025,-0.283C-3.933,-0.218 -3.805,-0.214 -3.645,-0.27C-3.481,-0.329 -3.3,-0.502 -3.097,-0.794L0.275,-5.606C0.524,-5.964 0.667,-6.215 0.702,-6.36C0.728,-6.471 0.708,-6.597 0.642,-6.737C0.55,-6.924 0.42,-7.076 0.256,-7.192L0,-7.372Z" style="fill:rgb(44,80,140);fill-rule:nonzero;"/>
            </g>
        </g>
        <g transform="matrix(4.16667,0,0,4.16667,0,0)">
            <g transform="matrix(1,0,0,1,450.938,245.964)">
                <path d="M0,-2.465L0.151,-2.645L2.484,-0.686L2.333,-0.507L2.086,-0.715C1.826,-0.933 1.536,-0.992 1.215,-0.892C1.062,-0.848 0.831,-0.643 0.523,-0.277L-1.719,2.397C-2.273,3.057 -2.77,3.515 -3.207,3.77C-3.645,4.024 -4.165,4.121 -4.767,4.059C-5.369,3.998 -6.002,3.69 -6.663,3.136C-7.382,2.531 -7.824,1.949 -7.987,1.388C-8.149,0.824 -8.132,0.267 -7.935,-0.286C-7.796,-0.66 -7.396,-1.245 -6.729,-2.038L-4.565,-4.614C-4.226,-5.02 -4.059,-5.334 -4.064,-5.552C-4.071,-5.774 -4.199,-5.988 -4.448,-6.198L-4.695,-6.406L-4.544,-6.586L-1.697,-4.194L-1.847,-4.014L-2.101,-4.227C-2.373,-4.456 -2.64,-4.532 -2.899,-4.459C-3.079,-4.411 -3.322,-4.2 -3.632,-3.832L-6.043,-0.96C-6.258,-0.703 -6.481,-0.389 -6.711,-0.019C-6.942,0.349 -7.072,0.679 -7.104,0.967C-7.138,1.255 -7.088,1.556 -6.956,1.87C-6.825,2.184 -6.592,2.484 -6.253,2.767C-5.822,3.129 -5.358,3.357 -4.86,3.456C-4.362,3.554 -3.929,3.509 -3.556,3.318C-3.186,3.129 -2.707,2.685 -2.119,1.985L0.121,-0.682C0.466,-1.093 0.637,-1.39 0.632,-1.57C0.626,-1.819 0.498,-2.047 0.249,-2.257L0,-2.465Z" style="fill:rgb(44,80,140);fill-rule:nonzero;"/>
            </g>
        </g>
        <g transform="matrix(4.16667,0,0,4.16667,0,0)">
            <g transform="matrix(1,0,0,1,452.894,253.687)">
                <path d="M0,-2.802C0.057,-2.743 0.104,-2.694 0.143,-2.65C0.182,-2.605 0.217,-2.571 0.243,-2.542C0.813,-1.952 1.369,-1.63 1.915,-1.577C2.461,-1.524 2.932,-1.689 3.325,-2.072C3.714,-2.445 3.911,-2.869 3.92,-3.344C3.928,-3.821 3.739,-4.258 3.354,-4.656C3.183,-4.832 2.923,-5.042 2.573,-5.289L0,-2.802ZM1.063,4.667L-0.533,3.013L0.338,-1.877C0.182,-2.027 0.059,-2.15 -0.037,-2.247C-0.074,-2.286 -0.115,-2.33 -0.158,-2.378C-0.199,-2.423 -0.243,-2.473 -0.288,-2.525L-2.087,-0.787C-2.477,-0.412 -2.676,-0.135 -2.689,0.041C-2.711,0.286 -2.611,0.524 -2.388,0.756L-2.154,0.998L-2.323,1.161L-4.884,-1.491L-4.715,-1.656L-4.489,-1.422C-4.236,-1.16 -3.972,-1.056 -3.692,-1.108C-3.536,-1.134 -3.28,-1.318 -2.928,-1.66L1.07,-5.521C1.46,-5.898 1.662,-6.174 1.673,-6.351C1.692,-6.598 1.588,-6.839 1.362,-7.075L1.138,-7.306L1.307,-7.469L3.483,-5.214C4.118,-4.557 4.539,-4.027 4.745,-3.621C4.951,-3.218 5.028,-2.782 4.983,-2.317C4.936,-1.851 4.734,-1.446 4.379,-1.101C3.997,-0.733 3.547,-0.54 3.029,-0.516C2.509,-0.495 1.939,-0.688 1.321,-1.097L0.78,1.897C0.654,2.582 0.626,3.095 0.695,3.436C0.763,3.774 0.942,4.131 1.232,4.504L1.063,4.667Z" style="fill:rgb(44,80,140);fill-rule:nonzero;"/>
            </g>
        </g>
        <g transform="matrix(4.16667,0,0,4.16667,0,0)">
            <g transform="matrix(1,0,0,1,456.376,253.387)">
                <path d="M0,7.989L-0.184,8.136L-2.505,5.27L-2.322,5.122L-2.13,5.358C-1.906,5.636 -1.664,5.77 -1.401,5.766C-1.232,5.759 -0.946,5.593 -0.546,5.267L3.776,1.768C4.115,1.495 4.32,1.292 4.395,1.161C4.45,1.062 4.466,0.936 4.444,0.787C4.405,0.579 4.322,0.395 4.195,0.237L4.002,0L4.185,-0.147L6.507,2.719L6.322,2.867L6.128,2.624C5.906,2.351 5.666,2.219 5.401,2.223C5.23,2.227 4.944,2.39 4.544,2.715L0.222,6.214C-0.117,6.489 -0.322,6.693 -0.398,6.823C-0.452,6.923 -0.468,7.049 -0.441,7.202C-0.407,7.408 -0.324,7.588 -0.197,7.746L0,7.989Z" style="fill:rgb(44,80,140);fill-rule:nonzero;"/>
            </g>
        </g>
        <g transform="matrix(4.16667,0,0,4.16667,0,0)">
            <g transform="matrix(1,0,0,1,458.547,261.358)">
                <path d="M0,2.334C0.193,2.85 0.391,3.259 0.587,3.565C1.123,4.388 1.855,4.884 2.786,5.051C3.716,5.218 4.679,4.98 5.666,4.338C6.665,3.69 7.273,2.908 7.497,1.992C7.718,1.075 7.554,0.191 7.001,-0.66C6.793,-0.979 6.505,-1.31 6.137,-1.65L0,2.334ZM-1.858,0.614L-1.661,0.486L-1.486,0.757C-1.287,1.062 -1.051,1.216 -0.771,1.216C-0.604,1.218 -0.315,1.086 0.094,0.822L4.754,-2.205C5.205,-2.498 5.456,-2.731 5.504,-2.905C5.571,-3.143 5.515,-3.401 5.337,-3.674L5.161,-3.945L5.358,-4.073L7.268,-1.135C7.967,-0.056 8.377,0.843 8.498,1.564C8.617,2.286 8.505,3.003 8.155,3.716C7.807,4.431 7.257,5.029 6.509,5.517C5.504,6.169 4.469,6.407 3.396,6.236C2.199,6.039 1.146,5.242 0.236,3.84L-1.858,0.614Z" style="fill:rgb(44,80,140);fill-rule:nonzero;"/>
            </g>
        </g>
        <g transform="matrix(4.16667,0,0,4.16667,0,0)">
            <g transform="matrix(1,0,0,1,463.565,266.204)">
                <path d="M0,6.978L-0.21,7.084L-1.883,3.8L-1.676,3.693L-1.536,3.964C-1.374,4.281 -1.166,4.465 -0.908,4.512C-0.741,4.543 -0.427,4.439 0.032,4.205L4.985,1.683C5.373,1.484 5.617,1.33 5.715,1.217C5.791,1.13 5.832,1.013 5.841,0.862C5.848,0.649 5.804,0.452 5.711,0.272L5.574,-0.001L5.782,-0.106L7.457,3.178L7.247,3.284L7.106,3.009C6.946,2.695 6.738,2.515 6.479,2.465C6.311,2.433 5.997,2.532 5.538,2.768L0.585,5.29C0.197,5.49 -0.046,5.644 -0.146,5.756C-0.221,5.843 -0.263,5.962 -0.27,6.118C-0.275,6.326 -0.234,6.521 -0.142,6.701L0,6.978Z" style="fill:rgb(44,80,140);fill-rule:nonzero;"/>
            </g>
        </g>
        <g transform="matrix(4.16667,0,0,4.16667,0,0)">
            <g transform="matrix(1,0,0,1,474.75,274.827)">
                <path d="M0,2.617L-2.642,3.895L-2.715,3.713C-2,3.141 -1.556,2.558 -1.381,1.963C-1.207,1.367 -1.246,0.754 -1.502,0.123C-1.717,-0.407 -2.044,-0.833 -2.485,-1.151C-2.928,-1.469 -3.491,-1.634 -4.18,-1.641C-4.866,-1.649 -5.648,-1.476 -6.522,-1.123C-7.246,-0.83 -7.824,-0.462 -8.26,-0.015C-8.695,0.429 -8.962,0.942 -9.058,1.521C-9.15,2.099 -9.079,2.688 -8.836,3.284C-8.628,3.802 -8.331,4.214 -7.95,4.522C-7.568,4.827 -6.951,5.084 -6.102,5.292L-6.145,5.525C-7.016,5.409 -7.725,5.154 -8.271,4.753C-8.816,4.352 -9.237,3.784 -9.534,3.053C-10.067,1.731 -9.991,0.506 -9.302,-0.614C-8.793,-1.45 -8.043,-2.07 -7.053,-2.468C-6.258,-2.791 -5.454,-2.908 -4.642,-2.819C-3.831,-2.733 -3.114,-2.449 -2.494,-1.972C-1.875,-1.493 -1.415,-0.884 -1.116,-0.144C-0.882,0.433 -0.796,1.059 -0.85,1.735C-0.869,1.934 -0.865,2.069 -0.837,2.14C-0.793,2.246 -0.72,2.322 -0.613,2.372C-0.466,2.431 -0.291,2.444 -0.085,2.411L0,2.617Z" style="fill:rgb(44,80,140);fill-rule:nonzero;"/>
            </g>
        </g>
        <g transform="matrix(4.16667,0,0,4.16667,0,0)">
            <g transform="matrix(1,0,0,1,471.675,285.838)">
                <path d="M0,0.329L2.942,-2.033L-0.814,-2.514L0,0.329ZM-0.401,0.63L-1.319,-2.574L-2.786,-2.761C-3.148,-2.807 -3.406,-2.806 -3.566,-2.761C-3.692,-2.726 -3.785,-2.633 -3.846,-2.485C-3.906,-2.338 -3.896,-2.061 -3.809,-1.656L-4.034,-1.591L-4.781,-4.195L-4.557,-4.26C-4.396,-3.931 -4.253,-3.732 -4.125,-3.658C-3.872,-3.506 -3.408,-3.389 -2.738,-3.309L4.903,-2.352L4.964,-2.137L-1.09,2.714C-1.577,3.104 -1.876,3.418 -1.986,3.655C-2.098,3.891 -2.114,4.181 -2.036,4.523L-2.264,4.589L-3.198,1.325L-2.973,1.26C-2.862,1.585 -2.743,1.793 -2.617,1.882C-2.489,1.971 -2.359,1.995 -2.225,1.958C-2.048,1.906 -1.787,1.744 -1.447,1.471L-0.401,0.63Z" style="fill:rgb(44,80,140);fill-rule:nonzero;"/>
            </g>
        </g>
        <g transform="matrix(4.16667,0,0,4.16667,0,0)">
            <g transform="matrix(1,0,0,1,479.142,292.023)">
                <path d="M0,2.792L-2.921,3.36L-2.967,3.13C-2.421,2.946 -2,2.726 -1.705,2.467C-1.411,2.21 -1.2,1.882 -1.075,1.488C-0.949,1.094 -0.924,0.704 -0.997,0.322C-1.081,-0.111 -1.283,-0.442 -1.602,-0.672C-1.92,-0.904 -2.247,-0.986 -2.583,-0.921C-2.841,-0.871 -3.06,-0.737 -3.235,-0.516C-3.497,-0.198 -3.794,0.496 -4.126,1.564C-4.395,2.435 -4.615,3.037 -4.784,3.371C-4.955,3.702 -5.179,3.978 -5.456,4.192C-5.733,4.407 -6.041,4.547 -6.377,4.613C-7.017,4.738 -7.616,4.597 -8.175,4.19C-8.734,3.785 -9.092,3.191 -9.243,2.409C-9.291,2.164 -9.317,1.93 -9.321,1.707C-9.326,1.575 -9.302,1.293 -9.25,0.862C-9.197,0.433 -9.181,0.162 -9.202,0.056C-9.222,-0.048 -9.27,-0.124 -9.343,-0.174C-9.419,-0.221 -9.556,-0.241 -9.757,-0.232L-9.801,-0.462L-6.903,-1.025L-6.86,-0.795C-7.445,-0.568 -7.87,-0.336 -8.137,-0.093C-8.4,0.147 -8.598,0.474 -8.724,0.89C-8.849,1.304 -8.868,1.735 -8.782,2.184C-8.682,2.704 -8.464,3.087 -8.132,3.334C-7.798,3.584 -7.445,3.67 -7.072,3.599C-6.864,3.557 -6.665,3.46 -6.477,3.304C-6.286,3.147 -6.124,2.934 -5.987,2.656C-5.894,2.469 -5.716,1.976 -5.452,1.174C-5.188,0.374 -4.965,-0.204 -4.782,-0.555C-4.601,-0.908 -4.379,-1.19 -4.119,-1.404C-3.859,-1.619 -3.556,-1.76 -3.207,-1.829C-2.601,-1.946 -2.033,-1.816 -1.504,-1.435C-0.976,-1.056 -0.642,-0.505 -0.501,0.212C-0.414,0.661 -0.432,1.159 -0.555,1.703C-0.613,1.956 -0.633,2.131 -0.613,2.227C-0.594,2.333 -0.544,2.416 -0.466,2.472C-0.388,2.528 -0.247,2.559 -0.046,2.561L0,2.792Z" style="fill:rgb(44,80,140);fill-rule:nonzero;"/>
            </g>
        </g>
        <g transform="matrix(4.16667,0,0,4.16667,0,0)">
            <g transform="matrix(1,0,0,1,322.579,330.989)">
                <path d="M0,1.899L0.219,1.814L1.311,4.657L1.092,4.742L0.978,4.44C0.856,4.124 0.628,3.931 0.299,3.864C0.145,3.827 -0.154,3.894 -0.6,4.066L-3.859,5.318C-4.665,5.626 -5.319,5.786 -5.826,5.796C-6.331,5.807 -6.833,5.64 -7.33,5.294C-7.828,4.947 -8.231,4.372 -8.541,3.567C-8.877,2.69 -8.98,1.966 -8.851,1.396C-8.721,0.824 -8.437,0.345 -7.995,-0.04C-7.691,-0.302 -7.057,-0.619 -6.09,-0.99L-2.951,-2.197C-2.457,-2.384 -2.158,-2.578 -2.059,-2.773C-1.957,-2.967 -1.963,-3.216 -2.08,-3.522L-2.195,-3.824L-1.976,-3.908L-0.644,-0.437L-0.862,-0.352L-0.981,-0.66C-1.109,-0.992 -1.305,-1.189 -1.569,-1.251C-1.749,-1.295 -2.063,-1.23 -2.514,-1.059L-6.015,0.287C-6.327,0.406 -6.673,0.571 -7.055,0.783C-7.434,0.996 -7.709,1.218 -7.876,1.457C-8.042,1.693 -8.146,1.979 -8.184,2.319C-8.223,2.657 -8.162,3.032 -8.003,3.441C-7.802,3.968 -7.507,4.393 -7.12,4.72C-6.731,5.047 -6.329,5.218 -5.913,5.231C-5.497,5.247 -4.864,5.09 -4.01,4.763L-0.758,3.515C-0.258,3.323 0.037,3.147 0.119,2.989C0.234,2.768 0.234,2.505 0.117,2.2L0,1.899Z" style="fill:rgb(44,80,140);fill-rule:nonzero;"/>
            </g>
        </g>
        <g transform="matrix(4.16667,0,0,4.16667,0,0)">
            <g transform="matrix(1,0,0,1,323.751,346.697)">
                <path d="M0,-11.163L1.024,-9.063L-2.47,-1.507L1.991,-3.682C2.465,-3.914 2.736,-4.11 2.804,-4.275C2.894,-4.494 2.864,-4.757 2.717,-5.059L2.586,-5.328L2.797,-5.43L4.11,-2.739L3.899,-2.635L3.765,-2.91C3.605,-3.235 3.395,-3.42 3.128,-3.461C2.966,-3.484 2.669,-3.392 2.236,-3.18L-4.286,0L-4.386,-0.204L-0.644,-8.342L-5.406,-6.019C-5.88,-5.788 -6.154,-5.593 -6.221,-5.433C-6.31,-5.209 -6.281,-4.947 -6.134,-4.648L-6.002,-4.373L-6.212,-4.271L-7.525,-6.964L-7.315,-7.066L-7.185,-6.798C-7.022,-6.468 -6.81,-6.281 -6.546,-6.24C-6.383,-6.217 -6.084,-6.309 -5.651,-6.522L-0.271,-9.146C-0.12,-9.497 -0.029,-9.753 -0.002,-9.908C0.026,-10.066 0.02,-10.275 -0.018,-10.535C-0.037,-10.66 -0.1,-10.836 -0.21,-11.061L0,-11.163Z" style="fill:rgb(44,80,140);fill-rule:nonzero;"/>
            </g>
        </g>
        <g transform="matrix(4.16667,0,0,4.16667,0,0)">
            <g transform="matrix(1,0,0,1,323.132,344.269)">
                <path d="M0,7.436L-0.199,7.562L-2.153,4.435L-1.954,4.309L-1.792,4.567C-1.605,4.871 -1.38,5.033 -1.118,5.059C-0.951,5.074 -0.647,4.945 -0.21,4.671L4.505,1.725C4.875,1.495 5.105,1.32 5.194,1.198C5.261,1.107 5.292,0.984 5.287,0.832C5.274,0.622 5.215,0.429 5.107,0.257L4.945,-0.002L5.144,-0.126L7.098,3L6.899,3.126L6.734,2.862C6.548,2.563 6.325,2.403 6.065,2.374C5.894,2.357 5.588,2.485 5.15,2.758L0.436,5.705C0.068,5.937 -0.162,6.112 -0.251,6.231C-0.318,6.325 -0.349,6.448 -0.342,6.602C-0.331,6.81 -0.273,7 -0.165,7.173L0,7.436Z" style="fill:rgb(44,80,140);fill-rule:nonzero;"/>
            </g>
        </g>
        <g transform="matrix(4.16667,0,0,4.16667,0,0)">
            <g transform="matrix(1,0,0,1,335.786,349.55)">
                <path d="M0,5.143L-0.186,5.287C-0.416,5.08 -0.635,4.959 -0.841,4.922C-1.144,4.872 -1.514,4.912 -1.958,5.038L-9.577,7.18L-9.722,6.996L-5.861,-0.111C-5.661,-0.474 -5.551,-0.711 -5.525,-0.815C-5.488,-0.979 -5.486,-1.144 -5.523,-1.313C-5.56,-1.48 -5.65,-1.673 -5.796,-1.892L-5.61,-2.037L-3.447,0.732L-3.631,0.877C-3.906,0.587 -4.119,0.426 -4.268,0.392C-4.418,0.36 -4.552,0.389 -4.671,0.483C-4.838,0.613 -5.04,0.893 -5.271,1.322L-7.899,6.153L-2.726,4.686C-2.216,4.541 -1.887,4.409 -1.735,4.292C-1.64,4.216 -1.584,4.097 -1.573,3.93C-1.56,3.765 -1.625,3.553 -1.768,3.292C-1.777,3.274 -1.794,3.244 -1.818,3.198L-1.633,3.052L0,5.143Z" style="fill:rgb(44,80,140);fill-rule:nonzero;"/>
            </g>
        </g>
        <g transform="matrix(4.16667,0,0,4.16667,0,0)">
            <g transform="matrix(1,0,0,1,337.273,363.58)">
                <path d="M0,-6.493L-2.487,-4.173L-1.198,-2.79C-0.862,-2.43 -0.584,-2.242 -0.364,-2.222C-0.071,-2.194 0.263,-2.338 0.64,-2.654L0.8,-2.482L-1.391,-0.439L-1.551,-0.61C-1.287,-0.94 -1.13,-1.167 -1.083,-1.291C-1.027,-1.447 -1.027,-1.618 -1.083,-1.802C-1.139,-1.988 -1.291,-2.212 -1.536,-2.474L-2.825,-3.858L-4.901,-1.924C-5.178,-1.663 -5.336,-1.492 -5.375,-1.412C-5.412,-1.33 -5.418,-1.243 -5.397,-1.147C-5.375,-1.053 -5.282,-0.918 -5.122,-0.745L-4.125,0.323C-3.793,0.679 -3.529,0.913 -3.33,1.028C-3.128,1.143 -2.888,1.207 -2.604,1.22C-2.234,1.234 -1.761,1.159 -1.187,0.999L-1.014,1.186L-3.098,2.112L-7.62,-2.736L-7.449,-2.896L-7.241,-2.674C-7.102,-2.526 -6.935,-2.418 -6.74,-2.35C-6.597,-2.299 -6.461,-2.301 -6.328,-2.357C-6.196,-2.413 -5.978,-2.585 -5.672,-2.87L-1.581,-6.683C-1.183,-7.055 -0.975,-7.325 -0.958,-7.492C-0.938,-7.72 -1.048,-7.962 -1.291,-8.222L-1.499,-8.445L-1.326,-8.605L3.196,-3.755L1.883,-2.4L1.714,-2.58C1.985,-2.955 2.145,-3.239 2.195,-3.433C2.245,-3.627 2.23,-3.833 2.152,-4.047C2.083,-4.214 1.903,-4.454 1.61,-4.766L0,-6.493Z" style="fill:rgb(44,80,140);fill-rule:nonzero;"/>
            </g>
        </g>
        <g transform="matrix(4.16667,0,0,4.16667,0,0)">
            <g transform="matrix(1,0,0,1,340.417,368.02)">
                <path d="M0,-2.63C0.058,-2.576 0.11,-2.528 0.151,-2.487C0.195,-2.446 0.229,-2.413 0.258,-2.388C0.869,-1.84 1.447,-1.556 1.995,-1.542C2.541,-1.527 3,-1.725 3.369,-2.132C3.729,-2.532 3.896,-2.97 3.869,-3.444C3.846,-3.919 3.626,-4.342 3.215,-4.712C3.033,-4.877 2.758,-5.069 2.394,-5.291L0,-2.63ZM1.582,4.747L-0.126,3.209L0.4,-1.731C0.236,-1.867 0.102,-1.983 0.002,-2.073C-0.039,-2.11 -0.083,-2.151 -0.128,-2.194C-0.176,-2.238 -0.221,-2.285 -0.269,-2.333L-1.941,-0.475C-2.303,-0.073 -2.485,0.217 -2.485,0.394C-2.49,0.64 -2.373,0.871 -2.134,1.086L-1.885,1.311L-2.041,1.484L-4.782,-0.982L-4.624,-1.157L-4.383,-0.941C-4.112,-0.697 -3.842,-0.61 -3.566,-0.683C-3.413,-0.719 -3.172,-0.921 -2.843,-1.286L0.877,-5.416C1.239,-5.819 1.421,-6.11 1.421,-6.285C1.423,-6.534 1.302,-6.769 1.06,-6.987L0.819,-7.204L0.977,-7.377L3.306,-5.28C3.987,-4.669 4.441,-4.168 4.675,-3.778C4.907,-3.389 5.018,-2.961 5.002,-2.493C4.99,-2.024 4.816,-1.608 4.485,-1.239C4.131,-0.845 3.696,-0.619 3.178,-0.561C2.663,-0.503 2.082,-0.656 1.437,-1.021L1.104,2.002C1.027,2.695 1.034,3.209 1.126,3.543C1.22,3.876 1.423,4.221 1.737,4.572L1.582,4.747Z" style="fill:rgb(44,80,140);fill-rule:nonzero;"/>
            </g>
        </g>
        <g transform="matrix(4.16667,0,0,4.16667,0,0)">
            <g transform="matrix(1,0,0,1,352.454,373.784)">
                <path d="M0,-4.534L-1.749,-2.127L-1.939,-2.263C-1.666,-2.77 -1.508,-3.219 -1.469,-3.608C-1.428,-3.999 -1.497,-4.38 -1.675,-4.755C-1.853,-5.13 -2.1,-5.43 -2.414,-5.66C-2.769,-5.918 -3.144,-6.024 -3.534,-5.974C-3.924,-5.927 -4.221,-5.764 -4.422,-5.487C-4.576,-5.274 -4.643,-5.027 -4.622,-4.746C-4.597,-4.337 -4.34,-3.626 -3.854,-2.62C-3.458,-1.797 -3.209,-1.208 -3.104,-0.848C-3.003,-0.488 -2.979,-0.136 -3.035,0.211C-3.092,0.558 -3.22,0.87 -3.421,1.148C-3.804,1.674 -4.337,1.98 -5.024,2.064C-5.711,2.149 -6.376,1.957 -7.02,1.489C-7.221,1.343 -7.401,1.189 -7.555,1.029C-7.65,0.936 -7.824,0.712 -8.079,0.363C-8.335,0.012 -8.506,-0.196 -8.595,-0.262C-8.682,-0.322 -8.768,-0.346 -8.855,-0.33C-8.941,-0.315 -9.057,-0.235 -9.197,-0.092L-9.386,-0.23L-7.653,-2.618L-7.462,-2.479C-7.737,-1.914 -7.889,-1.455 -7.917,-1.097C-7.947,-0.74 -7.867,-0.365 -7.676,0.023C-7.486,0.413 -7.206,0.742 -6.836,1.011C-6.409,1.32 -5.988,1.455 -5.577,1.409C-5.163,1.362 -4.847,1.187 -4.622,0.879C-4.498,0.707 -4.42,0.499 -4.388,0.257C-4.355,0.014 -4.383,-0.255 -4.472,-0.549C-4.53,-0.749 -4.736,-1.231 -5.089,-1.998C-5.442,-2.765 -5.672,-3.34 -5.781,-3.721C-5.887,-4.102 -5.919,-4.46 -5.874,-4.794C-5.83,-5.127 -5.705,-5.439 -5.495,-5.725C-5.133,-6.225 -4.628,-6.515 -3.982,-6.598C-3.337,-6.683 -2.717,-6.508 -2.125,-6.078C-1.755,-5.81 -1.43,-5.435 -1.148,-4.952C-1.018,-4.726 -0.914,-4.586 -0.834,-4.529C-0.745,-4.465 -0.654,-4.438 -0.559,-4.449C-0.463,-4.462 -0.34,-4.536 -0.19,-4.673L0,-4.534Z" style="fill:rgb(44,80,140);fill-rule:nonzero;"/>
            </g>
        </g>
        <g transform="matrix(4.16667,0,0,4.16667,0,0)">
            <g transform="matrix(1,0,0,1,352.477,370.54)">
                <path d="M0,8.874L-0.121,9.076L-3.282,7.176L-3.161,6.975L-2.901,7.13C-2.595,7.314 -2.32,7.357 -2.076,7.263C-1.919,7.199 -1.707,6.945 -1.443,6.504L1.422,1.737C1.646,1.364 1.771,1.103 1.796,0.955C1.813,0.843 1.786,0.719 1.714,0.587C1.605,0.404 1.465,0.26 1.292,0.155L1.029,0L1.15,-0.202L4.312,1.696L4.19,1.897L3.924,1.737C3.623,1.558 3.35,1.514 3.105,1.609C2.944,1.67 2.732,1.924 2.466,2.365L-0.396,7.133C-0.622,7.505 -0.748,7.767 -0.771,7.914C-0.789,8.027 -0.76,8.15 -0.683,8.285C-0.581,8.467 -0.439,8.607 -0.267,8.714L0,8.874Z" style="fill:rgb(44,80,140);fill-rule:nonzero;"/>
            </g>
        </g>
        <g transform="matrix(4.16667,0,0,4.16667,0,0)">
            <g transform="matrix(1,0,0,1,355.922,374.563)">
                <path d="M0,6.117C0.427,6.468 0.799,6.723 1.125,6.89C2,7.335 2.881,7.397 3.77,7.077C4.661,6.757 5.373,6.071 5.908,5.018C6.448,3.959 6.586,2.977 6.32,2.074C6.054,1.169 5.468,0.486 4.565,0.026C4.225,-0.147 3.811,-0.29 3.321,-0.401L0,6.117ZM-2.47,5.557L-2.362,5.347L-2.073,5.495C-1.751,5.66 -1.467,5.673 -1.227,5.534C-1.079,5.454 -0.897,5.196 -0.676,4.763L1.848,-0.191C2.091,-0.669 2.193,-0.996 2.147,-1.169C2.084,-1.41 1.909,-1.605 1.619,-1.752L1.33,-1.9L1.436,-2.11L4.559,-0.52C5.703,0.065 6.508,0.639 6.975,1.203C7.438,1.768 7.698,2.446 7.752,3.238C7.807,4.03 7.631,4.823 7.226,5.619C6.684,6.686 5.904,7.413 4.892,7.799C3.757,8.227 2.446,8.06 0.958,7.303L-2.47,5.557Z" style="fill:rgb(44,80,140);fill-rule:nonzero;"/>
            </g>
        </g>
        <g transform="matrix(4.16667,0,0,4.16667,0,0)">
            <g transform="matrix(1,0,0,1,368.807,382.022)">
                <path d="M0,1.258L-0.247,-2.508L-2.797,0.294L0,1.258ZM0.016,1.759L-3.135,0.675L-4.129,1.768C-4.374,2.038 -4.524,2.251 -4.578,2.406C-4.619,2.53 -4.597,2.66 -4.513,2.794C-4.426,2.929 -4.192,3.078 -3.811,3.24L-3.887,3.462L-6.45,2.58L-6.372,2.359C-6.012,2.415 -5.766,2.413 -5.633,2.353C-5.362,2.229 -5.002,1.917 -4.552,1.414L0.618,-4.297L0.828,-4.223L1.329,3.521C1.37,4.142 1.454,4.567 1.584,4.792C1.716,5.02 1.944,5.199 2.269,5.334L2.191,5.555L-1.018,4.449L-0.942,4.229C-0.613,4.324 -0.375,4.346 -0.229,4.291C-0.084,4.239 0.011,4.147 0.057,4.017C0.117,3.839 0.135,3.533 0.104,3.098L0.016,1.759Z" style="fill:rgb(44,80,140);fill-rule:nonzero;"/>
            </g>
        </g>
        <g transform="matrix(4.16667,0,0,4.16667,0,0)">
            <g transform="matrix(1,0,0,1,374.537,380.739)">
                <path d="M0,6.994C0.492,7.241 0.917,7.405 1.268,7.494C2.221,7.732 3.094,7.594 3.89,7.083C4.685,6.569 5.226,5.739 5.51,4.596C5.798,3.44 5.711,2.452 5.248,1.632C4.787,0.81 4.063,0.277 3.077,0.03C2.708,-0.061 2.273,-0.107 1.771,-0.107L0,6.994ZM-2.535,7.005L-2.476,6.777L-2.162,6.855C-1.809,6.942 -1.532,6.892 -1.328,6.703C-1.202,6.591 -1.083,6.299 -0.964,5.826L0.382,0.431C0.512,-0.091 0.535,-0.431 0.453,-0.592C0.338,-0.813 0.122,-0.962 -0.195,-1.04L-0.509,-1.118L-0.453,-1.346L2.947,-0.498C4.195,-0.189 5.109,0.19 5.69,0.637C6.271,1.081 6.676,1.683 6.908,2.443C7.14,3.204 7.146,4.016 6.929,4.884C6.641,6.045 6.045,6.929 5.144,7.531C4.137,8.205 2.819,8.34 1.198,7.934L-2.535,7.005Z" style="fill:rgb(44,80,140);fill-rule:nonzero;"/>
            </g>
        </g>
        <g transform="matrix(4.16667,0,0,4.16667,0,0)">
            <g transform="matrix(1,0,0,1,387.147,382.622)">
                <path d="M0,7.282C0.526,7.447 0.968,7.544 1.333,7.577C2.31,7.661 3.15,7.39 3.856,6.76C4.561,6.127 4.966,5.225 5.067,4.049C5.172,2.864 4.931,1.902 4.346,1.163C3.761,0.425 2.962,0.011 1.95,-0.078C1.571,-0.111 1.133,-0.087 0.639,-0.009L0,7.282ZM-2.5,7.687L-2.479,7.453L-2.158,7.481C-1.794,7.513 -1.527,7.421 -1.356,7.202C-1.25,7.069 -1.177,6.761 -1.135,6.276L-0.65,0.738C-0.603,0.203 -0.633,-0.137 -0.739,-0.282C-0.886,-0.482 -1.125,-0.596 -1.447,-0.624L-1.77,-0.653L-1.751,-0.886L1.74,-0.581C3.021,-0.468 3.982,-0.239 4.626,0.112C5.269,0.462 5.763,0.992 6.11,1.707C6.459,2.42 6.593,3.221 6.515,4.112C6.411,5.303 5.96,6.27 5.165,7.007C4.275,7.83 2.996,8.168 1.33,8.022L-2.5,7.687Z" style="fill:rgb(44,80,140);fill-rule:nonzero;"/>
            </g>
        </g>
        <g transform="matrix(4.16667,0,0,4.16667,0,0)">
            <g transform="matrix(1,0,0,1,396.758,390.369)">
                <path d="M0,-7.568L0.181,-4.171L2.067,-4.27C2.56,-4.295 2.882,-4.385 3.038,-4.544C3.248,-4.749 3.353,-5.098 3.352,-5.589L3.588,-5.6L3.744,-2.608L3.51,-2.597C3.428,-3.011 3.354,-3.278 3.289,-3.393C3.207,-3.536 3.075,-3.646 2.897,-3.722C2.72,-3.797 2.45,-3.826 2.093,-3.806L0.204,-3.707L0.352,-0.875C0.373,-0.494 0.401,-0.264 0.44,-0.184C0.477,-0.101 0.54,-0.041 0.627,0.004C0.713,0.048 0.876,0.063 1.111,0.052L2.57,-0.026C3.056,-0.049 3.406,-0.101 3.623,-0.182C3.84,-0.26 4.043,-0.405 4.236,-0.615C4.485,-0.89 4.732,-1.299 4.979,-1.841L5.232,-1.854L4.604,0.338L-2.019,0.687L-2.032,0.451L-1.727,0.436C-1.525,0.425 -1.334,0.367 -1.159,0.26C-1.027,0.185 -0.94,0.078 -0.899,-0.058C-0.858,-0.197 -0.847,-0.474 -0.869,-0.892L-1.161,-6.478C-1.191,-7.022 -1.263,-7.356 -1.38,-7.477C-1.54,-7.637 -1.798,-7.709 -2.153,-7.689L-2.457,-7.674L-2.47,-7.908L4.154,-8.255L4.347,-6.379L4.1,-6.365C3.987,-6.812 3.872,-7.117 3.758,-7.282C3.641,-7.444 3.474,-7.566 3.257,-7.644C3.086,-7.698 2.786,-7.714 2.36,-7.691L0,-7.568Z" style="fill:rgb(44,80,140);fill-rule:nonzero;"/>
            </g>
        </g>
        <g transform="matrix(4.16667,0,0,4.16667,0,0)">
            <g transform="matrix(1,0,0,1,410.23,385.498)">
                <path d="M0,0.791L-2.098,-2.346L-2.903,1.354L0,0.791ZM0.265,1.218L-3.007,1.853L-3.321,3.298C-3.399,3.653 -3.421,3.913 -3.391,4.073C-3.364,4.204 -3.282,4.304 -3.142,4.379C-2.999,4.453 -2.721,4.464 -2.31,4.414L-2.264,4.644L-4.925,5.161L-4.97,4.932C-4.628,4.799 -4.415,4.674 -4.331,4.555C-4.157,4.313 -4.002,3.863 -3.863,3.202L-2.242,-4.329L-2.025,-4.37L2.282,2.087C2.629,2.604 2.914,2.93 3.14,3.06C3.365,3.191 3.653,3.233 4.002,3.187L4.048,3.417L0.713,4.065L0.67,3.835C1.001,3.753 1.218,3.653 1.317,3.534C1.417,3.415 1.454,3.287 1.429,3.15C1.394,2.969 1.253,2.695 1.01,2.334L0.265,1.218Z" style="fill:rgb(44,80,140);fill-rule:nonzero;"/>
            </g>
        </g>
        <g transform="matrix(4.16667,0,0,4.16667,0,0)">
            <g transform="matrix(1,0,0,1,412.585,386.193)">
                <path d="M0,-5.559L2.245,-6.202L9.081,-1.449L7.714,-6.219C7.568,-6.727 7.421,-7.028 7.27,-7.122C7.07,-7.248 6.808,-7.266 6.483,-7.173L6.197,-7.09L6.132,-7.316L9.012,-8.141L9.076,-7.916L8.782,-7.831C8.433,-7.732 8.214,-7.554 8.13,-7.303C8.077,-7.147 8.116,-6.837 8.251,-6.373L10.251,0.599L10.029,0.662L2.668,-4.434L4.128,0.66C4.272,1.167 4.418,1.467 4.565,1.563C4.77,1.689 5.031,1.707 5.352,1.615L5.645,1.531L5.709,1.755L2.83,2.582L2.765,2.356L3.053,2.274C3.406,2.172 3.625,1.994 3.712,1.741C3.764,1.587 3.723,1.277 3.591,0.813L1.941,-4.939C1.621,-5.152 1.385,-5.284 1.235,-5.338C1.086,-5.392 0.88,-5.424 0.617,-5.431C0.49,-5.435 0.306,-5.403 0.065,-5.333L0,-5.559Z" style="fill:rgb(44,80,140);fill-rule:nonzero;"/>
            </g>
        </g>
        <g transform="matrix(4.16667,0,0,4.16667,0,0)">
            <g transform="matrix(1,0,0,1,428.399,385.194)">
                <path d="M0,-9.993L0.843,-8.155L0.619,-8.067C0.444,-8.379 0.29,-8.592 0.158,-8.702C-0.057,-8.88 -0.286,-8.981 -0.531,-9.01C-0.776,-9.035 -1.063,-8.981 -1.394,-8.847L-2.518,-8.393L-0.055,-2.297C0.143,-1.805 0.32,-1.521 0.477,-1.443C0.691,-1.337 0.953,-1.348 1.263,-1.473L1.54,-1.587L1.629,-1.368L-1.755,0L-1.844,-0.22L-1.561,-0.332C-1.225,-0.469 -1.025,-0.668 -0.967,-0.928C-0.932,-1.089 -1.004,-1.393 -1.186,-1.84L-3.646,-7.936L-4.606,-7.549C-4.979,-7.399 -5.232,-7.265 -5.369,-7.146C-5.543,-6.99 -5.659,-6.775 -5.718,-6.505C-5.778,-6.233 -5.748,-5.913 -5.632,-5.541L-5.854,-5.452L-6.516,-7.36L0,-9.993Z" style="fill:rgb(44,80,140);fill-rule:nonzero;"/>
            </g>
        </g>
        <g transform="matrix(4.16667,0,0,4.16667,0,0)">
            <g transform="matrix(1,0,0,1,432.836,380.392)">
                <path d="M0,-7.174C-0.687,-6.825 -1.106,-6.29 -1.263,-5.57C-1.455,-4.674 -1.241,-3.614 -0.619,-2.395C0.018,-1.142 0.776,-0.317 1.655,0.086C2.327,0.389 3.001,0.368 3.675,0.026C4.396,-0.343 4.847,-0.925 5.029,-1.727C5.213,-2.527 4.997,-3.531 4.379,-4.741C3.712,-6.054 2.956,-6.901 2.111,-7.282C1.435,-7.584 0.73,-7.547 0,-7.174M-0.104,-7.642C0.893,-8.149 1.946,-8.209 3.063,-7.826C4.176,-7.443 5.021,-6.684 5.597,-5.553C6.19,-4.39 6.316,-3.235 5.972,-2.093C5.63,-0.949 4.937,-0.111 3.892,0.42C2.837,0.96 1.758,1.035 0.659,0.652C-0.441,0.266 -1.295,-0.521 -1.902,-1.712C-2.521,-2.93 -2.615,-4.134 -2.178,-5.326C-1.796,-6.36 -1.104,-7.131 -0.104,-7.642" style="fill:rgb(44,80,140);fill-rule:nonzero;"/>
            </g>
        </g>
        <g transform="matrix(4.16667,0,0,4.16667,0,0)">
            <g transform="matrix(1,0,0,1,439.039,375.277)">
                <path d="M0,-5.61L1.842,-2.772L3.156,-3.626C3.457,-3.823 3.635,-4.033 3.689,-4.256C3.743,-4.481 3.666,-4.804 3.455,-5.229L3.652,-5.357L5.239,-2.913L5.041,-2.786C4.857,-3.062 4.686,-3.247 4.532,-3.331C4.379,-3.418 4.218,-3.455 4.054,-3.442C3.889,-3.426 3.686,-3.342 3.444,-3.186L2.13,-2.333L3.601,-0.064C3.839,0.302 4.019,0.528 4.14,0.615C4.233,0.682 4.359,0.709 4.513,0.699C4.726,0.682 4.916,0.619 5.085,0.508L5.347,0.339L5.475,0.536L2.376,2.546L2.248,2.35L2.504,2.185C2.803,1.993 2.962,1.765 2.983,1.502C2.996,1.333 2.861,1.033 2.58,0.599L-0.449,-4.063C-0.686,-4.427 -0.865,-4.655 -0.988,-4.742C-1.082,-4.806 -1.203,-4.837 -1.354,-4.829C-1.563,-4.815 -1.753,-4.753 -1.927,-4.637L-2.183,-4.473L-2.311,-4.671L3.059,-8.156L4.16,-6.616L3.973,-6.495C3.661,-6.772 3.393,-6.95 3.17,-7.027C2.944,-7.108 2.719,-7.123 2.493,-7.078C2.269,-7.032 1.967,-6.886 1.593,-6.644L0,-5.61Z" style="fill:rgb(44,80,140);fill-rule:nonzero;"/>
            </g>
        </g>
        <g transform="matrix(4.16667,0,0,4.16667,0,0)">
            <g transform="matrix(1,0,0,1,449.369,370.497)">
                <path d="M0,-2.564L-3.323,-4.349L-2.299,-0.703L0,-2.564ZM0.433,-2.31L-2.156,-0.212L-1.755,1.21C-1.655,1.559 -1.556,1.8 -1.452,1.928C-1.37,2.03 -1.248,2.08 -1.088,2.08C-0.928,2.078 -0.679,1.958 -0.338,1.72L-0.188,1.902L-2.297,3.607L-2.444,3.425C-2.203,3.15 -2.076,2.94 -2.057,2.794C-2.018,2.5 -2.091,2.03 -2.277,1.379L-4.383,-6.031L-4.21,-6.171L2.624,-2.492C3.174,-2.195 3.579,-2.043 3.839,-2.035C4.102,-2.024 4.374,-2.122 4.66,-2.328L4.808,-2.145L2.169,-0.006L2.021,-0.189C2.277,-0.418 2.42,-0.609 2.452,-0.76C2.485,-0.913 2.459,-1.043 2.37,-1.151C2.253,-1.296 2.002,-1.469 1.618,-1.675L0.433,-2.31Z" style="fill:rgb(44,80,140);fill-rule:nonzero;"/>
            </g>
        </g>
        <g transform="matrix(4.16667,0,0,4.16667,0,0)">
            <g transform="matrix(1,0,0,1,453.834,365.895)">
                <path d="M0,-9.932L2.139,-8.243L1.987,-8.079C1.339,-8.379 0.768,-8.513 0.275,-8.487C-0.436,-8.451 -1.066,-8.138 -1.614,-7.551C-2.361,-6.749 -2.613,-5.844 -2.368,-4.834C-2.158,-3.985 -1.686,-3.216 -0.944,-2.527C-0.345,-1.968 0.313,-1.574 1.022,-1.344C1.733,-1.114 2.381,-1.079 2.962,-1.24C3.543,-1.402 4.018,-1.679 4.388,-2.076C4.604,-2.308 4.784,-2.559 4.927,-2.83C5.069,-3.103 5.179,-3.391 5.25,-3.699L3.432,-5.396C3.115,-5.69 2.886,-5.859 2.745,-5.903C2.603,-5.946 2.459,-5.939 2.314,-5.887C2.169,-5.835 1.979,-5.681 1.742,-5.428L1.566,-5.593L3.837,-8.028L4.015,-7.864L3.906,-7.748C3.682,-7.506 3.607,-7.265 3.684,-7.027C3.742,-6.858 3.938,-6.615 4.275,-6.301L6.201,-4.505C6.063,-3.969 5.874,-3.489 5.643,-3.058C5.408,-2.628 5.094,-2.202 4.697,-1.777C3.564,-0.562 2.314,0 0.945,-0.096C-0.082,-0.169 -0.978,-0.562 -1.742,-1.275C-2.294,-1.79 -2.701,-2.418 -2.96,-3.158C-3.27,-4.035 -3.33,-4.902 -3.142,-5.755C-2.981,-6.468 -2.606,-7.138 -2.021,-7.766C-1.807,-7.994 -1.595,-8.186 -1.385,-8.337C-1.172,-8.49 -0.843,-8.68 -0.396,-8.904C-0.169,-9.016 -0.028,-9.103 0.026,-9.161C0.082,-9.22 0.102,-9.295 0.087,-9.388C0.071,-9.48 -0.011,-9.605 -0.16,-9.761L0,-9.932Z" style="fill:rgb(44,80,140);fill-rule:nonzero;"/>
            </g>
        </g>
        <g transform="matrix(4.16667,0,0,4.16667,0,0)">
            <g transform="matrix(1,0,0,1,462.552,357.958)">
                <path d="M0,-4.062L-3.655,-4.99L-1.778,-1.701L0,-4.062ZM0.483,-3.921L-1.522,-1.26L-0.788,0.022C-0.608,0.338 -0.452,0.546 -0.32,0.646C-0.217,0.724 -0.086,0.744 0.067,0.705C0.224,0.666 0.436,0.488 0.709,0.173L0.897,0.317L-0.734,2.481L-0.921,2.338C-0.756,2.013 -0.683,1.777 -0.699,1.631C-0.732,1.337 -0.916,0.9 -1.257,0.315L-5.09,-6.366L-4.957,-6.543L2.563,-4.627C3.168,-4.474 3.599,-4.424 3.853,-4.478C4.108,-4.533 4.351,-4.693 4.578,-4.959L4.767,-4.819L2.724,-2.108L2.535,-2.249C2.728,-2.533 2.821,-2.751 2.817,-2.908C2.813,-3.061 2.754,-3.18 2.642,-3.265C2.494,-3.377 2.208,-3.486 1.783,-3.592L0.483,-3.921Z" style="fill:rgb(44,80,140);fill-rule:nonzero;"/>
            </g>
        </g>
        <g transform="matrix(4.16667,0,0,4.16667,0,0)">
            <g transform="matrix(1,0,0,1,463.466,351.805)">
                <path d="M0,-9.063L2.524,-7.486L2.4,-7.286C1.876,-7.524 1.417,-7.65 1.027,-7.663C0.635,-7.676 0.258,-7.581 -0.102,-7.376C-0.464,-7.173 -0.747,-6.907 -0.953,-6.578C-1.188,-6.203 -1.268,-5.824 -1.191,-5.438C-1.115,-5.05 -0.932,-4.766 -0.642,-4.586C-0.42,-4.446 -0.169,-4.398 0.11,-4.437C0.518,-4.491 1.209,-4.796 2.18,-5.351C2.971,-5.804 3.543,-6.094 3.894,-6.222C4.244,-6.35 4.596,-6.398 4.944,-6.366C5.295,-6.334 5.616,-6.229 5.906,-6.046C6.459,-5.702 6.801,-5.188 6.934,-4.51C7.065,-3.833 6.92,-3.157 6.498,-2.481C6.365,-2.268 6.225,-2.08 6.077,-1.913C5.989,-1.813 5.78,-1.625 5.449,-1.345C5.118,-1.066 4.923,-0.879 4.864,-0.787C4.808,-0.697 4.79,-0.608 4.813,-0.524C4.831,-0.437 4.921,-0.329 5.072,-0.199L4.948,0L2.446,-1.564L2.569,-1.763C3.152,-1.529 3.623,-1.41 3.982,-1.404C4.34,-1.399 4.708,-1.505 5.083,-1.724C5.458,-1.941 5.766,-2.242 6.008,-2.629C6.288,-3.079 6.392,-3.507 6.318,-3.915C6.242,-4.322 6.045,-4.627 5.722,-4.829C5.542,-4.942 5.33,-5.006 5.085,-5.022C4.84,-5.038 4.574,-4.989 4.285,-4.881C4.091,-4.807 3.625,-4.569 2.884,-4.164C2.146,-3.756 1.588,-3.488 1.216,-3.354C0.843,-3.221 0.487,-3.163 0.151,-3.184C-0.185,-3.204 -0.505,-3.31 -0.806,-3.499C-1.328,-3.826 -1.655,-4.309 -1.783,-4.946C-1.909,-5.585 -1.779,-6.213 -1.391,-6.835C-1.15,-7.223 -0.798,-7.574 -0.336,-7.888C-0.121,-8.034 0.013,-8.149 0.063,-8.231C0.121,-8.324 0.143,-8.417 0.124,-8.51C0.104,-8.605 0.021,-8.723 -0.123,-8.864L0,-9.063Z" style="fill:rgb(44,80,140);fill-rule:nonzero;"/>
            </g>
        </g>
        <g transform="matrix(4.16667,0,0,4.16667,0,0)">
            <g transform="matrix(1,0,0,1,467.454,343.765)">
                <path d="M0,-8.598L1.854,-7.799L1.748,-7.582C1.408,-7.697 1.152,-7.751 0.981,-7.744C0.702,-7.736 0.464,-7.658 0.265,-7.512C0.063,-7.368 -0.115,-7.136 -0.271,-6.818L-0.802,-5.728L5.108,-2.844C5.583,-2.612 5.906,-2.519 6.073,-2.564C6.303,-2.631 6.491,-2.815 6.639,-3.115L6.769,-3.383L6.981,-3.279L5.38,0L5.169,-0.103L5.304,-0.375C5.462,-0.702 5.478,-0.985 5.345,-1.216C5.265,-1.36 5.007,-1.537 4.574,-1.749L-1.335,-4.631L-1.79,-3.702C-1.965,-3.339 -2.064,-3.071 -2.085,-2.894C-2.108,-2.66 -2.052,-2.423 -1.915,-2.183C-1.779,-1.94 -1.543,-1.721 -1.205,-1.524L-1.312,-1.307L-3.081,-2.285L0,-8.598Z" style="fill:rgb(44,80,140);fill-rule:nonzero;"/>
            </g>
        </g>
        <g transform="matrix(4.16667,0,0,4.16667,0,0)">
            <g transform="matrix(1,0,0,1,474.214,336.793)">
                <path d="M0,-4.46L-3.772,-4.408L-1.107,-1.718L0,-4.46ZM0.502,-4.447L-0.746,-1.357L0.294,-0.309C0.55,-0.049 0.756,0.111 0.907,0.172C1.031,0.222 1.161,0.207 1.3,0.129C1.438,0.051 1.599,-0.177 1.783,-0.549L1.999,-0.461L0.985,2.053L0.767,1.964C0.843,1.606 0.854,1.359 0.799,1.223C0.69,0.948 0.398,0.57 -0.081,0.094L-5.515,-5.366L-5.431,-5.571L2.331,-5.667C2.955,-5.676 3.382,-5.738 3.615,-5.857C3.848,-5.975 4.04,-6.193 4.189,-6.513L4.409,-6.423L3.137,-3.275L2.918,-3.361C3.031,-3.687 3.065,-3.923 3.02,-4.07C2.975,-4.22 2.888,-4.319 2.758,-4.371C2.587,-4.441 2.281,-4.474 1.846,-4.467L0.502,-4.447Z" style="fill:rgb(44,80,140);fill-rule:nonzero;"/>
            </g>
        </g>
    </g>
</svg>
