<?xml version="1.0" encoding="UTF-8" standalone="no"?>
<!DOCTYPE svg PUBLIC "-//W3C//DTD SVG 1.1//EN" "http://www.w3.org/Graphics/SVG/1.1/DTD/svg11.dtd">
<svg width="100%" height="100%" viewBox="0 0 860 1002" version="1.1" xmlns="http://www.w3.org/2000/svg" xmlns:xlink="http://www.w3.org/1999/xlink" xml:space="preserve" xmlns:serif="http://www.serif.com/" style="fill-rule:evenodd;clip-rule:evenodd;stroke-linejoin:round;stroke-miterlimit:2;">
    <g transform="matrix(1,0,0,1,-1173.94,-687.951)">
        <g transform="matrix(4.16667,0,0,4.16667,0,0)">
            <g transform="matrix(1,0,0,1,281.746,404.476)">
                <path d="M0,-217.416L0,-92.833L30.393,-92.833C35.776,-92.921 39.482,-91.536 39.499,-86.899L39.511,-62.439C42.595,22.883 186.135,21.19 188.436,-62.439L188.217,-105.5C188.668,-109.556 191.161,-111.57 195.694,-111.543L206.167,-111.574L205.153,-216.43L141.329,-216.937C126.735,-215.95 117.19,-210.892 108.77,-203.569C83.219,-208.646 76.42,-185.124 91.671,-174.967C92.49,-171.56 91.919,-170.239 89.958,-168.501C62.942,-180.882 72.772,-218.089 116.219,-211.898L116.204,-216.608C114.373,-216.901 113.625,-217.933 112.888,-219.469C121.024,-223.029 124.629,-230.089 124.079,-238.533L73.957,-238.533L73.957,-231.569C60.428,-239.385 42.207,-240.299 22.288,-238.718L22.288,-214.91C15.234,-216.544 7.805,-218.037 0,-217.416" style="fill:rgb(44,80,140);fill-rule:nonzero;"/>
            </g>
        </g>
        <g transform="matrix(4.16667,0,0,4.16667,0,0)">
            <g transform="matrix(1,0,0,1,365.909,187.24)">
                <path d="M0,-15.973L33.058,-15.973L33.058,-13.815C29.361,-0.486 3.172,0 0.036,-13.815L0,-15.973Z" style="fill:white;fill-rule:nonzero;"/>
            </g>
        </g>
        <g transform="matrix(4.16667,0,0,4.16667,0,0)">
            <g transform="matrix(1,0,0,1,393.512,277.319)">
                <path d="M0,-44.796C-4.731,-47.051 -6.987,-44.619 -5.705,-38.03C7.984,-28.501 3.472,-13.864 -7.694,-10.835C-13.089,-10.282 -17.378,-8.956 -19.236,-5.926C-20.541,0.442 -17.49,2.255 -11.807,0.043C2.046,-2.217 11.576,-8.927 13.398,-23.57C12.582,-31.806 8.601,-39.037 0,-44.796" style="fill:white;fill-rule:nonzero;"/>
            </g>
        </g>
        <g transform="matrix(4.16667,0,0,4.16667,0,0)">
            <g transform="matrix(1,0,0,1,387.543,256.979)">
                <path d="M0,-7.475L0.133,-0.046C2.057,0 3.031,-1.197 3.357,-3.893C3.083,-6.26 2.005,-7.316 0,-7.475" style="fill:white;fill-rule:nonzero;"/>
            </g>
        </g>
        <g transform="matrix(4.16667,0,0,4.16667,0,0)">
            <g transform="matrix(1,0,0,1,312.635,269.813)">
                <path d="M0,-89.729L0,13.797L59.092,13.568C52.671,6.991 54.678,-2.831 62.757,-7.63L62.528,-26.514C33.544,-34.96 30.738,-63.418 49.243,-77.361C41.743,-97.933 0.826,-103.526 0,-89.729" style="fill:white;fill-rule:nonzero;"/>
            </g>
        </g>
        <g transform="matrix(4.16667,0,0,4.16667,0,0)">
            <g transform="matrix(1,0,0,1,479.375,287.045)">
                <path d="M0,-90.471L0,-3.436L-81.309,-2.978C-81.998,-1.117 -84.04,0.285 -87.034,1.603C-88.7,-0.623 -91.025,-2.189 -93.899,-3.207C-93.237,-3.553 -92.734,-5.417 -94.363,-6.642C-62.436,-10.778 -57.943,-50.214 -90.639,-61.911C-96.254,-76.684 -73.322,-92 -61.84,-92.074L-5.955,-92.074L0,-90.471Z" style="fill:white;fill-rule:nonzero;"/>
            </g>
        </g>
        <g transform="matrix(4.16667,0,0,4.16667,0,0)">
            <g transform="matrix(1,0,0,1,289.344,415.724)">
                <path d="M0,-216.027L0,-111.171L93.712,-111.171C101.554,-111.212 106.112,-108.437 105.869,-101.547L105.869,-63.049C106.048,-57.226 109.41,-57.21 117.465,-57.138C122.535,-57.157 122.627,-51.904 117.461,-51.905L103.336,-51.905C99.582,-52.03 98.451,-53.775 98.271,-56.971L98.271,-95.975C98.243,-101.272 94.885,-103.331 89.66,-103.573L44.577,-104.08C39.221,-104.117 37.947,-101.952 37.991,-96.482L37.991,-72.167C46.023,7.675 172.418,-0.787 173.748,-72.674L173.748,-123.328L115.494,-123.835C109.234,-122.978 106.768,-120.363 106.43,-116.762L99.644,-116.743C98.55,-121.911 94.579,-123.722 89.153,-123.835L14.69,-123.835L14.69,-213.494C13.535,-221.323 0.631,-223.702 0,-216.027" style="fill:white;fill-rule:nonzero;"/>
            </g>
        </g>
        <g transform="matrix(4.16667,0,0,4.16667,0,0)">
            <g transform="matrix(1,0,0,1,383.438,377.127)">
                <path d="M0,-7.092L31.159,-7.092C35.144,-6.962 35.087,-0.074 31.159,0L0,0C-4.225,-0.056 -4.002,-7.055 0,-7.092" style="fill:rgb(46,81,140);fill-rule:nonzero;"/>
            </g>
        </g>
    </g>
</svg>
