<?xml version="1.0" encoding="UTF-8" standalone="no"?><!DOCTYPE svg PUBLIC "-//W3C//DTD SVG 1.1//EN" "http://www.w3.org/Graphics/SVG/1.1/DTD/svg11.dtd"><svg width="100%" height="100%" viewBox="0 0 24 24" version="1.1" xmlns="http://www.w3.org/2000/svg" xmlns:xlink="http://www.w3.org/1999/xlink" xml:space="preserve" xmlns:serif="http://www.serif.com/" style="fill-rule:evenodd;clip-rule:evenodd;stroke-linejoin:round;stroke-miterlimit:2;"><path d="M23.998,11.999c0,-6.627 -5.372,-11.999 -11.999,-11.999c-6.627,0 -11.999,5.372 -11.999,11.999c0,5.989 4.388,10.953 10.124,11.853l0,-8.384l-3.046,0l0,-3.469l3.046,0l0,-2.643c0,-3.008 1.792,-4.669 4.532,-4.669c1.313,0 2.686,0.234 2.686,0.234l0,2.953l-1.513,0c-1.49,0 -1.955,0.925 -1.955,1.874l0,2.251l3.328,0l-0.532,3.469l-2.796,0l0,8.384c5.736,-0.9 10.124,-5.864 10.124,-11.853Z" style="fill:#fff;fill-rule:nonzero;"/></svg>