<?xml version="1.0" encoding="UTF-8" standalone="no"?>
<!DOCTYPE svg PUBLIC "-//W3C//DTD SVG 1.1//EN" "http://www.w3.org/Graphics/SVG/1.1/DTD/svg11.dtd">
<svg width="100%" height="100%" viewBox="0 0 763 835" version="1.1" xmlns="http://www.w3.org/2000/svg" xmlns:xlink="http://www.w3.org/1999/xlink" xml:space="preserve" xmlns:serif="http://www.serif.com/" style="fill-rule:evenodd;clip-rule:evenodd;stroke-linejoin:round;stroke-miterlimit:2;">
    <g transform="matrix(1,0,0,1,-1267.13,-712.499)">
        <g transform="matrix(4.16667,0,0,4.16667,0,0)">
            <g transform="matrix(1,0,0,1,487.092,343.633)">
                <path d="M0,-145.035L-87.848,-145.035L-87.848,-172.633L-142.159,-172.52L-142.012,-155.615L-163.061,-155.597L-163.061,-145.035L-182.98,-145.035L-181.847,-69.349C-182.008,-3.284 -132.535,27.364 -88.021,27.598C-35.018,24.678 0.182,-16.873 0,-69.588L0,-145.035ZM-136.372,-166.643L-92.865,-166.643L-92.865,-104.748L-136.372,-104.748L-136.372,-166.643ZM-159.512,-149.669L-142.012,-149.739L-142.012,-99.39L-92.917,-99.39L-92.864,-91.157L-159.513,-91.594L-159.512,-149.669ZM-176.116,-139.175L-163.124,-139.175L-163.123,-85.891L-92.771,-85.892L-92.772,-74.666L-176.109,-74.667L-176.116,-139.175ZM-134.931,-47.389L-151.632,-64.918C-152.066,-65.386 -152.344,-66.009 -152.342,-66.694C-152.339,-68.156 -151.125,-69.367 -149.664,-69.363C-148.95,-69.362 -148.267,-69.049 -147.771,-68.55L-131.07,-51.02C-129.048,-52.415 -126.591,-53.436 -124.012,-53.772L-123.98,-66.655C-123.977,-68.056 -122.794,-69.236 -121.365,-69.232C-119.936,-69.228 -118.758,-68.043 -118.731,-66.611L-118.669,-53.635C-116.402,-53.225 -114.292,-52.348 -112.556,-51.161L-97.945,-67.992C-97.509,-68.52 -96.887,-68.829 -96.111,-68.828C-94.588,-68.824 -93.38,-67.608 -93.383,-66.114C-93.385,-65.367 -93.698,-64.683 -94.196,-64.186L-108.65,-47.573C-106.916,-45.328 -105.742,-42.787 -105.252,-39.954L-96.274,-39.954C-94.752,-39.982 -93.543,-38.637 -93.547,-37.143C-93.551,-35.649 -94.796,-34.532 -96.287,-34.566L-105.327,-34.561C-105.8,-31.731 -107.018,-29.054 -108.669,-26.972L-94.418,-11.44C-93.891,-10.941 -93.582,-10.256 -93.583,-9.51C-93.587,-7.984 -94.802,-6.774 -96.324,-6.777C-97.07,-6.779 -97.721,-7.092 -98.248,-7.623L-112.437,-23.466C-114.304,-22.194 -116.788,-21.265 -119.057,-20.836L-119.059,13.644C-119.063,15.075 -120.021,16.285 -121.449,16.282C-122.878,16.278 -124.087,15.062 -124.114,13.631L-124.081,-20.724C-126.659,-21.073 -128.908,-22.015 -131.079,-23.453L-149.479,-4.978C-149.947,-4.575 -150.569,-4.297 -151.221,-4.298C-152.65,-4.302 -153.828,-5.487 -153.824,-6.919C-153.822,-7.541 -153.604,-8.132 -153.167,-8.628L-134.918,-26.951C-136.56,-29.101 -137.703,-31.898 -138.193,-34.669L-169.382,-34.683C-170.841,-34.686 -172.02,-35.872 -172.016,-37.335C-172.012,-38.797 -170.829,-39.977 -169.369,-39.942L-138.18,-39.954C-137.708,-42.66 -136.583,-45.183 -134.931,-47.389M-121.726,-48.695C-115.357,-48.679 -110.151,-43.438 -110.167,-37.058C-110.183,-30.68 -115.414,-25.465 -121.782,-25.48C-128.15,-25.496 -133.356,-30.736 -133.341,-37.115C-133.325,-43.495 -128.094,-48.71 -121.726,-48.695M-176.286,-69.522L-92.937,-69.521L-92.864,21.983C-141.477,20.557 -179.014,-21.107 -176.286,-69.522M-87.848,-139.175L-4.754,-139.175L-4.754,-62.901C-4.018,-20.546 -40.691,21.613 -87.85,21.996L-87.848,-139.175ZM-51.117,-124.327C-47.545,-124.318 -44.695,-121.448 -44.703,-117.901C-44.713,-114.322 -47.576,-111.466 -51.15,-111.475C-54.691,-111.484 -57.541,-114.353 -57.533,-117.932C-57.523,-121.479 -54.66,-124.335 -51.117,-124.327M-51.137,-129.586C-44.613,-129.57 -39.438,-124.361 -39.453,-117.888C-39.469,-111.353 -44.67,-106.169 -51.193,-106.185C-57.654,-106.201 -62.83,-111.41 -62.814,-117.945C-62.799,-124.418 -57.598,-129.602 -51.137,-129.586M-48.303,-4.934C-43.146,-4.922 -38.742,-9.033 -38.73,-14.199L-38.787,-60.098C-34.871,-60.93 -31.881,-64.407 -31.9,-68.608L-31.98,-95.931C-31.969,-100.66 -35.727,-104.768 -40.418,-104.748L-63.934,-104.748C-68.625,-104.791 -70.904,-100.755 -70.916,-96.025L-70.818,-68.703C-70.859,-64.502 -67.967,-60.721 -64.055,-59.87L-63.938,-14.26C-63.949,-9.095 -59.734,-4.851 -54.578,-4.84L-48.303,-4.934ZM-54.254,-10.097L-48.602,-10.053C-46.178,-10.047 -44.031,-12.033 -44.025,-14.43L-44.025,-60.958C-44.021,-63.043 -42.346,-65.273 -40.266,-65.268C-38.525,-65.233 -36.793,-67.877 -36.758,-69.589L-36.758,-96.061C-36.783,-97.742 -38.443,-99.386 -40.213,-99.39L-51.211,-99.39L-62.207,-99.494C-63.979,-99.498 -65.379,-97.911 -65.414,-96.23L-65.482,-68.41C-65.455,-66.699 -64.061,-65.295 -62.32,-65.322C-60.24,-65.317 -58.664,-63.29 -58.67,-61.205L-58.771,-14.465C-58.777,-12.069 -56.678,-10.072 -54.254,-10.097" style="fill:rgb(44,80,140);"/>
            </g>
        </g>
    </g>
</svg>
