<?xml version="1.0" encoding="UTF-8" standalone="no"?>
<!DOCTYPE svg PUBLIC "-//W3C//DTD SVG 1.1//EN" "http://www.w3.org/Graphics/SVG/1.1/DTD/svg11.dtd">
<svg width="100%" height="100%" viewBox="0 0 652 1120" version="1.1" xmlns="http://www.w3.org/2000/svg" xmlns:xlink="http://www.w3.org/1999/xlink" xml:space="preserve" xmlns:serif="http://www.serif.com/" style="fill-rule:evenodd;clip-rule:evenodd;stroke-linejoin:round;stroke-miterlimit:2;">
    <g transform="matrix(1,0,0,1,-1320.83,-716.667)">
        <g transform="matrix(4.16667,0,0,4.16667,0,0)">
            <g transform="matrix(1,0,0,1,329.808,179.271)">
                <path d="M0,254.057C-3.036,254.057 -5.532,251.543 -5.532,248.456L-5.532,5.538C-5.532,2.518 -3.019,0.005 -0.016,0.005L55.504,0.005L46.151,20.8C44.995,23.403 44.954,24.779 46.669,27.359L65.825,51.628C67.546,54.268 67.296,55.721 65.572,59.633L49.84,96.301C48.196,100.356 46.585,101.916 42.422,102.618L15.8,104.479C10.593,104.45 9.379,105.625 7.082,111.089L-1.744,131.939C-4.63,137.418 -3.797,141.555 2.415,144.328L98.035,184.975C104.206,187.698 106.489,186.842 109.457,179.423L118.806,158.363C120.87,154.322 120.906,152.11 118.365,148.736L100.907,127.064C99.311,124.761 98.735,122.271 100.403,119.373L116.15,80.612C117.428,77.243 119.883,75.275 123.598,75.154L136.349,75.237L136.349,248.455C136.349,251.543 133.835,254.057 130.807,254.057L0,254.057ZM136.349,261.328L-5.532,261.328C-9.516,261.328 -12.808,258.041 -12.808,254.06L-12.808,0.005C-12.808,-3.979 -9.516,-7.271 -5.53,-7.271L136.359,-7.271C140.333,-7.271 143.625,-3.979 143.625,-0.001L143.626,254.057C143.627,258.041 140.333,261.328 136.349,261.328" style="fill:rgb(44,80,140);"/>
            </g>
        </g>
        <g transform="matrix(4.16667,0,0,4.16667,0,0)">
            <g transform="matrix(1,0,0,1,330.216,392.525)">
                <path d="M0,7.101L0,0L4.022,0L4.022,1.789L1.708,1.789L1.708,2.889L3.549,2.889L3.549,4.605L1.708,4.605L1.708,7.101L0,7.101Z" style="fill:rgb(44,80,140);fill-rule:nonzero;"/>
            </g>
        </g>
        <g transform="matrix(4.16667,0,0,4.16667,0,0)">
            <g transform="matrix(1,0,0,1,334.904,392.525)">
                <path d="M0,7.101L1.87,0L3.6,0L5.469,7.101L3.776,7.101L3.577,6.162L1.884,6.162L1.678,7.101L0,7.101ZM2.195,4.672L3.267,4.672L2.737,2.214L2.195,4.672Z" style="fill:rgb(44,80,140);fill-rule:nonzero;"/>
            </g>
        </g>
        <g transform="matrix(4.16667,0,0,4.16667,0,0)">
            <g transform="matrix(1,0,0,1,345.149,395.293)">
                <path d="M0,1.58L1.618,1.58C1.57,2.515 1.323,3.24 0.877,3.758C0.432,4.272 -0.17,4.531 -0.931,4.531C-1.784,4.531 -2.454,4.197 -2.942,3.53C-3.431,2.864 -3.675,1.95 -3.675,0.789C-3.675,-0.368 -3.434,-1.279 -2.949,-1.949C-2.465,-2.617 -1.806,-2.951 -0.97,-2.951C-0.2,-2.951 0.405,-2.703 0.848,-2.206C1.289,-1.711 1.537,-1 1.589,-0.078L-0.046,-0.078C-0.07,-0.442 -0.158,-0.715 -0.31,-0.901C-0.461,-1.085 -0.674,-1.178 -0.949,-1.178C-1.284,-1.178 -1.535,-1.015 -1.702,-0.689C-1.87,-0.361 -1.954,0.131 -1.954,0.789C-1.954,1.435 -1.865,1.924 -1.686,2.255C-1.509,2.586 -1.248,2.752 -0.902,2.752C-0.639,2.752 -0.428,2.65 -0.272,2.447C-0.117,2.245 -0.026,1.957 0,1.58" style="fill:rgb(44,80,140);fill-rule:nonzero;"/>
            </g>
        </g>
        <g transform="matrix(4.16667,0,0,4.16667,0,0)">
            <g transform="matrix(1,0,0,1,348.31,399.824)">
                <path d="M0,-7.299L1.708,-7.299L1.708,-2.922C1.708,-2.517 1.771,-2.229 1.897,-2.058C2.023,-1.885 2.235,-1.799 2.531,-1.799C2.819,-1.799 3.026,-1.883 3.15,-2.053C3.274,-2.221 3.335,-2.512 3.335,-2.922L3.335,-7.299L5.044,-7.299L5.044,-2.743C5.044,-1.854 4.829,-1.174 4.399,-0.705C3.969,-0.236 3.347,0 2.531,0C1.71,0 1.083,-0.236 0.649,-0.706C0.217,-1.177 0,-1.857 0,-2.743L0,-7.299Z" style="fill:rgb(44,80,140);fill-rule:nonzero;"/>
            </g>
        </g>
        <g transform="matrix(4.16667,0,0,4.16667,0,0)">
            <g transform="matrix(1,0,0,1,355.189,392.525)">
                <path d="M0,7.101L0,0L1.708,0L1.708,5.215L4.03,5.215L4.03,7.101L0,7.101Z" style="fill:rgb(44,80,140);fill-rule:nonzero;"/>
            </g>
        </g>
        <g transform="matrix(4.16667,0,0,4.16667,0,0)">
            <g transform="matrix(1,0,0,1,361.271,392.525)">
                <path d="M0,7.101L0,1.872L-1.531,1.872L-1.531,0L3.207,0L3.207,1.872L1.708,1.872L1.708,7.101L0,7.101Z" style="fill:rgb(44,80,140);fill-rule:nonzero;"/>
            </g>
        </g>
        <g transform="matrix(4.16667,0,0,4.16667,0,0)">
            <g transform="matrix(1,0,0,1,365.114,392.525)">
                <path d="M0,7.101L1.871,0L3.6,0L5.469,7.101L3.776,7.101L3.578,6.162L1.884,6.162L1.678,7.101L0,7.101ZM2.195,4.672L3.267,4.672L2.737,2.214L2.195,4.672Z" style="fill:rgb(44,80,140);fill-rule:nonzero;"/>
            </g>
        </g>
        <g transform="matrix(4.16667,0,0,4.16667,0,0)">
            <g transform="matrix(1,0,0,1,371.91,392.525)">
                <path d="M0,7.101L0,0L2.065,0C2.59,0 2.98,0.032 3.236,0.095C3.493,0.157 3.715,0.261 3.907,0.406C4.275,0.695 4.551,1.102 4.736,1.624C4.922,2.15 5.015,2.793 5.015,3.558C5.015,4.362 4.9,5.038 4.669,5.585C4.44,6.134 4.102,6.54 3.654,6.807C3.48,6.913 3.264,6.99 3.002,7.034C2.741,7.079 2.323,7.101 1.748,7.101L0,7.101ZM1.708,5.303L2.167,5.303C2.592,5.303 2.887,5.176 3.051,4.922C3.216,4.667 3.299,4.213 3.299,3.558C3.299,2.918 3.215,2.466 3.046,2.2C2.877,1.933 2.592,1.799 2.188,1.799L1.708,1.799L1.708,5.303Z" style="fill:rgb(44,80,140);fill-rule:nonzero;"/>
            </g>
        </g>
        <g transform="matrix(4.16667,0,0,4.16667,0,0)">
            <g transform="matrix(1,0,0,1,385.851,392.525)">
                <path d="M0,7.101L0,0L2.065,0C2.59,0 2.979,0.032 3.236,0.095C3.493,0.157 3.715,0.261 3.906,0.406C4.275,0.695 4.551,1.102 4.736,1.624C4.922,2.15 5.014,2.793 5.014,3.558C5.014,4.362 4.899,5.038 4.669,5.585C4.44,6.134 4.101,6.54 3.654,6.807C3.48,6.913 3.263,6.99 3.002,7.034C2.741,7.079 2.323,7.101 1.747,7.101L0,7.101ZM1.708,5.303L2.166,5.303C2.591,5.303 2.887,5.176 3.051,4.922C3.216,4.667 3.299,4.213 3.299,3.558C3.299,2.918 3.215,2.466 3.046,2.2C2.877,1.933 2.591,1.799 2.187,1.799L1.708,1.799L1.708,5.303Z" style="fill:rgb(44,80,140);fill-rule:nonzero;"/>
            </g>
        </g>
        <g transform="matrix(4.16667,0,0,4.16667,0,0)">
            <g transform="matrix(1,0,0,1,392.488,392.525)">
                <path d="M0,7.101L0,0L4.249,0L4.249,1.703L1.708,1.703L1.708,2.649L3.855,2.649L3.855,4.278L1.708,4.278L1.708,5.375L4.354,5.375L4.354,7.101L0,7.101Z" style="fill:rgb(44,80,140);fill-rule:nonzero;"/>
            </g>
        </g>
        <g transform="matrix(4.16667,0,0,4.16667,0,0)">
            <g transform="matrix(1,0,0,1,0,180.151)">
                <rect x="405.813" y="212.374" width="1.74" height="7.101" style="fill:rgb(44,80,140);"/>
            </g>
        </g>
        <g transform="matrix(4.16667,0,0,4.16667,0,0)">
            <g transform="matrix(1,0,0,1,409.431,392.525)">
                <path d="M0,7.101L0,0L1.62,0L3.111,3.303C3.157,3.396 3.207,3.527 3.259,3.699C3.311,3.868 3.364,4.074 3.423,4.316C3.407,4.191 3.397,4.052 3.391,3.901C3.383,3.749 3.379,3.567 3.379,3.351L3.379,0L5.007,0L5.007,7.101L3.379,7.101L1.888,3.824C1.843,3.727 1.792,3.59 1.737,3.413C1.684,3.238 1.629,3.036 1.573,2.807C1.591,2.932 1.603,3.063 1.609,3.2C1.617,3.336 1.62,3.527 1.62,3.776L1.62,7.101L0,7.101Z" style="fill:rgb(44,80,140);fill-rule:nonzero;"/>
            </g>
        </g>
        <g transform="matrix(4.16667,0,0,4.16667,0,0)">
            <g transform="matrix(1,0,0,1,420.246,392.54)">
                <path d="M0,7.086L-0.083,6.474C-0.276,6.747 -0.508,6.95 -0.78,7.083C-1.052,7.217 -1.368,7.284 -1.729,7.284C-2.489,7.284 -3.089,6.95 -3.527,6.283C-3.965,5.617 -4.184,4.703 -4.184,3.542C-4.184,2.357 -3.94,1.438 -3.45,0.782C-2.963,0.129 -2.277,-0.198 -1.396,-0.198C-0.704,-0.198 -0.145,0.032 0.279,0.491C0.705,0.95 0.958,1.599 1.036,2.435L-0.584,2.435C-0.649,2.151 -0.755,1.936 -0.9,1.787C-1.046,1.64 -1.227,1.565 -1.44,1.565C-1.782,1.565 -2.039,1.74 -2.207,2.091C-2.377,2.44 -2.463,2.964 -2.463,3.659C-2.463,4.301 -2.377,4.781 -2.206,5.101C-2.035,5.418 -1.774,5.577 -1.426,5.577C-1.176,5.577 -0.963,5.5 -0.789,5.344C-0.614,5.188 -0.507,4.979 -0.465,4.715L-1.235,4.715L-1.235,3.196L1.102,3.196L1.102,7.086L0,7.086Z" style="fill:rgb(44,80,140);fill-rule:nonzero;"/>
            </g>
        </g>
        <g transform="matrix(4.16667,0,0,4.16667,0,0)">
            <g transform="matrix(1,0,0,1,423.154,392.525)">
                <path d="M0,7.101L0,0L4.249,0L4.249,1.703L1.708,1.703L1.708,2.649L3.856,2.649L3.856,4.278L1.708,4.278L1.708,5.375L4.354,5.375L4.354,7.101L0,7.101Z" style="fill:rgb(44,80,140);fill-rule:nonzero;"/>
            </g>
        </g>
        <g transform="matrix(4.16667,0,0,4.16667,0,0)">
            <g transform="matrix(1,0,0,1,429.147,392.525)">
                <path d="M0,7.101L0,0L1.62,0L3.111,3.303C3.157,3.396 3.206,3.527 3.259,3.699C3.31,3.868 3.364,4.074 3.422,4.316C3.407,4.191 3.397,4.052 3.391,3.901C3.383,3.749 3.379,3.567 3.379,3.351L3.379,0L5.007,0L5.007,7.101L3.379,7.101L1.888,3.824C1.842,3.727 1.791,3.59 1.737,3.413C1.684,3.238 1.629,3.036 1.573,2.807C1.591,2.932 1.602,3.063 1.609,3.2C1.616,3.336 1.62,3.527 1.62,3.776L1.62,7.101L0,7.101Z" style="fill:rgb(44,80,140);fill-rule:nonzero;"/>
            </g>
        </g>
        <g transform="matrix(4.16667,0,0,4.16667,0,0)">
            <g transform="matrix(1,0,0,1,0,180.151)">
                <rect x="436.034" y="212.374" width="1.74" height="7.101" style="fill:rgb(44,80,140);"/>
            </g>
        </g>
        <g transform="matrix(4.16667,0,0,4.16667,0,0)">
            <g transform="matrix(1,0,0,1,439.652,392.525)">
                <path d="M0,7.101L0,0L4.249,0L4.249,1.703L1.708,1.703L1.708,2.649L3.856,2.649L3.856,4.278L1.708,4.278L1.708,5.375L4.354,5.375L4.354,7.101L0,7.101Z" style="fill:rgb(44,80,140);fill-rule:nonzero;"/>
            </g>
        </g>
        <g transform="matrix(4.16667,0,0,4.16667,0,0)">
            <g transform="matrix(1,0,0,1,445.645,392.525)">
                <path d="M0,7.101L0,0L2.544,0C3.342,0 3.91,0.161 4.252,0.478C4.592,0.795 4.762,1.319 4.762,2.044C4.762,2.479 4.691,2.837 4.552,3.124C4.413,3.411 4.197,3.637 3.906,3.803C4.202,3.888 4.418,4.052 4.552,4.299C4.688,4.544 4.759,4.905 4.77,5.38L4.797,6.37C4.797,6.375 4.799,6.384 4.801,6.392C4.809,6.675 4.858,6.824 4.952,6.836L4.952,7.101L3.231,7.101C3.2,6.93 3.177,6.783 3.161,6.656C3.145,6.529 3.137,6.43 3.137,6.359L3.137,5.65C3.137,5.285 3.083,5.027 2.975,4.876C2.866,4.727 2.679,4.653 2.411,4.653L1.686,4.653L1.686,7.101L0,7.101ZM1.686,3.051L2.462,3.051C2.734,3.051 2.922,3.002 3.024,2.906C3.129,2.807 3.181,2.635 3.181,2.392C3.181,2.142 3.129,1.967 3.024,1.869C2.922,1.772 2.72,1.722 2.419,1.722L1.686,1.722L1.686,3.051Z" style="fill:rgb(44,80,140);fill-rule:nonzero;"/>
            </g>
        </g>
        <g transform="matrix(4.16667,0,0,4.16667,0,0)">
            <g transform="matrix(1,0,0,1,0,180.151)">
                <rect x="452.156" y="212.374" width="1.74" height="7.101" style="fill:rgb(44,80,140);"/>
            </g>
        </g>
        <g transform="matrix(4.16667,0,0,4.16667,0,0)">
            <g transform="matrix(1,0,0,1,455.251,392.525)">
                <path d="M0,7.101L1.87,0L3.6,0L5.469,7.101L3.775,7.101L3.577,6.162L1.884,6.162L1.678,7.101L0,7.101ZM2.194,4.672L3.267,4.672L2.736,2.214L2.194,4.672Z" style="fill:rgb(44,80,140);fill-rule:nonzero;"/>
            </g>
        </g>
        <g transform="matrix(4.16667,0,0,4.16667,0,0)">
            <g transform="matrix(1,0,0,1,330.203,418.611)">
                <path d="M0,-7.299L1.708,-7.299L1.708,-2.922C1.708,-2.517 1.771,-2.229 1.897,-2.058C2.023,-1.885 2.235,-1.799 2.531,-1.799C2.819,-1.799 3.026,-1.883 3.15,-2.053C3.274,-2.221 3.335,-2.512 3.335,-2.922L3.335,-7.299L5.044,-7.299L5.044,-2.744C5.044,-1.854 4.829,-1.174 4.399,-0.705C3.969,-0.236 3.347,0 2.531,0C1.71,0 1.083,-0.236 0.649,-0.706C0.217,-1.177 0,-1.857 0,-2.744L0,-7.299Z" style="fill:rgb(44,80,140);fill-rule:nonzero;"/>
            </g>
        </g>
        <g transform="matrix(4.16667,0,0,4.16667,0,0)">
            <g transform="matrix(1,0,0,1,336.242,411.311)">
                <path d="M0,7.101L0,0L1.62,0L3.112,3.303C3.157,3.396 3.207,3.527 3.259,3.699C3.31,3.868 3.364,4.074 3.422,4.316C3.407,4.191 3.397,4.052 3.39,3.901C3.383,3.749 3.379,3.567 3.379,3.351L3.379,0L5.007,0L5.007,7.101L3.379,7.101L1.888,3.824C1.842,3.726 1.792,3.589 1.737,3.413C1.683,3.238 1.629,3.035 1.574,2.806C1.591,2.931 1.602,3.063 1.609,3.2C1.617,3.336 1.62,3.527 1.62,3.776L1.62,7.101L0,7.101Z" style="fill:rgb(44,80,140);fill-rule:nonzero;"/>
            </g>
        </g>
        <g transform="matrix(4.16667,0,0,4.16667,0,0)">
            <g transform="matrix(1,0,0,1,0,217.725)">
                <rect x="342.291" y="193.587" width="1.74" height="7.101" style="fill:rgb(44,80,140);"/>
            </g>
        </g>
        <g transform="matrix(4.16667,0,0,4.16667,0,0)">
            <g transform="matrix(1,0,0,1,344.633,418.413)">
                <path d="M0,-7.101L1.748,-7.101L2.642,-2.516L3.604,-7.101L5.282,-7.101L3.491,0L1.791,0L0,-7.101Z" style="fill:rgb(44,80,140);fill-rule:nonzero;"/>
            </g>
        </g>
        <g transform="matrix(4.16667,0,0,4.16667,0,0)">
            <g transform="matrix(1,0,0,1,350.488,411.311)">
                <path d="M0,7.101L0,0L4.249,0L4.249,1.703L1.708,1.703L1.708,2.648L3.856,2.648L3.856,4.278L1.708,4.278L1.708,5.375L4.354,5.375L4.354,7.101L0,7.101Z" style="fill:rgb(44,80,140);fill-rule:nonzero;"/>
            </g>
        </g>
        <g transform="matrix(4.16667,0,0,4.16667,0,0)">
            <g transform="matrix(1,0,0,1,355.641,411.311)">
                <path d="M0,7.101L0,0L2.544,0C3.342,0 3.91,0.161 4.251,0.478C4.592,0.795 4.762,1.319 4.762,2.044C4.762,2.479 4.691,2.837 4.552,3.124C4.413,3.411 4.197,3.637 3.906,3.803C4.202,3.888 4.418,4.052 4.552,4.299C4.688,4.544 4.759,4.905 4.77,5.38L4.797,6.37C4.797,6.375 4.799,6.384 4.801,6.392C4.809,6.675 4.859,6.824 4.953,6.836L4.953,7.101L3.231,7.101C3.2,6.93 3.177,6.783 3.161,6.656C3.145,6.529 3.137,6.43 3.137,6.359L3.137,5.65C3.137,5.285 3.083,5.027 2.975,4.876C2.866,4.727 2.679,4.653 2.412,4.653L1.686,4.653L1.686,7.101L0,7.101ZM1.686,3.051L2.462,3.051C2.734,3.051 2.922,3.002 3.025,2.906C3.129,2.806 3.181,2.635 3.181,2.392C3.181,2.142 3.129,1.967 3.025,1.869C2.922,1.771 2.72,1.722 2.419,1.722L1.686,1.722L1.686,3.051Z" style="fill:rgb(44,80,140);fill-rule:nonzero;"/>
            </g>
        </g>
        <g transform="matrix(4.16667,0,0,4.16667,0,0)">
            <g transform="matrix(1,0,0,1,361.035,413.539)">
                <path d="M0,2.66L1.661,2.66C1.707,2.917 1.79,3.102 1.91,3.215C2.031,3.328 2.21,3.384 2.447,3.384C2.647,3.384 2.804,3.338 2.918,3.246C3.033,3.155 3.09,3.028 3.09,2.867C3.09,2.61 2.851,2.401 2.373,2.24C2.276,2.209 2.202,2.184 2.152,2.168C1.76,2.033 1.447,1.911 1.215,1.8C0.982,1.689 0.813,1.586 0.708,1.488C0.503,1.293 0.35,1.057 0.248,0.784C0.146,0.511 0.094,0.2 0.094,-0.151C0.094,-0.855 0.292,-1.407 0.689,-1.81C1.087,-2.211 1.633,-2.411 2.328,-2.411C3.012,-2.411 3.551,-2.219 3.942,-1.836C4.334,-1.45 4.556,-0.901 4.606,-0.184L2.986,-0.184C2.96,-0.393 2.89,-0.549 2.779,-0.651C2.667,-0.755 2.507,-0.806 2.3,-0.806C2.117,-0.806 1.982,-0.766 1.892,-0.686C1.803,-0.605 1.759,-0.484 1.759,-0.319C1.759,-0.085 1.992,0.113 2.458,0.268C2.5,0.285 2.531,0.297 2.552,0.304C2.62,0.325 2.722,0.359 2.859,0.404C3.478,0.613 3.882,0.802 4.072,0.973C4.308,1.182 4.48,1.419 4.588,1.687C4.697,1.954 4.751,2.268 4.751,2.632C4.751,3.415 4.546,4.017 4.136,4.438C3.726,4.86 3.138,5.071 2.373,5.071C1.666,5.071 1.108,4.86 0.695,4.438C0.282,4.017 0.05,3.425 0,2.66" style="fill:rgb(44,80,140);fill-rule:nonzero;"/>
            </g>
        </g>
        <g transform="matrix(4.16667,0,0,4.16667,0,0)">
            <g transform="matrix(1,0,0,1,0,217.725)">
                <rect x="366.584" y="193.587" width="1.74" height="7.101" style="fill:rgb(44,80,140);"/>
            </g>
        </g>
        <g transform="matrix(4.16667,0,0,4.16667,0,0)">
            <g transform="matrix(1,0,0,1,369.363,411.311)">
                <path d="M0,7.101L0,0L2.065,0C2.59,0 2.979,0.032 3.236,0.094C3.492,0.157 3.715,0.261 3.906,0.406C4.275,0.695 4.551,1.102 4.736,1.624C4.922,2.15 5.014,2.793 5.014,3.558C5.014,4.362 4.899,5.038 4.669,5.585C4.44,6.134 4.101,6.54 3.654,6.807C3.479,6.913 3.263,6.99 3.002,7.034C2.74,7.079 2.323,7.101 1.747,7.101L0,7.101ZM1.708,5.303L2.166,5.303C2.591,5.303 2.887,5.176 3.051,4.922C3.216,4.667 3.299,4.213 3.299,3.558C3.299,2.918 3.215,2.466 3.046,2.199C2.877,1.933 2.591,1.799 2.187,1.799L1.708,1.799L1.708,5.303Z" style="fill:rgb(44,80,140);fill-rule:nonzero;"/>
            </g>
        </g>
        <g transform="matrix(4.16667,0,0,4.16667,0,0)">
            <g transform="matrix(1,0,0,1,374.58,411.311)">
                <path d="M0,7.101L1.871,0L3.6,0L5.469,7.101L3.776,7.101L3.578,6.162L1.884,6.162L1.679,7.101L0,7.101ZM2.195,4.672L3.267,4.672L2.737,2.214L2.195,4.672Z" style="fill:rgb(44,80,140);fill-rule:nonzero;"/>
            </g>
        </g>
        <g transform="matrix(4.16667,0,0,4.16667,0,0)">
            <g transform="matrix(1,0,0,1,380.537,411.311)">
                <path d="M0,7.101L0,0L2.065,0C2.59,0 2.979,0.032 3.236,0.094C3.493,0.157 3.715,0.261 3.906,0.406C4.275,0.695 4.551,1.102 4.736,1.624C4.922,2.15 5.014,2.793 5.014,3.558C5.014,4.362 4.899,5.038 4.669,5.585C4.44,6.134 4.101,6.54 3.654,6.807C3.479,6.913 3.263,6.99 3.002,7.034C2.74,7.079 2.323,7.101 1.747,7.101L0,7.101ZM1.708,5.303L2.166,5.303C2.591,5.303 2.887,5.176 3.051,4.922C3.216,4.667 3.299,4.213 3.299,3.558C3.299,2.918 3.215,2.466 3.046,2.199C2.877,1.933 2.591,1.799 2.187,1.799L1.708,1.799L1.708,5.303Z" style="fill:rgb(44,80,140);fill-rule:nonzero;"/>
            </g>
        </g>
        <g transform="matrix(4.16667,0,0,4.16667,0,0)">
            <g transform="matrix(1,0,0,1,388.769,411.311)">
                <path d="M0,7.101L0,0L2.065,0C2.59,0 2.98,0.032 3.236,0.094C3.493,0.157 3.715,0.261 3.907,0.406C4.275,0.695 4.551,1.102 4.736,1.624C4.922,2.15 5.014,2.793 5.014,3.558C5.014,4.362 4.9,5.038 4.669,5.585C4.44,6.134 4.101,6.54 3.654,6.807C3.48,6.913 3.263,6.99 3.002,7.034C2.741,7.079 2.323,7.101 1.748,7.101L0,7.101ZM1.708,5.303L2.167,5.303C2.591,5.303 2.887,5.176 3.051,4.922C3.216,4.667 3.299,4.213 3.299,3.558C3.299,2.918 3.215,2.466 3.046,2.199C2.877,1.933 2.591,1.799 2.187,1.799L1.708,1.799L1.708,5.303Z" style="fill:rgb(44,80,140);fill-rule:nonzero;"/>
            </g>
        </g>
        <g transform="matrix(4.16667,0,0,4.16667,0,0)">
            <g transform="matrix(1,0,0,1,394.567,411.311)">
                <path d="M0,7.101L0,0L4.25,0L4.25,1.703L1.708,1.703L1.708,2.648L3.856,2.648L3.856,4.278L1.708,4.278L1.708,5.375L4.354,5.375L4.354,7.101L0,7.101Z" style="fill:rgb(44,80,140);fill-rule:nonzero;"/>
            </g>
        </g>
        <g transform="matrix(4.16667,0,0,4.16667,0,0)">
            <g transform="matrix(1,0,0,1,401.63,411.311)">
                <path d="M0,7.101L1.87,0L3.6,0L5.469,7.101L3.775,7.101L3.577,6.162L1.884,6.162L1.678,7.101L0,7.101ZM2.194,4.672L3.267,4.672L2.737,2.214L2.194,4.672Z" style="fill:rgb(44,80,140);fill-rule:nonzero;"/>
            </g>
        </g>
        <g transform="matrix(4.16667,0,0,4.16667,0,0)">
            <g transform="matrix(1,0,0,1,407.587,411.311)">
                <path d="M0,7.101L0,0L1.62,0L3.111,3.303C3.157,3.396 3.206,3.527 3.259,3.699C3.31,3.868 3.364,4.074 3.422,4.316C3.407,4.191 3.397,4.052 3.391,3.901C3.383,3.749 3.379,3.567 3.379,3.351L3.379,0L5.007,0L5.007,7.101L3.379,7.101L1.888,3.824C1.842,3.726 1.792,3.589 1.737,3.413C1.684,3.238 1.629,3.035 1.573,2.806C1.591,2.931 1.602,3.063 1.609,3.2C1.616,3.336 1.62,3.527 1.62,3.776L1.62,7.101L0,7.101Z" style="fill:rgb(44,80,140);fill-rule:nonzero;"/>
            </g>
        </g>
        <g transform="matrix(4.16667,0,0,4.16667,0,0)">
            <g transform="matrix(1,0,0,1,414.725,411.311)">
                <path d="M0,7.101L0,1.872L-1.53,1.872L-1.53,0L3.206,0L3.206,1.872L1.708,1.872L1.708,7.101L0,7.101Z" style="fill:rgb(44,80,140);fill-rule:nonzero;"/>
            </g>
        </g>
        <g transform="matrix(4.16667,0,0,4.16667,0,0)">
            <g transform="matrix(1,0,0,1,418.289,414.87)">
                <path d="M0,-0.002C0,-1.159 0.247,-2.07 0.741,-2.74C1.235,-3.408 1.911,-3.742 2.765,-3.742C3.617,-3.742 4.289,-3.408 4.782,-2.74C5.276,-2.07 5.523,-1.159 5.523,-0.002C5.523,1.153 5.276,2.064 4.782,2.734C4.289,3.404 3.617,3.74 2.765,3.74C1.911,3.74 1.235,3.404 0.741,2.734C0.247,2.064 0,1.153 0,-0.002M1.722,-0.002C1.722,0.671 1.805,1.163 1.974,1.478C2.143,1.793 2.406,1.951 2.765,1.951C3.121,1.951 3.383,1.795 3.549,1.48C3.715,1.168 3.798,0.674 3.798,-0.002C3.798,-0.681 3.715,-1.176 3.549,-1.488C3.383,-1.803 3.121,-1.959 2.765,-1.959C2.406,-1.959 2.143,-1.801 1.974,-1.486C1.805,-1.171 1.722,-0.677 1.722,-0.002" style="fill:rgb(44,80,140);fill-rule:nonzero;"/>
            </g>
        </g>
        <g transform="matrix(4.16667,0,0,4.16667,0,0)">
            <g transform="matrix(1,0,0,1,424.592,411.311)">
                <path d="M0,7.101L0,0L4.022,0L4.022,1.789L1.708,1.789L1.708,2.889L3.55,2.889L3.55,4.605L1.708,4.605L1.708,7.101L0,7.101Z" style="fill:rgb(44,80,140);fill-rule:nonzero;"/>
            </g>
        </g>
        <g transform="matrix(4.16667,0,0,4.16667,0,0)">
            <g transform="matrix(1,0,0,1,428.44,411.311)">
                <path d="M0,7.101L1.871,0L3.601,0L5.47,7.101L3.776,7.101L3.578,6.162L1.885,6.162L1.679,7.101L0,7.101ZM2.195,4.672L3.268,4.672L2.737,2.214L2.195,4.672Z" style="fill:rgb(44,80,140);fill-rule:nonzero;"/>
            </g>
        </g>
        <g transform="matrix(4.16667,0,0,4.16667,0,0)">
            <g transform="matrix(1,0,0,1,438.356,411.326)">
                <path d="M0,7.086L-0.083,6.474C-0.276,6.747 -0.508,6.949 -0.78,7.083C-1.052,7.217 -1.368,7.284 -1.729,7.284C-2.489,7.284 -3.089,6.949 -3.527,6.283C-3.965,5.617 -4.185,4.703 -4.185,3.542C-4.185,2.357 -3.94,1.438 -3.451,0.782C-2.963,0.129 -2.277,-0.198 -1.396,-0.198C-0.704,-0.198 -0.145,0.031 0.279,0.491C0.704,0.95 0.957,1.599 1.036,2.435L-0.585,2.435C-0.649,2.151 -0.755,1.936 -0.9,1.787C-1.047,1.64 -1.227,1.565 -1.441,1.565C-1.782,1.565 -2.039,1.74 -2.208,2.091C-2.378,2.44 -2.463,2.964 -2.463,3.658C-2.463,4.301 -2.378,4.781 -2.206,5.1C-2.035,5.418 -1.775,5.577 -1.426,5.577C-1.176,5.577 -0.963,5.5 -0.789,5.344C-0.614,5.188 -0.507,4.979 -0.465,4.715L-1.235,4.715L-1.235,3.196L1.102,3.196L1.102,7.086L0,7.086Z" style="fill:rgb(44,80,140);fill-rule:nonzero;"/>
            </g>
        </g>
        <g transform="matrix(4.16667,0,0,4.16667,0,0)">
            <g transform="matrix(1,0,0,1,439.9,411.311)">
                <path d="M0,7.101L1.871,0L3.6,0L5.469,7.101L3.776,7.101L3.578,6.162L1.884,6.162L1.679,7.101L0,7.101ZM2.195,4.672L3.267,4.672L2.737,2.214L2.195,4.672Z" style="fill:rgb(44,80,140);fill-rule:nonzero;"/>
            </g>
        </g>
        <g transform="matrix(4.16667,0,0,4.16667,0,0)">
            <g transform="matrix(1,0,0,1,445.608,413.539)">
                <path d="M0,2.66L1.661,2.66C1.707,2.917 1.79,3.102 1.91,3.215C2.031,3.328 2.21,3.384 2.447,3.384C2.647,3.384 2.804,3.338 2.919,3.246C3.033,3.155 3.09,3.028 3.09,2.867C3.09,2.61 2.851,2.401 2.372,2.24C2.276,2.209 2.202,2.184 2.152,2.168C1.76,2.033 1.447,1.911 1.216,1.8C0.982,1.689 0.813,1.586 0.708,1.488C0.503,1.293 0.351,1.057 0.248,0.784C0.146,0.511 0.094,0.2 0.094,-0.151C0.094,-0.855 0.292,-1.407 0.689,-1.81C1.087,-2.211 1.633,-2.411 2.328,-2.411C3.013,-2.411 3.551,-2.219 3.942,-1.836C4.335,-1.45 4.557,-0.901 4.606,-0.184L2.986,-0.184C2.96,-0.393 2.89,-0.549 2.779,-0.651C2.667,-0.755 2.507,-0.806 2.3,-0.806C2.117,-0.806 1.981,-0.766 1.892,-0.686C1.804,-0.605 1.759,-0.484 1.759,-0.319C1.759,-0.085 1.992,0.113 2.459,0.268C2.501,0.285 2.531,0.297 2.553,0.304C2.62,0.325 2.723,0.359 2.859,0.404C3.478,0.613 3.882,0.802 4.072,0.973C4.309,1.182 4.48,1.419 4.588,1.687C4.697,1.954 4.751,2.268 4.751,2.632C4.751,3.415 4.546,4.017 4.136,4.438C3.726,4.86 3.138,5.071 2.372,5.071C1.666,5.071 1.108,4.86 0.695,4.438C0.282,4.017 0.051,3.425 0,2.66" style="fill:rgb(44,80,140);fill-rule:nonzero;"/>
            </g>
        </g>
        <g transform="matrix(4.16667,0,0,4.16667,0,0)">
            <g transform="matrix(1,0,0,1,452.248,411.311)">
                <path d="M0,7.101L0,1.872L-1.531,1.872L-1.531,0L3.206,0L3.206,1.872L1.708,1.872L1.708,7.101L0,7.101Z" style="fill:rgb(44,80,140);fill-rule:nonzero;"/>
            </g>
        </g>
        <g transform="matrix(4.16667,0,0,4.16667,0,0)">
            <g transform="matrix(1,0,0,1,455.251,411.311)">
                <path d="M0,7.101L1.87,0L3.6,0L5.469,7.101L3.776,7.101L3.577,6.162L1.884,6.162L1.679,7.101L0,7.101ZM2.194,4.672L3.267,4.672L2.737,2.214L2.194,4.672Z" style="fill:rgb(44,80,140);fill-rule:nonzero;"/>
            </g>
        </g>
    </g>
</svg>
