<?xml version="1.0" encoding="UTF-8" standalone="no"?><!DOCTYPE svg PUBLIC "-//W3C//DTD SVG 1.1//EN" "http://www.w3.org/Graphics/SVG/1.1/DTD/svg11.dtd"><svg width="100%" height="100%" viewBox="0 0 18 18" version="1.1" xmlns="http://www.w3.org/2000/svg" xmlns:xlink="http://www.w3.org/1999/xlink" xml:space="preserve" xmlns:serif="http://www.serif.com/" style="fill-rule:evenodd;clip-rule:evenodd;stroke-linejoin:round;stroke-miterlimit:2;"><path d="M2,0c-1.093,0 -2,0.907 -2,2l0,14c0,1.093 0.907,2 2,2l14,0c1.093,0 2,-0.907 2,-2l0,-7l-2,0l0,7l-14,0l0,-14l7,0l0,-2l-7,0Zm9,0l0,2l3.586,0l-9.293,9.293l1.414,1.414l9.293,-9.293l0,3.586l2,0l0,-7l-7,0Z" style="fill:#2c508c;fill-rule:nonzero;"/></svg>