<?xml version="1.0" encoding="UTF-8" standalone="no"?><!DOCTYPE svg PUBLIC "-//W3C//DTD SVG 1.1//EN" "http://www.w3.org/Graphics/SVG/1.1/DTD/svg11.dtd"><svg width="100%" height="100%" viewBox="0 0 305 457" version="1.1" xmlns="http://www.w3.org/2000/svg" xmlns:xlink="http://www.w3.org/1999/xlink" xml:space="preserve" xmlns:serif="http://www.serif.com/" style="fill-rule:evenodd;clip-rule:evenodd;"><path d="M250.81,304.07l-0,-0.102l-0,0.102Z" style="fill:none;fill-rule:nonzero;stroke:#939598;stroke-width:0.46px;"/><path d="M205.21,45.604l0,341.662c27.399,-17.558 45.586,-48.243 45.6,-83.197l-0,-304.069l-45.6,45.604Z" style="fill:#5497d1;fill-rule:nonzero;"/><path d="M129.203,152.009l-0,248.148c7.324,1.72 14.953,2.659 22.802,2.659c7.853,0 15.477,-0.939 22.803,-2.659l0,-293.754l-45.605,45.606Z" style="fill:#31679b;fill-rule:nonzero;"/><path d="M53.2,121.602l0,182.406c0,34.975 18.186,65.69 45.602,83.258l-0,-311.269l-45.602,45.605Z" style="fill:#5497d1;fill-rule:nonzero;"/><path d="M273.614,212.804l-0,91.204c-0,67.169 -54.445,121.605 -121.609,121.605c-67.159,0 -121.608,-54.436 -121.608,-121.605l0,-91.204c-19.084,25.415 -30.397,56.991 -30.397,91.204c-0,83.959 68.054,152.016 152.005,152.016c83.957,0 152.01,-68.057 152.01,-152.016c0,-34.213 -11.312,-65.789 -30.401,-91.204" style="fill:#31679b;fill-rule:nonzero;"/></svg>