<?xml version="1.0" encoding="UTF-8" standalone="no"?>
<!DOCTYPE svg PUBLIC "-//W3C//DTD SVG 1.1//EN" "http://www.w3.org/Graphics/SVG/1.1/DTD/svg11.dtd">
<svg width="100%" height="100%" viewBox="0 0 210 210" version="1.1" xmlns="http://www.w3.org/2000/svg" xmlns:xlink="http://www.w3.org/1999/xlink" xml:space="preserve" xmlns:serif="http://www.serif.com/" style="fill-rule:evenodd;clip-rule:evenodd;stroke-linejoin:round;stroke-miterlimit:2;">
    <g transform="matrix(1,0,0,1,-20,-20)">
        <path d="M205,20L45,20C31.2,20 20,31.2 20,45L20,205C20,218.8 31.2,230 45,230L205,230C218.8,230 230,218.8 230,205L230,45C230,31.2 218.8,20 205,20ZM85,100L85,195L55,195L55,100L85,100ZM55,72.35C55,65.35 61,60 70,60C79,60 84.65,65.35 85,72.35C85,79.35 79.4,85 70,85C61,85 55,79.35 55,72.35ZM195,195L165,195L165,145C165,135 160,125 147.5,124.8L147.1,124.8C135,124.8 130,135.1 130,145L130,195L100,195L100,100L130,100L130,112.8C130,112.8 139.65,100 159.05,100C178.9,100 195,113.65 195,141.3L195,195Z" style="fill:white;fill-rule:nonzero;"/>
    </g>
</svg>
