<?xml version="1.0" encoding="UTF-8" standalone="no"?><!DOCTYPE svg PUBLIC "-//W3C//DTD SVG 1.1//EN" "http://www.w3.org/Graphics/SVG/1.1/DTD/svg11.dtd"><svg width="100%" height="100%" viewBox="0 0 500 170" version="1.1" xmlns="http://www.w3.org/2000/svg" xmlns:xlink="http://www.w3.org/1999/xlink" xml:space="preserve" xmlns:serif="http://www.serif.com/" style="fill-rule:evenodd;clip-rule:evenodd;"><path d="M88.123,113.658l5.669,-0.014l-5.669,0.035l0,-0.021Z" style="fill:none;fill-rule:nonzero;stroke:#939598;stroke-width:0.17px;"/><path d="M93.792,113.644l0,-113.644l-21.69,21.693l0,126.402l4.363,-2.797c10.845,-6.949 17.322,-18.769 17.327,-31.654" style="fill:#fff;fill-rule:nonzero;"/><path d="M56.242,151.21c2.894,0 5.807,-0.34 8.66,-1.01l2.187,-0.513l0,-112.301l-21.693,21.693l0,90.608l2.186,0.513c2.852,0.67 5.765,1.01 8.66,1.01" style="fill:#fff;fill-rule:nonzero;"/><path d="M36.019,145.298l4.364,2.797l0,-121.393l-21.691,21.694l0,65.262c0,12.86 6.477,24.687 17.327,31.64" style="fill:#fff;fill-rule:nonzero;"/><path d="M101.236,79.911l-5.101,-6.792l0,40.539c0,21.997 -17.896,39.892 -39.893,39.892c-21.997,0 -39.893,-17.895 -39.893,-39.892l0,-40.54l-5.101,6.793c-7.359,9.799 -11.248,21.469 -11.248,33.747c0,31.014 25.23,56.246 56.242,56.246c31.013,0 56.244,-25.232 56.244,-56.246c0,-12.279 -3.891,-23.949 -11.25,-33.747" style="fill:#fff;fill-rule:nonzero;"/><rect x="128.901" y="130.737" width="369.257" height="7.523" style="fill:#fff;"/><path d="M129.268,150.901c0,4.968 2.719,7.934 7.273,7.934c4.61,0 7.473,-3.03 7.473,-7.906l0,-9.073l-14.746,0l0,9.045Z" style="fill:#fff;fill-rule:nonzero;"/><rect x="145.469" y="141.856" width="14.879" height="16.796" style="fill:#fff;"/><path d="M199.185,149.591l0.248,0l0,-7.734l-20.619,0l-0.292,0.978l-0.281,-0.978l-16.421,0l0,16.796l8.178,0l0,-15.134l4.847,15.134l7.044,0l5.027,-14.925l0,14.925l12.749,0l0,-7.735l-0.48,0l0,-1.327Z" style="fill:#fff;fill-rule:nonzero;"/><path d="M226.206,142.518c-1.167,-0.56 -2.535,-0.844 -4.066,-0.844c-4.08,0 -7.041,2.596 -7.041,6.174c0,0.793 0.162,1.915 0.876,3.03l-1.115,4.518l-0.397,-0.785c-0.09,-0.256 -0.278,-0.986 -0.404,-1.476c-0.103,-0.401 -0.211,-0.819 -0.322,-1.226c-0.098,-0.353 -0.211,-0.684 -0.341,-0.995c0.562,-0.85 0.921,-1.89 0.921,-3.086c0,-1.871 -0.757,-3.49 -2.086,-4.523c-1.662,-1.355 -3.753,-1.528 -5.388,-1.528c-1.46,0 -2.83,0.103 -3.86,0.292l-2.323,0.426l0,16.158l15.846,0l-0.583,-1.154l0.484,0.274c1.142,0.645 2.925,1.062 4.543,1.062c5.021,0 7.307,-3.258 7.307,-6.286c0,-1.162 -0.294,-2.565 -1.359,-3.809l1.451,-5.194l-2.143,-1.029Z" style="fill:#fff;fill-rule:nonzero;"/><rect x="229.27" y="141.856" width="8.177" height="16.796" style="fill:#fff;"/><path d="M251.424,143.518c-1.569,-1.204 -3.51,-1.741 -6.299,-1.741c-1.034,0 -2.548,0.05 -3.886,0.29l-2.334,0.419l0,15.783l2.48,0.312c0.982,0.124 2.062,0.187 3.213,0.187c2.953,0 5.296,-0.704 6.996,-2.121c1.818,-1.561 2.819,-3.925 2.819,-6.657c0,-2.743 -1.075,-5.052 -2.989,-6.472" style="fill:#fff;fill-rule:nonzero;"/><path d="M283.63,143.52c-1.565,-1.206 -3.508,-1.744 -6.3,-1.744c-1.033,0 -2.545,0.051 -3.882,0.291l-2.334,0.419l0,15.351l-4.976,-15.981l-7.466,0l-5.137,16.796l8.604,0l0.267,-0.984l0.295,0.984l8.667,0l-0.115,-0.369l2.339,0.297c0.974,0.124 2.054,0.188 3.211,0.188c2.95,0 5.292,-0.705 6.997,-2.121c1.817,-1.558 2.818,-3.922 2.818,-6.658c0,-2.748 -1.077,-5.058 -2.988,-6.469" style="fill:#fff;fill-rule:nonzero;"/><path d="M308.347,143.52c-1.565,-1.206 -3.507,-1.744 -6.297,-1.744c-1.034,0 -2.549,0.051 -3.888,0.291l-2.335,0.418l0,15.783l2.48,0.313c0.978,0.123 2.06,0.187 3.213,0.187c2.956,0 5.299,-0.706 6.99,-2.119c1.825,-1.562 2.831,-3.927 2.831,-6.66c0,-2.739 -1.078,-5.048 -2.994,-6.469" style="fill:#fff;fill-rule:nonzero;"/><path d="M324.549,149.591l0.246,0l0,-7.734l-12.516,0l0,16.796l12.751,0l0,-7.735l-0.481,0l0,-1.327Z" style="fill:#fff;fill-rule:nonzero;"/><path d="M350.081,157.837l-4.978,-15.98l-7.466,0l-5.133,16.795l8.609,0l0.263,-0.971l0.291,0.971l23.3,0l0,-16.795l-14.886,0l0,15.98Z" style="fill:#fff;fill-rule:nonzero;"/><path d="M387.662,141.674c-3.855,0 -6.854,2.374 -7.87,5.927l0,-5.744l-14.219,0l0,7.786l3.007,0l0,9.01l8.176,0l0,-9.01l2.691,0c-0.015,0.228 -0.03,0.458 -0.03,0.693c0,4.925 3.391,8.499 8.063,8.499l0.021,0c4.875,0 8.279,-3.577 8.279,-8.699c0,-4.903 -3.414,-8.462 -8.118,-8.462" style="fill:#fff;fill-rule:nonzero;"/><path d="M412.577,141.856l-3.676,12.03l0,-4.296l0.275,0l0,-7.734l-12.453,0l0,16.796l8.179,0l0,-4.473l3.909,0l-1.366,4.473l8.603,0l0.268,-0.986l0.296,0.986l8.661,0l-5.225,-16.796l-7.471,0Z" style="fill:#fff;fill-rule:nonzero;"/><path d="M467.398,142.519c-1.167,-0.561 -2.533,-0.845 -4.062,-0.845c-4.084,0 -7.048,2.596 -7.048,6.174c0,0.793 0.164,1.918 0.881,3.035l-1.218,4.899l-4.341,-13.926l-7.469,0l-4.568,14.952l0,-10.196l-0.663,0l0.8,-3.09l-2.153,-0.99c-1.091,-0.502 -2.646,-0.79 -4.267,-0.79c-5.386,0 -9.168,3.548 -9.197,8.642c0,2.412 0.866,4.578 2.461,6.123c1.586,1.5 3.763,2.261 6.469,2.261c2.182,0 4.097,-0.598 4.633,-0.781l1.738,-0.595l-0.385,1.261l8.601,0l0.268,-0.987l0.296,0.987l8.671,0l-0.49,-1.572l1.252,0.699c1.146,0.64 2.931,1.055 4.543,1.055c5.016,0 7.301,-3.258 7.301,-6.286c0,-1.162 -0.295,-2.566 -1.358,-3.809l1.443,-5.195l-2.138,-1.026Z" style="fill:#fff;fill-rule:nonzero;"/><path d="M483.822,141.856l-14.219,0l0,7.786l3.007,0l0,9.01l8.176,0l0,-9.01l3.036,0l0,-7.786Z" style="fill:#fff;fill-rule:nonzero;"/><path d="M494.051,141.856l-7.472,0l-5.131,16.796l8.604,0l0.265,-0.975l0.292,0.975l8.667,0l-5.225,-16.796Z" style="fill:#fff;fill-rule:nonzero;"/><path d="M150.217,112.475c-1.581,0 -2.104,-0.52 -2.152,-2.197c-0.074,-1.467 0.146,-2.817 0.4,-4.183l0.817,-3.634c1.331,-6.652 5.078,-10.132 8.092,-10.132c1.966,0 2.962,1.605 2.962,4.772c0,6.777 -4.765,15.374 -10.119,15.374m13.225,-36.415c-3.377,0 -6.64,0.806 -9.543,2.304l4.418,-21.329l-18.941,0l-9.419,47.103c-0.522,2.519 -1.056,5.516 -1.056,8.636c0,9.691 6.778,15.249 18.597,15.249c21.131,0 32.187,-16.922 32.187,-33.639c0,-9.121 -5.023,-18.324 -16.243,-18.324" style="fill:#fff;fill-rule:nonzero;"/><path d="M196.701,77.053c5.098,-0.794 8.626,-4.768 8.626,-10.029c0,-5.368 -3.974,-9.264 -9.448,-9.264c-5.806,0 -10.353,4.508 -10.353,10.263c0,4.714 3.002,8.281 7.351,9.03l-8.678,0l-9.502,49.97l18.817,0l9.5,-49.97l-6.313,0Z" style="fill:#fff;fill-rule:nonzero;"/><path d="M220.43,112.475c-1.581,0 -2.104,-0.52 -2.153,-2.197c-0.072,-1.463 0.146,-2.815 0.399,-4.184l0.818,-3.633c1.331,-6.652 5.08,-10.132 8.094,-10.132c1.965,0 2.961,1.605 2.961,4.772c0,6.777 -4.765,15.374 -10.119,15.374m13.225,-36.415c-3.378,0 -6.641,0.806 -9.545,2.304l4.42,-21.329l-18.939,0l-9.421,47.101c-0.522,2.512 -1.056,5.504 -1.056,8.638c0,9.691 6.778,15.249 18.597,15.249c20.907,0 32.188,-17.331 32.188,-33.639c0,-9.121 -5.023,-18.324 -16.244,-18.324" style="fill:#fff;fill-rule:nonzero;"/><path d="M258.31,57.034l-13.403,69.988l18.812,0l13.411,-69.988l-18.82,0Z" style="fill:#fff;fill-rule:nonzero;"/><path d="M288.652,77.053c5.099,-0.794 8.628,-4.768 8.628,-10.029c0,-5.368 -3.973,-9.264 -9.445,-9.264c-5.807,0 -10.356,4.508 -10.356,10.263c0,4.714 3.003,8.281 7.353,9.03l-8.68,0l-9.499,49.97l18.817,0l9.504,-49.97l-6.322,0Z" style="fill:#fff;fill-rule:nonzero;"/><path d="M476.568,98.829c-1.974,10.293 -6.095,13.014 -7.998,13.014c-1.667,0 -2.512,-1.515 -2.512,-4.504c0,-7.127 5.24,-15.735 11.749,-15.735c0.057,0 0.113,0.001 0.168,0.002l-1.407,7.223Zm-32.518,11.404c-1.946,0.779 -4.31,1.61 -7.734,1.61c-1.764,0 -5.865,-0.616 -5.865,-6.319c0,-6.484 4.277,-13.375 12.206,-13.375c2.472,0 3.917,0.464 4.9,0.868l2.771,1.139c-2.274,4.708 -3.423,9.886 -3.514,14.972l-2.764,1.105Zm-49.235,-16.548c-1.439,0.513 -3.559,0.832 -6.431,0.966c1.25,-1.804 3.248,-3.408 6.169,-3.408c0.202,0 1.969,0.025 1.969,0.88c0,0.402 0,0.954 -1.707,1.562m-30.616,17.471c-0.864,0.142 -2.092,0.142 -3.079,0.142c-0.509,0 -0.786,-0.075 -0.843,-0.075c-0.007,0 -0.011,0.002 -0.011,0.004c-0.001,-0.002 -0.11,-0.198 -0.11,-0.809c0,-1.316 0.332,-3.475 0.669,-5.065l2.536,-12.755l7.291,0c-2.04,4.326 -3.119,9.106 -3.119,13.835c0,1.444 0.112,2.811 0.297,4.127l-3.631,0.596Zm-50.184,1.23c-3.575,0 -4.325,-3.138 -4.325,-5.77c0,-6.121 3.273,-15.012 8.4,-15.012c3.602,0 4.139,3.502 4.139,5.589c0,6.882 -3.664,15.193 -8.214,15.193m185.275,-33.253l-2.417,-0.768c-3.511,-1.115 -9.433,-2.306 -15.528,-2.306c-15.779,0 -25.84,7.73 -30.815,17.683l4.909,-15.134l-2.576,-0.933c-1.342,-0.486 -5.003,-1.616 -10.024,-1.616c-12.797,0 -23.361,6.655 -28.453,16.785c0.007,-0.215 0.034,-0.418 0.034,-0.637c0,-9.658 -7.328,-16.148 -18.234,-16.148c-9.79,0 -17.423,4.607 -22.343,11.215l2.061,-10.31l-9.547,0l2.47,-13.041l-19.478,5.266l-1.519,7.775l-5.736,0l-2.169,11.898c-3.019,-7.869 -10.452,-12.894 -20.11,-12.894c-16.698,0 -29.289,13.253 -29.289,30.827c0,12.697 8.675,21.228 21.586,21.228c16.972,0 29.29,-13.005 29.29,-30.922c0,-1.564 -0.142,-3.067 -0.411,-4.503l3.841,0l-2.695,14.155c-0.744,3.524 -1.062,6.164 -1.062,8.829c0,6.015 3.792,12.441 14.434,12.441c2.534,0 6.326,-0.308 8.677,-1.176l1.587,-0.586l2.136,-15.044c1.751,10.616 9.537,16.806 21.572,16.806c3.102,0 11.052,-0.375 17.865,-3.848l1.719,-0.876l-1.48,-15.41l-3.674,1.793c-3.472,1.694 -7.123,2.518 -11.164,2.518c-2.053,0 -4.807,-0.403 -6.213,-2.246c-0.006,-0.009 -0.013,-0.018 -0.019,-0.027c12.621,-0.158 20.992,-2.982 25.049,-8.412c-0.298,1.765 -0.461,3.587 -0.461,5.462c0,12.532 8.64,20.951 21.498,20.951c5.324,0 10.363,-0.96 13.824,-2.635l1.617,-0.782l-0.066,-7.407c2.315,6.674 7.873,10.919 15.065,10.919c2.859,0 7.425,-0.685 11.765,-4.258c-0.004,0.11 -0.109,3.257 -0.109,3.257l17.812,0l-0.094,-2.926c-0.18,-5.547 0.774,-14.091 1.758,-19.286l5.117,-25.677Z" style="fill:#fff;fill-rule:nonzero;"/><path d="M90.957,113.679l0,-0.035l0,0.035Z" style="fill:none;fill-rule:nonzero;stroke:#939598;stroke-width:0.17px;"/><path d="M74.936,22.867l0,120.044c9.627,-6.169 16.017,-16.95 16.021,-29.231l0,-106.836l-16.021,16.023Z" style="fill:#5497d1;fill-rule:nonzero;"/><path d="M48.23,60.253l0,87.188c2.573,0.604 5.254,0.934 8.012,0.934c2.759,0 5.438,-0.33 8.012,-0.934l0,-103.212l-16.024,16.024Z" style="fill:#31679b;fill-rule:nonzero;"/><path d="M21.527,49.569l-0.001,64.089c0,12.288 6.39,23.08 16.022,29.253l0,-109.365l-16.022,16.023Z" style="fill:#5497d1;fill-rule:nonzero;"/><path d="M98.969,81.613l0,32.045c0,23.6 -19.129,42.726 -42.728,42.726c-23.596,0 -42.727,-19.126 -42.727,-42.726l0,-32.045c-6.705,8.93 -10.68,20.024 -10.68,32.045c0,29.499 23.911,53.411 53.407,53.411c29.499,0 53.41,-23.912 53.41,-53.411c0,-12.021 -3.975,-23.115 -10.682,-32.045" style="fill:#31679b;fill-rule:nonzero;"/><rect x="131.736" y="133.572" width="363.587" height="1.854" style="fill:#31679b;"/><path d="M134.608,144.691l0,6.39c0,1.927 0.745,2.904 2.015,2.904c1.319,0 2.047,-0.92 2.047,-2.904l0,-6.39l2.509,0l0,6.239c0,3.433 -1.732,5.07 -4.638,5.07c-2.807,0 -4.439,-1.57 -4.439,-5.099l0,-6.21l2.506,0Z" style="fill:#31679b;fill-rule:nonzero;"/><path d="M148.303,155.817l0,-11.126l2.938,0l2.311,4.076c0.66,1.173 1.305,2.563 1.815,3.813l0.035,0c-0.15,-1.468 -0.199,-2.97 -0.199,-4.65l0,-3.239l2.31,0l0,11.126l-2.64,0l-2.377,-4.298c-0.661,-1.201 -1.404,-2.619 -1.932,-3.925l-0.064,0c0.082,1.489 0.114,3.057 0.114,4.874l0,3.349l-2.311,0Z" style="fill:#31679b;fill-rule:nonzero;"/><rect x="164.655" y="144.691" width="2.509" height="11.126" style="fill:#31679b;"/><path d="M176.914,155.817l-3.563,-11.126l2.755,0l1.352,4.707c0.381,1.336 0.727,2.589 0.992,3.976l0.05,0c0.278,-1.335 0.626,-2.655 1.005,-3.927l1.421,-4.756l2.675,0l-3.749,11.126l-2.938,0Z" style="fill:#31679b;fill-rule:nonzero;"/><path d="M196.35,151.112l-4.092,0l0,2.641l4.572,0l0,2.064l-7.08,0l0,-11.126l6.848,0l0,2.065l-4.34,0l0,2.313l4.092,0l0,2.043Z" style="fill:#31679b;fill-rule:nonzero;"/><path d="M205.985,149.624l0.991,0c1.255,0 1.996,-0.624 1.996,-1.599c0,-1.003 -0.691,-1.533 -1.844,-1.533c-0.615,0 -0.96,0.034 -1.143,0.085l0,3.047Zm-2.491,-4.767c0.81,-0.149 1.997,-0.246 3.349,-0.246c1.649,0 2.807,0.246 3.599,0.891c0.677,0.527 1.041,1.306 1.041,2.325c0,1.402 -1.007,2.38 -1.966,2.724l0,0.049c0.776,0.315 1.205,1.043 1.488,2.064c0.346,1.264 0.675,2.726 0.892,3.153l-2.578,0c-0.165,-0.312 -0.444,-1.218 -0.76,-2.591c-0.313,-1.405 -0.791,-1.766 -1.829,-1.784l-0.745,0l0,4.375l-2.491,0l0,-10.96Z" style="fill:#31679b;fill-rule:nonzero;"/><path d="M218.31,153.246c0.66,0.345 1.719,0.682 2.79,0.682c1.155,0 1.766,-0.47 1.766,-1.215c0,-0.674 -0.529,-1.087 -1.865,-1.552c-1.852,-0.659 -3.068,-1.682 -3.068,-3.313c0,-1.904 1.599,-3.34 4.207,-3.34c1.271,0 2.181,0.249 2.839,0.565l-0.562,2.012c-0.427,-0.215 -1.235,-0.523 -2.31,-0.523c-1.088,0 -1.616,0.505 -1.616,1.068c0,0.713 0.609,1.017 2.063,1.587c1.962,0.723 2.869,1.747 2.869,3.332c0,1.863 -1.419,3.451 -4.473,3.451c-1.27,0 -2.526,-0.344 -3.148,-0.695l0.508,-2.059Z" style="fill:#31679b;fill-rule:nonzero;"/><rect x="232.104" y="144.691" width="2.508" height="11.126" style="fill:#31679b;"/><path d="M244.25,153.922c0.213,0.049 0.576,0.049 0.875,0.049c2.292,0.014 3.795,-1.24 3.795,-3.899c0,-2.393 -1.356,-3.531 -3.53,-3.531c-0.546,0 -0.927,0.05 -1.14,0.1l0,7.281Zm-2.511,-9.065c0.925,-0.166 2.131,-0.246 3.386,-0.246c2.128,0 3.516,0.344 4.571,1.155c1.156,0.857 1.882,2.243 1.882,4.223c0,2.13 -0.777,3.602 -1.831,4.507c-1.173,0.977 -2.972,1.437 -5.149,1.437c-1.306,0 -2.246,-0.087 -2.859,-0.164l0,-10.912Z" style="fill:#31679b;fill-rule:nonzero;"/><path d="M263.571,151.081l-0.691,-2.356c-0.182,-0.667 -0.379,-1.51 -0.545,-2.148l-0.049,0c-0.15,0.659 -0.333,1.494 -0.494,2.148l-0.682,2.356l2.461,0Zm-2.822,1.878l-0.777,2.858l-2.605,0l3.402,-11.126l3.283,0l3.465,11.126l-2.706,0l-0.857,-2.858l-3.205,0Z" style="fill:#31679b;fill-rule:nonzero;"/><path d="M276.459,153.922c0.211,0.049 0.576,0.049 0.871,0.049c2.293,0.014 3.799,-1.24 3.799,-3.899c0,-2.393 -1.357,-3.531 -3.535,-3.531c-0.545,0 -0.924,0.05 -1.135,0.1l0,7.281Zm-2.51,-9.065c0.924,-0.166 2.128,-0.246 3.381,-0.246c2.13,0 3.518,0.344 4.57,1.155c1.161,0.857 1.883,2.243 1.883,4.223c0,2.13 -0.773,3.602 -1.829,4.507c-1.176,0.977 -2.974,1.437 -5.151,1.437c-1.305,0 -2.247,-0.087 -2.854,-0.164l0,-10.912Z" style="fill:#31679b;fill-rule:nonzero;"/><path d="M301.168,153.922c0.218,0.049 0.584,0.049 0.882,0.049c2.293,0.014 3.791,-1.24 3.791,-3.899c0,-2.393 -1.351,-3.531 -3.527,-3.531c-0.548,0 -0.928,0.05 -1.146,0.1l0,7.281Zm-2.506,-9.065c0.926,-0.166 2.13,-0.246 3.388,-0.246c2.124,0 3.514,0.344 4.567,1.155c1.155,0.857 1.889,2.243 1.889,4.223c0,2.13 -0.782,3.602 -1.84,4.507c-1.169,0.977 -2.97,1.437 -5.146,1.437c-1.307,0 -2.248,-0.087 -2.858,-0.164l0,-10.912Z" style="fill:#31679b;fill-rule:nonzero;"/><path d="M321.714,151.112l-4.094,0l0,2.641l4.575,0l0,2.064l-7.081,0l0,-11.126l6.846,0l0,2.065l-4.34,0l0,2.313l4.094,0l0,2.043Z" style="fill:#31679b;fill-rule:nonzero;"/><path d="M342.538,151.081l-0.693,-2.356c-0.182,-0.667 -0.379,-1.51 -0.54,-2.148l-0.054,0c-0.147,0.659 -0.329,1.494 -0.493,2.148l-0.682,2.356l2.462,0Zm-2.824,1.878l-0.772,2.858l-2.608,0l3.4,-11.126l3.283,0l3.466,11.126l-2.707,0l-0.856,-2.858l-3.206,0Z" style="fill:#31679b;fill-rule:nonzero;"/><path d="M352.916,155.817l0,-11.126l2.938,0l2.31,4.076c0.66,1.173 1.306,2.563 1.818,3.813l0.029,0c-0.149,-1.468 -0.198,-2.97 -0.198,-4.65l0,-3.239l2.319,0l0,11.126l-2.649,0l-2.376,-4.298c-0.663,-1.201 -1.401,-2.619 -1.926,-3.925l-0.072,0c0.085,1.489 0.117,3.057 0.117,4.874l0,3.349l-2.31,0Z" style="fill:#31679b;fill-rule:nonzero;"/><path d="M371.415,146.808l-3.007,0l0,-2.117l8.549,0l0,2.117l-3.036,0l0,9.01l-2.506,0l0,-9.01Z" style="fill:#31679b;fill-rule:nonzero;"/><path d="M387.599,153.999c1.699,0 2.672,-1.599 2.672,-3.778c0,-1.994 -0.941,-3.715 -2.672,-3.715c-1.734,0 -2.71,1.682 -2.71,3.767c0,2.096 1.007,3.726 2.695,3.726l0.015,0Zm-0.118,2.001c-3.283,0 -5.229,-2.493 -5.229,-5.664c0,-3.331 2.145,-5.828 5.41,-5.828c3.42,0 5.284,2.559 5.284,5.628c0,3.666 -2.197,5.864 -5.445,5.864l-0.02,0Z" style="fill:#31679b;fill-rule:nonzero;"/><path d="M399.558,144.691l6.783,0l0,2.065l-4.273,0l0,2.542l3.999,0l0,2.047l-3.999,0l0,4.472l-2.51,0l0,-11.126Z" style="fill:#31679b;fill-rule:nonzero;"/><path d="M417.484,151.081l-0.696,-2.356c-0.183,-0.667 -0.378,-1.51 -0.548,-2.148l-0.048,0c-0.147,0.659 -0.329,1.494 -0.49,2.148l-0.679,2.356l2.462,0Zm-2.827,1.878l-0.777,2.858l-2.606,0l3.399,-11.126l3.287,0l3.462,11.126l-2.703,0l-0.861,-2.858l-3.202,0Z" style="fill:#31679b;fill-rule:nonzero;"/><path d="M436.737,155.305c-0.779,0.267 -2.244,0.628 -3.715,0.628c-2.029,0 -3.497,-0.517 -4.521,-1.485c-1.008,-0.976 -1.574,-2.429 -1.574,-4.063c0.021,-3.692 2.71,-5.809 6.362,-5.809c1.433,0 2.54,0.281 3.082,0.531l-0.526,2.032c-0.61,-0.285 -1.352,-0.481 -2.577,-0.481c-2.093,0 -3.694,1.19 -3.694,3.598c0,2.311 1.454,3.644 3.519,3.644c0.561,0 1.018,-0.063 1.214,-0.147l0,-2.344l-1.713,0l0,-1.961l4.143,0l0,5.857Z" style="fill:#31679b;fill-rule:nonzero;"/><path d="M449.046,151.081l-0.694,-2.356c-0.181,-0.667 -0.379,-1.51 -0.548,-2.148l-0.049,0c-0.148,0.659 -0.323,1.494 -0.492,2.148l-0.674,2.356l2.457,0Zm-2.822,1.878l-0.78,2.858l-2.605,0l3.399,-11.126l3.286,0l3.468,11.126l-2.709,0l-0.857,-2.858l-3.202,0Z" style="fill:#31679b;fill-rule:nonzero;"/><path d="M459.501,153.246c0.661,0.345 1.717,0.682 2.788,0.682c1.159,0 1.77,-0.47 1.77,-1.215c0,-0.674 -0.531,-1.087 -1.868,-1.552c-1.85,-0.659 -3.069,-1.682 -3.069,-3.313c0,-1.904 1.602,-3.34 4.214,-3.34c1.264,0 2.176,0.249 2.833,0.565l-0.559,2.012c-0.427,-0.215 -1.239,-0.523 -2.309,-0.523c-1.092,0 -1.615,0.505 -1.615,1.068c0,0.713 0.603,1.017 2.057,1.587c1.97,0.723 2.872,1.747 2.872,3.332c0,1.863 -1.419,3.451 -4.466,3.451c-1.275,0 -2.531,-0.344 -3.16,-0.695l0.512,-2.059Z" style="fill:#31679b;fill-rule:nonzero;"/><path d="M475.446,146.808l-3.007,0l0,-2.117l8.549,0l0,2.117l-3.036,0l0,9.01l-2.506,0l0,-9.01Z" style="fill:#31679b;fill-rule:nonzero;"/><path d="M491.483,151.081l-0.694,-2.356c-0.18,-0.667 -0.381,-1.51 -0.545,-2.148l-0.049,0c-0.149,0.659 -0.334,1.494 -0.492,2.148l-0.682,2.356l2.462,0Zm-2.823,1.878l-0.776,2.858l-2.605,0l3.398,-11.126l3.287,0l3.461,11.126l-2.707,0l-0.856,-2.858l-3.202,0Z" style="fill:#31679b;fill-rule:nonzero;"/><path d="M145.688,105.524c-0.271,1.453 -0.544,3.083 -0.454,4.895c0.091,3.169 1.903,4.89 4.983,4.89c7.609,0 12.954,-10.508 12.954,-18.208c0,-4.346 -1.812,-7.607 -5.796,-7.607c-4.713,0 -9.332,4.711 -10.873,12.41l-0.814,3.62Zm9.147,-45.655l-5.253,25.363l0.183,0c3.258,-3.891 8.242,-6.338 13.677,-6.338c9.244,0 13.409,7.606 13.409,15.49c0,14.317 -9.422,30.805 -29.352,30.805c-10.51,0 -15.763,-4.53 -15.763,-12.415c0,-2.718 0.452,-5.435 0.997,-8.062l8.967,-44.843l13.135,0Z" style="fill:#31679b;fill-rule:nonzero;"/><path d="M194.608,74.363c-3.622,0 -6.248,-2.537 -6.248,-6.34c0,-4.441 3.532,-7.43 7.519,-7.43c3.894,0 6.613,2.537 6.613,6.431c0,4.62 -3.535,7.339 -7.701,7.339l-0.183,0Zm-16.487,49.825l8.424,-44.301l13.045,0l-8.422,44.301l-13.047,0Z" style="fill:#31679b;fill-rule:nonzero;"/><path d="M215.899,105.524c-0.27,1.453 -0.542,3.083 -0.453,4.895c0.092,3.169 1.904,4.89 4.984,4.89c7.612,0 12.953,-10.508 12.953,-18.208c0,-4.346 -1.81,-7.607 -5.795,-7.607c-4.713,0 -9.333,4.711 -10.873,12.41l-0.816,3.62Zm9.149,-45.655l-5.255,25.363l0.184,0c3.259,-3.891 8.243,-6.338 13.678,-6.338c9.244,0 13.41,7.606 13.41,15.49c0,14.317 -9.425,30.805 -29.354,30.805c-10.509,0 -15.763,-4.53 -15.763,-12.415c0,-2.718 0.451,-5.435 0.998,-8.062l8.969,-44.843l13.133,0Z" style="fill:#31679b;fill-rule:nonzero;"/><path d="M248.336,124.188l12.317,-64.319l13.047,0l-12.324,64.319l-13.04,0Z" style="fill:#31679b;fill-rule:nonzero;"/><path d="M286.564,74.363c-3.623,0 -6.249,-2.537 -6.249,-6.34c0,-4.441 3.531,-7.43 7.52,-7.43c3.89,0 6.611,2.537 6.611,6.431c0,4.62 -3.535,7.339 -7.703,7.339l-0.179,0Zm-16.486,49.825l8.422,-44.301l13.049,0l-8.425,44.301l-13.046,0Z" style="fill:#31679b;fill-rule:nonzero;"/><path d="M306.856,106.616c0,5.161 2.539,8.605 7.16,8.605c6.976,0 11.049,-10.508 11.049,-18.028c0,-4.079 -1.812,-8.423 -6.974,-8.423c-7.52,0 -11.235,10.957 -11.235,17.846m31.712,-9.515c0,16.218 -11.149,28.088 -26.455,28.088c-11.238,0 -18.752,-7.338 -18.752,-18.394c0,-15.311 10.69,-27.992 26.455,-27.992c11.863,0 18.752,8.152 18.752,18.298" style="fill:#31679b;fill-rule:nonzero;"/><path d="M365.2,67.84l-2.265,11.958l9.512,0l-1.992,9.966l-9.42,0l-2.99,15.037c-0.366,1.724 -0.724,4.076 -0.724,5.618c0,2.172 0.899,3.714 3.799,3.714c1.093,0 2.446,0 3.538,-0.179l-1.453,10.234c-1.72,0.635 -4.985,1.001 -7.695,1.001c-7.886,0 -11.6,-3.989 -11.6,-9.607c0,-2.351 0.273,-4.799 1.001,-8.242l3.346,-17.576l-5.616,0l1.817,-9.966l5.705,0l1.629,-8.333l13.408,-3.625Z" style="fill:#31679b;fill-rule:nonzero;"/><path d="M394.554,88.409c-6.069,0 -9.604,5.07 -10.508,9.146c10.238,0.087 15.312,-1.268 15.312,-5.432c0,-2.176 -1.815,-3.714 -4.804,-3.714m11.506,33.241c-5.165,2.633 -11.601,3.539 -16.578,3.539c-12.591,0 -19.114,-7.163 -19.114,-18.755c0,-13.497 9.782,-27.54 25.819,-27.54c8.968,0 15.398,5.07 15.398,13.313c0,11.236 -10.96,15.315 -28.805,14.858c0.086,1.271 0.544,3.265 1.445,4.532c1.725,2.265 4.716,3.438 8.522,3.438c4.796,0 8.875,-1.081 12.408,-2.805l0.905,9.42Z" style="fill:#31679b;fill-rule:nonzero;"/><path d="M445.192,122.741c-2.809,1.359 -7.338,2.353 -12.59,2.353c-10.961,0 -18.663,-6.703 -18.663,-18.117c0,-15.763 12.049,-28.083 28.9,-28.083c3.802,0 7.064,0.723 9.059,1.446l-3.262,10.055c-1.537,-0.632 -3.352,-1.081 -5.978,-1.081c-9.241,0 -15.041,7.879 -15.041,16.21c0,6.073 3.896,9.153 8.7,9.153c3.805,0 6.522,-0.906 8.787,-1.812l0.088,9.876Z" style="fill:#31679b;fill-rule:nonzero;"/><path d="M481.346,89.131c-1.004,-0.182 -2.177,-0.361 -3.538,-0.361c-8.423,0 -14.584,10.325 -14.584,18.569c0,4.346 1.721,7.338 5.347,7.338c3.893,0 8.696,-4.438 10.782,-15.315l1.993,-10.231Zm-3.718,35.057c0.088,-2.627 0.363,-5.615 0.541,-8.788l-0.178,0c-4.077,7.341 -9.787,9.788 -14.95,9.788c-7.969,0 -13.405,-6.162 -13.405,-15.406c0,-14.946 9.965,-30.888 31.71,-30.888c5.344,0 10.954,0.993 14.669,2.173l-4.621,23.189c-1.081,5.709 -1.99,14.406 -1.812,19.932l-11.954,0Z" style="fill:#31679b;fill-rule:nonzero;"/></svg>