<?xml version="1.0" encoding="UTF-8" standalone="no"?><!DOCTYPE svg PUBLIC "-//W3C//DTD SVG 1.1//EN" "http://www.w3.org/Graphics/SVG/1.1/DTD/svg11.dtd"><svg width="100%" height="100%" viewBox="0 0 544 413" version="1.1" xmlns="http://www.w3.org/2000/svg" xmlns:xlink="http://www.w3.org/1999/xlink" xml:space="preserve" xmlns:serif="http://www.serif.com/" style="fill-rule:evenodd;clip-rule:evenodd;stroke-linejoin:round;stroke-miterlimit:2;"><g id="Layer-1" serif:id="Layer 1"><path d="M467.677,85.777c-0.622,-0.264 2.463,-8.263 2.861,-9.435c4.304,5.694 -0.193,1.668 5.867,13.819c-2.924,-1.467 -5.716,-3.09 -8.728,-4.384m-34.816,-10.813c-3.138,0 -6.621,-1.175 -9.999,-1.041c1.775,-1.48 5.556,-4.583 7.595,-5.179c1.084,-0.711 1.599,-1.89 2.766,-2.418c0.821,-0.373 1.889,-0.369 2.761,-0.695c-0.371,1.374 -2.018,9.333 -3.123,9.333m110.908,124.361c-0.662,-12.504 -2.508,-26.132 -7.33,-37.82c-2.471,-6.013 -4.658,-12.348 -7.846,-18.029c-1.861,-3.302 -3.777,-6.443 -5.89,-9.596c-1.533,-2.306 -2.692,-5.298 -4.842,-7.1c11.485,4.018 22.333,-14.929 11.571,-22.114c-4.46,-2.971 -8.44,-7.743 -12.264,-11.396c-3.539,-3.38 -7.458,-6.614 -11.061,-9.672c3.067,-6.126 5.453,-16.085 -0.683,-21.415c3.357,-0.207 10.976,1.547 12.949,-2.42c1.026,-2.054 2.883,-3.39 3.63,-5.871c1.214,-4.026 2.07,-8.614 3.966,-12.439c1.077,-2.155 -0.989,-4.413 -2.583,-5.528c-2.286,-1.594 -6.46,-1.246 -8.637,-3.109c-0.467,-0.397 -0.817,-1.841 -1.383,-2.417c-0.898,-0.914 -1.82,-1.13 -2.584,-1.899c-1.772,-1.765 -6.087,-2.489 -8.469,-3.286c0.917,-1.61 1.841,-3.222 2.765,-4.835c-22.052,-6.008 -43.964,-13.16 -65.641,-20.379c-0.152,1.259 -0.053,5.081 -1.033,5.526c-0.255,0.116 -3.081,-0.925 -3.453,-1.04c-4.685,-1.424 -8.262,-1.22 -9.674,-0.514c-3.373,1.688 -7.599,-4.247 -13.126,-0.863c-2.666,1.639 -2.952,6.308 -3.842,9.108c-1.137,3.562 -3.361,7.765 -2.723,11.616c0.704,4.239 5.405,8.538 9.324,10.021c-4.138,0.542 -7.353,4.437 -9.324,7.599c-1.34,2.151 -1.72,4.118 -2.329,6.549c-0.254,1.022 -0.435,1.897 -0.435,2.947c0,1.16 -4.071,0.577 -4.926,0.628c-7.761,0.45 -15.365,2.208 -23.013,3.489c-4.952,0.832 -9.696,1.556 -12.496,6.244c-4.902,8.244 1.592,19.169 6.585,19.178c-8.98,1.807 -18.062,7.569 -25.869,12.123c-8.758,5.106 -16.182,11.357 -23.536,18.277c-14.389,13.541 -24.24,30.337 -31.922,48.566c-7.579,18.001 -9.532,39.627 -7.458,58.873c12.109,112.024 146.814,158.928 224.318,81.397c26.421,-26.413 41.358,-62.79 39.264,-100.399" style="fill:#fff;fill-rule:nonzero;"/><path d="M505.079,253.906c-2.409,0.804 -2.804,1.073 -3.802,2.074c-0.692,0.345 -1.037,1.036 -1.728,1.728c-1.03,0.691 -1.73,1.383 -1.73,1.383c-0.569,0.564 -1.377,0.376 -1.377,0c-0.696,0 -0.696,-0.692 -0.696,-1.041c0,-1.725 0.236,-2.712 2.42,-3.798c0.692,0 1.383,0 2.074,0.345c1.273,-2.121 0.8,-1.334 2.073,-3.452c-0.345,-0.346 -0.69,-0.346 -1.036,-0.691c-2.281,-0.58 -4.201,-0.277 -5.872,1.382c-1.586,1.586 -3.658,5.419 -3.106,7.6c0,1.729 1.028,2.757 2.419,3.798l0.687,0c0.341,0.342 0.695,0.342 1.378,0.342c0.688,0.346 1.036,0 1.736,-0.342c0.683,0 1.38,-0.686 2.758,-1.724c0.388,-0.387 1.211,-1.387 1.729,-1.387c1.383,-1.724 2.419,-2.073 3.101,-1.724c0.696,0 0.696,0.346 0.696,1.037c0,2.138 -0.748,2.112 -1.724,3.112c-0.69,0.345 -1.383,0.345 -2.073,0l-1.729,3.106l-0.345,0.346l0.345,0c7.954,3.976 13.61,-12.094 3.802,-12.094" style="fill:#00579d;fill-rule:nonzero;"/><path d="M507.144,242.508l1.392,-3.452c2.165,1.733 1.098,0.963 4.831,3.452l-6.223,0Zm-3.102,-11.744l-1.382,4.147l2.764,2.066l-1.728,5.185l-3.456,0l-1.382,4.49c13.678,0 9.467,0.1 17.964,-0.342l1.385,-4.493c-3.202,-2.398 -0.467,-0.385 -14.165,-11.053" style="fill:#00579d;fill-rule:nonzero;"/><path d="M503.006,145.089c-3.578,2.868 -1.359,0.859 -11.402,7.257l2.078,3.799c5.413,-3.25 3.499,-2.45 11.743,-7.256l2.42,4.147l2.411,-1.379l0.346,-0.35c-0.502,-1 0.42,0.574 -7.255,-12.09c-2.431,1.625 -1.839,1.152 -2.762,2.077l0.692,1.035l1.729,2.76Z" style="fill:#00579d;fill-rule:nonzero;"/><path d="M513.713,164.779c0.747,2.96 -0.593,4.445 -3.457,5.877l-0.337,0c-1.668,0.831 -5.382,1.281 -6.223,-2.077c-2.738,-4.096 6.216,-7.212 7.606,-5.874c1.028,0.35 1.719,1.042 2.411,2.074m-12.436,-3.106c-0.592,1.185 -3.046,3.609 -1.037,8.292c0.946,1.897 1.748,4.157 4.494,4.832c1.728,0.691 3.449,1.039 5.522,0.348c0.346,0 1.046,-0.348 1.383,-0.348c4.847,-2.061 7.282,-6.168 5.183,-11.05c-1.645,-5.727 -9.566,-8.062 -15.545,-2.074" style="fill:#00579d;fill-rule:nonzero;"/><path d="M504.388,181.363l1.036,4.141c5.673,-1.215 4.436,-0.936 6.214,-1.378l1.382,6.911l3.458,-1.037l-1.38,-6.563c2.117,-0.426 1.331,-0.268 3.449,-0.689l1.725,7.598l3.455,-0.694l-2.765,-11.746c-9.669,1.615 -4.22,1.277 -16.574,3.457" style="fill:#00579d;fill-rule:nonzero;"/><path d="M499.549,270.489l-3.106,3.803c-2.003,-2.012 -7.607,-6.019 -10.707,-8.292c-1.287,2.123 -0.736,1.337 -2.416,3.448c8.068,6.135 8.398,6.578 10.362,8.296l-2.766,3.798l2.411,2.074c1.627,-1.624 1.56,-1.142 8.987,-11.053c-1.305,-0.871 -0.691,-0.415 -2.765,-2.074" style="fill:#00579d;fill-rule:nonzero;"/><path d="M516.822,214.18c-0.344,0 -0.695,0 -1.036,-0.341l-3.802,0c-0.683,0.341 -1.037,0.341 -1.728,0.687c-0.337,0 -0.691,0.345 -1.383,0.691c-0.691,0.692 -1.378,1.379 -2.071,2.07c-0.34,1.04 -0.695,1.732 -1.036,2.77c0,1.378 0,2.415 0.341,3.106c0,1.033 0.695,2.07 1.388,2.761l-2.07,0l-0.692,2.762c6.669,0.84 4.653,0.537 9.329,1.387l1.036,-7.601l-3.114,-0.342l-0.683,3.448c-0.354,0 -0.7,-0.345 -1.045,-0.345c-0.337,-0.346 -0.691,-0.692 -0.691,-1.037c-0.342,-0.683 -0.692,-1.724 -0.342,-2.761c0,-0.692 0.342,-1.725 1.033,-2.073c0.345,-0.343 0.345,-0.343 0.691,-0.692c3.324,-1.098 4.875,0 5.875,0c0.688,0.349 1.385,1.04 2.075,1.387c0.688,1.037 1.029,2.073 1.029,3.106c-0.341,1.033 -0.341,1.724 -1.029,2.07c-0.349,0.691 -1.036,0.691 -1.728,1.042c-0.437,1.735 -0.279,0.824 -0.691,4.143c7.564,0 10.87,-12.731 0.344,-16.238" style="fill:#00579d;fill-rule:nonzero;"/><path d="M533.406,205.545c0,40.558 -20.178,77.743 -53.418,100.756c-30.754,21.295 -69.55,27.184 -110.1,13.667c-35.768,-11.934 -66.273,-45.262 -75.424,-81.842c-8.417,-33.654 -4.172,-63.571 8.805,-87.951c4.7,-8.808 10.05,-18.178 17.162,-25.292c13.499,-13.498 27.502,-24.838 45.426,-31.957c35.916,-14.249 78.223,-12.113 111.412,10.022c16.611,11.075 28.916,24.767 39.553,41.452c11.365,17.821 16.584,40.21 16.584,61.145m2.416,-18.31c-6.996,-39.669 -30.087,-73.5 -65.733,-92.518c-16.264,-8.674 -35.267,-14.574 -53.855,-14.574c-8.677,0 -17.889,-0.054 -26.361,1.901c-6.959,1.609 -21.876,4.751 -25.395,7.428c-5.341,1.11 -11.45,5.295 -16.237,7.946c-4.874,2.696 -10.967,6.205 -14.856,10.363l-0.345,0c-7.622,6.868 -14.613,13.546 -20.965,21.628c-17.249,21.969 -27.459,51.658 -25.45,86.162c1.188,20.204 8.741,39.696 19.073,56.897c10.196,16.981 24.904,29.677 41.16,40.514c15.706,10.458 42.59,17.62 55.704,17.62c9.792,0 19.116,0.648 28.829,-1.297c9.545,-1.914 18.968,-3.789 27.974,-7.795c17.24,-7.66 33.369,-17.689 45.667,-32.221c13.303,-15.715 22.792,-32.592 28.332,-52.511c4.515,-16.233 4.299,-32.988 2.458,-49.543" style="fill:#00579d;fill-rule:nonzero;"/><path d="M540.311,205.545c0,87.633 -86.069,147.101 -163.838,123.747c-81.667,-24.537 -119.306,-117.908 -74.172,-191.457c16.461,-26.828 46.073,-47.662 66.878,-53.601c9.308,-2.661 19.374,-6.504 29.157,-6.504c4.573,0 9.121,-0.696 13.724,-0.696c37.562,0 73.715,17.77 92.068,39.197c5.203,6.074 11.244,11.971 15.202,19c4.117,7.32 8.011,14.404 11.38,22.106c6.551,14.998 9.601,31.875 9.601,48.208m-104.327,-139.91c-0.371,1.372 -2.018,9.331 -3.123,9.331c-3.138,0 -6.62,-1.174 -9.999,-1.039c1.775,-1.482 5.556,-4.583 7.595,-5.18c1.084,-0.709 1.599,-1.891 2.766,-2.418c0.821,-0.372 1.889,-0.367 2.761,-0.694m36.619,13.819c0.312,3.614 2.161,7.421 3.802,10.709c-2.924,-1.466 -5.716,-3.088 -8.728,-4.382c-0.622,-0.263 2.463,-8.263 2.862,-9.436c0.811,1.075 1.676,1.858 2.064,3.109m-104.322,-3.109c-5.664,-2.237 -5.176,-11.701 -1.388,-15.199c2.459,-2.798 7.454,-2.301 10.781,-2.64c3.085,-0.315 21.35,-3.578 26.47,-3.578c3.244,0 2.48,-0.741 2.48,-3.813c0,-3.078 0.865,-7.067 3.111,-9.313c4.788,-4.792 11.217,-7.046 17.621,-3.455c2.562,1.439 5.53,5.652 8.084,5.071c2.32,-0.53 4.653,-1.059 6.987,-1.589c0.44,-0.101 0.129,-5.167 0.129,-5.902c-2.782,0.856 -4.079,1.524 -6.801,0.614c-12.292,-4.097 -15.298,-3.957 -19.462,-6.138c-3.188,-1.674 -6.87,-4.206 -6.913,-8.292c-0.034,-4.249 2.442,-8.875 3.743,-12.869c0.855,-2.632 0.527,-3.366 3.17,-3.366c1.599,0 3.778,1.198 5.376,1.7c4.823,1.491 3.738,0.874 5.34,0.026c1.941,-1.03 7.822,0.402 8.975,0.862c1.75,0.696 3.858,1.266 5.877,1.558c0.246,-1.723 0.574,-3.455 0.695,-5.183c18.65,6.991 38.301,12.104 57.343,17.964c-0.921,1.497 -1.846,2.994 -2.766,4.492c2.887,0.961 11.424,3.209 13.468,5.867c0.492,0.639 0.83,2.353 1.841,2.692c2.315,0.765 4.609,1.523 6.939,2.223c4.182,1.259 1.401,7.514 1.068,8.562c-1.646,5.079 -2.157,10.467 -7.429,11.744c-6.762,1.644 -11.952,-1.824 -27.367,-6.382c-1.634,-0.481 -2.705,-2.714 -3.717,-3.984c-0.725,1.046 -3.884,4.368 -3.024,5.272c1.763,1.879 4.865,4.15 5.776,6.474c20.334,-5.084 25.682,14.353 16.243,24.532c4.157,1.479 8.348,7.078 11.675,9.985c3.085,2.697 6.158,5.421 9.057,8.321c2.384,2.389 5.512,4.119 7.336,7.055c3.172,5.138 -1.348,13.036 -7.103,13.987c-5.746,0.951 -10.448,-5.513 -13.74,-9.241c-14.705,-16.727 -28.326,-18.81 -31.171,-32.17c-0.363,-1.67 -0.58,-4.786 -1.755,-6.062c-2.15,-2.354 -4.294,-4.71 -6.429,-7.078c-1.452,4.621 -2.955,9.221 -4.485,13.818c-8.953,-3.042 -18.126,-5.999 -27.3,-8.289c1.504,-4.61 2.995,-9.215 4.503,-13.821c-3.007,0.635 -6.827,0.86 -9.679,2.077c-2.302,0.125 -5.375,4.588 -7.604,5.699c-3.609,1.797 -6.517,3.733 -10.639,4.172c-8.109,0.861 -16.772,-0.595 -24.711,1.488c-2.908,0.763 -5.828,0.978 -8.715,1.899c-4.173,1.34 -7.725,1.998 -11.89,0.21m175.488,122.982c-0.662,-12.505 -2.508,-26.131 -7.33,-37.821c-2.471,-6.009 -4.658,-12.344 -7.846,-18.026c-1.861,-3.303 -3.777,-6.442 -5.889,-9.594c-1.534,-2.308 -2.693,-5.298 -4.843,-7.102c11.485,4.016 22.333,-14.928 11.571,-22.116c-4.46,-2.968 -8.439,-7.744 -12.264,-11.397c-3.539,-3.376 -7.458,-6.613 -11.061,-9.669c3.067,-6.127 5.453,-16.084 -0.683,-21.417c3.358,-0.203 10.976,1.547 12.949,-2.419c1.026,-2.053 2.883,-3.388 3.63,-5.873c1.214,-4.022 2.071,-8.614 3.966,-12.437c1.077,-2.154 -0.989,-4.411 -2.583,-5.529c-2.286,-1.591 -6.46,-1.248 -8.637,-3.109c-0.466,-0.398 -0.817,-1.838 -1.382,-2.415c-0.899,-0.914 -1.821,-1.129 -2.584,-1.903c-1.773,-1.761 -6.088,-2.485 -8.47,-3.282c0.917,-1.611 1.841,-3.221 2.766,-4.837c-22.053,-6.006 -43.964,-13.159 -65.642,-20.378c-0.151,1.256 -0.053,5.082 -1.033,5.525c-0.255,0.119 -3.081,-0.922 -3.452,-1.039c-4.63,-1.403 -8.223,-1.239 -9.675,-0.512c-3.387,1.689 -7.584,-4.262 -13.126,-0.865c-2.666,1.639 -2.951,6.308 -3.842,9.106c-1.137,3.565 -3.361,7.765 -2.723,11.62c0.704,4.236 5.406,8.538 9.325,10.019c-4.139,0.541 -7.354,4.438 -9.325,7.599c-1.339,2.151 -1.719,4.118 -2.329,6.548c-0.254,1.024 -0.435,1.899 -0.435,2.949c0,1.16 -4.071,0.577 -4.926,0.629c-7.761,0.452 -15.365,2.208 -23.013,3.489c-4.952,0.832 -9.696,1.553 -12.496,6.242c-4.902,8.247 1.593,19.171 6.585,19.177c-8.979,1.807 -18.061,7.568 -25.869,12.122c-8.758,5.11 -16.182,11.358 -23.536,18.28c-14.389,13.542 -24.239,30.334 -31.922,48.564c-7.579,18.003 -9.532,39.629 -7.458,58.871c12.099,111.927 146.739,159.006 224.318,81.402c26.421,-26.413 41.358,-62.79 39.264,-100.402" style="fill:#00579d;fill-rule:nonzero;"/><path d="M501.275,38.345l1.731,1.728l-1.727,1.729l-1.73,-1.729l1.726,-1.728Z" style="fill:#00579d;"/><path d="M429.771,16.926l0,2.765l2.761,0l0.345,-2.765l-3.106,0Z" style="fill:#00579d;fill-rule:nonzero;"/><path d="M371.387,68.747l0,-1.727l0.346,0l0,-0.343l0.341,0l0,-0.347c6.11,-2.2 13.879,-2.301 20.39,-2.769c8.59,-0.615 18.245,-1.032 18.649,-1.032c2.009,0 3.608,-1.212 5.527,-1.383l0.35,0.348c0.427,-0.105 0.773,0 1.032,0.346c1.469,0.566 3.241,0.345 4.84,0.345l0,0.344l-0.346,0c-2.436,2.413 -0.851,1.084 -6.564,3.801c-2.398,-0.366 -5.414,0.347 -7.951,0.347c-11.335,0 -13.318,-0.076 -16.228,0.343c-2.51,0.357 -5.406,1.223 -7.955,1.036l-0.341,0.345c-1.387,0.095 -2.809,0.356 -4.144,0.691l-0.345,0.346c-0.959,-0.104 -1.858,0.173 -2.761,0.341l-0.351,0.35l-1.036,0l-0.347,0.346l-1.037,0l-0.34,-0.346c-0.781,0 -0.584,0.11 -1.383,-0.691l0,-0.346l-0.346,0l0,-0.345m42.15,-16.929c0,-4.04 2.54,-7.48 6.559,-7.947c2.792,0 8.287,2.005 8.287,5.186l-3.447,0.691c-0.355,-0.691 -2.074,-1.73 -2.074,-1.73c-1.729,-0.344 -3.803,0.343 -4.149,2.075c-0.346,1.379 0.688,3.109 2.42,3.455c2.649,1.333 7.64,-0.615 10.422,-1.309c3.215,-0.806 6.417,-1.606 9.614,-2.491c0,0.808 1.032,4.145 1.387,4.489c-3.578,0.81 -7.155,1.579 -10.716,2.418c-2.636,0.622 -5.548,1.951 -8.287,1.728c-4.728,2.424 -8.802,-2.912 -10.016,-6.565m31.084,-1.381c-0.005,-1.013 0.55,-1.733 1.383,-2.076c2.982,-1.476 9.696,2.173 12.643,3.065c3.725,1.122 8.607,1.828 11.891,3.846c5.548,3.42 14.584,20.384 20.377,20.384c3.829,-1.284 3.042,-5.26 0,-5.877c-1.038,-0.341 -2.074,-0.341 -2.769,0.35l-2.411,-3.109c3.094,-2.543 9.199,-1.822 12.43,3.798c0.727,2.999 -0.993,7.873 -4.484,8.981c-4.088,1.562 -9.316,-1.33 -10.717,-4.143c-2.349,-2.296 -4.479,-4.864 -6.687,-7.296c-9.848,-10.822 -2.853,-7.467 -20.232,-12.98c-2.976,-0.942 -6.489,-2.828 -9.694,-2.526c-1.081,-0.528 -1.453,-1.205 -1.73,-2.417m0.691,-20.725c-3.127,-0.784 -4.536,-0.058 -7.596,1.037c-6.382,-2.392 -13.127,-4.345 -19.694,-6.219l-1.032,-1.727l0.341,-1.037c3.69,1.152 7.367,2.305 11.052,3.452l1.037,-3.106c-3.681,-1.16 -7.362,-2.319 -11.053,-3.455c0.458,-1.232 0.528,-2.504 0.692,-3.801l0.342,-0.342c2.917,0.866 5.357,2.113 8.291,1.376c0.234,-0.227 1.042,-1.034 1.042,-1.034c5.915,-0.19 12.785,3.46 12.785,3.46c0.224,0.226 2.066,2.528 2.066,2.754c-1.029,-0.339 -2.066,-0.687 -3.107,-1.034l0.341,-1.033l-3.103,-1.037l-1.382,4.489c19.331,6.045 38.792,12.628 58.383,17.964c0.597,-1.339 0.977,-2.735 1.383,-4.146c-1.002,-0.485 -2.049,-0.728 -3.119,-1.036l-0.338,1.036c-0.942,-0.145 -1.875,-0.357 -2.766,-0.689l1.038,-1.037c4.904,0 9.731,1.387 13.818,3.456l1.033,1.036c-0.147,3.37 5.194,4.373 7.6,4.832c-0.259,1.299 -0.976,2.518 -1.382,3.803c-4.14,-0.631 -8.012,-2.536 -12.085,-3.452l-1.041,3.106c3.758,1.076 8.23,3.474 12.089,3.457l-0.346,1.377c-0.597,0.077 -1.219,0.332 -1.729,0.692c-20.349,-6.478 -18.414,-4.537 -22.693,-10.216c-0.924,-1.236 -5.893,-2.092 -7.358,-2.564c-11.109,-3.612 -22.335,-6.942 -33.509,-10.362m4.145,-14.856c12.853,4.173 25.747,8.209 38.689,12.091c-1.28,2.052 -2.391,4.529 -4.136,6.216c-11.618,-3.09 -23.03,-6.933 -34.553,-10.36l0,-7.947m22.458,35.581l-0.695,1.035c-7.134,-2.191 -14.276,-4.38 -21.419,-6.563l-0.344,-10.015c9.07,2.941 18.125,6.011 27.289,8.636l-4.831,6.907m22.107,38.691c5.422,4.5 11.291,7.262 16.233,12.435c1.416,1.386 13.878,11.358 12.267,12.958c-2.743,2.727 -4.575,0.258 -6.563,-1.73c-1.975,-1.968 -3.509,-4.437 -5.843,-6.559c-3.275,-2.975 -6.577,-6.066 -10.369,-8.349c-2.541,-1.536 -6.55,-3.781 -8.487,-5.991c-3.404,-2.554 -8.296,-6.023 -8.296,-11.054c1.012,1.005 2.182,2.073 3.799,2.073c2.916,1.03 4.661,4.1 7.259,6.217m-31.78,-18.999l-1.729,5.527c-5.012,-1.597 -10.353,-4.088 -15.542,-4.838c1.508,-4.446 2.77,-8.983 4.145,-13.472c5.179,1.5 10.353,3.007 15.545,4.494l-2.419,8.289m-92.924,2.072c0.544,0.518 1.106,0.972 1.719,1.385l0.696,0l0.341,0.341c2.325,0 4.364,-0.25 6.568,-0.693l0.346,-0.343l1.382,0l0.341,-0.346c1.889,-0.466 4.575,-1.355 6.564,-1.033l0.345,-0.346c2.498,0.406 5.359,-0.691 7.951,-0.691c15.473,0 21.036,0.901 24.871,-2.074l0.691,0c1.599,-1.419 3.625,-3.504 5.526,-4.492l0,-0.348c0.61,-0.684 1.12,-1.376 1.724,-2.067l0,-0.348c5.674,-1.134 11.321,-2.396 16.929,-3.8c-1.693,5.294 -3.24,10.571 -4.834,15.888c7.289,2.575 15.503,3.524 22.455,6.909c1.582,-5.187 3.119,-10.392 4.84,-15.544c3.806,4.128 7.475,8.417 11.394,12.435l0,4.148c1.594,2.834 1.325,5.71 3.594,8.225c5.312,5.872 11.811,9.403 18.516,13.885c6.161,4.997 10.81,10.468 15.891,15.546c2.593,-0.026 3.89,1.158 6.559,-0.176c2.036,-1.012 2.922,-4.289 2.421,-6.387c-0.965,-4.072 -6.629,-6.866 -9.326,-9.674l0,-0.346c-2.289,-1.214 -4.156,-4.532 -6.567,-5.181l0,-0.348c-2.964,-1.577 -6.75,-4.67 -9.15,-7.079c-2.122,-2.124 -5.143,-3.671 -7.424,-5.701c0.068,-0.305 -0.044,-0.42 -0.355,-0.344c1.322,-0.838 2.86,-0.702 4.303,-1.727c1.741,-1.244 3.371,-3.534 3.993,-5.53c3.134,-12.636 -12.854,-18.108 -17.965,-12.092c-3.172,-3.621 -6.388,-7.183 -9.671,-10.705c2.203,-2.984 4.411,-5.963 6.559,-8.986c1.2,0.364 3.093,0.487 3.802,1.556c0.769,1.152 1.66,3.211 2.769,3.975c1.863,1.293 6.266,1.826 8.458,2.466c13.184,3.871 12.414,4.662 18.138,2.37c0.906,-3.185 2.402,-6.53 3.11,-9.677l0.346,-0.343c0.649,-4.259 -5.383,-3.855 -7.603,-5.87l-0.693,-2.07c-2.333,-3.336 -14.85,-6.22 -14.85,-6.22l-2.762,0c0,0 -1.037,0.344 -1.383,0.344c1.877,-1.567 2.913,-4.165 4.145,-6.221c-15.983,-5.322 -32.186,-10.131 -48.364,-14.85l0.346,7.252l-0.692,-0.347l0,-0.344c-1.546,-1.281 -3.31,-2.031 -5.244,-2.612c-2.559,-0.767 -9.269,-2.914 -9.269,-2.914l-2.416,0l-2.766,1.724c-2.661,-0.525 -4.725,-2.266 -7.595,-2.07c-3.206,3.22 -3.474,8.119 -4.831,12.433l2.066,4.496c7.423,2.359 15.188,4.181 22.459,6.907c3.496,-1.253 5.073,-1.925 8.635,-0.689l0,10.704c-4.581,1.593 -9.464,2.626 -14.165,3.799l0,-0.687c-0.234,-0.229 -0.692,-1.376 -0.692,-1.376c-1.037,-1.176 -1.982,-2.333 -3.111,-3.462c0,0 -1.262,-0.685 -1.724,-1.034l-3.797,-1.383c-6.822,0 -5.221,0.52 -7.251,1.037l-0.701,0.346c-0.915,0.922 -1.839,1.842 -2.759,2.76c0,0 -0.692,1.038 -1.038,1.386c-0.013,0.54 -1.037,2.761 -1.037,2.761c0.445,3.821 0,6.33 2.761,9.674l-0.342,0.346c-0.579,0 -2.074,0.346 -2.074,0.346c-13.653,0 -26.555,1.91 -39.73,3.802c-1.213,0.671 -1.858,1.745 -2.756,2.759l0,0.694l-0.346,0.347c-0.142,1.355 0.255,2.496 0.346,3.798c0.523,0.54 0.976,1.109 1.383,1.726" style="fill:#00579d;fill-rule:nonzero;"/><path d="M477.439,135.076c1.697,2.115 1.067,1.407 2.76,3.105l3.811,-3.455c0,-0.344 0.337,-0.344 0.678,-0.689c1.649,-1.615 2.389,-2.359 3.116,-3.455c-1.617,4.841 -2.993,9.864 -3.457,11.747c0.53,0.537 2.608,2.891 3.112,3.456c4.493,-4.043 1.765,-1.422 12.089,-11.748l-2.765,-3.109l-1.378,1.727c-2.489,1.996 -5.726,5.218 -6.218,6.219c0.736,-2.246 -0.264,-1.269 1.729,-5.18l0,-0.694l1.727,-6.216c-2.106,-2.532 -1.411,-1.76 -3.115,-3.459c-9.021,9.021 -7.883,7.543 -12.089,11.751" style="fill:#00579d;fill-rule:nonzero;"/><path d="M514.062,203.818l0,-3.802c3.39,1.274 2.052,0.878 5.863,1.732c-3.81,1.266 -2.473,0.795 -5.863,2.07m2.76,-6.913c-7.878,-2.481 -5.76,-1.798 -9.678,-3.108l0,4.495l3.111,0.689c0,0.538 0.312,5.333 0.346,5.872l-0.346,0l-2.76,1.035l0.349,4.841c9.653,-4.159 9.108,-3.848 16.578,-6.567l-0.348,-4.835l-7.252,-2.422Z" style="fill:#00579d;fill-rule:nonzero;"/><path d="M315.082,219.019l-0.35,-4.147c-5.686,0.406 -4.303,0.345 -6.908,0.345l-0.691,0.346c-0.688,0 -1.729,0 -3.108,0.346c11.379,-7.586 -6.259,4.511 10.366,-6.911l-0.345,-4.488c-7.834,0.433 -4.151,0.206 -16.584,1.035l0,4.146c6.479,-0.505 6.173,-0.336 7.255,-0.693l3.107,0l0.692,-0.343l-0.692,0.686c-3.636,1.839 -2.762,1.233 -10.015,6.222l0.34,4.494c11.868,-0.852 8.016,-0.617 16.933,-1.038" style="fill:#00579d;fill-rule:nonzero;"/><path d="M347.549,132.654c0.514,-0.516 2.516,-2.239 3.115,-2.761c-6.076,-6.818 -1.118,-1.438 -10.712,-12.785l-0.344,0l-3.113,2.765c3.273,3.629 2.56,2.74 11.054,12.781" style="fill:#00579d;fill-rule:nonzero;"/><path d="M356.19,111.584c2.181,1.075 3.803,4.064 3.803,6.213c-0.81,2.445 -2.511,2.985 -4.152,3.805c-1.336,-2.683 -0.371,-0.992 -4.836,-8.29c2.482,-1.662 3.291,-2.671 5.185,-1.728m-2.077,15.201l0.695,-0.348c5.803,-3.73 8.016,-4.698 9.324,-7.946c0,-2.775 0.3,-3.837 -1.723,-6.566c-1.383,-2.413 -2.761,-3.8 -4.84,-4.489c-4.317,0 -2.276,-0.787 -12.086,4.839c3.036,5.654 1.168,2.486 8.63,14.51" style="fill:#00579d;fill-rule:nonzero;"/><path d="M478.821,286.727l-2.76,-1.728c3.12,-2.344 2.591,-1.906 3.107,-2.419l2.073,5.526l-2.42,-1.379Zm1.042,-13.477c-1.313,1.313 -0.559,0.629 -3.458,3.108l1.38,2.769l-4.494,3.798c-1.689,-1.273 -1.061,-0.879 -2.752,-1.728l-3.461,2.765l4.838,3.112l6.905,4.143l3.458,2.07l2.409,-1.729l1.393,-1.374l-1.393,-3.802l-4.825,-13.132Z" style="fill:#00579d;fill-rule:nonzero;"/><path d="M315.082,225.233c-0.691,-0.691 -1.732,-0.691 -2.419,-0.691c-1.162,-0.388 -1.195,-0.22 -13.131,2.765l1.036,4.149c12.143,-2.895 11.782,-2.93 12.782,-2.42c0.696,0 1.041,0.69 1.382,1.728c0,1.032 0,1.728 -0.341,2.42c-0.345,0.345 -1.041,1.036 -2.074,1.036c-5.518,1.699 -3.155,1.071 -10.366,2.757l1.037,4.149l4.836,-1.038c10.083,-2.873 8.27,-2.767 10.02,-4.485c0.341,-1.041 0.341,-1.732 0.687,-2.766c0,-1.041 0,-2.073 -0.346,-3.111c-0.492,-1.499 -1.658,-3.766 -3.103,-4.493" style="fill:#00579d;fill-rule:nonzero;"/><path d="M445.312,166.508l0.692,0.348c-3.398,-5.112 -8.314,-10.477 -14.164,-12.438c0,0 -0.345,0 -0.686,-0.344l-3.462,11.74c6.528,-1.617 8.525,-2.323 17.62,0.694" style="fill:#00579d;fill-rule:nonzero;"/><path d="M449.116,116.073l1.027,-3.109c-5.797,-2.074 -4.115,-1.549 -7.587,-2.42l-0.695,-0.341c0.834,-2.906 0.609,-2.153 1.032,-3.459c3.044,0.87 1.46,0.348 7.25,2.42l1.041,-3.109c-6.895,-2.433 -5.477,-1.973 -7.249,-2.418l1.036,-3.11l0.341,0.345l7.606,2.42l1.037,-3.109l-8.643,-3.109c-3.174,-0.796 -2.459,-0.543 -3.451,-1.039l-5.181,15.89c11.25,3.974 6.994,2.664 12.436,4.148" style="fill:#00579d;fill-rule:nonzero;"/><path d="M447.387,206.58c-1.036,0 -1.729,-0.691 -2.075,-1.035c-0.341,-0.35 -0.341,-0.692 -0.341,-1.035c0,-0.348 0,-0.348 0.341,-0.348c0.346,-0.691 1.729,-0.691 3.111,-0.344c4.671,2.344 1.701,3.857 -1.036,2.762m-10.371,1.73c-6.519,-2.179 -3.599,-1.245 -14.154,-4.492c0,-2.674 0.252,-3.766 -1.387,-6.221c1.795,-1.784 0.288,-0.384 8.637,-7.945c0.345,0.348 0.687,0.348 1.042,0.348c0.506,0.515 0.198,0.346 3.106,0.346c0.922,2.302 -0.025,0.007 5.872,14.164c-1.387,1.035 -2.416,2.07 -3.116,3.8m-5.176,11.051l-5.867,3.802c-0.696,-1.033 -1.737,-2.069 -3.111,-2.766c-0.346,0 -0.692,-0.34 -1.042,-0.34c-1.724,-0.696 -3.107,-0.347 -4.83,0c-1.996,-8.362 -1.733,-6.956 -1.733,-8.292c3.11,-0.692 5.526,-2.768 6.913,-5.529c1.04,0.517 13.164,4.242 14.164,4.493c-0.35,2.068 -0.35,3.796 0.682,5.525c-2.539,1.7 -1.419,1.024 -5.176,3.107m-8.978,4.493c-0.692,0.341 -1.729,0.341 -2.766,0c-1.383,-0.691 -2.42,-1.382 -2.765,-1.724l0,-0.696c0.345,-0.691 2.07,-1.037 3.452,-0.34c1.438,0 3.209,1.627 2.079,2.76m-7.952,-27.293c-3.84,-0.96 -2.663,-3.511 0.347,-2.763l0.695,0c2.759,0.698 4.126,3.72 -0.695,2.763l-0.347,0Zm-2.073,27.293c-10.65,-3.283 -10.083,-3.133 -13.127,-4.144l0,-2.073c3.918,-3.484 2.075,-1.797 8.291,-7.606c1.157,1.157 1.227,0.874 2.771,1.386c0.341,0.348 1.028,0.348 1.723,0.348l2.079,9.669c-0.696,0.696 -1.383,1.383 -1.737,2.42m-14.16,-8.983c-0.341,-0.691 -0.695,-1.383 -1.378,-2.074c-1.045,-0.345 -1.728,-1.032 -2.765,-1.38c-0.687,0 -1.382,-0.344 -2.419,-0.344c-0.697,0 -1.383,0.344 -2.42,0.344l-4.839,-11.746c1.383,-0.69 2.764,-2.074 3.456,-3.8c7.236,1.968 11.5,3.742 15.896,4.836c-0.696,2.764 0,5.529 1.725,7.603c-3.821,3.394 -2.189,1.917 -7.256,6.561m-5.185,0.346c-0.34,-0.346 -0.687,-0.346 -1.377,-0.692c-0.697,-0.345 -1.038,-1.037 -1.038,-1.728c0,-0.345 0.696,-0.345 1.038,-0.689c5.153,0 7.273,4.287 1.377,3.109m-11.052,-29.017c-1.729,-0.696 -2.761,-1.73 -2.761,-2.418c0.336,-0.691 2.074,-1.034 3.452,-0.345c0.346,0 0.687,0 0.687,0.345c1.382,0.344 2.078,1.034 1.737,1.722c0,0.696 -0.699,1.039 -1.737,1.039c-0.341,0 -1.029,-0.343 -1.378,-0.343m18.657,-6.22c0.342,0.348 1.033,1.037 1.725,1.383c0.349,0 0.69,0 1.037,0.345c0.691,0 1.39,0.347 2.074,0.347c2.734,12.103 2.419,10.361 2.419,11.743l0.346,0.348l-0.346,0l0,0.344c-1.383,0.693 -2.766,2.071 -3.457,3.802c-1.001,-0.336 -11.636,-3.859 -15.546,-4.837c0.346,-2.074 0,-3.803 -0.691,-5.529c6.762,-4.738 2.227,-1.44 12.439,-7.946m7.255,-12.433l0,0.341c1.065,0 3.191,1.214 2.761,2.077c-0.607,1.23 -2.447,0.691 -3.453,0.691c-1.382,-0.691 -2.411,-1.73 -2.411,-2.418c0.337,-0.691 1.375,-0.691 3.103,-0.691m17.621,14.508c-0.356,2.071 0.341,4.488 2.065,6.217l-5.176,4.49l-2.766,2.767c-1.037,-1.039 -2.42,-1.731 -3.803,-2.074c-0.341,-0.348 -0.682,-0.348 -1.036,-0.348c-1.379,-0.345 -2.762,-0.345 -4.144,0l-2.761,-11.399c2.069,-0.691 3.448,-2.069 4.485,-3.802c4.029,1.151 9.168,2.825 13.136,4.149m8.978,-5.875l0.346,0.348c1.719,0.344 2.761,1.378 2.419,2.42c0,0.691 -1.382,0.691 -2.765,0.341l-0.35,0c-1.724,-0.691 -2.761,-1.726 -2.761,-2.417c0.346,-0.692 1.729,-0.692 3.111,-0.692m7.605,27.291l-5.876,-13.819c1.724,-1.039 3.452,-2.417 4.139,-4.489c1.042,-4.146 -1.037,-8.291 -5.176,-9.674l-0.692,0c-2.488,-0.825 -6.666,0.53 -8.292,3.8c-3.764,-1.026 -9.511,-2.692 -13.122,-4.144c0.932,-9.44 -12.174,-11.138 -14.86,-3.11c-0.341,2.073 -0.341,4.145 0.692,5.871c-5.159,3.446 -1.463,0.779 -12.094,7.598c-1.036,-1.034 -2.075,-1.722 -3.457,-2.413c-0.341,-0.343 -0.687,-0.343 -1.029,-0.343c-4.066,-1.748 -9.993,0.658 -12.098,5.865c-1.718,6.367 3.46,11.054 5.536,11.749c0.341,0 0.341,0.345 0.686,0.345c2.075,0.694 3.798,0.694 5.527,0c1.759,4.413 0.715,1.948 5.18,12.09c-5.307,4.002 -3.072,11.753 2.42,13.127c2.006,1.017 7.72,0.012 8.979,-3.794c3.392,1.233 5.185,1.965 13.132,4.144c-0.675,5.315 4.303,10.508 10.711,7.946c3.106,-1.872 5.104,-4.825 4.147,-8.642c10.894,-7.005 3.982,-2.063 11.395,-7.251c1.033,1.383 2.415,2.416 4.152,3.107l0.337,0c1.948,0.973 9.373,0.903 11.749,-6.217c2.562,-7.167 -5.467,-15.075 -12.086,-11.746" style="fill:#00579d;fill-rule:nonzero;"/><path d="M424.236,96.035c2.483,0.356 6.618,0.384 5.535,5.876c-1.075,5.296 -2.917,4.371 -6.909,3.796l1.374,-9.672Zm6.918,12.438c0.341,0 0.341,-0.348 0.686,-0.692c2.835,-2.833 3.501,-8.67 1.038,-11.746c0,-0.341 -0.692,-1.032 -1.038,-1.382c-2.693,-1.773 -4.012,-1.714 -11.398,-2.762l-2.42,16.928c6.266,0.897 9.915,2.216 13.132,-0.346" style="fill:#00579d;fill-rule:nonzero;"/><path d="M371.733,103.637c2.541,2.969 1.675,1.866 3.799,4.835c-2.124,0.849 -1.335,0.612 -3.458,1.039l-0.341,-5.874Zm0.696,9.674c1.003,-0.254 1.502,-0.237 5.176,-2.076l2.074,2.765l4.139,-1.725l0.351,0c-0.486,-0.485 -8.184,-10.238 -11.74,-13.823l-4.148,1.73l0,17.962l4.148,-1.726l0,-3.107Z" style="fill:#00579d;fill-rule:nonzero;"/><path d="M476.061,117.797l-1.729,5.878c-2.783,-1.989 -2.118,-1.579 -3.112,-2.074c1,-0.996 0.114,-0.257 4.841,-3.804m-7.601,5.878c4.058,3.243 3.161,2.564 4.49,3.45l-1.035,3.111l3.799,2.764c3.728,-12.436 2.568,-8.572 5.185,-17.271c-2.553,-1.693 -1.606,-1.062 -4.152,-2.765c-11.978,8.563 -5.624,3.538 -14.504,10.361l3.455,2.427c1.307,-0.879 0.693,-0.422 2.762,-2.077" style="fill:#00579d;fill-rule:nonzero;"/><path d="M420.096,163.399c3.318,-9.945 2.497,-7.394 3.802,-11.742c-0.345,0 -5.876,-1.039 -8.641,-0.691c-4.676,0.367 -9.324,2.415 -10.707,2.763c7.686,1.923 13.112,6.025 15.546,9.67" style="fill:#00579d;fill-rule:nonzero;"/><path d="M466.04,264.268c-4.46,-8.517 -3.403,-6.66 -5.18,-9.325c0,-0.281 7.277,-69.311 7.254,-69.091c1.37,2.14 2.878,4.352 4.489,6.569c-2.927,32.342 -5.144,54.265 -6.563,71.847m-3.456,10.711c-6.744,6.296 -17.098,9.848 -25.679,12.708c-9.151,3.046 -18.701,3.53 -28.298,3.53c-28.532,0 -64.24,-19.545 -77.978,-57.346l-1.383,-3.798c145.287,45.284 131.517,41.009 136.452,42.491l-3.114,2.415m-129.544,-51.124l0,-0.342c0.148,-0.246 33.513,-64.26 33.513,-64.26c2.229,-0.643 5.781,-1.832 7.25,-2.415c-5.329,10.251 -10.022,18.956 -31.43,61.832c-4.157,2.085 -7.787,4.162 -9.333,5.185m1.046,3.452c6.772,-3.392 4.573,-2.213 9.666,-5.177l37.31,11.741c3.176,0.208 14.45,9.618 14.856,13.13c-4.615,-1.444 -52.148,-16.317 -61.832,-19.348l-0.355,0l0.355,-0.346m124.354,30.401l5.185,10.363l-63.214,-19.691c0,0 6.499,-3.564 11.74,-3.453c5.368,0.107 4.161,0.104 46.289,12.781m-1.379,-4.493c-0.002,-0.001 -34.199,-10.361 -34.199,-10.361c-6.273,-2.249 -19.406,-1.968 -23.492,1.382l-0.351,0c-0.315,-1.184 -1.145,-2.307 -1.719,-3.456c-9.784,-9.769 -7.473,-8.537 -32.475,-16.239l-0.692,0c-3.969,-1.322 -12.515,-4.255 -17.62,-5.522c1.086,-2.716 27.442,-55.222 35.241,-70.82c2.67,0.893 0.618,0.269 10.361,3.109l5.53,-3.453l-1.727,-4.492c1.745,-0.87 0.859,-0.427 4.139,-2.069l3.115,4.144l7.941,-2.075l0.688,-4.837l5.531,-0.345l1.382,4.837l7.26,1.037l2.41,-4.147l5.877,1.73l-0.346,4.837l6.563,3.45l3.798,-3.107l4.49,3.107l-2.414,4.494l5.866,6.217l4.498,-1.383l2.421,3.803l-4.154,2.415l2.419,6.564l8.296,2.422c-4.244,39.889 -2.383,22.89 -8.637,78.758m-128.968,-28.055c-4.965,-18.225 -2.999,-39.687 5.474,-56.58c8.302,-16.602 16.343,-26.97 37.972,-39.953c14.564,-8.749 39.636,-12.205 53.751,-8.937c19.202,4.437 36.628,11.861 50.027,26.945c37.063,41.708 21.013,91.241 8.253,106.541c-1.991,2.403 -3.43,5.263 -5.435,7.639c-1.848,2.196 -2.63,2.633 -8.988,8.983c3.489,-38.304 1.872,-20.738 7.258,-78.76c-1.279,-1.923 -3.141,-3.321 -4.838,-6.912l-0.346,-0.343c-2.074,-4.494 -1.729,-6.22 -1.377,-11.748c-6.993,-2.33 -4.185,-1.275 -9.676,-3.109l-0.691,-1.726c3.811,-2.382 4.49,-3.109 4.49,-3.109c-2.171,-3.91 -0.964,-1.863 -5.527,-9.324l-5.18,1.721l-2.416,-2.759l2.757,-4.493c-9.437,-7.079 -7.943,-5.873 -9.325,-7.253c-2.119,1.701 -1.213,0.947 -4.143,3.455l-2.416,-1.037l0.342,-5.527c-7.482,-2.502 -0.84,0.066 -11.399,-3.457l-2.424,4.84c-1.687,-0.429 -1.057,-0.349 -2.76,-0.349l-1.379,-5.526c-5.944,0.423 -3.411,0.272 -11.745,0.694c0,0.53 -0.621,4.997 -0.691,5.525l-3.11,0.693c-2.459,-3.443 -3.453,-4.496 -3.453,-4.496c-10.55,4.8 -8.109,3.855 -10.02,4.496c1.274,3.391 0.801,2.209 2.074,5.181l-1.733,1.035l-11.403,-3.801l-2.411,4.49c-4.096,4.121 -7.402,6.844 -12.78,7.602l-0.692,0.344l-36.04,69.015m143.823,48.441c2.183,-2.195 4.378,-4.382 6.564,-6.568l0.341,0c26.422,-29.732 31.643,-72.243 12.224,-107.202c-18.319,-32.984 -59.445,-52.421 -96.532,-44.177c-17.988,4.001 -32.592,11.947 -46.272,24.254l-0.347,0c-9.897,11.138 -19.125,20.623 -25.371,47.682c-4.321,18.69 -0.536,38.537 6.723,55.955l0.341,0c20.005,44.013 82.844,76.267 142.329,30.056" style="fill:#00579d;fill-rule:nonzero;"/><path d="M391.078,97.074c2.22,0 1.771,0.025 3.11,0.688c1,1 2.385,5.915 1.034,7.256c-0.636,1.93 -2.158,1.535 -4.835,2.076l-1.729,-9.332l2.42,-0.688Zm2.074,13.129c1.728,0 3.103,-0.691 4.148,-1.384c1.374,-0.698 3.426,-3.067 2.757,-8.292c-0.537,-3.748 -2.115,-4.874 -3.103,-5.874c-3.246,-1.608 -3.369,-1.39 -13.136,0c0,1.435 -0.336,-0.885 2.775,16.931c6.363,-1.198 5.216,-0.939 6.559,-1.381" style="fill:#00579d;fill-rule:nonzero;"/><path d="M165.499,202.78l-5.524,20.038c0,1.037 -0.697,2.069 -1.383,2.76c-12.032,16.454 -10.531,14.851 -13.131,16.584c-33.445,18.47 -20.53,11.286 -24.869,13.472c-18.303,4.579 -16.21,4.145 -17.618,4.145c-55.203,-1.499 -51.853,-1.226 -52.853,-1.729c-15.874,-4.956 -8.149,-1.022 -35.237,-18.653c-1.308,-0.643 -1.72,-1.368 -10.365,-11.744c-1.036,-1.378 -1.728,-2.766 -1.728,-4.49l-2.764,-73.58l0,-0.347c0,-81.907 -0.17,-76.354 0.347,-77.383l4.834,-16.581c0.695,-2.07 2.426,-3.801 4.846,-4.488c15.608,-6.325 15.841,-6.563 17.268,-6.563c9.842,0 11.57,-0.535 14.162,2.077l14.163,10.703c1.725,1.036 2.759,3.108 2.759,5.184c2.553,60.814 2.737,58.758 2.07,59.416l-4.829,21.417c9.056,33.627 9.551,29.512 2.759,36.271c3.692,7.653 5.191,10.369 5.191,12.093l1.029,21.415l6.564,3.799l27.988,-1.725l2.413,-2.419l4.487,-22.106c-4.484,-127.059 -4.516,-101.086 -1.724,-129.546c0.341,-0.691 0.341,-1.38 0.696,-2.071c1.907,-5.104 2.331,-8.375 7.255,-10.02c19.776,-5.062 12.594,-4.017 28.323,-4.488c1.041,0 2.07,0.341 3.109,0.687l15.541,7.253c2.771,1.387 4.497,4.15 4.147,7.259c0.002,0.557 0.35,96.17 0.35,96.725c-0.849,22.907 -1.22,13.056 1.724,44.218c0.348,0.69 0,1.727 0,2.417" style="fill:#fff;fill-rule:nonzero;"/><path d="M286.469,165.473l0.583,-0.281l-3.529,-11.297l-9.331,-9.331l-0.385,-9.547l-4.293,-7.088l-4.171,17.247l-10.133,11.768l0,1.743l1.406,2.819c9.768,2.877 4.414,2.239 29.853,3.967m-105.057,88.433l-18.2,-11.969l3.904,-22.404l6.149,-6.157l4.909,-16.991l10.589,-19.488l2.822,-13.025l11.476,-17.89l0.97,-13.231l16.817,-53.605l11.355,-29.561l18.889,-11.163c26.538,0.469 17.433,0.29 39.922,0.789l16.312,16.313l0.609,4.245l5.574,4.088l0.346,14.484l8.953,6.486c8.936,24.002 5.651,14.449 14.405,41.885l5.955,5.201l3.837,23.741l6.766,6.764l3.414,15.693l6.947,6.214l0.649,8.065l8.421,5.613l0.747,17.68l11.891,16.817l-12.867,15.34l-10.357,7.652l-29.84,0.427l-19.198,-25.735l-3.854,-17.961l-7.578,-4.68l-20.274,0.342l-6.373,-3.689c-3.299,0.25 1.489,-0.283 -32.185,3.751l-10.359,7.248l-5.24,20.658l-7.312,9.592l-20.837,10.621l-18.154,-2.16Z" style="fill:#fff;fill-rule:nonzero;"/><path d="M296.425,168.238l-8.639,4.142c-28.441,-1.937 -21.837,-1.034 -35.923,-5.181l-3.457,-6.909l0,-5.872l10.712,-12.436l5.181,-21.418l6.563,-3.8c2.215,3.998 0.336,0.82 9.67,16.235l0.345,8.638l8.643,8.635l3.448,11.055l3.457,2.072l0,4.839Zm70.814,49.74l-0.687,-16.23l-8.287,-5.53l-0.696,-8.64l-6.564,-5.87l-3.456,-15.894l-6.905,-6.904l-3.802,-23.493l-5.53,-4.836l-7.597,-23.837l-6.567,-17.616l-10.016,-7.253l-0.347,-14.514l-5.179,-3.8l-0.688,-4.833l-12.79,-12.781c-19.099,-0.427 -11.064,-0.269 -35.237,-0.695l-15.192,8.985l-10.363,26.944l-16.579,52.855l-1.039,14.162l-11.745,18.31l-2.769,12.781c-13.149,24.182 -9.526,15.595 -15.887,37.656l-5.867,5.872l-2.772,15.892l13.134,8.633l14.508,1.729l17.616,-8.983l5.526,-7.251l5.524,-21.764l13.827,-9.672c36.169,-4.331 30.271,-3.689 36.271,-4.151l6.559,3.803l20.382,-0.346l11.744,7.256l4.144,19.343l16.238,21.765l24.179,-0.347l7.95,-5.871l8.979,-10.712l-10.02,-14.163Z" style="fill:#00579d;fill-rule:nonzero;"/><path d="M156.172,58.729l-15.544,-7.257c-14.427,0.425 -8.365,-0.598 -26.599,4.491l-2.418,5.531l-2.074,21.417l3.796,108.127l-5.18,24.871l-5.866,5.872l-33.165,2.415l-11.398,-7.25l-1.389,-25.217l-6.564,-14.166l6.22,-5.528l-7.591,-28.672l5.174,-23.146l-2.07,-57.688l-14.858,-11.057l-9.324,0l-15.199,5.874l-4.841,16.581l0,75.309l2.772,73.928l8.631,10.365c26.946,16.997 19.589,13.268 33.51,17.617l51.466,1.378c19.148,-5.218 10.504,-1.586 38.695,-16.921l10.712,-14.509l5.524,-20.386c-3.206,-33.864 -1.912,1.386 -2.42,-141.979" style="fill:#00579d;fill-rule:nonzero;"/><path d="M491.64,371.031l0,-9.66c0.632,1.437 1.703,2.872 3.515,4.091c-1.605,1.617 -2.447,2.835 -3.515,5.569m-25.69,-4.368c-0.268,-0.251 -0.537,-0.511 -0.823,-0.778c0.282,-0.189 0.555,-0.411 0.823,-0.639l0,1.417Zm-167.067,-0.367l0,-1.491c0.259,0.219 0.462,0.466 0.747,0.664c-0.276,0.269 -0.492,0.55 -0.747,0.827m-26.036,-25.066c-1.79,0.649 -3.048,1.607 -4.001,2.646c-7.741,-5.788 -24.491,-6.449 -33.614,-0.131c-1.307,-1.379 -3.117,-2.493 -5.61,-3.033c0,-6.972 -2.191,-11.49 -9.609,-13.11c3.597,0.26 6.362,-0.31 10.071,-2.812c5.201,-5.155 4.206,-7.2 4.206,-29.913c2.1,0 4.188,-0.242 6.207,-0.878c0.795,2.13 1.903,3.951 3.449,5.56c-0.818,0.511 -0.732,0.478 -1.232,0.977c-4.645,4.66 -4.074,9.361 -2.826,14.385c0.627,2.624 3.126,5.202 4.894,6.969c8.23,8.255 29.111,7.493 37.107,-0.855c1.114,2.24 2.61,3.623 4.477,4.696c-8.628,1.571 -13.374,6.224 -13.519,15.499m-68.917,-1.344l0,1.323c-1.233,0.454 -2.26,1.063 -3.12,1.779c-6.214,-4.538 -14.721,-4.659 -21.857,-1.638c-6.916,-4.388 -20.8,-2.218 -20.8,10.631l0,5.495l-5.97,-19.677c-1.034,-4.402 -3.392,-8.208 -7.27,-10.414c8.75,1.282 17.357,-0.651 19.377,-9.258l1.68,-5.514c0.727,2.146 1.662,5.062 4,7.669c5.877,8.378 28.723,11.277 39.424,0.222c1.578,3.568 4.146,5.82 8.643,6.796c-8.261,-0.578 -14.107,4.655 -14.107,12.586m336.097,44.916c0,-0.826 0.029,-0.52 -0.127,-1.332c-0.306,-1.505 -0.219,-0.272 -0.219,-24.93c0,-8.376 -3.403,-11.66 -5.047,-13.836c-5.997,-4.447 -12.701,-5.401 -20.067,-5.401c-7.702,0 -12.421,1.926 -16.808,4.995c-1.226,-1.529 -3.133,-2.904 -6.119,-3.555c0,-5.961 -1.252,-8.041 -4.156,-10.928c-6.878,-3.473 -10.422,-3.516 -17.386,0c-3.613,3.591 -4.148,6.009 -4.148,11.342c-1.599,0.54 -2.853,1.344 -3.851,2.286c-3.701,-2.366 -7.681,-4.14 -15.256,-4.14c-8.045,0 -16.172,2.499 -20.476,7.994c-0.295,-0.422 -1.625,-2.155 -1.958,-2.593c-9.235,-6.883 -28.252,-8 -38.344,0.7c-3.859,-7.444 -13.646,-7.195 -18.575,-4.002l-1.43,-0.716l-0.743,0l-0.899,-0.342l-0.165,0c-4.868,-1.591 -11.405,-1.484 -15.969,1.045c-3.621,1.626 -6.471,5.067 -6.966,6.067c-4.794,-6.84 -13.272,-8.153 -21.946,-8.153c-9.253,0 -13.564,2.967 -16.026,4.331c-0.03,-0.044 -0.052,-0.091 -0.086,-0.13c4.646,-4.474 3.854,-13.959 -3.612,-17.138c2.419,-1.064 4.261,-2.299 5.63,-5.721c6.172,9.049 20.307,7.786 25.178,4.952c6.172,3.703 13.599,1.909 16.851,-1.261c0.665,-0.657 1.153,-1.362 1.582,-2.07c6.73,6.73 19.266,6.413 24.507,3.271c5.157,3.516 16.043,3.141 19.635,-3.698c6.89,8.064 19.918,6.202 24.166,3.746c10.942,5.459 20.563,-0.547 20.563,-10.565l0,-46.985c0,-13.518 -15.938,-15.652 -22.322,-9.308c-4.068,4.084 -3.725,8.809 -3.725,11.14c-4.61,-0.723 -9.593,-0.35 -13.844,1.388c-4.874,2.888 -5.826,5.347 -6.874,6.938c-3.194,-5.148 -9.522,-7.567 -11.925,-7.907c-9.506,-1.353 -21.06,-1.567 -28.367,4.705c0,-7.534 0.666,-12.23 -3.379,-16.268c-5.996,-5.95 -22.317,-4.82 -22.317,9.312l0,1.832c-7.579,-1.187 -15.573,0.147 -19.79,6.688c-0.242,-0.587 -0.419,-1.213 -0.747,-1.736c4.405,-5.004 3.752,-12.442 -1.936,-16.739c-13.122,-9.731 -30.103,5.596 -19.997,16.834c-0.285,0.432 -0.432,0.96 -0.652,1.443c-3.203,-3.175 -4.663,-4.094 -8.996,-5.531c-7.992,-2.287 -19.595,-1.932 -26.699,3.457c-4.125,-5.604 -12.409,-5.982 -17.688,-2.653c-4.404,-3.172 -15.269,-3.725 -19.042,4.51c-4.411,-5.206 -12.429,-6.619 -19.283,-6.619c-9.177,0 -13.251,1.536 -17.409,4.498c-4.95,-6.522 -20.262,-7.035 -23.521,4.637c-2.767,-10.102 -13.676,-10.226 -19.148,-7.985c1.532,-4.913 -0.364,-9.65 -4.251,-12.583c-13.142,-9.762 -30.123,5.618 -20.004,16.817c-0.17,0.255 -0.23,0.57 -0.382,0.838c-5.148,-6.629 -16.175,-7.966 -24.839,-4.105c-4.371,-2.831 -11.53,-2.874 -15.779,0.082c0,-3.836 0.545,-9.886 -4.468,-13.64c-7.91,-5.875 -22.602,-2.184 -22.602,9.614c0,40.974 -0.165,38.093 -0.165,38.093c-0.358,0.293 -0.909,0.358 -1.326,0.358c-0.625,0 -0.914,-0.279 -1.307,-0.666c-0.264,-1 -0.182,0.454 -0.182,-37.785c0,-16.631 -27.079,-16.254 -27.079,0l0,36.956c0,12.73 9.028,23.251 28.237,23.367l-0.043,0.026c-4.436,4.501 -4.189,8.102 -4.189,11.659c-7.658,-1.494 -16.878,0.913 -20.567,7.949c-3.14,5.312 -3.269,9.289 -3.269,15.032c0,14.761 -0.707,20.815 3.435,26.75c6.45,11.536 23.184,7.004 24.608,7.004l0.272,-0.172l0.125,-0.021l0.121,-0.127l0.881,-0.531c4.622,2.837 14.744,3.394 18.913,-4.571c5.074,5.594 12.409,6.451 19.934,6.451c23.857,0 26.021,-19.372 21.55,-25.826c4.596,-6.912 2.696,-19.883 -3.305,-25.864c-7.976,-9.119 -29.033,-7.862 -36.663,-1.33c0,-6.293 1.28,-15.257 -8.235,-18.443c4.686,-1.666 8.223,-4.244 10.714,-7.324c3.148,11.521 19.646,11.857 24.235,2.192c4.07,8.478 17.008,8.879 22.027,2.151c3.794,4.807 11.997,6.669 19.264,1.768c4.612,-4.573 3.851,-7.554 3.851,-21.186c4.914,16.139 4.924,18.683 10.25,22.028c-2.105,-0.411 -4.062,-0.484 -5.3,-0.484c-9.164,0 -15.241,3.571 -17.296,12.664c-14.552,48.001 -14.037,45.383 -14.037,48.364c0,3.978 2.401,7.551 4.762,9.121c4.324,2.871 12.431,2.964 16.857,-0.003c2.806,-1.862 4.058,-4.655 5.116,-7.32l1.524,-5.705l5.915,0c1.117,3.826 1.795,9.47 5.863,12.462c4.01,3.012 11.307,4.071 18.465,0.492l0.702,-0.7c4.882,4.277 16.153,4.778 20.408,-3.697c1.837,3.771 5.833,6.64 11.82,6.64c4.906,0 7.769,-1.831 9.318,-3.378c1.108,-1.119 1.953,-2.434 2.513,-3.923c1.206,1.743 2.171,2.633 3.233,3.4c6.612,4.405 19.623,5.451 25.166,-0.761c4.106,3.058 7.885,4.662 17.12,4.662c9.388,0 15.862,-1.598 21.243,-9.293c2.925,11.823 20.139,12.568 24.65,1.843c2.848,4.131 8.458,7.45 16.28,7.45c3.2,0 5.705,-0.577 8.862,-1.222l0.765,-0.757c6.041,3.008 12.543,2.287 16.237,0.039c-1.395,5.065 1.036,11.659 7.882,14.699c6.709,3.378 24.296,4.05 32.441,-2.099c4.244,-3.302 6.495,-8.067 6.94,-14.051c7.334,4.602 14.317,3.542 21.063,2.169l0.774,-0.77c4.954,3.058 15.9,3.163 19.592,-3.343c10.535,8.134 31.095,7.102 38.865,-3.402c5.4,10.2 22.696,10.413 28.746,4.628c6.744,5.042 14.265,4.519 22.245,2.887l0.781,-0.77c6.016,3.73 21.005,3.075 21.005,-8.603c0,-1.024 -0.217,-1.81 -0.354,-2.069" style="fill:#fff;fill-rule:nonzero;"/><path d="M14.513,304.651c0,19.935 29.216,19.281 38.002,12.099c3.807,-2.772 5.53,-6.914 5.53,-12.099c0,-40.272 0.632,-38.731 -1.723,-41.108c-3.452,-2.558 -11.751,-1.81 -11.751,4.151c0,38.017 0.69,40.085 -2.077,42.832c-4.534,4.548 -14.507,2.978 -14.507,-6.908c0,-39.204 0.734,-37.957 -2.068,-40.075c-2.49,-2.471 -11.406,-2.036 -11.406,4.151l0,36.957Z" style="fill:#00579d;fill-rule:nonzero;"/><path d="M68.238,319.505c3.842,2.55 10.707,1.876 10.707,-4.484c0,-25.134 -0.564,-26.383 1.727,-28.674c2.53,-2.53 9.331,-2.887 9.331,2.757c0,28.066 -0.575,28.125 1.726,30.401c2.936,1.962 6.377,1.732 8.981,0c1.036,-1.028 1.38,-2.42 1.38,-4.484l0,-28.329c0,-7.375 -4.369,-10.369 -11.744,-10.369c-4.309,0 -9.426,1.583 -11.401,5.526c0,-3.789 -2.07,-5.526 -6.219,-5.526c-1.727,0 -3.446,0.345 -4.488,1.391c-1.035,1.028 -1.73,2.411 -1.73,4.135c0,36.139 -0.597,35.343 1.73,37.656" style="fill:#00579d;fill-rule:nonzero;"/><path d="M111.764,271.147c7.203,5.399 16.292,-2.868 10.016,-7.604c-7.111,-5.279 -16.35,2.867 -10.016,7.604m-1.035,43.874c0,2.064 0.335,3.456 1.73,4.484c2.909,1.952 6.357,1.744 8.973,0c1.039,-1.028 1.383,-2.42 1.383,-4.484c0,-36.079 0.511,-35.433 -1.383,-37.307c-1.78,-1.794 -7.02,-1.981 -8.973,0c-2.371,1.747 -1.73,0.936 -1.73,37.307" style="fill:#00579d;fill-rule:nonzero;"/><path d="M142.853,319.505c1.966,1.977 9.795,1.673 12.438,0.346c1.037,-0.692 2.069,-1.724 2.417,-3.448c10.674,-34.964 11.957,-36.088 8.977,-39.04c-1.033,-0.695 -2.42,-1.04 -4.489,-1.04c-3.626,0 -5.794,1.014 -6.564,4.843l-5.872,27.983l-0.344,0c-7.161,-30.534 -6.715,-30.497 -8.639,-31.786c-3.221,-2.16 -13.554,-1.226 -10.355,5.182l0,0.345c10.794,35.477 10.16,34.931 12.431,36.615" style="fill:#00579d;fill-rule:nonzero;"/><path d="M190.177,283.923c5.738,0 5.185,3.853 5.185,8.988l-10.366,0c0,-5.155 -0.546,-8.988 5.181,-8.988m11.06,19.695c-2.077,0 -3.457,0.349 -4.496,1.382c-2.917,1.956 -0.535,5.195 -3.107,6.904c-1.271,1.282 -2.363,1.387 -3.457,1.387c-5.725,0 -5.181,-6.601 -5.181,-13.472c16.771,0 19.181,0.508 21.419,-1.728c2.627,-3.953 1.383,-13.615 -2.411,-17.966c-3.585,-3.123 -9.071,-3.802 -13.827,-3.802c-13.111,0 -18.312,4.028 -18.312,17.621c0,10.015 -0.642,17.982 3.457,22.114c4.137,6.856 32.126,8.131 32.126,-7.606c0,-1.727 -0.688,-3.11 -1.725,-3.801c-1.036,-0.684 -2.765,-1.033 -4.486,-1.033" style="fill:#00579d;fill-rule:nonzero;"/><path d="M216.785,319.505c3.981,2.689 10.702,1.754 10.702,-4.484c0,-23.039 -0.551,-22.936 1.729,-25.222c4.138,-3.104 7.697,-0.588 11.05,-3.107c1.037,-1.381 1.731,-2.769 1.731,-4.147c0,-4.458 -2.415,-6.222 -6.215,-6.222c-4.709,0 -7.333,4.559 -8.984,8.988l-0.344,0c0,-3.887 0.307,-6.484 -1.39,-7.597c-1.215,-1.855 -10.016,-3.05 -10.016,3.794c0,36.622 -0.584,35.716 1.737,37.997" style="fill:#00579d;fill-rule:nonzero;"/><path d="M268.255,309.835c0,2.42 -1.732,3.803 -4.839,3.803c-2.669,0 -4.635,-0.793 -5.529,-3.457c0,-2.07 -0.688,-3.456 -1.726,-4.49c-1.241,-1.87 -10.363,-2.914 -10.363,3.457c0,15.696 34.545,16.151 34.545,-0.696c0,-5.828 -2.568,-8.18 -11.744,-13.126l-7.257,-4.485c-4.132,-2.082 -3.696,-7.605 1.382,-7.605c3.457,0 5.181,1.728 5.181,4.494c0.688,4.748 6.985,4.466 10.018,2.416c1.878,-1.261 2.516,-6.58 -2.069,-10.021c-2.22,-2.968 -8.965,-3.802 -12.787,-3.802c-18.623,0 -18.626,12.692 -15.195,17.274c1.039,1.729 3.459,3.457 6.563,5.531c5.184,3.464 13.82,6.019 13.82,10.707" style="fill:#00579d;fill-rule:nonzero;"/><path d="M298.481,271.147c4.622,-3.486 0.807,-9.329 -4.839,-9.329c-2.074,0 -3.807,0.696 -5.177,1.725c-6.278,4.696 2.863,12.949 10.016,7.604m-11.062,43.874c0,2.064 0.347,3.456 1.73,4.484c2.943,1.965 6.395,1.73 8.978,0c1.042,-1.028 1.382,-2.42 1.382,-4.484c0,-36.01 0.521,-35.429 -1.382,-37.307c-1.764,-1.787 -7.01,-1.986 -8.978,0c-2.306,1.715 -1.73,0.677 -1.73,37.307" style="fill:#00579d;fill-rule:nonzero;"/><path d="M325.599,312.946c-6.011,0 -5.189,-8.376 -5.189,-16.929c0,-10.717 1.528,-11.745 5.872,-11.745c4.673,0 5.531,5.695 5.531,10.358c0,8.656 1.168,18.316 -6.214,18.316m16.921,-49.404c-1.758,-1.758 -6.993,-1.98 -8.98,0c-2.222,1.672 -1.727,2.93 -1.727,17.624l-0.347,0c-1.036,-1.733 -2.419,-2.77 -4.493,-3.803c-0.346,0 -0.346,0 -0.691,-0.345c-5.787,-1.174 -13.722,-1.345 -15.883,4.148c-3.518,4.634 -2.771,15.01 -2.771,23.137c0,6.146 1.402,9.488 2.771,11.754c2.344,4.724 10.366,6.003 15.883,3.793c0.345,0 0.691,0 1.041,-0.345c1.724,-0.692 3.107,-2.074 4.143,-3.448l0.347,0c0,4.127 6.158,6.506 10.707,3.448c1.045,-1.029 1.387,-2.42 1.387,-4.485c0,-51.227 0.526,-49.574 -1.387,-51.478" style="fill:#00579d;fill-rule:nonzero;"/><path d="M372.576,310.872c-1.037,1.383 -2.074,2.074 -3.457,2.419c-1.493,0 -3.135,0.142 -4.148,-1.387c-1.805,-1.2 -1.929,-6.007 0,-7.937c0.691,-1.036 2.079,-2.082 4.148,-3.111c0.35,-0.345 0.691,-0.345 1.037,-0.695l4.144,-2.416c0,8.663 0.395,11 -1.724,13.127m14.164,-22.105c0,-10.948 -7.349,-12.444 -18.312,-12.444c-8.092,0 -16.929,3 -16.929,11.052c0,2.848 3.408,4.148 6.218,4.148c1.732,0 3.106,-0.345 4.151,-1.028c1.034,-0.35 1.729,-1.046 1.729,-2.074c0.827,-4.192 2.445,-4.571 5.522,-5.185c6.22,0 7.141,6.511 1.383,8.979c-1.844,0.461 -0.118,-0.197 -11.053,4.493c-5.373,1.791 -8.642,5.95 -8.642,12.781c0,12.206 12.893,12.532 18.312,10.362c0.35,0 0.691,0 1.037,-0.346c1.724,-0.692 3.448,-2.073 4.493,-4.139c0,2.066 0.693,3.447 2.071,4.139c2.202,2.204 10.711,2.186 10.711,-2.42c-0.912,-3.248 -0.691,-6.897 -0.691,-28.318" style="fill:#00579d;fill-rule:nonzero;"/><path d="M412.998,312.946c-4.255,0 -5.527,-2.717 -5.527,-11.402c0,-13.276 -0.252,-17.272 5.527,-17.272c1.724,0 2.761,0.692 3.789,2.074c1.391,1.383 1.729,4.149 1.729,8.284c0,10.962 0.749,17.264 -5.518,18.316m16.229,-49.404c-2.083,-2.072 -10.711,-2.862 -10.711,4.493l0,13.131c-1.034,-1.733 -2.757,-2.77 -4.49,-3.803c-0.341,0 -0.687,0 -1.028,-0.345c-10.578,-2.139 -13.901,0.815 -15.896,4.148c-2.939,3.907 -2.42,8.341 -2.42,23.137c0,2.421 0,4.495 0.349,6.569c0.645,3.259 2.816,7.41 5.873,8.633c2.412,1.449 7.74,2.085 12.094,0.345c0.341,0 0.687,0 1.028,-0.345c1.733,-0.692 3.456,-2.074 4.49,-3.448c0,1.374 0.691,2.419 1.736,3.448c5.373,2.702 10.707,1.224 10.707,-4.485c0,-51.74 0.622,-49.116 -1.732,-51.478" style="fill:#00579d;fill-rule:nonzero;"/><path d="M71.682,355.088c2.045,-2.037 6.552,-1.738 8.29,0c1.258,1.891 1.043,4.212 1.043,7.945l-10.713,0c0,-3.905 -0.267,-5.449 1.38,-7.945m10.705,19.69c-1.035,0.691 -1.722,2.074 -1.722,4.148c0,1.553 -1.767,4.143 -4.839,4.143c-2.074,0 -3.8,-0.69 -4.144,-2.073c-1.653,-2.756 -1.38,-6.125 -1.38,-11.399c18.278,0 20.112,0.477 21.761,-1.729c0.688,-1.031 1.381,-2.765 1.381,-4.835c0,-12.357 -5.979,-16.928 -17.618,-16.928c-20.437,0 -18.308,11.623 -18.308,26.607c0,13.855 4.797,17.958 18.656,17.958c9.049,0 16.577,-3.464 16.577,-12.439c0,-1.721 -0.344,-2.762 -1.372,-3.453c-1.785,-1.181 -6.582,-1.604 -8.992,0" style="fill:#00579d;fill-rule:nonzero;"/><path d="M32.988,382.729c-1.216,0 -3.962,0.165 -4.489,-2.42c-1.273,-3.863 -1.037,-8.83 -1.037,-14.164c0,-9.577 1.028,-12.09 5.187,-12.09c1.771,0 3.019,0.925 4.143,2.419c1.039,1.375 1.727,4.14 1.727,7.952c0,7.65 1.078,18.303 -5.531,18.303m5.531,-44.911l0,13.126c-1.372,-1.383 -2.77,-2.766 -4.488,-3.456c-0.349,-0.346 -0.691,-0.346 -1.043,-0.346c-5.513,-2.184 -13.524,-0.959 -15.888,3.802c-2.9,4.838 -2.42,6.643 -2.42,23.142c0,2.424 0,4.495 0.35,6.56c1.513,9.166 8.791,11.176 17.958,9.332c0.352,-0.341 0.694,-0.341 1.043,-0.341c1.718,-1.042 3.116,-2.078 4.488,-3.806c0,6.125 12.43,7.122 12.43,-0.683c0,-51.238 0.651,-49.445 -1.723,-51.824c-3.832,-2.546 -10.707,-1.878 -10.707,4.494" style="fill:#00579d;fill-rule:nonzero;"/><path d="M128.341,367.181l6.22,-23.487l5.867,23.487l-12.087,0Zm30.738,16.922c0,-0.218 -13.407,-44.349 -13.47,-44.557c-1.325,-5.981 -5.04,-7.605 -11.048,-7.605c-3.457,0 -6.22,0.692 -7.259,1.732c-2.608,1.039 -1.847,0.556 -16.238,48.019c-0.344,1.037 -0.687,1.718 -0.687,2.411c-2.468,7.365 7.776,7.491 10.705,5.534c1.039,-0.695 1.723,-2.078 2.417,-3.807l2.765,-10.361l16.238,0l2.418,8.296c0.68,5.46 3.125,6.905 7.944,6.905c1.727,0 3.456,-0.345 4.837,-1.033c2.088,-2.094 1.952,-4.389 1.378,-5.534" style="fill:#00579d;fill-rule:nonzero;"/><path d="M166.678,389.287c2.307,2.293 10.711,2.442 10.711,-4.14c0,-24.566 -0.576,-26.953 1.733,-28.673c1.037,-1.386 2.411,-2.079 4.492,-2.079c3.288,0 4.833,1.755 4.833,4.495c0,28.521 -0.641,28.619 1.723,30.397c1.042,1.037 2.421,1.383 4.49,1.383c4.165,0 5.881,-1.874 5.881,-5.523c0,-30.948 0.916,-32.923 -3.112,-36.274c-4.827,-4.03 -15.809,-4.246 -20.04,2.763c0,-3.803 -2.067,-5.532 -6.219,-5.532c-2.074,0 -3.449,0.355 -4.492,1.383c-1.031,1.042 -1.729,2.419 -1.729,4.494c0,36.071 -0.616,34.949 1.729,37.306" style="fill:#00579d;fill-rule:nonzero;"/><path d="M210.736,382.379c0,5.977 6.391,7.945 12.429,7.945c5.183,0 7.602,-1.729 7.602,-4.494c0,-2.281 -0.962,-3.451 -4.495,-3.451c-1.381,0 -2.074,-0.343 -2.762,-0.688c-0.345,-0.695 -0.689,-1.382 -0.689,-2.42l0,-24.875c3.355,0 8.29,0.5 8.29,-3.797c0,-3.903 -4.392,-3.457 -8.29,-3.457c0,-7.992 0.343,-10.013 -1.378,-11.744c-3.704,-2.465 -10.707,-1.998 -10.707,4.489l0,7.255c-2.553,0 -6.57,-0.216 -6.57,3.457c0,3.515 3.215,3.797 6.57,3.797l0,27.983Z" style="fill:#00579d;fill-rule:nonzero;"/><path d="M256.154,381.346c-1.387,2.065 -6.05,2.575 -8.64,0c-1.298,-2.631 -1.036,-8.365 -1.036,-17.967c0,-3.802 0.351,-6.213 1.383,-7.596c1.468,-2.94 6.974,-2.638 8.293,0c1.035,1.383 1.38,3.794 1.38,7.596c0,10.538 0.326,15.68 -1.38,17.967m13.472,-25.216c-4.365,-13.101 -25.592,-12.05 -32.472,-5.186c-1.766,1.766 -3.801,6.408 -3.801,11.74c0,15.285 -1.099,22.302 9.67,26.953c4.239,1.204 18.227,2.783 23.493,-3.807c4.553,-4.52 3.8,-9.784 3.8,-23.146c0,-2.416 -0.337,-4.489 -0.69,-6.554" style="fill:#00579d;fill-rule:nonzero;"/><path d="M281.371,389.287c1.887,1.887 7.089,1.895 8.983,0c2.317,-2.325 1.724,-1.457 1.724,-34.892c2.196,0 7.259,0.399 7.259,-3.796c0,-3.629 -3.945,-3.458 -7.259,-3.458c0,-4.466 -0.856,-7.595 3.457,-7.595c2.419,0 3.802,-1.037 3.802,-3.112c0,-3.111 -2.074,-4.494 -6.222,-4.494c-14.822,0 -13.464,5.972 -13.464,15.201c-3.126,0 -6.569,0.063 -6.569,3.458c0,2.419 1.727,3.796 5.524,3.796l1.045,0c0,33.389 -0.601,32.573 1.72,34.892" style="fill:#00579d;fill-rule:nonzero;"/><path d="M319.715,383.069c-1,0 -5.177,0.585 -5.177,-4.839c0,-2.069 0.346,-3.452 1.037,-4.49c1.274,-1.288 5.185,-3.797 5.185,-3.797l4.485,-2.421c0,7.105 1.176,14.225 -5.53,15.547m17.966,1.733c0,-1.733 -0.346,-3.111 -0.346,-4.157c0,-27.399 0.808,-27.179 -3.11,-31.085c-4.804,-4.817 -31.785,-6.601 -31.785,7.942c0,1.387 0.354,2.075 1.737,2.765c2.725,1.364 5.772,1.293 8.634,0.346c3.302,-2.191 0.496,-7.249 6.904,-7.249c1.331,0 3.052,-0.057 4.147,1.031c1.039,1.033 1.383,2.078 1.383,3.107c0,3.169 -3.172,4.244 -5.53,5.181c-7.953,3.247 -13.205,4.873 -16.234,8.638c-3.802,7.575 -3.102,22.554 16.234,18.656c0.345,-0.341 0.695,-0.341 1.045,-0.69c3.144,-1.05 3.831,-3.162 4.831,-4.14c0,2.074 0.687,3.447 1.728,4.489c3.619,1.804 12.678,2.049 10.362,-4.834" style="fill:#00579d;fill-rule:nonzero;"/><path d="M368.592,372.022c0,3.793 -0.688,6.559 -1.725,7.937c-1.041,1.387 -2.415,2.078 -3.797,2.078l-0.346,0c-2.074,0 -3.456,-0.691 -4.144,-2.42c-1.342,-2.692 -1.037,-11.979 -1.037,-16.238c0,-3.447 0.346,-5.877 1.037,-7.249c1.25,-1.673 2.719,-2.075 4.49,-2.075c0.34,0 1.037,0.341 1.719,0.341c0.696,0.352 1.383,1.033 1.728,1.734c2.548,2.527 2.075,11.67 2.075,15.892m6.567,-25.917c-4.148,0 -6.222,2.073 -6.222,5.877c-1.033,-2.075 -2.42,-3.452 -4.485,-4.494c-0.691,0 -1.042,-0.346 -1.382,-0.346c-3.571,-1.403 -8.667,-1.491 -11.753,0.346c-5.008,2.006 -6.906,9.328 -6.906,14.509c0,14.058 -1.587,27.64 13.132,27.64c2.07,0 4.135,0 5.527,-0.695c0.34,0 0.691,0 1.037,-0.347c1.378,-0.685 3.106,-1.723 4.143,-3.792l0.342,0c0,6.046 0.287,10.761 -1.379,12.435c-0.858,1.693 -3.294,2.064 -5.181,2.064c-0.7,0 -1.382,-0.343 -2.074,-0.69c-1.041,-0.341 -1.378,-1.033 -2.069,-2.065c-2.149,-4.321 -11.403,-3.435 -11.403,1.382c0,2.758 1.391,4.831 4.494,6.222c3.381,1.696 8.313,1.728 12.09,1.728c10.61,0 17.616,-3.127 17.616,-13.826l0,-40.071c0,-3.808 -1.507,-5.877 -5.527,-5.877" style="fill:#00579d;fill-rule:nonzero;"/><path d="M408.491,380.996c-1.479,2.223 -6.07,3.003 -7.587,0.695c-2.036,-1.352 -1.749,-6.216 0,-7.951c2.016,-2.041 6.652,-4.66 9.316,-6.218c0,8.375 0.387,11.363 -1.729,13.474m14.164,-0.351c0,-26.401 0.768,-25.88 -3.102,-31.085c-7.254,-5.41 -32.126,-5.717 -32.126,7.942c0,1.388 0.696,2.075 2.065,2.765c4.039,2.011 10.02,0.946 10.02,-2.073c0.778,-3.872 2.286,-4.83 5.522,-4.83c1.198,0 2.481,-0.076 4.148,1.031c1.713,2.56 1.713,5.923 -2.765,7.601c-9.199,4.573 -19.695,4.696 -19.695,17.274c0,9.997 8.356,12.714 18.312,10.707c0.354,-0.34 0.7,-0.34 1.046,-0.69c3.097,-1.247 3.83,-3.148 4.83,-4.14c0,3.609 1.368,5.523 6.214,5.523c4.152,0 6.226,-1.033 6.226,-3.799c0,0 -0.695,-2.659 -0.695,-6.226" style="fill:#00579d;fill-rule:nonzero;"/><path d="M518.725,380.996c-1.485,2.215 -6.062,3.008 -7.605,0.695c-2.019,-1.352 -1.741,-6.209 0,-7.951c2.187,-2.181 7.829,-5.342 9.329,-6.218c0,8.426 0.375,11.365 -1.724,13.474m14.501,3.807c-1.067,-5.336 0.556,-24.751 -1.039,-31.094c-0.341,-1.728 -1.377,-2.766 -2.414,-4.149c-7.201,-5.384 -32.126,-5.798 -32.126,7.942c0,4.681 12.09,5.179 12.09,0.692c0.916,-4.561 2.859,-4.83 6.222,-4.83c1.373,0 2.414,0.345 3.449,1.031c0.69,1.034 1.041,2.079 1.041,3.107c0,3.674 -2.489,4.122 -14.861,8.988c-6.375,2.832 -8.632,6.67 -8.632,12.78c0,10.053 8.391,12.697 18.311,10.707c0.347,-0.34 0.692,-0.34 1.037,-0.69c1.724,-0.692 3.449,-2.065 4.485,-3.802l0.35,-0.338c0,3.592 1.327,5.523 6.215,5.523c8.17,0 5.872,-4.405 5.872,-5.867" style="fill:#00579d;fill-rule:nonzero;"/><path d="M451.674,379.616c0,2.763 -1.383,3.794 -4.83,3.794c-1.737,0 -2.766,0 -3.807,-0.682c-2.236,-2.252 -0.905,-5.057 -3.107,-7.259c-2.546,-1.695 -6.272,-2.027 -8.979,0c-1.037,0.692 -1.382,1.737 -1.382,3.457c0,5.725 3.324,8.931 8.641,10.711c10.614,3.026 25.903,0.109 25.903,-11.407c0,-11.504 -22.11,-15.123 -22.11,-21.757c0,-1.331 1.225,-3.109 4.489,-3.109c8.357,0 1.84,7.941 10.367,7.941c3.672,0 6.21,-1.142 6.21,-4.832c0,-13.426 -33.155,-14.727 -33.155,1.029c0,5.9 3.223,8.366 8.296,11.407c11.884,7.124 13.464,6.871 13.464,10.707" style="fill:#00579d;fill-rule:nonzero;"/><path d="M472.747,382.379c0,2.078 1.031,4.143 2.76,5.53c4.937,3.279 17.276,3.806 17.276,-2.079c0,-4.766 -5.835,-2.685 -7.251,-4.139c-0.347,-0.695 -0.69,-1.382 -0.69,-2.42l0,-24.875c3.299,0 8.286,0.442 8.286,-3.797c0,-3.859 -4.444,-3.457 -8.286,-3.457c0,-7.974 0.347,-10.012 -1.383,-11.744c-3.226,-1.613 -5.198,-2.079 -9.325,0c-1.695,1.68 -1.387,3.44 -1.387,11.744c-2.132,0 -6.91,-0.259 -6.91,3.457c0,3.453 3.6,3.797 6.91,3.797l0,27.983Z" style="fill:#00579d;fill-rule:nonzero;"/></g></svg>