<?xml version="1.0" encoding="UTF-8" standalone="no"?><!DOCTYPE svg PUBLIC "-//W3C//DTD SVG 1.1//EN" "http://www.w3.org/Graphics/SVG/1.1/DTD/svg11.dtd"><svg width="100%" height="100%" viewBox="0 0 476 476" version="1.1" xmlns="http://www.w3.org/2000/svg" xmlns:xlink="http://www.w3.org/1999/xlink" xml:space="preserve" xmlns:serif="http://www.serif.com/" style="fill-rule:evenodd;clip-rule:evenodd;stroke-linejoin:round;stroke-miterlimit:2;"><g><path d="M464.524,412.846l-97.929,-97.925c23.6,-34.068 35.406,-72.047 35.406,-113.917c0,-27.218 -5.284,-53.249 -15.852,-78.087c-10.561,-24.842 -24.838,-46.254 -42.825,-64.241c-17.987,-17.987 -39.396,-32.264 -64.233,-42.826c-24.845,-10.565 -50.874,-15.847 -78.092,-15.847c-27.216,0 -53.247,5.282 -78.085,15.847c-24.842,10.562 -46.254,24.839 -64.241,42.826c-17.989,17.987 -32.264,39.403 -42.827,64.241c-10.564,24.841 -15.846,50.869 -15.846,78.087c0,27.216 5.282,53.238 15.846,78.083c10.562,24.838 24.838,46.247 42.827,64.234c17.987,17.993 39.403,32.264 64.241,42.832c24.841,10.563 50.869,15.844 78.085,15.844c41.879,0 79.852,-11.807 113.922,-35.405l97.929,97.641c6.852,7.231 15.406,10.849 25.693,10.849c9.897,0 18.467,-3.617 25.694,-10.849c7.23,-7.23 10.848,-15.796 10.848,-25.693c0.003,-10.082 -3.518,-18.651 -10.561,-25.694Zm-173.161,-121.488c-25.029,25.033 -55.148,37.549 -90.364,37.549c-35.21,0 -65.329,-12.519 -90.36,-37.549c-25.031,-25.029 -37.546,-55.144 -37.546,-90.36c0,-35.21 12.518,-65.334 37.546,-90.36c25.026,-25.032 55.15,-37.546 90.36,-37.546c35.212,0 65.331,12.519 90.364,37.546c25.033,25.026 37.548,55.15 37.548,90.36c0,35.216 -12.519,65.331 -37.548,90.36Z" style="fill:#fff;fill-rule:nonzero;"/></g></svg>