<?xml version="1.0" encoding="UTF-8" standalone="no"?>
<!DOCTYPE svg PUBLIC "-//W3C//DTD SVG 1.1//EN" "http://www.w3.org/Graphics/SVG/1.1/DTD/svg11.dtd">
<svg width="100%" height="100%" viewBox="0 0 1015 1176" version="1.1" xmlns="http://www.w3.org/2000/svg" xmlns:xlink="http://www.w3.org/1999/xlink" xml:space="preserve" xmlns:serif="http://www.serif.com/" style="fill-rule:evenodd;clip-rule:evenodd;stroke-linejoin:round;stroke-miterlimit:2;">
    <g transform="matrix(1,0,0,1,-1178.98,-445.833)">
        <g transform="matrix(4.16667,0,0,4.16667,0,0)">
            <g transform="matrix(1,0,0,1,283.095,126.723)">
                <path d="M0,-6.187C84.017,-54.727 140.234,47.476 241.733,-11.668C206.912,12.604 193.011,27.857 169.839,41.451C157.691,46.273 144.41,48.54 129.076,46.885C78.122,33.554 62.512,4.902 0,33.509L0,-6.187Z" style="fill:rgb(44,80,140);"/>
            </g>
        </g>
        <g transform="matrix(4.16667,0,0,4.16667,0,0)">
            <g transform="matrix(0,1,1,0,366.072,113.895)">
                <path d="M73.357,-83.118L124.655,-83.118C98.941,-32.5 123.239,-31.994 125.532,3.435C122.911,28.551 87.656,52.297 72.497,73.357C117.204,10.882 30.943,7.729 73.357,-83.118" style="fill:rgb(44,80,140);"/>
            </g>
        </g>
        <g transform="matrix(4.16667,0,0,4.16667,0,0)">
            <g transform="matrix(1,0,0,1,283.095,359.091)">
                <path d="M0,-90.449L0,-10.18C0,33.751 51.028,30.684 88.987,29.628C69.388,14.631 54.052,-2.569 43.707,-23.963C56.172,-55.224 74.218,-83.162 95.856,-106.78C64.144,-75.92 41.726,-124.2 0,-90.449" style="fill:rgb(44,80,140);"/>
            </g>
        </g>
        <g transform="matrix(4.16667,0,0,4.16667,0,0)">
            <g transform="matrix(-1,0,0,1,489.162,386.112)">
                <path d="M0,-74.501C-20.569,-74.501 -37.251,-57.819 -37.251,-37.25C-37.251,-16.681 -20.569,0 0,0C20.569,0 37.251,-16.681 37.251,-37.25C37.251,-57.819 20.569,-74.501 0,-74.501" style="fill:rgb(44,80,140);"/>
            </g>
        </g>
    </g>
</svg>
