<?xml version="1.0" encoding="UTF-8" standalone="no"?><!DOCTYPE svg PUBLIC "-//W3C//DTD SVG 1.1//EN" "http://www.w3.org/Graphics/SVG/1.1/DTD/svg11.dtd"><svg width="100%" height="100%" viewBox="0 0 65 41" version="1.1" xmlns="http://www.w3.org/2000/svg" xmlns:xlink="http://www.w3.org/1999/xlink" xml:space="preserve" xmlns:serif="http://www.serif.com/" style="fill-rule:evenodd;clip-rule:evenodd;stroke-linejoin:round;stroke-miterlimit:2;"><path d="M61.508,0.116l-0.571,-0.116l-56.875,0l-0.349,0.072l28.795,25.65l29,-25.606Z" style="fill:#fff;fill-rule:nonzero;"/><path d="M64.721,2.7l-20.478,18.081l20.217,17.69c0.317,-0.577 0.54,-1.206 0.54,-1.908l0,-32.5c0,-0.484 -0.12,-0.932 -0.279,-1.363Z" style="fill:#fff;fill-rule:nonzero;"/><path d="M0.317,2.492c-0.198,0.484 -0.317,1.013 -0.317,1.571l0,32.5c0,0.593 0.143,1.146 0.373,1.654l20.407,-17.497l-20.463,-18.228Z" style="fill:#fff;fill-rule:nonzero;"/><path d="M32.491,31.154l-8.648,-7.709l-19.995,17.137l0.214,0.043l56.692,0l-19.582,-17.134l-8.681,7.663Z" style="fill:#fff;fill-rule:nonzero;"/></svg>