<?xml version="1.0" encoding="UTF-8" standalone="no"?><!DOCTYPE svg PUBLIC "-//W3C//DTD SVG 1.1//EN" "http://www.w3.org/Graphics/SVG/1.1/DTD/svg11.dtd"><svg width="100%" height="100%" viewBox="0 0 104 104" version="1.1" xmlns="http://www.w3.org/2000/svg" xmlns:xlink="http://www.w3.org/1999/xlink" xml:space="preserve" xmlns:serif="http://www.serif.com/" style="fill-rule:evenodd;clip-rule:evenodd;stroke-linejoin:round;stroke-miterlimit:2;"><circle cx="51.723" cy="51.723" r="51.723" style="fill:#fff;"/><g><path d="M31.995,35.439l0,32.538l-10.853,-0c-2.989,-0 -5.419,-2.446 -5.419,-5.374l-0,-21.791c-0,-2.965 2.4,-5.373 5.419,-5.373l10.853,-0Zm17.358,-13.017c2.393,-1.796 4.342,-0.779 4.342,2.186l-0,54.207c-0,3.004 -1.926,3.99 -4.342,2.186l-17.358,-13.017l0,-32.545l17.358,-13.017Z" style="fill:#2c508c;fill-rule:nonzero;"/><g><path d="M65.238,68.417c-1.606,0 -3.078,-0.893 -3.819,-2.317c-0.742,-1.424 -0.629,-3.143 0.292,-4.458c3.371,-4.813 7.301,-10.428 7.301,-10.428c0,0 -3.469,-4.868 -6.603,-9.266c-0.953,-1.337 -1.079,-3.094 -0.327,-4.554c0.752,-1.459 2.256,-2.376 3.898,-2.376l0,0c1.42,0 2.742,0.721 3.51,1.915c1.733,2.692 4.68,7.268 4.68,7.268c0,0 3.297,-4.862 5.093,-7.511c0.709,-1.045 1.891,-1.672 3.154,-1.672c1.61,0 3.085,0.9 3.821,2.332c0.736,1.432 0.61,3.155 -0.327,4.465c-3.07,4.288 -6.458,9.022 -6.458,9.022c0,0 4.009,5.702 7.461,10.611c0.949,1.351 1.068,3.118 0.306,4.584c-0.761,1.465 -2.274,2.385 -3.925,2.385l-0.001,0c-1.455,0 -2.812,-0.732 -3.611,-1.949c-1.968,-2.998 -5.513,-8.398 -5.513,-8.398c0,0 -3.758,5.671 -5.709,8.617c-0.716,1.08 -1.926,1.73 -3.223,1.73Z" style="fill:#2c508c;fill-rule:nonzero;"/></g></g></svg>