<?xml version="1.0" encoding="UTF-8" standalone="no"?><!DOCTYPE svg PUBLIC "-//W3C//DTD SVG 1.1//EN" "http://www.w3.org/Graphics/SVG/1.1/DTD/svg11.dtd"><svg width="100%" height="100%" viewBox="0 0 104 104" version="1.1" xmlns="http://www.w3.org/2000/svg" xmlns:xlink="http://www.w3.org/1999/xlink" xml:space="preserve" xmlns:serif="http://www.serif.com/" style="fill-rule:evenodd;clip-rule:evenodd;stroke-linejoin:round;stroke-miterlimit:2;"><circle cx="51.723" cy="51.723" r="51.723" style="fill:#fff;"/><g><path d="M31.349,36.086l-0,31.244l-10.423,0c-2.869,0 -5.203,-2.348 -5.203,-5.159l-0,-20.925c-0,-2.848 2.304,-5.16 5.203,-5.16l10.423,0Zm16.667,-12.499c2.298,-1.725 4.169,-0.748 4.169,2.099l0,52.052c0,2.884 -1.849,3.831 -4.169,2.099l-16.667,-12.499l-0,-31.252l16.667,-12.499Z" style="fill:#2c508c;fill-rule:nonzero;"/><path d="M77.352,76.571c13.732,-13.732 13.732,-35.986 0,-49.718c-1.526,-1.526 -4,-1.526 -5.526,0c-1.527,1.527 -1.527,4 -0,5.527c10.678,10.679 10.678,27.993 -0,38.664c-1.527,1.527 -1.527,4 -0,5.527c1.526,1.526 4,1.526 5.526,-0m-11.046,-11.046c7.626,-7.626 7.626,-19.993 0,-27.618c-1.526,-1.527 -4,-1.527 -5.526,-0c-1.527,1.526 -1.527,4 -0,5.526c4.572,4.573 4.572,11.993 -0,16.573c-1.527,1.526 -1.527,4 -0,5.526c1.526,1.519 4,1.519 5.526,-0.007" style="fill:#2c508c;fill-rule:nonzero;"/></g></svg>