<?xml version="1.0" encoding="UTF-8" standalone="no"?>
<!DOCTYPE svg PUBLIC "-//W3C//DTD SVG 1.1//EN" "http://www.w3.org/Graphics/SVG/1.1/DTD/svg11.dtd">
<svg width="100%" height="100%" viewBox="0 0 746 750" version="1.1" xmlns="http://www.w3.org/2000/svg" xmlns:xlink="http://www.w3.org/1999/xlink" xml:space="preserve" xmlns:serif="http://www.serif.com/" style="fill-rule:evenodd;clip-rule:evenodd;stroke-linejoin:round;stroke-miterlimit:2;">
    <g transform="matrix(4.16667,0,0,4.16667,0,0)">
        <path d="M131.844,107.71C129.649,106.508 118.869,100.69 116.846,99.868C114.825,99.048 113.35,98.62 111.774,100.801C110.2,102.977 105.727,107.851 104.372,109.294C103.01,110.738 101.701,110.872 99.504,109.667C97.314,108.469 90.2,105.837 81.948,97.906C75.528,91.733 71.317,84.249 70.095,81.965C68.873,79.677 70.086,78.512 71.247,77.442C72.29,76.476 73.581,74.913 74.748,73.651C75.911,72.389 76.321,71.472 77.122,70.009C77.921,68.545 77.6,67.225 77.081,66.087C76.563,64.951 72.506,53.783 70.811,49.24C69.117,44.697 67.229,45.373 65.924,45.321C64.62,45.276 63.137,45.031 61.647,44.976C60.157,44.92 57.713,45.389 55.583,47.548C53.451,49.707 47.474,54.896 47.063,65.896C46.651,76.889 54.26,87.817 55.321,89.347C56.383,90.882 69.851,114.718 92.232,124.521C114.62,134.321 114.737,131.333 118.844,131.114C122.954,130.897 132.269,126.199 134.329,121.054C136.387,115.907 136.552,111.433 136.029,110.48C135.504,109.528 134.038,108.909 131.844,107.71ZM90.791,160.702C75.989,160.702 62.203,156.262 50.692,148.652L22.683,157.618L31.787,130.552C23.062,118.533 17.907,103.77 17.907,87.817C17.907,47.625 50.604,14.926 90.791,14.926C130.985,14.926 163.68,47.625 163.68,87.817C163.68,128.006 130.985,160.702 90.791,160.702ZM90.791,0.261C42.439,0.261 3.24,39.46 3.24,87.817C3.24,104.358 7.83,119.829 15.802,133.027L0,180L48.474,164.482C61.018,171.416 75.442,175.372 90.791,175.372C139.151,175.372 178.348,136.169 178.348,87.817C178.348,39.46 139.151,0.261 90.791,0.261Z" style="fill:white;"/>
    </g>
</svg>
