<?xml version="1.0" encoding="UTF-8" standalone="no"?><!DOCTYPE svg PUBLIC "-//W3C//DTD SVG 1.1//EN" "http://www.w3.org/Graphics/SVG/1.1/DTD/svg11.dtd"><svg width="100%" height="100%" viewBox="0 0 757 534" version="1.1" xmlns="http://www.w3.org/2000/svg" xmlns:xlink="http://www.w3.org/1999/xlink" xml:space="preserve" xmlns:serif="http://www.serif.com/" style="fill-rule:evenodd;clip-rule:evenodd;stroke-linejoin:round;stroke-miterlimit:2;"><path d="M301.075,379.223l-0,-225.11l197.852,112.559l-197.852,112.551Zm440.097,-295.942c-8.706,-32.781 -34.358,-58.597 -66.925,-67.358c-59.033,-15.923 -295.753,-15.923 -295.753,-15.923c0,-0 -236.716,-0 -295.749,15.923c-32.567,8.761 -58.219,34.577 -66.926,67.358c-15.819,59.416 -15.819,183.387 -15.819,183.387c-0,0 -0,123.965 15.819,183.385c8.707,32.783 34.355,58.596 66.926,67.364c59.033,15.916 295.749,15.916 295.749,15.916c0,0 236.72,0 295.753,-15.916c32.567,-8.768 58.219,-34.581 66.925,-67.364c15.82,-59.42 15.82,-183.388 15.82,-183.388c-0,0 -0,-123.968 -15.82,-183.384" style="fill:#fff;fill-rule:nonzero;"/></svg>