<?xml version="1.0" encoding="UTF-8" standalone="no"?><!DOCTYPE svg PUBLIC "-//W3C//DTD SVG 1.1//EN" "http://www.w3.org/Graphics/SVG/1.1/DTD/svg11.dtd"><svg width="100%" height="100%" viewBox="0 0 997 470" version="1.1" xmlns="http://www.w3.org/2000/svg" xmlns:xlink="http://www.w3.org/1999/xlink" xml:space="preserve" xmlns:serif="http://www.serif.com/" style="fill-rule:evenodd;clip-rule:evenodd;stroke-linejoin:round;stroke-miterlimit:2;"><path d="M355,0.07c12.632,-0.549 24.465,2.118 35.5,8c0.418,2.288 -0.249,4.288 -2,6c-9.242,11.244 -19.742,21.077 -31.5,29.5c-15.377,7.766 -31.71,10.766 -49,9c-4.433,0.421 -8.433,1.921 -12,4.5c-0.927,-3.769 -0.427,-7.436 1.5,-11c7.655,-12.33 16.822,-23.496 27.5,-33.5c9.098,-6.635 19.098,-10.802 30,-12.5Z" style="fill:#fff;"/><path d="M234,53.07c1.424,-2.015 2.09,-4.348 2,-7c6.893,-22.057 21.56,-36.224 44,-42.5c2.929,-0.777 5.763,-0.61 8.5,0.5c-0.263,16.472 -3.263,32.472 -9,48c-6.5,13.167 -16.333,23 -29.5,29.5c-5.246,4.575 -9.746,9.742 -13.5,15.5c-1,-2.333 -2,-4.667 -3,-7c-0.793,-12.379 -0.627,-24.712 0.5,-37Z" style="fill:#fff;"/><path d="M211,109.07l0,4l-3,-0c-10.329,-4.166 -20.329,-8.999 -30,-14.5c-19.744,-15.747 -27.911,-36.247 -24.5,-61.5c0.386,-5.658 1.886,-10.991 4.5,-16c15.142,8.309 27.976,19.309 38.5,33c1.667,3.333 3.333,6.667 5,10c2.489,10.865 4.156,21.865 5,33c1.255,4.161 2.755,8.161 4.5,12Z" style="fill:#fff;"/><path d="M437,22.07c22.737,-1.537 41.57,6.129 56.5,23c0.667,1 0.667,2 0,3c-12.913,7.869 -26.746,13.702 -41.5,17.5c-13.302,2.704 -26.302,1.704 -39,-3c-11.452,-4.893 -22.786,-10.059 -34,-15.5c3.965,-1.266 7.965,-2.432 12,-3.5c9.506,-5.587 19.173,-10.92 29,-16c5.637,-2.318 11.303,-4.151 17,-5.5Z" style="fill:#fff;"/><path d="M510,29.07c9.397,-0.436 12.397,3.73 9,12.5c-8.963,4.38 -13.13,1.547 -12.5,-8.5c1.376,-1.205 2.542,-2.538 3.5,-4Z" style="fill:#fff;"/><path d="M532,90.07c-6.036,0.14 -12.036,-0.193 -18,-1c-13.427,-3.523 -26.761,-7.357 -40,-11.5c11.798,-4.399 22.131,-11.065 31,-20c26.827,-18.192 53.494,-17.859 80,1c4.292,4.18 3.626,7.513 -2,10c-9.413,5.735 -19.079,11.068 -29,16c-7.022,3.089 -14.355,4.922 -22,5.5Z" style="fill:#fff;"/><path d="M592,46.07c6.489,-0.344 8.489,2.49 6,8.5c-6.414,2.593 -8.914,0.426 -7.5,-6.5c0.717,-0.544 1.217,-1.211 1.5,-2Z" style="fill:#fff;"/><path d="M236,46.07c0.09,2.652 -0.576,4.985 -2,7c-0.09,-2.652 0.576,-4.985 2,-7Z" style="fill:#fff;"/><path d="M723,51.07c9.935,-0.634 12.935,3.533 9,12.5c-9.197,3.476 -13.03,0.309 -11.5,-9.5c1.045,-0.873 1.878,-1.873 2.5,-3Z" style="fill:#fff;"/><path d="M605,60.07c9.593,-0.268 12.593,3.898 9,12.5c-9.185,4.124 -13.351,1.291 -12.5,-8.5c1.376,-1.205 2.542,-2.538 3.5,-4Z" style="fill:#fff;"/><path d="M692,60.07c9.593,-0.268 12.593,3.898 9,12.5c-9.185,4.124 -13.351,1.291 -12.5,-8.5c1.376,-1.205 2.542,-2.538 3.5,-4Z" style="fill:#fff;"/><path d="M315,61.07c8.007,-0.166 16.007,0 24,0.5c2.013,0.68 3.346,2.013 4,4c-6.424,14.352 -14.257,27.852 -23.5,40.5c-6.195,6.514 -13.362,11.681 -21.5,15.5c-12.61,3.79 -25.277,7.457 -38,11c-2.676,0.74 -5.342,1.073 -8,1c7.405,-8.976 12.572,-19.143 15.5,-30.5c9.215,-21.727 25.048,-35.727 47.5,-42Z" style="fill:#fff;"/><path d="M823,62.07c5.173,-0.41 10.173,0.257 15,2c-5.119,7.527 -12.119,10.027 -21,7.5c-2.28,-0.233 -4.28,-1.066 -6,-2.5c4.063,-2.36 8.063,-4.693 12,-7Z" style="fill:#fff;"/><path d="M358,64.07c9.31,-1.196 12.643,2.637 10,11.5c-9.574,5.091 -13.741,2.258 -12.5,-8.5c1.045,-0.873 1.878,-1.873 2.5,-3Z" style="fill:#fff;"/><path d="M624,64.07c8.925,-1.062 17.591,0.438 26,4.5c5.495,4.157 8.495,9.657 9,16.5c-9.986,0.178 -18.819,-2.822 -26.5,-9c-2.61,-4.242 -5.443,-8.242 -8.5,-12Z" style="fill:#fff;"/><path d="M272,69.07c7.89,0.217 9.556,3.383 5,9.5c-4.271,1.513 -6.605,0.013 -7,-4.5c0.687,-1.677 1.354,-3.344 2,-5Z" style="fill:#fff;"/><path d="M217,70.07c6.732,-1.018 8.732,1.648 6,8c-7.71,1.623 -9.71,-1.043 -6,-8Z" style="fill:#fff;"/><path d="M755,74.07c2.652,0.09 4.985,-0.576 7,-2c13.669,-1.371 27.335,-1.037 41,1c1.083,0.865 1.249,1.865 0.5,3c-6.454,9.152 -15.287,14.652 -26.5,16.5c-14.7,4.504 -29.367,4.504 -44,-0c-0.78,-1.073 -0.613,-2.24 0.5,-3.5c5.74,-7.114 12.907,-12.114 21.5,-15Z" style="fill:#fff;"/><path d="M762,72.07c-2.015,1.424 -4.348,2.09 -7,2c2.015,-1.424 4.348,-2.09 7,-2Z" style="fill:#fff;"/><path d="M393,73.07c20.847,-2.585 39.014,3.081 54.5,17c0.667,1 0.667,2 0,3c-12.934,9.905 -27.101,17.738 -42.5,23.5c-9.538,2.36 -19.205,3.027 -29,2c-14.054,-4.108 -28.054,-8.274 -42,-12.5c5.914,-2.291 11.581,-5.124 17,-8.5c11.79,-12.058 25.79,-20.225 42,-24.5Z" style="fill:#fff;"/><path d="M858,73.07c7.074,-0.339 14.074,0.161 21,1.5c2.749,1.123 5.249,2.623 7.5,4.5c0.749,1.135 0.583,2.135 -0.5,3c-11.631,5.981 -23.631,11.148 -36,15.5c-12.973,1.47 -25.973,1.47 -39,-0c14.605,-10.302 30.272,-18.468 47,-24.5Z" style="fill:#fff;"/><path d="M457,77.07c4.425,-0.743 7.092,1.09 8,5.5c-2.303,4.534 -5.47,5.367 -9.5,2.5c-0.891,-2.998 -0.391,-5.664 1.5,-8Z" style="fill:#fff;"/><path d="M159,147.07c-5.444,-1.384 -11.111,-2.05 -17,-2c-18.901,-5.061 -32.068,-16.728 -39.5,-35c-3.508,-8.353 -5.675,-17.02 -6.5,-26c18.804,0.991 36.137,6.491 52,16.5c9.175,8.176 16.008,18.009 20.5,29.5c3.966,4.967 8.299,9.634 13,14c0.483,0.948 0.649,1.948 0.5,3l-23,0Z" style="fill:#fff;"/><path d="M266,86.07c0.876,-0.131 1.543,0.202 2,1c-4.132,8.102 -9.132,15.602 -15,22.5c-6.116,5.044 -12.949,6.544 -20.5,4.5c4.49,-10.045 11.656,-17.878 21.5,-23.5c3.029,-0.539 6.029,-1.206 9,-2c1.442,-0.377 2.442,-1.21 3,-2.5Z" style="fill:#fff;"/><path d="M689,88.07c13.461,-0.18 25.461,3.82 36,12c-9.875,7.676 -20.875,9.843 -33,6.5c-8.011,-3.851 -15.344,-8.684 -22,-14.5c3.959,-0.827 7.959,-1.327 12,-1.5c2.604,-0.39 4.938,-1.224 7,-2.5Z" style="fill:#fff;"/><path d="M514,89.07c5.964,0.807 11.964,1.14 18,1c-2.31,0.664 -4.81,0.997 -7.5,1c-3.805,0.196 -7.305,-0.47 -10.5,-2Z" style="fill:#fff;"/><path d="M592,89.07c6.489,-0.344 8.489,2.49 6,8.5c-6.414,2.593 -8.914,0.426 -7.5,-6.5c0.717,-0.544 1.217,-1.211 1.5,-2Z" style="fill:#fff;"/><path d="M930,107.07c-9.032,-0.669 -18.032,-1.669 -27,-3c4.59,-1.421 7.756,-4.421 9.5,-9c3.64,-2.957 7.807,-4.79 12.5,-5.5c14.883,-1.27 29.549,-0.103 44,3.5c1.021,0.502 1.188,1.168 0.5,2c-11.139,10.145 -24.305,14.145 -39.5,12Z" style="fill:#fff;"/><path d="M545,94.07c6.703,-0.97 9.036,1.697 7,8c-8.173,2.167 -10.506,-0.5 -7,-8Z" style="fill:#fff;"/><path d="M480,96.07c22.856,-1.892 43.189,4.274 61,18.5c-16.622,14.606 -35.289,25.939 -56,34c-9.88,2.327 -19.88,2.994 -30,2c-5.235,-1.745 -10.568,-3.079 -16,-4c-9.036,-0.103 -18.036,-0.27 -27,-0.5c10.824,-12.99 22.824,-24.824 36,-35.5c9.655,-7.265 20.322,-12.098 32,-14.5Z" style="fill:#fff;"/><path d="M632,96.07c4.014,-0.166 8.014,0.001 12,0.5c10.161,2.746 19.161,7.579 27,14.5c-13.81,8.137 -27.476,7.97 -41,-0.5c-4.507,-3.676 -8.841,-7.51 -13,-11.5c5.249,-0.504 10.249,-1.504 15,-3Z" style="fill:#fff;"/><path d="M566,101.07c23.198,-2.834 43.364,3.5 60.5,19c3.077,4.236 4.744,8.903 5,14c-0.75,0.626 -1.584,1.126 -2.5,1.5c-12.976,1.369 -25.976,1.703 -39,1c-16.835,-4.166 -28.835,-14.166 -36,-30c3.783,-2.383 7.783,-4.216 12,-5.5Z" style="fill:#fff;"/><path d="M222,103.07c6.548,-0.293 8.548,2.541 6,8.5c-4.538,2.688 -7.205,1.522 -8,-3.5c-0.063,-2.014 0.603,-3.681 2,-5Z" style="fill:#fff;"/><path d="M903,104.07c8.968,1.331 17.968,2.331 27,3c-8.007,0.166 -16.007,-0 -24,-0.5c-1.438,-0.219 -2.771,-0.719 -4,-1.5c0.124,-0.607 0.457,-0.94 1,-1Z" style="fill:#fff;"/><path d="M748,107.07c13.467,-0.449 26.801,0.551 40,3c0.333,0.5 0.667,1 1,1.5c-4.209,10.134 -11.542,17.134 -22,21c-13.808,5.762 -28.142,7.762 -43,6c-4.615,-0.817 -8.949,-2.317 -13,-4.5c8.253,-14.623 20.586,-23.623 37,-27Z" style="fill:#fff;"/><path d="M800,108.07c9.677,-1.009 12.677,2.824 9,11.5c-9.094,4.587 -12.927,1.753 -11.5,-8.5c1.045,-0.873 1.878,-1.873 2.5,-3Z" style="fill:#fff;"/><path d="M211,109.07c0.951,1.419 1.284,3.085 1,5c-1.599,0.268 -2.932,-0.066 -4,-1l3,-0l0,-4Z" style="fill:#fff;"/><path d="M6,115.07c32.804,-5.993 59.471,3.841 80,29.5c6.182,4.034 12.182,8.201 18,12.5c-17.656,6.896 -35.989,9.729 -55,8.5c-25.221,-7.721 -41.555,-24.221 -49,-49.5c2.235,0.295 4.235,-0.039 6,-1Z" style="fill:#fff;"/><path d="M685,115.07c6.205,-0.463 8.205,2.204 6,8c-8.112,2.11 -10.112,-0.557 -6,-8Z" style="fill:#fff;"/><path d="M841,118.07c20.013,-0.183 40.013,0.15 60,1c-0.591,3.114 -2.258,5.614 -5,7.5c-20.668,9.081 -42.334,13.247 -65,12.5c-10.194,0.451 -20.194,-0.716 -30,-3.5c11.809,-9.406 25.142,-15.24 40,-17.5Z" style="fill:#fff;"/><path d="M637,122.07c7.516,0.621 8.849,3.788 4,9.5c-4.833,0.5 -7,-1.667 -6.5,-6.5c0.698,-1.191 1.531,-2.191 2.5,-3Z" style="fill:#fff;"/><path d="M327,123.07c6.056,0.018 8.056,2.851 6,8.5c-4.731,2.836 -7.731,1.669 -9,-3.5c0.592,-1.923 1.592,-3.589 3,-5Z" style="fill:#fff;"/><path d="M229,124.07l7,-0c-0.875,10.124 -4.041,19.457 -9.5,28c-7.59,5.545 -15.09,11.212 -22.5,17c-4.156,-22.359 4.177,-37.359 25,-45Z" style="fill:#fff;"/><path d="M341,157.07c-1.983,0.343 -3.317,-0.324 -4,-2c7.17,-12.003 16.837,-21.503 29,-28.5c12.833,-4.036 25.167,-2.869 37,3.5c1.021,0.502 1.188,1.168 0.5,2c-9.447,10.964 -20.947,18.797 -34.5,23.5c-9.41,0.193 -18.744,0.693 -28,1.5Z" style="fill:#fff;"/><path d="M664,127.07c10.685,-0.44 21.018,1.06 31,4.5c-3.788,5.067 -8.788,8.4 -15,10c-12.775,1.971 -24.775,-0.195 -36,-6.5c6.92,-2.13 13.587,-4.797 20,-8Z" style="fill:#fff;"/><path d="M200,128.07c6.71,-0.856 9.043,1.81 7,8c-4.657,3.426 -7.657,2.426 -9,-3c0.687,-1.677 1.354,-3.344 2,-5Z" style="fill:#fff;"/><path d="M785,132.07c9.306,-1.19 12.639,2.643 10,11.5c-9.593,5.07 -13.76,2.236 -12.5,-8.5c1.045,-0.873 1.878,-1.873 2.5,-3Z" style="fill:#fff;"/><path d="M925,132.07c9.291,-1.214 12.624,2.619 10,11.5c-9.519,5.154 -13.686,2.32 -12.5,-8.5c1.045,-0.873 1.878,-1.873 2.5,-3Z" style="fill:#fff;"/><path d="M308,160.07c-7.187,-0.325 -14.187,0.009 -21,1c-2.356,1.075 -4.689,1.075 -7,0c6.241,-10.074 14.574,-17.908 25,-23.5c5.667,-0.667 11.333,-0.667 17,0c3.661,0.829 6.995,2.329 10,4.5c-6.233,8.44 -14.233,14.44 -24,18Z" style="fill:#fff;"/><path d="M522,156.07c-2.667,-0.667 -5.333,-1.333 -8,-2c6.055,-5.872 12.722,-11.039 20,-15.5c12.941,-4.628 24.275,-2.128 34,7.5c-7.276,5.472 -15.276,9.639 -24,12.5c-7.565,1.021 -14.899,0.188 -22,-2.5Z" style="fill:#fff;"/><path d="M248,138.07c6.986,-0.169 8.653,2.664 5,8.5c-7.084,0.475 -8.751,-2.358 -5,-8.5Z" style="fill:#fff;"/><path d="M897,146.07c-4.703,-0.063 -9.37,0.271 -14,1c2.517,-1.473 5.35,-2.14 8.5,-2c2.033,0.006 3.866,0.339 5.5,1Z" style="fill:#fff;"/><path d="M142,145.07c5.889,-0.05 11.556,0.616 17,2c-5.917,0.284 -11.584,-0.383 -17,-2Z" style="fill:#fff;"/><path d="M897,146.07c4.406,0.907 8.406,2.574 12,5c-7.085,8.582 -15.751,15.082 -26,19.5c-7.695,0.231 -15.362,0.731 -23,1.5c-0.667,-0.333 -1.333,-0.667 -2,-1c5.111,-8.941 11.778,-16.441 20,-22.5c1.654,-0.608 3.321,-1.108 5,-1.5c4.63,-0.729 9.297,-1.063 14,-1Z" style="fill:#fff;"/><path d="M723,147.07c9.291,-1.214 12.624,2.619 10,11.5c-9.519,5.154 -13.686,2.32 -12.5,-8.5c1.045,-0.873 1.878,-1.873 2.5,-3Z" style="fill:#fff;"/><path d="M264,147.07c1.478,-0.262 2.811,0.071 4,1c-3.137,7.637 -8.47,13.137 -16,16.5c-4.729,0.996 -9.229,0.496 -13.5,-1.5c2.703,-6.67 7.537,-11.503 14.5,-14.5c3.856,-0.177 7.523,-0.677 11,-1.5Z" style="fill:#fff;"/><path d="M629,147.07c8.515,0.196 11.515,4.362 9,12.5c-9.593,5.07 -13.76,2.236 -12.5,-8.5c1.376,-1.205 2.542,-2.538 3.5,-4Z" style="fill:#fff;"/><path d="M696,152.07c4.679,-0.166 9.345,0.001 14,0.5c-4.84,13.507 -14.173,22.173 -28,26c-8.686,0.832 -17.353,0.665 -26,-0.5c6.454,-4.619 12.12,-10.119 17,-16.5c6.91,-5.241 14.576,-8.408 23,-9.5Z" style="fill:#fff;"/><path d="M835,152.07c6.81,-1.89 10.477,0.61 11,7.5c-0.838,4.27 -3.504,6.436 -8,6.5c-4.227,-0.586 -6.227,-3.086 -6,-7.5c-0.109,-2.712 0.891,-4.878 3,-6.5Z" style="fill:#fff;"/><path d="M168,154.07c5.642,1.318 10.975,3.485 16,6.5c3.956,4.741 7.29,9.908 10,15.5c-16.18,1.574 -24.846,-5.76 -26,-22Z" style="fill:#fff;"/><path d="M514,154.07c2.667,0.667 5.333,1.333 8,2c-3.072,0.317 -6.072,-0.016 -9,-1c0.124,-0.607 0.457,-0.94 1,-1Z" style="fill:#fff;"/><path d="M115,155.07c9.806,0.194 19.139,2.361 28,6.5c5.604,3.603 9.771,8.437 12.5,14.5c2.376,2.545 4.876,4.878 7.5,7c-7.311,1.165 -14.644,1.331 -22,0.5c-15.387,-3.221 -24.054,-12.721 -26,-28.5Z" style="fill:#fff;"/><path d="M450,154.07c9.284,0.3 18.451,1.3 27.5,3c-3.255,10.928 -10.421,18.428 -21.5,22.5c-3.959,0.827 -7.959,1.327 -12,1.5c-8.74,-1.245 -17.406,-2.912 -26,-5c5.992,-4.826 11.659,-9.993 17,-15.5c4.806,-2.871 9.806,-5.037 15,-6.5Z" style="fill:#fff;"/><path d="M765,155.07c17.053,-0.388 34.053,0.279 51,2c-0.624,3.729 -2.624,6.562 -6,8.5c-14.589,6.656 -29.923,10.322 -46,11c-13.755,0.984 -27.422,0.318 -41,-2c-0.958,-1.147 -0.625,-2.147 1,-3c12.179,-9.334 25.846,-14.834 41,-16.5Z" style="fill:#fff;"/><path d="M337,155.07c0.683,1.676 2.017,2.343 4,2c-1.419,0.951 -3.085,1.284 -5,1c-0.237,-1.291 0.096,-2.291 1,-3Z" style="fill:#fff;"/><path d="M408,157.07c10.416,-1.073 13.416,3.094 9,12.5c-8.336,3.126 -12.169,0.292 -11.5,-8.5c0.662,-1.484 1.496,-2.817 2.5,-4Z" style="fill:#fff;"/><path d="M572,157.07c9.795,-0.877 12.795,3.123 9,12c-8.492,4.002 -12.658,1.335 -12.5,-8c1.376,-1.205 2.542,-2.538 3.5,-4Z" style="fill:#fff;"/><path d="M723,431.07c9.819,1.103 19.819,1.769 30,2c81.002,4.12 161.335,13.62 241,28.5c4.02,2.666 3.69,4.999 -1,7c-1.333,0.167 -2.667,0.333 -4,0.5c-118.01,-21.195 -237.01,-31.529 -357,-31c-94.971,-0.271 -189.637,4.895 -284,15.5c-37.45,4.514 -74.783,9.514 -112,15c-3.537,-1.826 -3.871,-4.16 -1,-7c25.144,-10.801 46.644,-26.634 64.5,-47.5c9.778,-16.961 14.778,-35.294 15,-55c1.536,-14.305 0.203,-28.305 -4,-42c-3.074,-6.308 -7.24,-11.808 -12.5,-16.5c-18.966,-15.826 -39.632,-29.159 -62,-40c-15.382,-19.181 -33.715,-34.847 -55,-47c-6.06,-4.714 -10.56,-10.548 -13.5,-17.5c-0.798,-1.759 -0.631,-3.426 0.5,-5c9.522,8.023 19.188,15.856 29,23.5c4.262,3.281 8.929,4.115 14,2.5c2.46,-14.897 0.793,-29.23 -5,-43c3.142,0.299 5.309,1.966 6.5,5c3.295,11.181 5.962,22.514 8,34c4.101,14.374 10.935,27.207 20.5,38.5c2.612,1.889 5.445,3.389 8.5,4.5c1.626,-0.789 3.126,-1.789 4.5,-3c0.724,-5.358 1.557,-10.691 2.5,-16c2.069,-3.736 5.069,-6.403 9,-8c1.5,0.167 2.333,1 2.5,2.5c-7.832,15.338 -4.832,28.005 9,38c4.664,2.071 8.997,1.404 13,-2c8.83,-5.498 12.996,-13.332 12.5,-23.5c-14.295,-18.247 -32.461,-31.247 -54.5,-39c-0.886,-0.825 -1.219,-1.825 -1,-3c4.12,0.376 8.12,0.876 12,1.5c-6.833,-7.5 -13.667,-15 -20.5,-22.5c-0.591,-0.983 -0.257,-1.65 1,-2c10.667,6.656 20.167,14.823 28.5,24.5c4.275,3.303 8.941,5.803 14,7.5c1.874,0.11 3.374,-0.556 4.5,-2c0.941,-15.127 -1.892,-29.46 -8.5,-43c1.975,-1.078 3.808,-0.745 5.5,1c3.547,5.14 5.38,10.807 5.5,17c1.175,0.219 2.175,-0.114 3,-1c1.608,-2.882 2.941,-5.882 4,-9c0.825,-0.886 1.825,-1.219 3,-1c-0.848,4.726 -2.015,9.392 -3.5,14c-0.877,6.749 -0.544,13.416 1,20c3.851,8.537 8.351,16.703 13.5,24.5c1.701,0.345 3.034,-0.322 4,-2c2.31,-0.497 4.643,-0.663 7,-0.5c-0.592,3.191 -1.759,6.191 -3.5,9c-0.743,3.283 -0.076,6.283 2,9c4.435,5.274 9.602,9.607 15.5,13c1.083,-0.865 1.249,-1.865 0.5,-3c-5.923,-14.102 -11.256,-28.435 -16,-43c-1.587,-5.591 -2.254,-11.258 -2,-17c3.983,9.303 7.983,18.636 12,28c1.346,2.679 3.346,4.679 6,6c1.261,-0.259 2.261,-0.926 3,-2c6.458,-10.877 10.625,-22.543 12.5,-35c1.469,1.692 2.135,3.692 2,6c-1.716,11.196 -4.216,22.196 -7.5,33c-0.667,6.667 -0.667,13.333 0,20c1.064,4.454 2.897,8.454 5.5,12c6.182,-4.347 10.682,-10.013 13.5,-17c10.588,-29.755 18.088,-60.088 22.5,-91c1.569,1.214 2.402,2.881 2.5,5c0.667,6.333 0.667,12.667 0,19c-2.841,11.196 -4.508,22.529 -5,34c3.14,3.606 6.64,3.773 10.5,0.5c10.131,-6.644 19.464,-14.144 28,-22.5c0.667,0.333 1.333,0.667 2,1c-3.24,5.577 -7.24,10.577 -12,15c4.667,0.667 9.333,1.333 14,2c-1.165,1.084 -2.498,1.917 -4,2.5c-17.742,1.415 -29.242,10.581 -34.5,27.5c-1.444,5.664 -3.277,11.164 -5.5,16.5c5.335,-0.294 9.502,-2.794 12.5,-7.5c3.577,-7.058 6.577,-14.391 9,-22c1.577,-3.039 4.077,-4.372 7.5,-4c-1.04,4.349 -1.04,8.682 0,13c7.249,-3.083 12.749,-8.083 16.5,-15c3.727,-9.181 7.061,-18.515 10,-28c1.455,-3.412 3.288,-6.579 5.5,-9.5c1.135,-0.749 2.135,-0.583 3,0.5c-6.421,9.992 -8.755,20.826 -7,32.5c1.667,0.667 3.333,0.667 5,0c11.3,-4.973 20.466,-12.473 27.5,-22.5c0.484,2.413 0.15,4.746 -1,7c-10.705,12.049 -22.872,22.216 -36.5,30.5c3.333,0.333 6.667,0.667 10,1c-6.568,0.366 -11.734,3.199 -15.5,8.5c-10.887,5.192 -21.387,11.026 -31.5,17.5c-10.878,5.606 -21.878,10.939 -33,16c-14.235,11.648 -21.401,26.815 -21.5,45.5c-1.144,26.373 1.523,52.373 8,78c4.018,14.881 8.518,29.548 13.5,44c119.048,-12.087 238.381,-16.087 358,-12Z" style="fill:#fff;"/><path d="M287,161.07c6.813,-0.991 13.813,-1.325 21,-1c-2.763,1.155 -5.763,1.822 -9,2c-3.976,-0.664 -7.976,-0.997 -12,-1Z" style="fill:#fff;"/><path d="M590,160.07c0.235,-0.597 0.735,-0.93 1.5,-1c6.056,1.544 12.223,2.377 18.5,2.5c18.316,1.847 28.816,11.681 31.5,29.5c-11.384,0.439 -22.218,-2.061 -32.5,-7.5c-6.862,-4.547 -11.695,-10.713 -14.5,-18.5c-1.049,-2.118 -2.549,-3.784 -4.5,-5Z" style="fill:#fff;"/><path d="M221,163.07c6.703,-0.97 9.036,1.697 7,8c-7.351,2.007 -9.685,-0.66 -7,-8Z" style="fill:#fff;"/><path d="M496,163.07l6,0c-1.199,13.032 -8.199,20.865 -21,23.5c-4.676,0.706 -9.343,1.04 -14,1c2.658,-6.314 6.324,-11.981 11,-17c5.491,-3.918 11.491,-6.418 18,-7.5Z" style="fill:#fff;"/><path d="M376,186.07l0,3l-12,0c-12.262,-3.631 -17.929,-11.964 -17,-25c10.731,1.115 19.564,5.782 26.5,14c1.707,2.409 2.54,5.075 2.5,8Z" style="fill:#fff;"/><path d="M515,168.07c5.996,-1.167 8.496,1.166 7.5,7c-4.506,3.308 -7.673,2.475 -9.5,-2.5c0.019,-1.833 0.685,-3.333 2,-4.5Z" style="fill:#fff;"/><path d="M316,168.07c9.935,-0.634 12.935,3.533 9,12.5c-8.829,4.184 -12.662,1.351 -11.5,-8.5c0.662,-1.484 1.496,-2.817 2.5,-4Z" style="fill:#fff;"/><path d="M266,176.07c8.042,-0.159 12.709,3.674 14,11.5c-0.314,7.83 -4.314,10.83 -12,9c-6.342,-3.362 -8.508,-8.528 -6.5,-15.5c1.059,-2.159 2.559,-3.826 4.5,-5Z" style="fill:#fff;"/><path d="M541,178.07c9.745,-1.302 18.411,1.031 26,7c-14.439,16.023 -32.106,20.69 -53,14c7.07,-9.766 16.07,-16.766 27,-21Z" style="fill:#fff;"/><path d="M810,182.07c7.659,-0.666 15.493,-1 23.5,-1c10.716,-0.222 21.216,0.445 31.5,2c-18.321,-0.814 -36.655,-1.147 -55,-1Z" style="fill:#fff;"/><path d="M810,182.07c18.345,-0.147 36.679,0.186 55,1c1.495,-0.085 2.495,0.581 3,2c-1.303,2.437 -2.97,4.604 -5,6.5c-14.718,7.599 -30.384,12.266 -47,14c-15.306,1.481 -30.639,1.814 -46,1c-5.448,-0.753 -10.781,-1.919 -16,-3.5c16.063,-13.689 34.73,-20.689 56,-21Z" style="fill:#fff;"/><path d="M397,182.07c13.314,-0.799 16.814,4.868 10.5,17c-5.89,5.674 -11.223,5.341 -16,-1c-0.667,-3.333 -0.667,-6.667 0,-10c2.04,-1.87 3.873,-3.87 5.5,-6Z" style="fill:#fff;"/><path d="M68,184.07c29.775,-4.131 55.108,4.369 76,25.5c5.92,3.128 11.92,5.961 18,8.5c1.333,0.667 1.333,1.333 0,2c-22.194,8.8 -45.194,12.634 -69,11.5c-25.259,-4.767 -41.926,-19.267 -50,-43.5c8.563,-0.76 16.896,-2.093 25,-4Z" style="fill:#fff;"/><path d="M193,184.07c9.792,0.293 13.958,5.293 12.5,15c-2.435,4.724 -6.269,6.224 -11.5,4.5c-5.294,-3.435 -7.127,-8.268 -5.5,-14.5c1.025,-2.187 2.525,-3.854 4.5,-5Z" style="fill:#fff;"/><path d="M723,185.07c8.325,-1.507 11.825,1.827 10.5,10c-9.419,7.052 -13.752,4.719 -13,-7c1.045,-0.873 1.878,-1.873 2.5,-3Z" style="fill:#fff;"/><path d="M376,186.07c0.934,1.068 1.268,2.401 1,4c-4.532,0.318 -8.866,-0.015 -13,-1l12,0l0,-3Z" style="fill:#fff;"/><path d="M449,193.07c12.214,0.352 14.214,5.185 6,14.5c-7.78,1.553 -10.947,-1.614 -9.5,-9.5c0.997,-1.823 2.164,-3.49 3.5,-5Z" style="fill:#fff;"/><path d="M684,197.07c19.981,-1.34 37.981,3.994 54,16c-13.435,11.19 -28.768,14.69 -46,10.5c-12.951,-4.973 -24.285,-12.307 -34,-22c9.122,0.244 17.788,-1.256 26,-4.5Z" style="fill:#fff;"/><path d="M332,197.07c10.438,1.208 13.272,6.541 8.5,16c-5.555,4.621 -9.888,3.621 -13,-3c-1.325,-5.343 0.175,-9.676 4.5,-13Z" style="fill:#fff;"/><path d="M495,203.07c9.489,-0.295 18.156,2.205 26,7.5c-7.394,7.365 -16.061,12.699 -26,16c-9.434,-0.256 -18.767,-0.756 -28,-1.5c7.192,-10.239 16.525,-17.572 28,-22Z" style="fill:#fff;"/><path d="M168,240.07c11.044,-0.487 21.377,2.013 31,7.5c2.526,3.026 4.86,6.193 7,9.5c-5.873,1.602 -11.54,3.769 -17,6.5c-5.942,1.406 -11.942,1.739 -18,1c-7.561,-2.447 -14.894,-5.447 -22,-9c-0.951,-0.718 -1.117,-1.551 -0.5,-2.5c5.516,-5.994 12.016,-10.327 19.5,-13Z" style="fill:#fff;"/><path d="M414,322.07c3.362,-0.43 6.195,0.57 8.5,3l47,83c1.955,8.291 -1.212,11.791 -9.5,10.5c-3.877,-5.585 -7.377,-11.418 -10.5,-17.5c-16.752,-17.236 -35.585,-20.069 -56.5,-8.5c-6.764,5.093 -11.597,11.593 -14.5,19.5c-3.828,7.913 -8.828,8.913 -15,3c-0.805,-4.409 0.195,-8.409 3,-12l42,-74c1.666,-2.496 3.5,-4.829 5.5,-7Zm2,22c-5.529,9.888 -11.195,19.721 -17,29.5c11.129,-2.121 22.296,-1.954 33.5,0.5c1.257,-0.35 1.591,-1.017 1,-2l-15,-26c-0.708,-0.881 -1.542,-1.547 -2.5,-2Z" style="fill:#fff;"/><path d="M634,322.07c3.362,-0.43 6.195,0.57 8.5,3l47,83c1.955,8.291 -1.212,11.791 -9.5,10.5c-3.877,-5.585 -7.377,-11.418 -10.5,-17.5c-20.175,-20.044 -41.175,-21.044 -63,-3c-3.216,3.876 -5.549,8.209 -7,13c-1.812,2.78 -3.979,5.28 -6.5,7.5c-5.758,1.253 -9.092,-1.081 -10,-7c15.58,-30.662 32.58,-60.496 51,-89.5Zm2,22c-5.529,9.888 -11.195,19.721 -17,29.5c11.317,-2.134 22.651,-1.968 34,0.5c1.021,-0.502 1.188,-1.168 0.5,-2c-5.399,-8.408 -10.399,-17.075 -15,-26c-0.708,-0.881 -1.542,-1.547 -2.5,-2Z" style="fill:#fff;"/><path d="M819,322.07c3.692,-0.529 6.858,0.471 9.5,3c0.667,30 0.667,60 0,90c-4.422,6.559 -8.755,6.559 -13,0c-0.667,-29.333 -0.667,-58.667 0,-88c0.997,-1.823 2.164,-3.49 3.5,-5Z" style="fill:#fff;"/><path d="M898,322.07c5.425,-0.429 9.258,1.904 11.5,7l41,72c1.92,3.338 3.42,6.838 4.5,10.5c-1.333,7.332 -5.333,9.332 -12,6c-9.37,-24.519 -27.037,-34.852 -53,-31c-8.167,2.505 -15,7.005 -20.5,13.5c-3.467,6.414 -7.301,12.58 -11.5,18.5c-8.262,1.365 -11.428,-2.135 -9.5,-10.5c16.259,-28.857 32.759,-57.524 49.5,-86Zm2,22c-5.055,9.773 -10.388,19.44 -16,29l1,1c5.046,-1.451 10.213,-2.118 15.5,-2c6.258,0.152 12.425,0.652 18.5,1.5c-5.626,-9.418 -11.126,-18.918 -16.5,-28.5c-0.671,-0.752 -1.504,-1.086 -2.5,-1Z" style="fill:#fff;"/><path d="M498,357.07c-3.008,6.109 -3.674,12.442 -2,19c2.946,15.116 11.946,24.616 27,28.5c9.358,1.061 18.025,-0.939 26,-6c5.034,-4.699 9.7,-9.699 14,-15c7.147,-0.175 9.98,3.325 8.5,10.5c-14.406,22.694 -34.573,30.194 -60.5,22.5c-14.45,-6.453 -23.95,-17.286 -28.5,-32.5c-5.207,-29.758 6.293,-49.925 34.5,-60.5c15.295,-2.742 29.295,0.258 42,9c3.536,3.201 6.703,6.701 9.5,10.5c1.591,9.628 -2.242,12.795 -11.5,9.5c-14.328,-17.45 -30.995,-20.117 -50,-8c-3.606,3.766 -6.606,7.933 -9,12.5Z" style="fill:#fff;"/><path d="M717,360.07c-1.506,2.856 -2.172,6.023 -2,9.5c0.004,2.361 0.337,4.527 1,6.5c2.946,15.116 11.946,24.616 27,28.5c9.358,1.061 18.025,-0.939 26,-6c5.034,-4.699 9.7,-9.699 14,-15c7.147,-0.175 9.98,3.325 8.5,10.5c-14.459,22.71 -34.625,30.21 -60.5,22.5c-22.806,-11.438 -32.639,-29.938 -29.5,-55.5c11.055,-32.778 33.222,-44.278 66.5,-34.5c9.929,3.934 17.262,10.601 22,20c-1.204,6.106 -4.871,8.439 -11,7c-9.882,-12.77 -22.882,-18.103 -39,-16c-11.484,3.651 -19.151,11.151 -23,22.5Z" style="fill:#fff;"/><path d="M498,357.07c-1.601,6.211 -2.268,12.544 -2,19c-1.674,-6.558 -1.008,-12.891 2,-19Z" style="fill:#fff;"/><path d="M717,360.07c-0.775,5.297 -1.108,10.63 -1,16c-0.663,-1.973 -0.996,-4.139 -1,-6.5c-0.172,-3.477 0.494,-6.644 2,-9.5Z" style="fill:#fff;"/><path d="M723,431.07c10.221,-0.373 20.221,0.293 30,2c-10.181,-0.231 -20.181,-0.897 -30,-2Z" style="fill:#fff;"/></svg>