<?xml version="1.0" encoding="UTF-8" standalone="no"?><!DOCTYPE svg PUBLIC "-//W3C//DTD SVG 1.1//EN" "http://www.w3.org/Graphics/SVG/1.1/DTD/svg11.dtd"><svg width="100%" height="100%" viewBox="0 0 407 146" version="1.1" xmlns="http://www.w3.org/2000/svg" xmlns:xlink="http://www.w3.org/1999/xlink" xml:space="preserve" xmlns:serif="http://www.serif.com/" style="fill-rule:evenodd;clip-rule:evenodd;stroke-linejoin:round;stroke-miterlimit:2;"><rect x="116" y="0" width="10" height="124" style="fill:#fff;fill-opacity:0.95;"/><rect x="16" y="1" width="10" height="133" style="fill:#fff;fill-opacity:0.95;"/><rect x="149" y="4" width="10" height="124" style="fill:#fff;fill-opacity:0.92;"/><rect x="66" y="9" width="10" height="101" style="fill:#fff;fill-opacity:0.94;"/><rect x="132" y="12" width="10" height="87" style="fill:#fff;fill-opacity:0.92;"/><rect x="0" y="15" width="10" height="109" style="fill:#fff;fill-opacity:0.92;"/><rect x="83" y="15" width="10" height="109" style="fill:#fff;fill-opacity:0.92;"/><rect x="33" y="17" width="10" height="97" style="fill:#fff;fill-opacity:0.92;"/><rect x="99" y="19" width="10" height="127" style="fill:#fff;fill-opacity:0.92;"/><path d="M370,24c17.623,-2.029 29.956,4.971 37,21c-4.375,1.959 -8.875,3.626 -13.5,5c-5.403,-9.481 -13.569,-12.981 -24.5,-10.5c-4.246,1.198 -7.413,3.698 -9.5,7.5c-1.575,13.953 -1.909,27.953 -1,42c1.654,9.306 7.321,13.973 17,14c8.275,-0.79 14.275,-4.79 18,-12c4.625,1.374 9.125,3.041 13.5,5c-7.587,16.796 -20.587,23.63 -39,20.5c-13.984,-2.983 -22.151,-11.483 -24.5,-25.5c-0.667,-13.667 -0.667,-27.333 0,-41c2.761,-14.928 11.594,-23.595 26.5,-26Z" style="fill:#fff;fill-opacity:0.93;"/><path d="M181,26c14.67,-0.167 29.337,0 44,0.5c9.03,2.876 14.197,9.043 15.5,18.5c1.447,7.656 0.28,14.822 -3.5,21.5c5.629,6.053 7.962,13.22 7,21.5c1.463,12.247 -3.203,21.08 -14,26.5c-16.276,1.44 -32.61,1.94 -49,1.5l0,-90Zm15,14c8.417,-0.406 16.751,0.094 25,1.5c3.634,2.028 5.3,5.194 5,9.5c0.3,4.306 -1.366,7.472 -5,9.5c-8.327,0.5 -16.66,0.666 -25,0.5l0,-21Zm0,36c9.006,-0.166 18.006,0 27,0.5c4.631,2.588 6.964,6.588 7,12c-0.036,5.412 -2.369,9.412 -7,12c-8.994,0.5 -17.994,0.666 -27,0.5l0,-25Z" style="fill:#fff;fill-opacity:0.95;"/><path d="M254,26l53,0l0,15l-38,0l0,22l33,0l0,15l-33,0l0,23l38,0l0,15l-53,0l0,-90Z" style="fill:#fff;fill-opacity:0.94;"/><rect x="317" y="26" width="15" height="90" style="fill:#fff;fill-opacity:0.95;"/><rect x="49" y="32" width="10" height="111" style="fill:#fff;fill-opacity:0.92;"/></svg>