<?xml version="1.0" encoding="UTF-8" standalone="no"?><!DOCTYPE svg PUBLIC "-//W3C//DTD SVG 1.1//EN" "http://www.w3.org/Graphics/SVG/1.1/DTD/svg11.dtd"><svg width="100%" height="100%" viewBox="0 0 320 320" version="1.1" xmlns="http://www.w3.org/2000/svg" xmlns:xlink="http://www.w3.org/1999/xlink" xml:space="preserve" xmlns:serif="http://www.serif.com/" style="fill-rule:evenodd;clip-rule:evenodd;stroke-linejoin:round;stroke-miterlimit:2;"><path d="M226.84,58.27c35.6,20.706 65.266,38.022 65.751,38.506c0.484,0.484 -27.366,17.316 -61.997,37.416c-37.053,21.554 -64.297,38.143 -65.993,40.201c-5.206,6.176 -5.691,17.558 -0.968,24.097c1.21,1.695 4.601,4.238 7.628,5.812c9.324,4.964 11.14,4.238 57.759,-23.007c23.128,-13.319 42.623,-24.338 43.228,-24.338c2.301,-0 21.311,11.624 20.343,12.472c-0.485,0.484 -28.456,16.831 -62.118,36.326c-33.662,19.495 -62.602,36.81 -64.419,38.506c-4.238,3.996 -6.296,10.05 -5.449,16.831c0.727,6.539 3.754,10.898 10.051,14.651c9.202,5.449 11.14,4.723 58.848,-23.006l42.744,-24.944l5.449,3.148c3.027,1.695 7.75,4.601 10.656,6.297l5.206,3.269l-45.771,26.639c-25.186,14.652 -48.192,27.971 -51.22,29.424c-7.023,3.633 -20.1,4.481 -28.092,2.059c-7.992,-2.543 -122.177,-69.262 -129.442,-75.68c-3.391,-3.027 -7.266,-8.113 -9.203,-12.109c-3.027,-6.054 -3.39,-8.233 -3.39,-18.405c-0,-10.777 0.242,-11.987 4.238,-19.253c2.3,-4.238 6.417,-9.566 9.202,-11.987l5.207,-4.238l-5.933,-5.328c-3.391,-3.027 -7.387,-8.234 -9.324,-12.23c-3.027,-6.055 -3.39,-8.234 -3.39,-18.405c-0,-9.687 0.484,-12.472 2.906,-17.316c5.933,-12.109 9.323,-14.53 70.957,-50.372c32.572,-19.011 58.969,-33.663 59.938,-33.299c0.969,0.363 30.999,17.557 66.598,38.263Z" style="fill:#fff;"/></svg>