<?xml version="1.0" encoding="UTF-8" standalone="no"?><!DOCTYPE svg PUBLIC "-//W3C//DTD SVG 1.1//EN" "http://www.w3.org/Graphics/SVG/1.1/DTD/svg11.dtd"><svg width="100%" height="100%" viewBox="0 0 65 31" version="1.1" xmlns="http://www.w3.org/2000/svg" xmlns:xlink="http://www.w3.org/1999/xlink" xml:space="preserve" xmlns:serif="http://www.serif.com/" style="fill-rule:evenodd;clip-rule:evenodd;stroke-linejoin:round;stroke-miterlimit:2;"><g id="Layer1"><g><path d="M3.08,18.774l-2.717,0l-0,11.455l2.832,0c1.8,-0.001 2.731,-0.949 2.731,-2.716l-0,-0.933c-0,-1.212 -0.376,-2.079 -1.34,-2.455c0.801,-0.375 1.161,-1.128 1.161,-2.307l-0,-0.41c-0,-1.767 -0.801,-2.633 -2.667,-2.633l-0,-0.001Zm-0.115,6.299c0.819,0 1.163,0.328 1.163,1.392l-0,0.999c-0,0.852 -0.327,1.13 -0.933,1.13l-1.033,0l-0,-3.521l0.803,0Zm0.066,-4.664c0.639,0 0.917,0.361 0.917,1.179l-0,0.639c-0,0.917 -0.409,1.212 -1.081,1.212l-0.705,0l-0,-3.03l0.869,0Z" style="fill:#fff;fill-rule:nonzero;"/><rect x="7.287" y="18.775" width="1.798" height="11.454" style="fill:#fff;"/><path d="M13.39,18.774l-2.717,0l-0,11.455l2.832,0c1.8,-0.001 2.731,-0.949 2.731,-2.716l-0,-0.933c-0,-1.212 -0.376,-2.079 -1.34,-2.455c0.801,-0.375 1.161,-1.128 1.161,-2.307l-0,-0.41c-0,-1.767 -0.801,-2.633 -2.667,-2.633l-0,-0.001Zm-0.115,6.299c0.82,0 1.163,0.328 1.163,1.392l-0,0.999c-0,0.852 -0.327,1.13 -0.933,1.13l-1.032,0l-0,-3.521l0.802,0Zm0.066,-4.664c0.639,0 0.917,0.361 0.917,1.179l-0,0.639c-0,0.917 -0.409,1.212 -1.081,1.212l-0.704,0l-0,-3.03l0.868,0Z" style="fill:#fff;fill-rule:nonzero;"/><path d="M17.597,30.228l4.76,0l-0,-1.634l-2.962,0l-0,-9.819l-1.798,0l-0,11.453Z" style="fill:#fff;fill-rule:nonzero;"/><rect x="23.423" y="18.775" width="1.798" height="11.454" style="fill:#fff;"/><path d="M28.461,21.408c-0,-0.819 0.361,-1.13 0.934,-1.13c0.573,0 0.934,0.311 0.934,1.13l-0,6.187c-0,0.819 -0.361,1.13 -0.934,1.13c-0.573,0 -0.934,-0.311 -0.934,-1.13l-0,-6.187Zm-1.798,6.073c-0,1.832 0.965,2.878 2.732,2.878c1.768,0 2.732,-1.046 2.732,-2.878l-0,-5.959c-0,-1.832 -0.964,-2.878 -2.732,-2.878c-1.767,0 -2.732,1.046 -2.732,2.878l-0,5.959Z" style="fill:#fff;fill-rule:nonzero;"/><path d="M33.046,20.409l1.882,0l0,9.819l1.798,0l0,-9.819l1.882,0l0,-1.634l-5.562,0l-0,1.634Z" style="fill:#fff;fill-rule:nonzero;"/><path d="M41.472,20.409l3.109,0l-0,-1.634l-4.908,0l0,11.453l4.908,0l-0,-1.634l-3.109,0l-0,-3.357l2.471,0l-0,-1.634l-2.471,0l-0,-3.194Z" style="fill:#fff;fill-rule:nonzero;"/><path d="M49.492,25.959l-0,1.636c-0,0.819 -0.36,1.114 -0.933,1.114c-0.574,0 -0.934,-0.295 -0.934,-1.114l-0,-6.187c-0,-0.819 0.36,-1.13 0.934,-1.13c0.573,0 0.933,0.311 0.933,1.13l-0,1.228l1.7,0l-0,-1.114c-0,-1.832 -0.915,-2.878 -2.683,-2.878c-1.767,0 -2.682,1.046 -2.682,2.878l-0,5.959c-0,1.832 0.915,2.878 2.682,2.878c1.768,0 2.683,-1.046 2.683,-2.878l-0,-1.522l-1.7,0Z" style="fill:#fff;fill-rule:nonzero;"/><path d="M56.561,18.775l-2.634,0l-1.832,11.453l1.652,0l0.311,-2.078l2.208,0l0.311,2.078l1.816,0l-1.832,-11.453Zm-1.407,2.029l0.867,5.793l-1.734,0l0.867,-5.793Z" style="fill:#fff;fill-rule:nonzero;"/><path d="M59.278,21.523c-0,3.273 3.518,3.715 3.518,6.072c-0,0.818 -0.36,1.113 -0.933,1.113c-0.573,0.001 -0.933,-0.294 -0.933,-1.113l0,-0.818l-1.7,0l0,0.704c0,1.832 0.915,2.878 2.683,2.878c1.767,0 2.682,-1.046 2.682,-2.878c0,-3.274 -3.518,-3.716 -3.518,-6.073c0,-0.819 0.328,-1.13 0.901,-1.13c0.574,0 0.901,0.311 0.901,1.13l0,0.475l1.7,0l0,-0.361c0,-1.832 -0.899,-2.878 -2.65,-2.878c-1.751,0 -2.65,1.046 -2.65,2.878l-0.001,0.001Z" style="fill:#fff;fill-rule:nonzero;"/></g><g><g><path d="M5.032,10.042l-0,2.247c-0,1.124 -0.494,1.528 -1.282,1.528c-0.787,0 -1.282,-0.404 -1.282,-1.528l-0,-8.495c-0,-1.123 0.495,-1.55 1.282,-1.55c0.788,0 1.282,0.427 1.282,1.55l-0,1.686l2.334,0l-0,-1.528c-0,-2.516 -1.257,-3.952 -3.683,-3.952c-2.427,0 -3.683,1.436 -3.683,3.952l0,8.18c0,2.515 1.256,3.952 3.683,3.952c2.426,0 3.683,-1.437 3.683,-3.952l-0,-2.09l-2.334,0Z" style="fill:#fff;fill-rule:nonzero;"/><path d="M15.32,0.18l-3.616,0l-2.515,15.724l2.268,0l0.427,-2.853l3.032,0l0.427,2.853l2.493,0l-2.516,-15.724Zm-1.931,2.786l1.19,7.953l-2.381,0l1.191,-7.953Z" style="fill:#fff;fill-rule:nonzero;"/><path d="M23.679,0.178l-3.73,0l-0,15.727l3.887,0c2.471,-0.001 3.751,-1.303 3.751,-3.729l-0,-1.281c-0,-1.664 -0.517,-2.854 -1.841,-3.37c1.1,-0.516 1.594,-1.549 1.594,-3.168l-0,-0.562c-0,-2.426 -1.1,-3.615 -3.661,-3.615l-0,-0.002Zm-0.158,8.649c1.125,0 1.597,0.449 1.597,1.911l-0,1.371c-0,1.169 -0.45,1.551 -1.282,1.551l-1.417,0l-0,-4.833l1.102,0Zm0.09,-6.403c0.877,0 1.26,0.494 1.26,1.618l-0,0.877c-0,1.259 -0.563,1.664 -1.485,1.664l-0.967,0l-0,-4.159l1.192,0Z" style="fill:#fff;fill-rule:nonzero;"/><rect x="30.038" y="0.18" width="2.469" height="15.724" style="fill:#fff;"/><path d="M35.273,15.904l3.908,0c2.471,0 3.683,-1.369 3.683,-3.885l-0,-7.955c-0,-2.516 -1.212,-3.884 -3.683,-3.884l-3.908,0l-0,15.724Zm3.863,-13.48c0.787,0 1.26,0.404 1.26,1.528l-0,8.18c-0,1.123 -0.473,1.528 -1.26,1.528l-1.394,0l-0,-11.236l1.394,0Z" style="fill:#fff;fill-rule:nonzero;"/></g><g><rect x="48.592" y="0.38" width="3.202" height="12.251" style="fill:#fff;"/><rect x="48.592" y="14.232" width="16.367" height="1.852" style="fill:#fff;"/><rect x="53.27" y="0.38" width="3.202" height="12.251" style="fill:#fff;"/><path d="M60.733,0l-3.005,1.105l4.225,11.498l3.006,-1.104l-4.226,-11.499Z" style="fill:#fff;"/></g></g></g></svg>