<?xml version="1.0" encoding="UTF-8" standalone="no"?><!DOCTYPE svg PUBLIC "-//W3C//DTD SVG 1.1//EN" "http://www.w3.org/Graphics/SVG/1.1/DTD/svg11.dtd"><svg width="100%" height="100%" viewBox="0 0 320 320" version="1.1" xmlns="http://www.w3.org/2000/svg" xmlns:xlink="http://www.w3.org/1999/xlink" xml:space="preserve" xmlns:serif="http://www.serif.com/" style="fill-rule:evenodd;clip-rule:evenodd;stroke-linejoin:round;stroke-miterlimit:2;"><g><g><path d="M61.473,101.625l0,-79.119l90.635,70.848l0,-70.855l15.382,-0l-0,71.162l0.21,-0.165l0,0.008l90.827,-71.005l-0,79.126l38.97,-0l0,116.324l-38.97,0l-0,79.552l-91.037,-71.169l-0,70.288l-15.382,-0l0,-69.967l-90.625,70.841l-0,-79.545l-38.98,0l-0,-116.324l38.97,-0Zm76.679,14.957l-76.679,-0l0,-0.015l-23.589,-0l0,86.44l23.589,0l0,-26.485l76.679,-59.94Zm13.956,90.893l0,-82.615l-75.243,58.82l-0,82.615c-0,-0 70.872,-55.406 75.243,-58.82Zm91.037,10.474l-0.01,0l0,-34.269l-75.435,-58.97l0,82.601l75.445,58.976l-0,-48.338Zm15.382,-101.382l-0,0.015l-76.669,-0l76.669,59.94l-0,26.485l23.589,0l-0,-86.44l-23.589,-0Zm-15.382,-62.854l-61.287,47.912l61.287,-0l-0,-47.912Zm-166.29,47.912l61.297,-0c-0.995,-0.777 -40.501,-31.663 -61.297,-47.92l0,47.92Z" style="fill:#fff;"/></g></g></svg>