<?xml version="1.0" encoding="UTF-8" standalone="no"?>
<!DOCTYPE svg PUBLIC "-//W3C//DTD SVG 1.1//EN" "http://www.w3.org/Graphics/SVG/1.1/DTD/svg11.dtd">
<svg width="100%" height="100%" viewBox="0 0 2400 2400" version="1.1" xmlns="http://www.w3.org/2000/svg" xmlns:xlink="http://www.w3.org/1999/xlink" xml:space="preserve" xmlns:serif="http://www.serif.com/" style="fill-rule:evenodd;clip-rule:evenodd;stroke-linejoin:round;stroke-miterlimit:2;">
    <g transform="matrix(1,0,0,1,1.3145e-13,-300)">
        <g transform="matrix(83.4832,0,0,65.2028,25.3913,345.03)">
            <path d="M3.77,9.9L3.77,-0.69L13.245,8.793L13.245,-0.691L14.853,-0.691L14.853,8.834L14.875,8.812L14.875,8.813L24.37,-0.691L24.37,9.9L28.444,9.9L28.444,25.47L24.37,25.47L24.37,36.118L14.853,26.592L14.853,36L13.245,36L13.245,26.635L3.771,36.117L3.771,25.47L-0.304,25.47L-0.304,9.9L3.77,9.9ZM11.786,11.902L3.77,11.902L3.77,11.9L1.304,11.9L1.304,23.47L3.77,23.47L3.77,19.925L11.786,11.902ZM13.245,24.068L13.245,13.01L5.379,20.883C5.379,20.883 5.379,31.941 5.379,31.941C5.379,31.941 12.788,24.525 13.245,24.068ZM22.762,25.47L22.761,25.47L22.761,20.883L14.875,12.99L14.875,24.046L22.762,31.94L22.762,25.47ZM24.37,11.9L24.37,11.902L16.355,11.902L24.37,19.925L24.37,23.47C24.426,23.47 26.836,23.47 26.836,23.47L26.836,11.9L24.37,11.9ZM22.762,3.487L16.355,9.9L22.762,9.9L22.762,3.487ZM5.378,9.9L11.786,9.9C11.682,9.796 7.552,5.662 5.378,3.486L5.378,9.9Z" style="fill:rgb(32,128,141);"/>
        </g>
    </g>
</svg>
