<?xml version="1.0" encoding="UTF-8" standalone="no"?><!DOCTYPE svg PUBLIC "-//W3C//DTD SVG 1.1//EN" "http://www.w3.org/Graphics/SVG/1.1/DTD/svg11.dtd"><svg width="100%" height="100%" viewBox="0 0 84 60" version="1.1" xmlns="http://www.w3.org/2000/svg" xmlns:xlink="http://www.w3.org/1999/xlink" xml:space="preserve" xmlns:serif="http://www.serif.com/" style="fill-rule:evenodd;clip-rule:evenodd;stroke-linejoin:round;stroke-miterlimit:2;"><g id="S2_Logo_1_"><g><path d="M83.2,18.3c-2.9,1.8 -5,2.9 -7.4,4.3c-14.4,8.7 -28.3,18.4 -39,31.1l-5.2,6.3l-15.8,-25.2c3.5,2.8 12.4,10.7 16,12.5l11.6,-8.8c8.1,-5.7 31,-18.1 39.8,-20.2Z" style="fill:#f3d25e;"/></g><path d="M23.2,37.1c0.4,0.3 0.7,0.6 1.1,0.9c-3.1,-8.7 -8.6,-17.4 -16.4,-24.9l-7.9,0c10,7.2 17.8,15.6 23.2,24Z" style="fill:#638bc4;fill-rule:nonzero;"/><path d="M25.8,39.4c0.3,0.3 0.7,0.5 1,0.8c-0.5,-11.8 -4.9,-23.9 -13.3,-34.3l-7.5,0c10.7,9.9 17.3,21.9 19.8,33.5Z" style="fill:#305ca5;fill-rule:nonzero;"/><path d="M27.9,41.1c1.2,1 2.4,1.9 3.4,2.6c2.6,-12.7 0.4,-26.4 -6.5,-38.3c11.7,-0.2 23.4,-0.3 35,-0.5c2.6,5.8 4.1,12 4.5,18.4c1,-0.5 2,-1 3.1,-1.5c-0.5,-6.6 -2.3,-13.6 -5.8,-21.8l-47.9,0c10.4,12.3 15.1,27.2 14.2,41.1Z" style="fill:#273d72;fill-rule:nonzero;"/></g></svg>