<?xml version="1.0" encoding="UTF-8" standalone="no"?><!DOCTYPE svg PUBLIC "-//W3C//DTD SVG 1.1//EN" "http://www.w3.org/Graphics/SVG/1.1/DTD/svg11.dtd"><svg width="100%" height="100%" viewBox="0 0 320 320" version="1.1" xmlns="http://www.w3.org/2000/svg" xmlns:xlink="http://www.w3.org/1999/xlink" xml:space="preserve" xmlns:serif="http://www.serif.com/" style="fill-rule:evenodd;clip-rule:evenodd;stroke-linejoin:round;stroke-miterlimit:2;"><g id="S2_Logo_1_"><g><g><path d="M300,120.625c-9.76,6.058 -16.827,9.76 -24.904,14.471c-48.461,29.279 -95.24,61.923 -131.25,104.664l-17.5,21.202l-53.173,-84.808c11.779,9.423 41.731,36.009 53.846,42.067l39.039,-29.615c27.259,-19.183 104.327,-60.914 133.942,-67.981Z" style="fill:#fff;"/></g><path d="M98.077,183.894c1.346,1.01 2.356,2.019 3.702,3.029c-10.433,-29.279 -28.942,-58.558 -55.192,-83.798l-26.587,0c33.654,24.231 59.904,52.5 78.077,80.769Z" style="fill:#fff;fill-rule:nonzero;"/><path d="M106.827,191.635c1.01,1.009 2.356,1.682 3.365,2.692c-1.682,-39.712 -16.49,-80.433 -44.759,-115.433l-25.241,0c36.01,33.318 58.221,73.702 66.635,112.741Z" style="fill:#fff;fill-rule:nonzero;"/><path d="M113.894,197.356c4.039,3.365 8.077,6.394 11.443,8.75c8.75,-42.741 1.346,-88.846 -21.875,-128.894c39.375,-0.674 78.75,-1.01 117.788,-1.683c8.75,19.519 13.798,40.384 15.144,61.923c3.366,-1.683 6.731,-3.365 10.433,-5.048c-1.683,-22.212 -7.74,-45.769 -19.519,-73.366l-161.202,0c35,41.395 50.817,91.539 47.788,138.318Z" style="fill:#fff;fill-rule:nonzero;"/></g></g></svg>